<svg width="30" height="30" fill="none" xmlns="http://www.w3.org/2000/svg"><rect width="30" height="30" rx="15" fill="#461A57"/><g clip-path="url('#clip0_3378_14370')"><path d="M9.545 17.781a.565.565 0 0 1 0-.806.569.569 0 0 1 .798 0l4.088 4.088V7.573a.568.568 0 1 1 1.137 0v13.49l4.08-4.088a.579.579 0 0 1 .807 0 .565.565 0 0 1 0 .806l-5.056 5.056a.569.569 0 0 1-.798 0l-5.056-5.056Z" fill="#fff"/></g><defs><clipPath id="clip0_3378_14370"><path fill="#fff" transform="rotate(-90 15 8)" d="M0 0h16v16H0z"/></clipPath></defs></svg>