<svg width="10" height="12" fill="none" xmlns="http://www.w3.org/2000/svg"><path d="M4.376 11.824a.607.607 0 0 0 .044.04l.021.016.026.02.026.015.024.014c.01.005.018.01.028.013l.025.012.027.01.029.01.027.007.03.008.032.004.026.004c.04.004.079.004.118 0 .01 0 .018-.002.027-.004.01-.001.02-.002.031-.005l.03-.007.027-.007.029-.01.027-.01.026-.012.027-.013.024-.014.026-.016c.01-.006.017-.012.026-.019l.021-.016a.606.606 0 0 0 .044-.04l4.2-4.2a.6.6 0 0 0-.848-.848L5.4 9.952V.6a.6.6 0 1 0-1.2 0v9.352L1.024 6.776a.6.6 0 0 0-.848.848l4.2 4.2Z" fill="#444"/></svg>