<svg id="svg" version="1.1" xmlns="http://www.w3.org/2000/svg" width="400" height="400"><g id="svgg" stroke="none" fill-rule="evenodd"><path id="path0" d="M40 .6c0 .433-.473.611-1.7.64-2.472.058-3.65.473-4.08 1.44-.273.61-.886.929-2.152 1.119-2.469.37-2.763.528-3.04 1.63-.189.756-.507.971-1.436.971-.746 0-1.192.206-1.192.551 0 .825-1.121 1.601-2.959 2.049-1.186.289-1.674.628-1.759 1.222-.075.529-.57.957-1.387 1.2-.871.259-1.342.693-1.498 1.378-.164.717-.535 1.036-1.313 1.127-.904.105-1.084.321-1.084 1.3 0 1.031-.142 1.173-1.173 1.173-.979 0-1.195.18-1.3 1.084-.091.778-.41 1.149-1.127 1.313-.689.157-1.119.628-1.383 1.515-.242.817-.64 1.288-1.086 1.288-.949 0-1.531 1.207-1.531 3.174 0 1.54-.063 1.626-1.2 1.626-1.062 0-1.2.136-1.2 1.178 0 .891-.268 1.306-1.1 1.704-.893.427-1.165.905-1.444 2.546-.249 1.467-.574 2.123-1.187 2.396-1.018.454-1.376 1.627-1.429 4.676-.031 1.76-.181 2.3-.64 2.3-.53 0-.6 6.089-.6 52.4S.07 146 .6 146c.504 0 .6.879.602 5.5.003 5.917.414 8.266 1.553 8.876.611.327.758 1.13.967 5.282.244 4.86.255 4.904 1.462 5.848 1.206.944 1.216.984 1.216 4.843 0 4.013.29 4.851 1.68 4.851.64 0 .72.399.72 3.574 0 4.007.434 5.605 1.605 5.911.677.177.795.549.795 2.502 0 2.81.615 4.7 1.633 5.024.503.159.769.612.771 1.316.01 2.422.554 4.169 1.632 5.248.958.957 1.141 1.498 1.244 3.674.115 2.451.163 2.556 1.22 2.678 1.051.12 1.1.224 1.1 2.319 0 2.312.756 4.298 1.785 4.693.41.157.615.764.615 1.822 0 2.193.616 3.639 1.551 3.639.643 0 .816.392 1.046 2.376.256 2.201.361 2.395 1.42 2.628 1.077.236 1.152.387 1.264 2.524.112 2.147.179 2.279 1.219 2.399 1.073.123 1.1.19 1.1 2.7v2.573h-1.2c-1.067 0-1.2.133-1.2 1.2 0 1.053-.14 1.2-1.142 1.2-.943 0-1.207.224-1.511 1.284-.253.883-.678 1.357-1.358 1.516-.697.163-1.026.545-1.113 1.292-.096.814-.374 1.088-1.2 1.184-.838.097-1.104.367-1.203 1.224-.083.728-.36 1.1-.82 1.1-1.08 0-1.653.83-1.653 2.394 0 1.173-.221 1.564-1.216 2.152-.758.448-1.305 1.159-1.45 1.886-.176.877-.459 1.168-1.137 1.168-1.007 0-1.383.883-1.392 3.273-.004 1.309-.128 1.488-1.105 1.6-.995.115-1.112.298-1.228 1.926-.13 1.828-.959 3.201-1.934 3.201-.39 0-.538.648-.538 2.35 0 2.272-.038 2.358-1.159 2.582-1.08.216-1.177.392-1.433 2.601-.224 1.931-.444 2.446-1.185 2.784-1.116.508-1.423 1.875-1.423 6.333 0 2.711-.114 3.35-.6 3.35-.528 0-.6 3.733-.6 31.2s.072 31.2.6 31.2c.459 0 .609.54.64 2.3.053 3.062.412 4.222 1.447 4.684.651.29.927.875 1.132 2.4.307 2.287.749 3.016 1.83 3.016.622 0 .751.305.751 1.771 0 1.795.735 3.029 1.803 3.029.324 0 .597.529.672 1.3.103 1.067.314 1.322 1.176 1.422.938.109 1.081.34 1.32 2.142.234 1.763.418 2.077 1.448 2.466.9.339 1.181.699 1.181 1.508 0 .854.229 1.108 1.172 1.296.914.183 1.2.48 1.3 1.35.1.874.361 1.143 1.204 1.24.831.096 1.104.369 1.2 1.2.096.832.368 1.104 1.2 1.2.831.096 1.104.369 1.2 1.2.103.89.349 1.098 1.424 1.201 1.129.109 1.3.274 1.3 1.25 0 .913.212 1.167 1.124 1.35.68.136 1.306.624 1.585 1.234.371.815.843 1.06 2.453 1.274 1.775.235 2.008.38 2.116 1.316.1.862.355 1.073 1.422 1.176.967.094 1.3.321 1.3.886 0 1.003 1.17 1.589 3.174 1.589 1.324 0 1.626.139 1.626.751 0 1.094.765 1.564 3.033 1.865 1.51.2 2.107.478 2.39 1.112.455 1.021 1.626 1.379 4.677 1.432 1.76.031 2.3.181 2.3.64 0 .528 3.378.6 28 .6s28-.072 28-.6c0-.439.456-.6 1.7-.601 1.705-.002 4.3-1.205 4.3-1.993 0-.223.437-.406.971-.406 1.167 0 2.229-.967 2.229-2.029 0-.611.284-.771 1.367-.771 1.894 0 2.635-.353 3.054-1.455.197-.52.688-.945 1.089-.945.912 0 1.69-.75 1.69-1.63 0-.417.432-.756 1.146-.899.881-.176 1.202-.511 1.39-1.45.192-.962.452-1.221 1.222-1.221.759 0 1.037-.266 1.238-1.182.149-.678.598-1.289 1.055-1.434.904-.287 1.549-1.696 1.549-3.383 0-.955.185-1.169 1.1-1.274.926-.107 1.12-.34 1.229-1.477.084-.88.606-1.84 1.5-2.761 1.214-1.25 1.371-1.656 1.371-3.55 0-1.587.147-2.139.571-2.139 1.362 0 1.829-1.179 1.829-4.61 0-3.06.089-3.443 1.018-4.372 1.539-1.538 3.718-1.44 4.042.182.21 1.049.41 1.2 1.59 1.2.88 0 1.35.192 1.35.551 0 .854.954 1.449 2.841 1.771 1.394.238 1.771.486 1.958 1.286.199.853.551 1.043 2.516 1.357 1.8.287 2.285.517 2.285 1.086 0 .952 1.189 1.549 3.086 1.549 1.342 0 1.596.153 1.992 1.2.427 1.134.574 1.2 2.661 1.2 2.111 0 2.213.048 2.334 1.1.12 1.04.252 1.107 2.399 1.219 2.147.113 2.287.184 2.529 1.283.237 1.082.421 1.183 2.596 1.429 2.01.228 2.373.397 2.574 1.198.202.801.564.969 2.589 1.198 1.908.216 2.432.437 2.763 1.163.455.999 1.891 1.41 4.927 1.41 1.611 0 1.95.125 1.95.72 0 1.231.874 1.68 3.266 1.68 1.843 0 2.386.15 2.706.748.588 1.099 2.892 2.052 4.961 2.052 1.435 0 1.864.16 2.056.767.319 1.003 2.205 1.633 4.89 1.633 1.86 0 2.291.153 3.105 1.1.895 1.041 1.159 1.107 4.906 1.235 3.959.135 3.961.136 4.401 1.3l.44 1.165h8.011l.982 1.255.983 1.256 4.814.198c4.189.172 4.838.291 5.001.913.296 1.133 2.805 1.573 8.978 1.576 4.799.002 5.7.097 5.7.602 0 .53 6.089.6 52.4.6s52.4-.07 52.4-.6c0-.459.54-.609 2.3-.64 3.036-.053 4.222-.411 4.668-1.411.263-.589.95-.929 2.4-1.187 1.645-.293 2.131-.571 2.554-1.462.395-.833.808-1.1 1.7-1.1 1.042 0 1.178-.138 1.178-1.2 0-1.1.114-1.2 1.374-1.2 1.948 0 3.426-.65 3.426-1.507 0-.476.45-.86 1.3-1.11.879-.259 1.34-.666 1.424-1.257.085-.595.499-.955 1.3-1.131.974-.214 1.176-.459 1.176-1.427 0-1.024.144-1.168 1.168-1.168.968 0 1.213-.202 1.427-1.176.176-.801.536-1.215 1.131-1.3.591-.084.998-.545 1.257-1.424.25-.85.634-1.3 1.11-1.3.857 0 1.507-1.478 1.507-3.426 0-1.26.1-1.374 1.2-1.374 1.062 0 1.2-.136 1.2-1.178 0-.892.267-1.305 1.1-1.7.891-.423 1.169-.909 1.462-2.554.258-1.45.598-2.137 1.187-2.4 1-.446 1.358-1.632 1.411-4.668.031-1.76.181-2.3.64-2.3.526 0 .6-2.622.6-21.2s-.074-21.2-.6-21.2c-.474 0-.601-.569-.605-2.7-.008-3.536-.288-4.458-1.443-4.748-.716-.179-.952-.513-.952-1.345 0-2.656-.435-3.607-1.65-3.607-1.104 0-1.15-.075-1.156-1.9-.007-2.18-.249-2.685-1.469-3.065-.565-.176-.92-.657-1-1.354-.098-.844-.366-1.109-1.225-1.208-.913-.105-1.1-.32-1.1-1.268 0-.933-.211-1.188-1.154-1.395-.84-.184-1.214-.548-1.373-1.332-.124-.611-.62-1.251-1.146-1.478-.51-.22-1.105-.805-1.322-1.3-.272-.621-.737-.9-1.5-.9-.961 0-1.105-.156-1.105-1.2 0-1.059-.137-1.2-1.168-1.2-.973 0-1.213-.201-1.432-1.2-.208-.946-.477-1.2-1.271-1.2-1.467 0-3.618-1.132-3.852-2.027-.168-.643-.563-.773-2.352-.773-2.021 0-2.177-.072-2.603-1.2-.429-1.139-.568-1.2-2.718-1.2-1.984 0-2.415-.149-3.466-1.2-1.127-1.127-1.388-1.2-4.307-1.2-3.088 0-4.431-.569-4.431-1.877 0-.424-2.699-.923-4.99-.923-.915 0-1.581-.34-2.347-1.2-.938-1.052-1.334-1.2-3.224-1.2-1.842 0-2.341-.174-3.439-1.2-1.145-1.069-1.558-1.2-3.796-1.2-2.169 0-2.539-.108-2.719-.795-.279-1.07-1.849-1.605-4.711-1.605-1.629 0-2.376-.157-2.38-.5-.015-1.246-.851-1.674-4.067-2.085-2.924-.375-3.342-.529-3.449-1.275-.134-.932-1.38-1.331-4.228-1.353-1.747-.013-2.731-.538-3.162-1.687-.21-.56-.745-.7-2.675-.7-1.836 0-2.413-.138-2.413-.577 0-1.136-1.68-1.823-4.457-1.823-2.626 0-2.684-.023-2.932-1.151-.236-1.071-.42-1.169-2.676-1.425-1.896-.214-2.466-.437-2.619-1.024-.244-.931-2.08-1.6-4.394-1.6-1.535 0-1.846-.152-2.441-1.197-.631-1.109-.849-1.198-2.954-1.2-2.182-.003-2.279-.047-2.4-1.103-.12-1.037-.264-1.111-2.527-1.3-2.241-.187-2.408-.27-2.523-1.263-.114-.982-.307-1.085-2.5-1.34-1.955-.227-2.377-.408-2.377-1.022 0-.984-1.176-1.575-3.135-1.575-1.403 0-1.635-.139-2.005-1.2-.402-1.152-.373-1.2.734-1.2.823 0 1.395-.342 2.006-1.2.703-.988 1.135-1.2 2.44-1.2 2.07 0 4.216-.917 4.541-1.94.175-.551.669-.852 1.538-.936 1.063-.103 1.303-.311 1.408-1.224.108-.942.309-1.101 1.4-1.105 2.067-.009 3.067-.432 3.31-1.399.151-.602.623-.988 1.395-1.142.848-.17 1.168-.465 1.168-1.079 0-.576.391-.992 1.23-1.309.84-.317 1.298-.805 1.445-1.543.16-.798.49-1.11 1.271-1.201.81-.094 1.083-.372 1.179-1.203.08-.697.435-1.178 1-1.354 1.199-.374 1.462-.886 1.469-2.865.005-1.41.137-1.7.777-1.7 1.062 0 2.029-1.062 2.029-2.229 0-.534.183-.971.406-.971.878 0 1.991-2.604 1.993-4.661.001-1.93.077-2.087 1.201-2.479l1.2-.418v-3.594c0-3.276.073-3.617.823-3.855 1.453-.461 1.577-1.873 1.577-17.944V164.55l-1.2-.887-1.2-.887-.006-5.088c-.007-5.387-.125-5.908-1.394-6.145-.593-.111-.826-.51-.9-1.546-.346-4.845-.537-5.591-1.493-5.831-.807-.203-.975-.565-1.213-2.619-.258-2.224-.355-2.399-1.435-2.615-1.08-.216-1.159-.359-1.159-2.102 0-1.97-.503-2.83-1.655-2.83-.491 0-.731-.38-.82-1.3-.103-1.067-.314-1.322-1.176-1.422-.936-.108-1.081-.341-1.316-2.116-.214-1.61-.459-2.082-1.274-2.453-.61-.279-1.098-.905-1.234-1.585-.183-.912-.437-1.124-1.35-1.124-.976 0-1.141-.171-1.25-1.3-.103-1.075-.311-1.321-1.201-1.424-.831-.096-1.104-.369-1.2-1.2-.096-.832-.368-1.104-1.2-1.2-.831-.096-1.104-.369-1.2-1.2-.097-.843-.366-1.104-1.24-1.204-.87-.1-1.167-.386-1.35-1.3-.194-.97-.432-1.172-1.384-1.172-.872 0-1.15-.188-1.15-.776 0-.939-.502-1.294-2.599-1.842-1.113-.29-1.76-.747-2.123-1.5-.392-.813-.815-1.082-1.7-1.082-.868 0-1.178-.19-1.178-.72 0-1.177-.847-1.68-2.83-1.68-1.738 0-1.886-.081-2.099-1.146-.214-1.067-.394-1.165-2.611-1.415-2.07-.235-2.412-.394-2.621-1.226-.246-.979-.963-1.165-5.836-1.513-1.036-.074-1.435-.307-1.546-.9-.237-1.269-.758-1.387-6.145-1.394l-5.088-.006-.887-1.2-.887-1.2-15.825.005c-17.176.006-17.519.034-17.873 1.443l-.239.952H187.206l-1.069 1.2c-.983 1.103-1.282 1.2-3.703 1.202-3.344.003-5.485.585-5.74 1.559-.152.583-.726.811-2.594 1.027-2.022.235-2.535.462-3.261 1.445-.697.943-1.163 1.167-2.425 1.167-2.098 0-3.646.637-3.899 1.605-.155.592-.547.795-1.54.795-1.058 0-1.44.226-1.858 1.1-.409.853-.886 1.148-2.122 1.314-1.987.267-2.595.632-2.595 1.56 0 .482-.392.804-1.168.96-.727.145-1.438.692-1.886 1.45-.96 1.624-2.146 1.633-2.146.016 0-1.062-.135-1.2-1.181-1.2-1.169 0-1.182-.025-1.3-2.5-.114-2.396-.165-2.505-1.219-2.627-1.033-.118-1.1-.245-1.1-2.086 0-2.272-.991-4.639-2.059-4.918-.606-.159-.741-.588-.741-2.352 0-2.252-.466-3.117-1.68-3.117-.607 0-.72-.349-.72-2.235 0-2.115-.064-2.259-1.2-2.687-1.126-.425-1.202-.59-1.24-2.666-.054-2.993-.42-4.138-1.473-4.607-.685-.305-.887-.732-.887-1.874 0-2.317-.616-3.531-1.79-3.531-1.009 0-1.01-.005-1.01-3.774 0-4.324-.41-5.826-1.59-5.826-.747 0-.81-.255-.816-3.3-.007-3.61-.156-4.055-1.494-4.473-.851-.266-.9-.49-.905-4.154-.007-4.7-.205-5.539-1.38-5.834-.858-.215-.92-.466-1.096-4.412-.192-4.32-.589-5.427-1.949-5.427-.618 0-.75-.388-.851-2.5-.114-2.396-.165-2.505-1.219-2.627-1.063-.122-1.1-.207-1.1-2.51 0-2.328-.028-2.389-1.2-2.623-1.067-.213-1.201-.401-1.205-1.69-.01-2.408-.383-3.25-1.442-3.25-.749 0-.953-.213-.953-.996 0-.699-.417-1.267-1.395-1.9-1.192-.772-1.396-1.128-1.4-2.439-.004-1.33-.162-1.594-1.186-1.98-.819-.309-1.218-.759-1.3-1.466-.089-.765-.381-1.049-1.173-1.141-.799-.093-1.111-.401-1.285-1.272-.178-.891-.481-1.179-1.345-1.278-.873-.1-1.143-.362-1.24-1.201-.092-.797-.405-1.136-1.21-1.313-.598-.131-1.262-.638-1.476-1.126-.261-.595-.936-1.009-2.043-1.255-1.169-.26-1.85-.699-2.323-1.5-.494-.836-.978-1.133-1.847-1.133-.885 0-1.177-.186-1.177-.751 0-1.063-.725-1.533-2.853-1.85-1.382-.206-1.959-.506-2.266-1.181-.44-.967-1.882-1.418-4.531-1.418-1.111 0-1.55-.17-1.55-.6 0-.526-2.756-.6-22.4-.6S40 .074 40 .6m28.2 24.155c2.648.205 4.609.59 5.8 1.138.99.456 2.542 1.027 3.448 1.269.906.242 2.076.762 2.6 1.155s1.433.922 2.02 1.176c2.165.934 10.317 8.94 11.149 10.949.264.637.645 1.158.846 1.158.201 0 .721.829 1.155 1.841.434 1.013 1.13 2.275 1.547 2.805.416.53.98 1.906 1.252 3.059.272 1.152.807 2.545 1.189 3.095.381.55.919 2.35 1.193 4 .275 1.65.906 4.35 1.403 6 .497 1.65 1.12 4.163 1.384 5.584.264 1.421.746 3.098 1.072 3.727.325.629.844 2.464 1.152 4.077.309 1.613.913 3.625 1.343 4.472.431.847.998 2.613 1.261 3.924.262 1.311.728 2.765 1.033 3.232.305.466.895 2.093 1.31 3.616.415 1.522 1.135 3.524 1.599 4.449.464.924.846 2.004.849 2.4.003.395.527 1.749 1.166 3.007.638 1.259 1.285 2.879 1.437 3.6.152.722.776 2.212 1.387 3.312.61 1.1 1.226 2.657 1.368 3.46.142.803.514 1.672.827 1.932.313.26.783 1.133 1.044 1.94.261.807 1.171 2.928 2.021 4.713.85 1.784 1.545 3.421 1.545 3.638 0 .216.342.703.76 1.081.419.379.869 1.262 1 1.962.132.701.682 1.788 1.223 2.416.541.629 1.193 1.799 1.449 2.6.257.802.775 1.818 1.153 2.258.377.44.933 1.43 1.236 2.2.302.77.961 2.01 1.464 2.756s.915 1.605.915 1.909c0 .305.63 1.47 1.4 2.59.77 1.119 1.4 2.271 1.4 2.559 0 .289.452 1.062 1.005 1.72.553.657 1.263 1.81 1.577 2.562.315.752.852 1.6 1.195 1.885.343.284.623.738.623 1.008s.525 1.216 1.167 2.101c.641.886 1.536 2.308 1.987 3.16.452.853 1.371 2.18 2.041 2.95l1.219 1.4 1.222-1.4c.672-.77 1.506-1.939 1.854-2.597.347-.659 1.639-2.435 2.871-3.947 1.231-1.512 2.509-3.133 2.839-3.603.869-1.236 7.568-7.844 9.381-9.253 4.389-3.412 6.041-4.602 6.411-4.616.224-.009 1.031-.549 1.793-1.2.762-.651 1.578-1.184 1.813-1.184.236 0 1.407-.63 2.602-1.4 1.195-.77 2.452-1.4 2.794-1.4.341 0 1.247-.419 2.013-.931.766-.512 2.293-1.174 3.393-1.47 1.1-.296 2.38-.782 2.845-1.079.465-.297 2.085-.799 3.6-1.115a62.812 62.812 0 0 0 5.355-1.414c6.324-2.043 37.951-2.012 40.609.04.225.174 1.845.701 3.6 1.171 1.755.471 3.461 1.082 3.791 1.359.33.277 1.441.813 2.468 1.192 1.028.379 2.094.96 2.369 1.291.274.331 1.137.869 1.917 1.195.78.325 1.514.734 1.632.907.118.173.922.79 1.787 1.371C258.98 136.939 268 146.789 268 148.306c0 .238.417.941.927 1.563s1.168 1.761 1.462 2.531c.294.77.849 1.94 1.233 2.6.384.66.99 2.37 1.348 3.8.358 1.43.902 3.14 1.209 3.8 2.218 4.763 1.939 29.509-.384 34.135-.547 1.09-.995 2.201-.995 2.469 0 .575-2.435 4.028-4.178 5.925-3.64 3.96-10.219 7.329-14.825 7.59-4.451.252-4.129 1.676-4.273-18.839-.107-15.037-.209-17.563-.724-17.889-1.133-.715-39.869-.494-42.413.242a365.18 365.18 0 0 1-5.187 1.443c-1.65.446-3.273 1.051-3.607 1.345-.334.294-1.324.86-2.2 1.257-3.356 1.523-12.593 9.559-12.593 10.957 0 .167-.417.812-.927 1.434-.51.622-1.171 1.761-1.47 2.531-.298.77-.869 1.874-1.267 2.454-.876 1.274-1.696 4.855-1.39 6.068.364 1.44 12.367 13.904 20.254 21.034 2.09 1.889 4.43 4.043 5.2 4.787a35.28 35.28 0 0 0 2.8 2.397c.77.575 1.804 1.408 2.298 1.852 2.331 2.098 3.684 3.193 9.036 7.318 1.064.819 2.377 1.895 2.918 2.39.541.495 1.158.9 1.37.9.212 0 .969.559 1.682 1.241.713.683 1.926 1.564 2.696 1.958.77.394 1.743 1.095 2.162 1.558.419.464 1.003.843 1.297.843.294 0 .759.36 1.034.8.275.44.712.8.973.8.26 0 1.311.64 2.336 1.422 1.025.783 2.254 1.577 2.731 1.766.477.189 1.227.629 1.667.979 1.612 1.281 6.376 4.233 6.832 4.233.259 0 .706.284.994.631.288.347 1.414 1.082 2.502 1.634 1.087.551 2.179 1.174 2.425 1.384.526.45 3.169 1.875 6.217 3.351 1.193.579 2.596 1.387 3.118 1.798.522.411 1.457.858 2.077.994.62.136 1.503.598 1.963 1.026.459.429 1.699 1.072 2.754 1.43 1.055.358 2.346.988 2.87 1.4.524.412 1.621.929 2.437 1.149.817.22 1.902.761 2.411 1.203.509.442 1.663.993 2.563 1.226.9.233 2.087.744 2.637 1.135.55.392 1.72.947 2.6 1.233.88.286 2.41.931 3.4 1.433.99.503 2.61 1.141 3.6 1.419.99.278 2.223.827 2.741 1.219.517.393 1.597.834 2.4.981.802.147 2.28.693 3.283 1.213 1.003.52 2.887 1.222 4.188 1.561 1.301.339 2.64.855 2.976 1.148.337.293 1.602.752 2.812 1.022 1.21.269 3.1.896 4.2 1.394 1.1.497 3.069 1.13 4.375 1.405 1.306.276 3.016.833 3.8 1.237.784.405 2.531.912 3.883 1.126 1.353.215 3.305.775 4.338 1.246s2.829 1.011 3.989 1.2c2.674.435 5.497 1.186 6.015 1.6.22.176 2.2.621 4.4.99 2.2.368 4.379.914 4.842 1.212.462.298 1.542.673 2.4.834 2.415.452 5.393 1.985 9.6 4.942 5.72 4.02 11.521 11.768 13.344 17.824.265.88.801 2.32 1.191 3.2 1.507 3.398 1.31 16.288-.302 19.844-.438.966-1.003 2.476-1.254 3.356-.458 1.601-2.502 5.454-4.466 8.421-3.507 5.295-12.316 11.949-18.063 13.644-1.15.339-2.295.782-2.543.984-1.487 1.212-63.276 1.556-71.949.401l-7.4-.986c-2.53-.337-6.49-.813-8.8-1.057-2.31-.245-5.01-.691-6-.992-.99-.301-3.33-.75-5.2-.998s-4.48-.731-5.8-1.074c-1.32-.343-4.29-1.031-6.6-1.53-2.31-.498-4.721-1.115-5.357-1.371-.636-.256-2.717-.813-4.623-1.238-1.906-.424-3.996-1.048-4.643-1.386-.647-.337-1.807-.72-2.577-.849-1.685-.283-5.243-1.363-5.8-1.76-.22-.157-1.3-.523-2.4-.813-1.1-.291-2.9-.925-4-1.41-1.1-.485-2.537-1.009-3.194-1.165-1.507-.358-7.414-2.787-9.865-4.058-1.022-.53-2.112-.963-2.421-.963-.31 0-1.453-.431-2.541-.957a579.107 579.107 0 0 0-5.979-2.816c-2.2-1.023-4.27-2.022-4.6-2.221-.33-.199-2.4-1.282-4.6-2.406-2.2-1.125-5.26-2.753-6.8-3.618a252.526 252.526 0 0 0-5.071-2.769c-1.249-.657-2.385-1.38-2.524-1.605-.139-.226-1.053-.774-2.029-1.219-.977-.445-1.776-.964-1.776-1.153 0-.19-.675-.665-1.5-1.056-1.456-.69-6.096-3.691-6.5-4.203-.11-.139-.681-.506-1.268-.815-2.102-1.105-13.437-9.349-16.332-11.878-.55-.48-2.17-1.791-3.6-2.912a163.122 163.122 0 0 1-8.023-6.772l-3.989-3.6c-3.721-3.356-11.096-10.693-16.237-16.154-3.925-4.169-4.091-4.293-5.419-4.044-2.108.395-6.671 4.441-9.245 8.198-.679.99-1.356 1.89-1.504 2-.148.11-.662 1.093-1.141 2.185-.48 1.092-1.115 2.262-1.411 2.6-.296.338-.837 1.695-1.204 3.015-.366 1.32-.972 3.12-1.346 4-.841 1.976-1.292 43.549-.481 44.36.302.303 5.886.476 17.906.556 20.253.135 18.894-.152 18.894 3.992 0 4.036-2.439 9.216-6.554 13.922-1.966 2.247-5.934 5.052-8.146 5.756-.935.298-1.7.671-1.7.829 0 1.924-29.839 2.101-33.594.199-.553-.28-2.148-.795-3.544-1.145-1.396-.349-3.161-1.002-3.923-1.452-.761-.449-1.599-.82-1.862-.824-.422-.006-5.838-3.06-6.877-3.878-.221-.173-1.121-.851-2-1.505-1.65-1.228-2.127-1.648-5.068-4.473-2.774-2.663-7.532-8.679-7.532-9.523 0-.269-.45-1.013-1-1.652-.549-.639-.999-1.303-1-1.475 0-.172-.63-1.611-1.4-3.198-.77-1.588-1.4-3.17-1.4-3.518 0-.347-.449-1.916-.998-3.487-2.194-6.279-2.313-33.935-.175-40.531.455-1.404 1.005-3.633 1.222-4.953.217-1.32.814-3.3 1.327-4.4.514-1.1 1.068-2.63 1.232-3.4.165-.77.725-2.027 1.246-2.793.52-.766.946-1.686.946-2.044 0-.358.417-1.266.927-2.018.51-.751 1.353-2.218 1.873-3.26.52-1.041 1.273-2.189 1.673-2.551.4-.362.727-.859.727-1.104 0-.405 1.225-2.12 4.6-6.442 4.576-5.86 14.179-13.949 20.468-17.241 2.886-1.51 3.171-2.961 1.157-5.885-.784-1.138-1.425-2.279-1.425-2.535 0-.256-.417-.974-.927-1.596-.51-.622-1.169-1.761-1.466-2.531-.296-.77-.761-1.67-1.034-2-.272-.33-1.5-2.559-2.729-4.954-1.229-2.394-2.392-4.554-2.583-4.8-.192-.245-.683-1.346-1.092-2.446-.408-1.1-1.064-2.349-1.456-2.775-.392-.427-.713-1.035-.713-1.351 0-.316-.562-1.677-1.248-3.025-.687-1.347-1.504-3.304-1.816-4.349-.312-1.045-.712-1.9-.888-1.9-.177 0-.653-1.125-1.057-2.5-.405-1.375-1.063-2.976-1.461-3.558-.399-.583-1.016-2.194-1.372-3.581-.355-1.388-.899-2.909-1.208-3.381-.309-.472-.837-1.92-1.173-3.219-.336-1.299-.961-3.087-1.388-3.975-.427-.888-.96-2.58-1.184-3.761-.224-1.181-.689-2.705-1.033-3.386-.345-.682-.952-2.78-1.349-4.663-.398-1.883-1.013-3.984-1.368-4.669-.354-.685-.923-3.014-1.265-5.176-.341-2.162-.905-4.542-1.251-5.288-.347-.746-.792-2.636-.988-4.2-.408-3.236-.859-5.709-1.724-9.443-.331-1.43-.788-4.67-1.015-7.2-.226-2.53-.592-5.59-.812-6.8-1-5.491-1.186-7.714-1.578-18.8-.932-26.309-.426-58.851.956-61.578.285-.562.92-2.166 1.411-3.565.492-1.399 1.325-3.179 1.852-3.956.528-.777.959-1.577.959-1.778C30 41.101 41.075 30 42.692 30c.184 0 1.313-.63 2.508-1.4 1.195-.77 2.489-1.4 2.875-1.4.386 0 1.742-.482 3.013-1.071 3.324-1.539 9.049-1.999 17.112-1.374" fill="#070504"/><path id="path1" d="M213.167 126.561c-.25.24-6.634 1.027-13.075 1.612-3.904.354-5.928.709-6.4 1.122-.808.705-2.761 1.329-5.288 1.689-.987.141-2.157.596-2.6 1.011-.442.415-1.695.991-2.784 1.28-1.089.289-2.373.918-2.855 1.398-.482.481-1.536.998-2.343 1.149-.867.163-1.71.645-2.06 1.18-.326.497-1.111 1.008-1.744 1.134-.634.127-1.752.754-2.485 1.393-.733.64-1.729 1.287-2.213 1.437-.483.151-.987.617-1.12 1.034-.133.417-.601.873-1.041 1.013-1.107.351-11.395 10.584-11.729 11.667-.149.483-.622.99-1.05 1.126-.429.137-.78.541-.78.899s-.49 1.163-1.089 1.788-1.367 1.895-1.707 2.822c-.355.967-.999 1.853-1.511 2.08-.491.217-.893.616-.893.886 0 .662-1.516 1.434-2.374 1.21-.527-.138-.693.07-.693.873 0 .58-.501 2.04-1.114 3.245-1.804 3.545-3.784 9.51-4.844 14.591-.367 1.76-.843 3.92-1.058 4.8-.215.88-.509 11.896-.654 24.481-.206 17.949-.375 22.992-.782 23.4-.408.407-5.484.575-23.6.778-12.695.142-23.801.433-24.681.646-.88.214-2.95.692-4.6 1.064-4.255.958-12.872 3.807-13.686 4.525-.397.35-1.113.523-1.7.411-.919-.176-1.014-.071-1.014 1.121 0 1.504-1.496 2.974-3.027 2.974-.552 0-1.016.304-1.161.761-.219.69-2.401 2.039-3.298 2.039-.2 0-.882.54-1.514 1.2-.632.66-1.447 1.2-1.811 1.2-.363 0-.866.45-1.116 1-.251.55-.759 1-1.128 1-.794 0-11.162 10.393-11.532 11.559-.14.44-.604.911-1.033 1.047-.428.136-.899.728-1.046 1.316-.148.588-.667 1.382-1.155 1.766-.487.383-1.191 1.458-1.563 2.388-.372.93-1.002 1.919-1.4 2.198-.398.278-.846 1.161-.996 1.961-.15.8-.666 1.848-1.147 2.33-.48.482-1.109 1.766-1.398 2.855-.289 1.089-.852 2.34-1.252 2.78-.4.44-.918 1.912-1.151 3.272-.232 1.36-.864 3.43-1.404 4.6-.743 1.612-1.044 3.117-1.241 6.204-.143 2.241-.545 6.111-.894 8.6-.864 6.173-1.108 13.185-.567 16.324.817 4.746 1.634 11.081 1.634 12.674 0 1.04.332 2.021.983 2.903.541.733 1.192 2.341 1.448 3.574.267 1.287.773 2.457 1.187 2.746.396.278.94 1.18 1.209 2.004.268.825 1.002 2.09 1.63 2.813.629.723 1.143 1.581 1.143 1.908 0 .328.45.8 1 1.051.55.25 1 .684 1 .963 0 .611 5.744 6.564 6.333 6.564.227 0 .797.54 1.267 1.2.47.66 1.171 1.2 1.558 1.2.386 0 1.1.423 1.586.941.486.517 1.61 1.18 2.499 1.473.888.293 1.838.852 2.11 1.241.273.389 1.385.905 2.472 1.146 1.086.241 2.612.856 3.39 1.368 1.091.717 2.42 1.038 5.8 1.4 2.412.258 5.375.627 6.585.821 2.813.45 14.779.457 17.4.011 1.1-.187 3.405-.553 5.123-.812 2.368-.358 3.357-.705 4.09-1.438.532-.532 1.506-1.075 2.165-1.207.682-.136 1.302-.566 1.439-.996.132-.416.732-1.011 1.333-1.322.602-.311 1.305-1.03 1.564-1.596.258-.567.739-1.03 1.07-1.03.33 0 .721-.495.868-1.1.147-.605.78-1.756 1.407-2.558.628-.801 1.141-1.822 1.141-2.269 0-.447.21-1.723.467-2.836.348-1.506.352-2.276.018-3.01l-.449-.986-16.718-.121c-18.361-.132-18.055-.09-18.869-2.595-1.57-4.835.081-47.851 1.905-49.627.395-.384.949-1.55 1.232-2.59.283-1.041.786-2.119 1.119-2.395.332-.276.948-1.302 1.367-2.281.757-1.767 1.038-2.139 3.645-4.832.745-.77 1.468-1.715 1.607-2.1.138-.385.514-.7.836-.7.322 0 .97-.54 1.439-1.199.47-.66 1.286-1.307 1.813-1.44.528-.132 1.063-.566 1.189-.964.292-.92.959-1.166 3.966-1.465 1.338-.133 2.632-.397 2.875-.588.243-.19 2.403-1.02 4.8-1.845l4.358-1.499h69.246l1.377 1.144c.757.629 2.097 1.8 2.977 2.6 2.839 2.584 6.336 5.45 9 7.378 1.43 1.034 2.785 2.03 3.01 2.211.226.182.946.673 1.6 1.09.655.418 2.27 1.576 3.59 2.573 1.32.997 3.2 2.332 4.179 2.966.978.635 1.968 1.315 2.2 1.513.231.198 1.861 1.198 3.621 2.223s3.29 1.98 3.4 2.122c.11.143 1.01.714 2 1.27s2.97 1.686 4.4 2.51c6.664 3.842 24.067 12.6 25.037 12.6.157 0 1.428.54 2.825 1.2 1.397.66 2.728 1.2 2.958 1.2.23 0 1.175.374 2.099.831.925.458 2.694 1.163 3.931 1.568a76.627 76.627 0 0 1 4.2 1.53 35.71 35.71 0 0 0 3.95 1.294c1.1.276 2.536.769 3.191 1.097.655.327 2.569.929 4.252 1.338 1.684.408 3.694 1.007 4.467 1.33.774.323 2.82.873 4.548 1.222 1.728.348 3.862.886 4.742 1.195.88.309 3.4.848 5.6 1.197 2.2.349 4.92.894 6.044 1.211 1.124.317 5.084.93 8.8 1.363 3.716.432 8.556 1.074 10.756 1.425 2.2.351 5.346.585 6.992.519 3.32-.133 2.945.223 3.992-3.802.241-.925.662-1.915.937-2.2.275-.285.859-1.095 1.298-1.799.439-.705 1.874-2.055 3.19-3l2.391-1.719h10.079l1.926 1.5c1.059.825 2.032 1.501 2.161 1.502.738.006 3.702 5.324 3.993 7.166.441 2.788-.241 2.609 10.774 2.832 12.598.255 11.793.841 10.539-7.666-.42-2.856-.936-4.951-1.328-5.4-.881-1.009-1.544-2.353-1.544-3.132 0-.357-.63-1.475-1.4-2.484-.77-1.008-1.4-2.006-1.4-2.218 0-.212-.45-.739-1-1.171-.55-.433-1-1.048-1-1.367 0-.318-.43-.775-.956-1.015-.526-.239-1.152-.865-1.391-1.391-.24-.526-.704-.956-1.032-.956-.329 0-.996-.54-1.484-1.2-.488-.66-1.186-1.2-1.55-1.2-.365 0-1.005-.378-1.424-.841-.912-1.008-2.663-1.959-3.605-1.959-.376 0-1.239-.419-1.92-.932-.874-.657-2.223-1.068-4.586-1.397-1.841-.256-3.911-.81-4.6-1.232-.689-.422-2.332-.883-3.652-1.025-3.647-.392-6.171-1.033-6.519-1.655-.195-.349-1.566-.718-3.629-.976-3.055-.383-4.701-.911-5.281-1.691-.125-.17-1.6-.547-3.275-.838-1.676-.292-3.553-.87-4.172-1.286-.618-.415-2.33-.964-3.804-1.22-1.474-.256-3.203-.837-3.842-1.292-.639-.456-1.953-.947-2.92-1.092-.967-.145-2.658-.761-3.758-1.368-1.1-.607-2.868-1.227-3.929-1.379-1.061-.151-2.249-.595-2.64-.986-.793-.793-2.926-1.631-4.153-1.631-.441 0-1.392-.45-2.114-1-.721-.55-1.661-1-2.088-1-1.06 0-3.431-1.023-4.022-1.735-.265-.32-1.145-.706-1.954-.857-1.733-.325-3.7-1.277-3.7-1.79 0-.198-1-.584-2.223-.858-1.277-.286-2.376-.784-2.584-1.172-.198-.371-1.223-.907-2.277-1.19-1.054-.284-2.366-.92-2.916-1.415-.55-.494-1.589-1.023-2.31-1.175-.72-.152-1.805-.693-2.41-1.202-.606-.51-1.865-1.133-2.798-1.384-.934-.251-1.919-.814-2.19-1.25-.27-.436-1.212-.983-2.092-1.217-.88-.233-2.05-.837-2.6-1.341-.55-.505-1.674-1.133-2.499-1.396-.824-.264-1.724-.796-2-1.184-.275-.388-.982-.824-1.57-.969-.588-.146-1.58-.694-2.204-1.219-.623-.525-1.793-1.23-2.598-1.566-.806-.337-1.653-.964-1.883-1.393-.229-.43-.949-.888-1.599-1.018s-1.781-.762-2.514-1.405c-.733-.643-1.693-1.236-2.133-1.319-.44-.082-.971-.538-1.18-1.013-.211-.479-.884-.965-1.51-1.09-.622-.124-1.603-.698-2.18-1.276-.577-.577-1.576-1.233-2.218-1.457-.643-.224-1.332-.835-1.531-1.358-.213-.56-.687-.951-1.155-.951-.436 0-1.206-.416-1.71-.924s-1.681-1.41-2.616-2.005-1.7-1.226-1.7-1.403c0-.176-.63-.62-1.4-.987-.77-.368-1.4-.945-1.4-1.285 0-.363-.487-.713-1.188-.854-.67-.134-1.293-.566-1.427-.99-.132-.414-.617-.955-1.079-1.202-1.228-.657-5.681-4.298-8.256-6.75-.577-.55-1.41-1.183-1.85-1.407-.44-.224-.973-.799-1.185-1.278-.212-.479-.785-.971-1.274-1.094-.488-.123-1.002-.584-1.143-1.026-.14-.442-.769-1.07-1.398-1.395-.629-.325-1.253-.935-1.386-1.356-.133-.42-.683-.875-1.222-1.01a1.713 1.713 0 0 1-1.221-1.205 1.71 1.71 0 0 0-1.22-1.206c-.547-.137-1.152-.698-1.37-1.273-.215-.565-.756-1.123-1.202-1.24-.446-.116-1.072-.716-1.391-1.332-.318-.617-.941-1.236-1.383-1.376-.442-.141-.909-.678-1.039-1.194-.137-.547-.635-1.039-1.195-1.179-.561-.141-1.057-.633-1.196-1.185-.13-.519-.676-1.144-1.214-1.389-.537-.245-1.143-.882-1.346-1.416-.203-.534-.73-1.085-1.172-1.225-.441-.14-.907-.585-1.035-.988-.128-.403-.742-1.267-1.366-1.919-1.259-1.317-1.242-4.12.033-5.605.332-.386.842-1.602 1.134-2.702.292-1.1.949-2.396 1.461-2.881.511-.484.93-1.23.93-1.658 0-.427.56-1.376 1.244-2.108.684-.732 1.401-1.745 1.593-2.249.192-.505.802-1.091 1.356-1.301.614-.234 1.007-.696 1.007-1.185 0-.529.352-.891 1.029-1.061.58-.146 1.193-.688 1.404-1.244.206-.542.913-1.189 1.572-1.437.658-.249 1.285-.729 1.393-1.068.107-.339.962-.945 1.899-1.347.936-.402 2.063-1.064 2.503-1.471.44-.407 1.7-.976 2.8-1.263 1.1-.288 2.347-.837 2.77-1.22 1.922-1.739 43.736-3.39 48.712-1.923 2.869.846 2.718-.186 2.718 18.58v16.908l1.071.487c1.55.707 6.204-.152 8.529-1.573.99-.605 2.205-1.222 2.7-1.37.495-.149.9-.51.9-.803 0-.294.63-.906 1.4-1.36.77-.454 1.4-1.106 1.4-1.448 0-.342.45-.827 1-1.078.607-.276 1-.787 1-1.3 0-.465.52-1.475 1.155-2.246.82-.994 1.279-2.151 1.585-3.991.238-1.424.708-3.85 1.046-5.39.803-3.659.802-12.915-.002-17.2-.33-1.76-.807-5.085-1.059-7.389-.335-3.049-.66-4.404-1.195-4.978-.738-.793-1.524-3.022-1.528-4.336-.001-.386-.452-1.094-1.002-1.572s-1-1.186-1-1.574c0-.387-.18-.815-.4-.951-.22-.136-.4-.526-.4-.866 0-.34-.426-.954-.948-1.364-.521-.41-1.052-1.268-1.179-1.906-.143-.713-.547-1.242-1.051-1.374-.45-.118-.942-.546-1.093-.952-.34-.914-5.929-6.538-6.497-6.538-.228 0-.708-.45-1.069-1-.36-.55-.91-1-1.222-1-.313 0-1.057-.498-1.654-1.106-.598-.608-1.865-1.361-2.816-1.674-.951-.312-1.947-.879-2.213-1.259-.267-.381-1.199-.818-2.072-.971-.872-.154-2.396-.746-3.386-1.316-1.358-.781-2.832-1.157-6-1.528-2.31-.271-5.91-.771-8-1.112-3.366-.549-13.596-.894-14.033-.473" fill="#faba04"/><path id="path2" d="M59.6 26.285c-.77.09-2.48.491-3.8.891-1.32.401-3.336.856-4.479 1.011-1.281.174-2.442.619-3.025 1.159-.52.482-1.744 1.133-2.721 1.448-.976.314-1.919.804-2.095 1.089-.176.284-.832.782-1.457 1.105-1.257.65-6.823 5.737-6.823 6.236 0 .173-.495.851-1.1 1.507-1.943 2.108-2.957 3.642-3.352 5.072-.212.768-.807 1.851-1.322 2.407-.631.68-1.027 1.733-1.213 3.223-.152 1.217-.643 3.417-1.092 4.89-1.472 4.827-1.415 48.117.08 61.277.213 1.87.64 7.27.951 12 .31 4.73.776 9.14 1.035 9.8.66 1.682 1.109 4.243 1.612 9.19.238 2.345.759 5.106 1.158 6.137.398 1.03.949 3.583 1.224 5.673s.839 4.557 1.253 5.482c.414.925.954 2.995 1.2 4.6.246 1.605.871 3.851 1.389 4.992.519 1.141 1.066 3.031 1.217 4.2.151 1.169.696 2.938 1.21 3.931.514.993 1.117 2.767 1.34 3.941.223 1.175.752 2.792 1.175 3.595.924 1.748 1.635 3.895 1.635 4.935 0 .417.35 1.133.778 1.592.428.46.975 1.757 1.215 2.884.241 1.126.869 2.7 1.395 3.498.526.797 1.083 2.147 1.237 3 .153.852.417 1.73.585 1.95.822 1.078 1.99 3.504 1.99 4.134 0 .391.455 1.328 1.012 2.082.557.755 1.226 2.095 1.488 2.978.261.883.799 1.958 1.194 2.389.396.43.893 1.42 1.104 2.2.212.779.812 2.047 1.334 2.817s1.17 2.075 1.44 2.9c.269.825.648 1.5.84 1.5.358 0 1.319 1.886 1.783 3.5.142.495.423.9.624.9.434 0 1.981 2.921 1.981 3.741 0 .315.278.68.618.811.34.13.897.914 1.237 1.742 1.221 2.97 3.707 4.598 4.874 3.192.507-.612 9.418-3.555 13.671-4.515 1.65-.373 3.72-.852 4.6-1.066.88-.213 11.986-.504 24.681-.646 18.116-.203 23.192-.371 23.6-.778.407-.408.576-5.451.782-23.4.145-12.585.439-23.601.654-24.481.215-.88.691-3.04 1.058-4.8.367-1.76.917-4.01 1.223-5 1.201-3.895 2.607-7.75 3.12-8.554 2.192-3.438 2.058-5.573-.533-8.524-.67-.763-1.322-1.907-1.449-2.543-.127-.635-.542-1.254-.922-1.375-.38-.12-.925-.929-1.212-1.798-.286-.868-.944-1.976-1.461-2.462-.518-.486-.941-1.102-.941-1.369 0-.267-.63-1.401-1.4-2.52-.77-1.12-1.4-2.188-1.4-2.374 0-.186-.535-1.046-1.189-1.91-.654-.864-1.305-2.16-1.446-2.881-.142-.72-.563-1.53-.936-1.8-.373-.269-.995-1.29-1.381-2.267-.387-.977-1.019-2.237-1.406-2.8-.386-.563-.952-1.653-1.257-2.423-.306-.77-.878-1.75-1.273-2.179-.395-.428-.879-1.362-1.076-2.075-.197-.713-.801-1.893-1.343-2.622-.542-.728-1.103-1.945-1.245-2.705-.143-.759-.599-1.749-1.014-2.2-.414-.45-1.049-1.701-1.409-2.779-.361-1.079-.977-2.429-1.368-3-.392-.572-.942-1.85-1.224-2.84-.281-.99-.735-2.07-1.007-2.4-.548-.665-1.235-2.422-1.599-4.09-.13-.599-.663-1.718-1.184-2.485-.522-.768-1.075-2.258-1.23-3.311-.154-1.053-.618-2.278-1.03-2.722-.412-.444-1.004-1.901-1.316-3.238-.312-1.336-.882-2.91-1.267-3.498-.385-.588-.952-2.267-1.259-3.731-.306-1.465-.737-2.879-.956-3.143-.498-.6-1.429-3.807-1.795-6.182-.152-.99-.505-2.07-.783-2.4-.676-.802-1.292-2.919-1.627-5.6-.151-1.21-.622-2.884-1.045-3.719-.424-.835-.965-2.995-1.201-4.8-.237-1.805-.795-4.181-1.239-5.281-.445-1.1-1.056-3.056-1.358-4.347-.302-1.291-.879-2.821-1.282-3.4-.403-.579-.941-1.667-1.195-2.417-.255-.751-.913-1.954-1.462-2.674-.549-.72-.998-1.474-.998-1.677 0-.73-6.887-8.027-8.6-9.112-.66-.417-1.435-1.077-1.723-1.466-.287-.389-.841-.707-1.231-.707-.39 0-1.505-.524-2.477-1.165-1.03-.678-2.604-1.279-3.769-1.437-1.1-.15-3.17-.598-4.6-.996-2.705-.752-7.584-1.2-10-.917" fill="#f8d079"/><path id="path3" d="M56.2 24.788c-1.702.165-3.707.691-5.112 1.341-1.271.589-2.627 1.071-3.013 1.071-.386 0-1.68.63-2.875 1.4-1.195.77-2.324 1.4-2.508 1.4C41.075 30 30 41.101 30 42.723c0 .201-.431 1.001-.959 1.778-.527.777-1.36 2.557-1.852 3.956-.491 1.399-1.126 3.003-1.411 3.565-1.382 2.727-1.888 35.269-.956 61.578.392 11.086.578 13.309 1.578 18.8.22 1.21.586 4.27.812 6.8.227 2.53.684 5.77 1.015 7.2.865 3.734 1.316 6.207 1.724 9.443.196 1.564.641 3.454.988 4.2.346.746.91 3.126 1.251 5.288.342 2.162.911 4.491 1.265 5.176.355.685.97 2.786 1.368 4.669.397 1.883 1.004 3.981 1.349 4.663.344.681.809 2.205 1.033 3.386.224 1.181.757 2.873 1.184 3.761.427.888 1.052 2.676 1.388 3.975.336 1.299.864 2.747 1.173 3.219.309.472.853 1.993 1.208 3.381.356 1.387.973 2.998 1.372 3.581.398.582 1.056 2.183 1.461 3.558.404 1.375.88 2.5 1.057 2.5.176 0 .576.855.888 1.9.312 1.045 1.129 3.002 1.816 4.349.686 1.348 1.248 2.709 1.248 3.025 0 .316.321.924.713 1.351.392.426 1.048 1.675 1.456 2.775.409 1.1.9 2.201 1.092 2.446.191.246 1.354 2.406 2.583 4.8 1.229 2.395 2.457 4.624 2.729 4.954.273.33.738 1.23 1.034 2 .297.77.956 1.909 1.466 2.531.51.622.927 1.34.927 1.596s.641 1.397 1.425 2.535c2.014 2.924 1.729 4.375-1.157 5.885-6.289 3.292-15.892 11.381-20.468 17.241-3.375 4.322-4.6 6.037-4.6 6.442 0 .245-.327.742-.727 1.104-.4.362-1.153 1.51-1.673 2.551-.52 1.042-1.363 2.509-1.873 3.26-.51.752-.927 1.66-.927 2.018 0 .358-.426 1.278-.946 2.044-.521.766-1.081 2.023-1.246 2.793-.164.77-.718 2.3-1.232 3.4-.513 1.1-1.11 3.08-1.327 4.4-.217 1.32-.767 3.549-1.222 4.953-2.138 6.596-2.019 34.252.175 40.531.549 1.571.998 3.14.998 3.487 0 .348.63 1.93 1.4 3.518.77 1.587 1.4 3.026 1.4 3.198.001.172.451.836 1 1.475.55.639 1 1.383 1 1.652 0 .844 4.758 6.86 7.532 9.523 2.941 2.825 3.418 3.245 5.068 4.473.879.654 1.779 1.332 2 1.505 1.039.818 6.455 3.872 6.877 3.878.263.004 1.101.375 1.862.824.762.45 2.527 1.103 3.923 1.452 1.396.35 2.991.865 3.544 1.145 3.755 1.902 33.594 1.725 33.594-.199 0-.158.765-.531 1.7-.829 6.912-2.202 14.7-12.628 14.7-19.678 0-4.144 1.359-3.857-18.894-3.992-12.02-.08-17.604-.253-17.906-.556-.811-.811-.36-42.384.481-44.36.374-.88.98-2.68 1.346-4 .367-1.32.908-2.677 1.204-3.015.296-.338.931-1.508 1.411-2.6.479-1.092.993-2.075 1.141-2.185.148-.11.825-1.01 1.504-2 2.574-3.757 7.137-7.803 9.245-8.198 1.328-.249 1.494-.125 5.419 4.044 5.141 5.461 12.516 12.798 16.237 16.154l3.989 3.6a163.122 163.122 0 0 0 8.023 6.772c1.43 1.121 3.05 2.432 3.6 2.912 2.895 2.529 14.23 10.773 16.332 11.878.587.309 1.158.676 1.268.815.404.512 5.044 3.513 6.5 4.203.825.391 1.5.866 1.5 1.056 0 .189.799.708 1.776 1.153.976.445 1.89.993 2.029 1.219.139.225 1.275.948 2.524 1.605s3.531 1.903 5.071 2.769c1.54.865 4.6 2.493 6.8 3.618 2.2 1.124 4.27 2.207 4.6 2.406.33.199 2.4 1.198 4.6 2.221 2.2 1.022 4.89 2.29 5.979 2.816 1.088.526 2.231.957 2.541.957.309 0 1.399.433 2.421.963 2.451 1.271 8.358 3.7 9.865 4.058.657.156 2.094.68 3.194 1.165s2.9 1.119 4 1.41c1.1.29 2.18.656 2.4.813.557.397 4.115 1.477 5.8 1.76.77.129 1.93.512 2.577.849.647.338 2.737.962 4.643 1.386 1.906.425 3.987.982 4.623 1.238.636.256 3.047.873 5.357 1.371 2.31.499 5.28 1.187 6.6 1.53 1.32.343 3.93.826 5.8 1.074 1.87.248 4.21.697 5.2.998.99.301 3.69.747 6 .992 2.31.244 6.27.72 8.8 1.057l7.4.986c8.673 1.155 70.462.811 71.949-.401.248-.202 1.393-.645 2.543-.984 5.747-1.695 14.556-8.349 18.063-13.644 1.964-2.967 4.008-6.82 4.466-8.421.251-.88.816-2.39 1.254-3.356 1.612-3.556 1.809-16.446.302-19.844-.39-.88-.926-2.32-1.191-3.2-1.823-6.056-7.624-13.804-13.344-17.824-4.207-2.957-7.185-4.49-9.6-4.942-.858-.161-1.938-.536-2.4-.834-.463-.298-2.642-.844-4.842-1.212-2.2-.369-4.18-.814-4.4-.99-.518-.414-3.341-1.165-6.015-1.6-1.16-.189-2.956-.729-3.989-1.2s-2.985-1.031-4.338-1.246c-1.352-.214-3.099-.721-3.883-1.126-.784-.404-2.494-.961-3.8-1.237-1.306-.275-3.275-.908-4.375-1.405-1.1-.498-2.99-1.125-4.2-1.394-1.21-.27-2.475-.729-2.812-1.022-.336-.293-1.675-.809-2.976-1.148-1.301-.339-3.185-1.041-4.188-1.561-1.003-.52-2.481-1.066-3.283-1.213-.803-.147-1.883-.588-2.4-.981-.518-.392-1.751-.941-2.741-1.219-.99-.278-2.61-.916-3.6-1.419-.99-.502-2.52-1.147-3.4-1.433-.88-.286-2.05-.841-2.6-1.233-.55-.391-1.737-.902-2.637-1.135-.9-.233-2.054-.784-2.563-1.226-.509-.442-1.594-.983-2.411-1.203-.816-.22-1.913-.737-2.437-1.149-.524-.412-1.815-1.042-2.87-1.4-1.055-.358-2.295-1.001-2.754-1.43-.46-.428-1.343-.89-1.963-1.026-.62-.136-1.555-.583-2.077-.994-.522-.411-1.925-1.219-3.118-1.798-3.048-1.476-5.691-2.901-6.217-3.351-.246-.21-1.338-.833-2.425-1.384-1.088-.552-2.214-1.287-2.502-1.634-.288-.347-.735-.631-.994-.631-.456 0-5.22-2.952-6.832-4.233-.44-.35-1.19-.79-1.667-.979-.477-.189-1.706-.983-2.731-1.766-1.025-.782-2.076-1.422-2.336-1.422-.261 0-.698-.36-.973-.8-.275-.44-.74-.8-1.034-.8-.294 0-.878-.379-1.297-.843-.419-.463-1.392-1.164-2.162-1.558-.77-.394-1.983-1.275-2.696-1.958-.713-.682-1.47-1.241-1.682-1.241-.212 0-.829-.405-1.37-.9-.541-.495-1.854-1.571-2.918-2.39-5.352-4.125-6.705-5.22-9.036-7.318-.494-.444-1.528-1.277-2.298-1.852a35.28 35.28 0 0 1-2.8-2.397c-.77-.744-3.11-2.898-5.2-4.787-7.887-7.13-19.89-19.594-20.254-21.034-.306-1.213.514-4.794 1.39-6.068.398-.58.969-1.684 1.267-2.454.299-.77.96-1.909 1.47-2.531.51-.622.927-1.267.927-1.434 0-1.398 9.237-9.434 12.593-10.957.876-.397 1.866-.963 2.2-1.257.334-.294 1.957-.899 3.607-1.345a365.18 365.18 0 0 0 5.187-1.443c2.544-.736 41.28-.957 42.413-.242.515.326.617 2.852.724 17.889.144 20.515-.178 19.091 4.273 18.839 4.606-.261 11.185-3.63 14.825-7.59 1.743-1.897 4.178-5.35 4.178-5.925 0-.268.448-1.379.995-2.469 2.323-4.626 2.602-29.372.384-34.135-.307-.66-.851-2.37-1.209-3.8-.358-1.43-.964-3.14-1.348-3.8-.384-.66-.939-1.83-1.233-2.6-.294-.77-.952-1.909-1.462-2.531-.51-.622-.927-1.325-.927-1.563 0-1.517-9.02-11.367-12.627-13.789-.865-.581-1.669-1.198-1.787-1.371-.118-.173-.852-.582-1.632-.907-.78-.326-1.643-.864-1.917-1.195-.275-.331-1.341-.912-2.369-1.291-1.027-.379-2.138-.915-2.468-1.192-.33-.277-2.036-.888-3.791-1.359-1.755-.47-3.375-.997-3.6-1.171-2.658-2.052-34.285-2.083-40.609-.04a62.812 62.812 0 0 1-5.355 1.414c-1.515.316-3.135.818-3.6 1.115-.465.297-1.745.783-2.845 1.079-1.1.296-2.627.958-3.393 1.47s-1.672.931-2.013.931c-.342 0-1.599.63-2.794 1.4-1.195.77-2.366 1.4-2.602 1.4-.235 0-1.051.533-1.813 1.184-.762.651-1.569 1.191-1.793 1.2-.37.014-2.022 1.204-6.411 4.616-1.813 1.409-8.512 8.017-9.381 9.253-.33.47-1.608 2.091-2.839 3.603-1.232 1.512-2.524 3.288-2.871 3.947-.348.658-1.182 1.827-1.854 2.597l-1.222 1.4-1.219-1.4c-.67-.77-1.589-2.097-2.041-2.95-.451-.852-1.346-2.274-1.987-3.16-.642-.885-1.167-1.831-1.167-2.101s-.28-.724-.623-1.008c-.343-.285-.88-1.133-1.195-1.885-.314-.752-1.024-1.905-1.577-2.562-.553-.658-1.005-1.431-1.005-1.72 0-.288-.63-1.44-1.4-2.559-.77-1.12-1.4-2.285-1.4-2.59 0-.304-.412-1.163-.915-1.909-.503-.746-1.162-1.986-1.464-2.756-.303-.77-.859-1.76-1.236-2.2-.378-.44-.896-1.456-1.153-2.258-.256-.801-.908-1.971-1.449-2.6-.541-.628-1.091-1.715-1.223-2.416-.131-.7-.581-1.583-1-1.962-.418-.378-.76-.865-.76-1.081 0-.217-.695-1.854-1.545-3.638-.85-1.785-1.76-3.906-2.021-4.713-.261-.807-.731-1.68-1.044-1.94-.313-.26-.685-1.129-.827-1.932-.142-.803-.758-2.36-1.368-3.46-.611-1.1-1.235-2.59-1.387-3.312-.152-.721-.799-2.341-1.437-3.6-.639-1.258-1.163-2.612-1.166-3.007-.003-.396-.385-1.476-.849-2.4-.464-.925-1.184-2.927-1.599-4.449-.415-1.523-1.005-3.15-1.31-3.616-.305-.467-.771-1.921-1.033-3.232-.263-1.311-.83-3.077-1.261-3.924-.43-.847-1.034-2.859-1.343-4.472-.308-1.613-.827-3.448-1.152-4.077-.326-.629-.808-2.306-1.072-3.727-.264-1.421-.887-3.934-1.384-5.584-.497-1.65-1.128-4.35-1.403-6-.274-1.65-.812-3.45-1.193-4-.382-.55-.917-1.943-1.189-3.095-.272-1.153-.836-2.529-1.252-3.059-.417-.53-1.113-1.792-1.547-2.805-.434-1.012-.954-1.841-1.155-1.841-.201 0-.582-.521-.846-1.158-.832-2.009-8.984-10.015-11.149-10.949a12.023 12.023 0 0 1-2.02-1.176c-.524-.393-1.694-.913-2.6-1.155-.906-.242-2.458-.813-3.448-1.269-2.726-1.254-10.966-1.766-17.8-1.105m14.295 1.851c.938.335 2.83.871 4.205 1.193 1.375.322 3.345 1.121 4.378 1.777 1.033.655 2.035 1.191 2.227 1.191 2.44 0 10.695 9.537 14.064 16.248 1.007 2.007 1.831 3.937 1.831 4.289 0 .352.427 1.606.949 2.785.522 1.18 1.18 3.75 1.463 5.712.284 1.961.84 4.286 1.237 5.166.397.88.892 2.68 1.101 4 .208 1.32.683 3.21 1.055 4.2.372.99 1.12 3.505 1.661 5.59.542 2.084 1.141 3.978 1.333 4.209.192.231.731 1.855 1.2 3.61.468 1.755 1.073 3.551 1.344 3.991.271.44.735 1.79 1.03 3 .295 1.21.839 2.65 1.209 3.2.37.55.984 2.155 1.365 3.567.382 1.411 1.012 3.031 1.401 3.6.389.568.93 1.807 1.202 2.754.272.946.934 2.548 1.472 3.559.538 1.012.978 2.071.978 2.355 0 .284.629 1.742 1.398 3.241.769 1.498 1.399 3.011 1.4 3.362.001.351.343.947.761 1.325.417.377.952 1.454 1.188 2.393.237.939.759 2.143 1.162 2.675.402.533 1.713 2.905 2.911 5.272 4.255 8.4 4.585 9.026 5.044 9.558.256.297.787 1.349 1.182 2.339.394.99 1.04 2.149 1.435 2.575.396.427.719.969.719 1.206 0 .236.63 1.365 1.4 2.509.77 1.143 1.4 2.18 1.4 2.304 0 .124.585 1.098 1.3 2.164a93.235 93.235 0 0 1 1.989 3.091 306.2 306.2 0 0 0 1.053 1.751c.201.33.574 1.05.829 1.6.256.55 1.24 1.891 2.187 2.98l1.722 1.98 1.714-1.78c.942-.979 2.058-2.545 2.479-3.48.42-.935.897-1.7 1.059-1.7.163 0 .611-.533.996-1.185s.919-1.418 1.186-1.701c.267-.283 1.142-1.325 1.944-2.315 2.217-2.736 6.266-6.826 8.936-9.026 1.316-1.085 2.745-2.288 3.175-2.673.43-.385.901-.7 1.047-.7.146 0 .83-.54 1.521-1.2.691-.66 1.492-1.2 1.782-1.2.289 0 1.146-.46 1.903-1.022.758-.561 2.098-1.367 2.978-1.79.88-.422 1.87-.94 2.2-1.15 1.309-.833 6.702-3.165 8.4-3.632.99-.272 2.43-.811 3.2-1.198.77-.387 2.3-.824 3.4-.972 2.664-.359 5.831-.975 9-1.75 3.435-.841 26.364-.958 29.2-.15.99.282 3.42.882 5.4 1.332 1.98.451 4.77 1.353 6.2 2.005 2.431 1.109 3.086 1.437 6.2 3.104 1.06.567 2.438 1.569 6.765 4.921 4.412 3.416 9.695 10.26 12.277 15.902.453.99 1.259 2.718 1.791 3.84.532 1.122.967 2.407.967 2.855 0 .449.492 2.411 1.092 4.36 1.083 3.512 1.093 3.652 1.1 15.145l.008 11.6-1.386 3.8c-.762 2.09-1.707 4.149-2.1 4.575-.393.427-.714.985-.714 1.242 0 .54-5.423 6.183-5.943 6.183-.192 0-.858.4-1.48.89-2.596 2.041-10.69 4.206-11.42 3.054-.19-.299-.348-8.295-.351-17.769-.006-16.928-.02-17.24-.844-18.124l-.838-.899-22.262.124-22.262.124-2.942 1.3c-1.618.715-3.238 1.313-3.6 1.329-.362.016-1.198.375-1.858.798-.66.423-1.965 1.123-2.9 1.557-.935.433-1.7.978-1.7 1.212 0 .233-.455.597-1.011.808-1.865.709-6.354 5.116-8.414 8.259-.744 1.134-1.492 2.125-1.664 2.201-1.85.822-4.953 10.721-3.961 12.638 1.754 3.393 19.798 21.134 30.541 30.029a36.687 36.687 0 0 1 2.366 2.169c.592.605 1.286 1.1 1.543 1.1.257 0 .931.495 1.497 1.1.566.605 2.045 1.82 3.285 2.7 1.241.88 2.827 2.095 3.526 2.7.699.605 1.494 1.1 1.767 1.1.273 0 .689.358.923.796.234.438.974 1.079 1.645 1.426 1.057.547 3.924 2.542 5.45 3.793.272.222 1.154.794 1.961 1.27.807.476 1.916 1.282 2.465 1.79.549.509 1.235.925 1.525.925.291 0 1.143.54 1.895 1.2.752.66 1.523 1.2 1.715 1.2.192 0 1.235.63 2.318 1.4 1.083.77 2.185 1.4 2.449 1.4.265 0 .681.24.924.534.244.294 1.301.963 2.349 1.487 1.048.523 2.415 1.363 3.037 1.865.622.503 1.355.914 1.628.914.274 0 1.206.535 2.07 1.189.864.654 1.861 1.194 2.215 1.2.354.006 1.344.486 2.2 1.068.856.581 2.276 1.382 3.156 1.781.88.398 2.05.983 2.6 1.3 2.085 1.2 6.796 3.462 7.21 3.462.238 0 1.098.454 1.911 1.009.814.554 2.197 1.203 3.075 1.441.878.238 2.106.796 2.729 1.239.623.444 1.893 1.036 2.823 1.315.929.28 2.311.888 3.071 1.351.759.463 1.614.843 1.899.844.286 0 1.865.631 3.509 1.401 1.645.77 3.26 1.4 3.589 1.4.33 0 1.579.523 2.778 1.162 1.198.64 2.949 1.292 3.892 1.449.943.158 2.171.61 2.73 1.005.558.395 2.168 1.017 3.576 1.382s3.201.98 3.984 1.366c.783.387 2.499.935 3.812 1.218 1.313.283 2.774.767 3.245 1.076.472.309 2.17.836 3.774 1.17 1.605.335 3.654.942 4.555 1.35.901.408 3.107 1.017 4.902 1.353 1.796.336 3.776.87 4.4 1.187.625.316 2.396.801 3.936 1.077 1.54.276 4.15.914 5.8 1.417 1.65.503 3.587 1.018 4.305 1.143 1.548.269 8.095 3.329 8.095 3.783 0 .173.74.73 1.644 1.238 1.786 1.005 8.356 7.483 8.356 8.241 0 .256.433.933.962 1.505.53.571 1.17 1.666 1.423 2.433.253.767.802 1.829 1.219 2.36.418.53 1.059 2.296 1.426 3.925.367 1.628.892 3.41 1.165 3.96.727 1.46 1.076 5.524.654 7.6-.202.99-.73 3.24-1.174 5-.445 1.76-.936 4.19-1.092 5.4-.179 1.389-.621 2.602-1.199 3.29-.504.6-1.03 1.611-1.17 2.246-.14.636-.586 1.512-.991 1.948-.406.435-1.013 1.314-1.349 1.954-1.053 2.003-8.594 9.362-9.593 9.362-.298 0-.946.43-1.439.956-.494.525-1.4 1.056-2.014 1.178-.614.123-1.636.658-2.272 1.189-.696.581-1.952 1.077-3.156 1.247-1.1.155-3.854.644-6.119 1.086-4.451.87-45.245.876-55.281.008-2.31-.199-8.43-.574-13.6-.833-5.17-.258-9.76-.625-10.2-.814-.44-.19-1.16-.467-1.6-.616-1.232-.418-8.193-1.374-10.11-1.388-.94-.007-2.74-.376-4-.819-1.259-.444-4.18-1.078-6.49-1.41-2.31-.332-4.83-.941-5.6-1.352-.77-.411-2.93-.948-4.8-1.193-2.035-.266-4.165-.832-5.306-1.41-1.062-.538-3.051-1.089-4.489-1.243-1.42-.152-2.789-.526-3.042-.83-.514-.62-4.019-1.756-5.418-1.756-.5 0-1.531-.422-2.291-.938-.76-.515-2.522-1.179-3.916-1.475-1.393-.296-2.876-.857-3.294-1.247-.419-.39-1.59-.827-2.603-.971-1.012-.145-2.624-.774-3.582-1.398-.957-.624-2.526-1.252-3.487-1.396-.96-.144-1.963-.523-2.227-.842-.584-.703-2.959-1.733-3.998-1.733-.415 0-1.068-.367-1.451-.816-.383-.449-1.619-1.086-2.747-1.414-1.128-.329-2.373-.955-2.767-1.39-.394-.436-1.405-.902-2.246-1.037-.84-.134-1.982-.665-2.537-1.179-.555-.514-1.756-1.159-2.668-1.432-.913-.273-2.065-.903-2.561-1.398-.496-.496-1.412-1.022-2.036-1.169-.623-.148-1.584-.672-2.134-1.165-.55-.493-1.465-1.006-2.034-1.139-.568-.134-1.718-.787-2.555-1.452-.836-.665-1.812-1.209-2.167-1.209-.356 0-1.15-.534-1.766-1.186-.615-.652-1.734-1.301-2.485-1.442-.804-.151-1.459-.55-1.593-.971-.124-.393-.806-.949-1.513-1.234-.708-.286-2.078-1.115-3.045-1.843-.966-.728-1.982-1.324-2.257-1.324-.275 0-.599-.261-.722-.579-.122-.319-.761-.858-1.421-1.199-.659-.341-1.698-1.083-2.309-1.649-.61-.565-1.589-1.124-2.176-1.242-.598-.119-1.255-.629-1.498-1.161-.237-.521-.878-1.06-1.424-1.197-.546-.137-1.277-.682-1.623-1.211-.347-.529-.865-.962-1.151-.962-.287 0-.958-.467-1.491-1.038-.534-.571-1.508-1.318-2.165-1.659-.657-.342-1.674-1.135-2.26-1.762-.587-.628-1.325-1.141-1.641-1.141-.317 0-.774-.434-1.015-.965-.242-.531-.795-1.078-1.229-1.216-.434-.138-1.079-.693-1.433-1.235-.355-.541-.836-.984-1.068-.984-.232 0-1.188-.766-2.125-1.702-.936-.937-2.293-2.152-3.015-2.7-1.358-1.032-13.46-13.024-18.919-18.748-4.581-4.803-6.187-4.57-12.408 1.803-3.271 3.352-4.65 5.097-5.806 7.347-.395.77-1.116 2.03-1.601 2.8-.485.77-.883 1.62-.884 1.888 0 .269-.433 1.439-.96 2.6-1.646 3.624-1.841 6.601-1.841 28.163 0 20.289 0 20.298.87 21.223l.869.926h17.098c9.404 0 17.382.109 17.73.243.885.339.83 3.387-.095 5.273-.401.816-.976 2.294-1.278 3.284-.303.99-.965 2.309-1.472 2.931-.507.622-.922 1.29-.922 1.486 0 .508-5.597 5.983-6.116 5.983-.238 0-.804.33-1.258.734-.454.404-2.536 1.349-4.626 2.1l-3.8 1.366H80.2c-9.28 0-11.577-.114-13.4-.663-1.21-.365-3.55-.958-5.2-1.317-2.672-.582-4.551-1.309-8.6-3.328-3.923-1.956-5-2.565-5-2.827 0-.161-.585-.631-1.3-1.044-1.186-.686-3.346-2.392-5.241-4.138-1.606-1.479-5.772-6.354-6.481-7.583-.413-.715-.87-1.3-1.016-1.3-.146 0-.496-.585-.777-1.3-.282-.715-.934-1.873-1.449-2.573-.515-.701-.938-1.511-.941-1.8-.003-.29-.537-1.577-1.188-2.86-.651-1.282-1.297-2.992-1.436-3.8-.14-.807-.726-3.267-1.303-5.467-1.165-4.441-1.546-24.406-.562-29.4.239-1.21.872-4.667 1.406-7.682.535-3.015 1.237-5.895 1.56-6.4.323-.505.91-2.088 1.305-3.518.394-1.43 1.017-3.05 1.384-3.6.368-.55.908-1.72 1.201-2.6.294-.88.85-1.96 1.237-2.4.386-.44.911-1.453 1.167-2.252.255-.798.801-1.756 1.213-2.129.411-.372.983-1.249 1.271-1.948.288-.699.935-1.684 1.437-2.189.502-.505.913-1.056.913-1.225 0-.168.315-.657.7-1.086.385-.428 1.409-1.659 2.275-2.735 3.183-3.949 9.052-9.457 13.025-12.222.77-.535 1.544-1.208 1.72-1.494.176-.286.536-.521.8-.521.264-.001 1.1-.406 1.858-.9a60.444 60.444 0 0 1 3.2-1.899c2.845-1.562 2.998-5.884.29-8.2-.446-.381-1.104-1.527-3.433-5.978-.569-1.088-1.341-2.327-1.715-2.754-.374-.427-.789-1.27-.921-1.873-.133-.603-.677-1.688-1.21-2.41-.533-.723-1.176-1.96-1.429-2.75-.252-.789-.767-1.795-1.145-2.235-.377-.44-.923-1.43-1.212-2.2-.29-.77-1.129-2.679-1.865-4.242-.736-1.563-1.338-2.975-1.338-3.138 0-.163-.334-.774-.742-1.358-.408-.584-.871-1.602-1.029-2.262-.158-.66-.791-2.195-1.407-3.411-.616-1.216-1.25-2.836-1.409-3.6-.16-.764-.629-1.977-1.043-2.697-.414-.719-1.045-2.339-1.402-3.6-.358-1.26-.886-2.666-1.173-3.123-.288-.457-.83-2.077-1.205-3.6-.375-1.523-1.002-3.309-1.393-3.969-.392-.66-.832-2.01-.979-3-.278-1.873-.712-3.292-1.687-5.506-.316-.719-.803-2.609-1.082-4.2-.279-1.592-.797-3.524-1.152-4.294-.355-.77-.942-3.192-1.304-5.382-.362-2.19-.909-4.72-1.215-5.623-.307-.903-.921-4.151-1.366-7.218-.444-3.068-1.067-6.567-1.383-7.777-.316-1.21-.775-4.852-1.02-8.092-.245-3.241-.619-7.291-.831-9a990.45 990.45 0 0 1-.846-7.108c-.665-5.764-.708-58.617-.05-60.8.265-.88.889-3.13 1.385-5 .497-1.87 1.186-3.707 1.531-4.082.346-.376.869-1.366 1.163-2.2.294-.835.898-1.916 1.342-2.403.445-.487 1.008-1.228 1.253-1.648C34.822 38.065 42.792 30.8 44.439 30.8c.245 0 1.209-.516 2.142-1.146.934-.63 2.67-1.374 3.858-1.654 1.189-.279 2.836-.773 3.662-1.098 3.507-1.378 12.844-1.527 16.394-.263M332.96 326.636c-2.963 1.566-4.303 2.712-5.168 4.417-.432.851-1.01 1.83-1.285 2.175-1.646 2.066-1.715 7.866-.123 10.346 4.106 6.398 11.464 8.68 17.234 5.343 2.094-1.21 4.382-3.318 4.382-4.036 0-.179.45-.936 1-1.681 1.415-1.918 1.157-8.044-.421-10-.267-.33-.6-.981-.742-1.447-1.418-4.665-10.09-7.648-14.877-5.117" fill="#9b731b"/><path id="path4" d="M57.8 25.976c-1.1.181-3.08.693-4.4 1.137-1.32.445-2.76.904-3.2 1.021-.44.116.1.11 1.2-.013 1.1-.124 3.17-.591 4.6-1.037 3.51-1.096 9.562-1.077 13.435.042 1.521.44 3.665.922 4.765 1.072 1.165.158 2.739.759 3.769 1.437.972.641 2.043 1.165 2.378 1.165 1.309 0-3.287-2.415-5.647-2.968-1.375-.322-3.267-.858-4.205-1.193-2.026-.721-9.854-1.13-12.695-.663m-11.2 3.643c-.88.635-1.827 1.16-2.103 1.168-1.738.046-9.645 7.227-11.541 10.48-.245.42-.808 1.161-1.253 1.648-.444.487-1.048 1.568-1.342 2.403-.294.834-.855 1.862-1.248 2.283-.392.421-.713.979-.713 1.241 0 .897 1.963-1.643 2.348-3.039.395-1.43 1.409-2.964 3.352-5.072.605-.656 1.1-1.334 1.1-1.507 0-.499 5.566-5.586 6.823-6.236.625-.323 1.281-.821 1.457-1.105.176-.285 1.119-.775 2.095-1.089.977-.315 2.218-.982 2.759-1.483 1.405-1.303.203-1.089-1.734.308m35.096 1.985c.276.443.83.909 1.23 1.036 1.1.349 9.074 8.65 9.074 9.445 0 .203.449.957.998 1.677.549.72 1.207 1.923 1.462 2.674.254.75.792 1.838 1.195 2.417.403.579.979 2.109 1.28 3.4.675 2.895 2.182 6.337 2.231 5.097.019-.468-.416-1.868-.966-3.112-.55-1.243-1-2.549-1-2.901 0-2.493-5.573-11.294-9.831-15.523-3.864-3.838-6.803-6.019-5.673-4.21M27.483 52.301a175.436 175.436 0 0 1-1.2 4.299c-.641 2.124-.615 55.024.03 60.6.686 5.938 1.649 14.817 1.821 16.8.086.99.083-.63-.007-3.6-.17-5.648-.61-10.935-1.415-17-.973-7.326-.68-52.987.364-56.8.857-3.128 1.559-7.001 1.269-6.999-.08.001-.468 1.216-.862 2.7m71.767 7.126c-.074 1.815.734 5.783 1.459 7.165.349.664.776 1.838.949 2.608.246 1.095.272.953.12-.654-.106-1.13-.496-2.66-.866-3.4-.369-.74-.883-2.606-1.142-4.146-.26-1.553-.492-2.254-.52-1.573m2.778 12.213c-.034 1.246.691 3.527 1.385 4.36.275.33.625 1.41.777 2.4.364 2.362 1.179 5.118 1.939 6.552.336.634.727 2.002.87 3.041.265 1.927 2.165 5.653 2.189 4.293.006-.393-.247-1.113-.563-1.6-.317-.487-.958-2.322-1.426-4.077-.469-1.755-1.008-3.379-1.2-3.61-.192-.231-.794-2.125-1.339-4.209-1.335-5.108-2.595-8.531-2.632-7.15m7.214 21.883c-.094 1.172.89 4.072 1.599 4.714.968.876 1.002.103.059-1.323-.385-.582-.906-1.7-1.158-2.486-.252-.785-.477-1.193-.5-.905m2.607 7.277c.223 1.637.492 2.287 2.045 4.952.272.467.497 1.141.5 1.499.008.836 1.087 3.428 1.545 3.711.193.12.585 1.077.871 2.128.286 1.05.844 2.378 1.239 2.95.396.571 1.015 1.921 1.376 3 .36 1.078.975 2.32 1.364 2.76.39.44.823 1.07.962 1.4.14.33.149.06.022-.6-.128-.66-.579-1.572-1.003-2.026-.423-.454-.771-1.084-.772-1.4-.001-.316-.631-1.8-1.4-3.298-.769-1.499-1.398-2.957-1.398-3.241 0-.284-.44-1.343-.978-2.355-.538-1.011-1.2-2.613-1.472-3.559-.272-.947-.805-2.174-1.183-2.727-.379-.554-.975-1.904-1.326-3L111.603 99l.246 1.8M122 124.606c0 .395.468 1.331 1.039 2.081.571.749 1.2 1.946 1.397 2.659.197.713.681 1.647 1.076 2.075.395.429.967 1.409 1.273 2.179.305.77.871 1.86 1.257 2.423.387.563 1.019 1.823 1.406 2.8.386.977 1.008 1.998 1.381 2.267.373.27.794 1.08.936 1.8.141.721.792 2.017 1.446 2.881.654.864 1.189 1.724 1.189 1.91 0 .186.63 1.254 1.4 2.374.77 1.119 1.4 2.253 1.4 2.52 0 .267.423.883.941 1.369.517.486 1.175 1.594 1.461 2.462.287.869.832 1.678 1.212 1.798.38.121.792.725.915 1.342.124.618.82 1.865 1.548 2.772a72.525 72.525 0 0 1 1.948 2.528c.739 1.04 2.736.791 3.042-.38.1-.384.573-.87 1.051-1.082.486-.215 1.14-1.126 1.486-2.069.34-.927 1.108-2.197 1.707-2.822s1.089-1.43 1.089-1.788c0-.358.351-.762.78-.899.428-.136.901-.643 1.05-1.126.334-1.083 10.622-11.316 11.729-11.667.44-.14.908-.596 1.041-1.013.133-.417.637-.883 1.12-1.034.484-.15 1.48-.797 2.213-1.437.733-.639 1.851-1.266 2.485-1.393.633-.126 1.418-.637 1.744-1.134.35-.535 1.193-1.017 2.06-1.18.807-.151 1.861-.668 2.343-1.149.482-.48 1.766-1.109 2.855-1.398 1.089-.289 2.342-.865 2.784-1.28.443-.415 1.613-.87 2.6-1.011 2.525-.36 4.479-.983 5.286-1.687.471-.412 2.556-.774 6.6-1.147 3.25-.3 7.08-.731 8.51-.958 5.102-.811 13.89-.905 18.2-.196 2.2.362 5.89.879 8.2 1.15 3.168.371 4.642.747 6 1.528.99.57 2.514 1.162 3.386 1.316.873.153 1.805.59 2.072.971.266.38 1.262.947 2.213 1.259.951.313 2.218 1.066 2.816 1.674.597.608 1.341 1.106 1.654 1.106.312 0 .862.45 1.222 1 .361.55.841 1 1.069 1 .568 0 6.157 5.624 6.497 6.538.151.406.643.834 1.093.952.504.132.908.661 1.051 1.374.127.638.658 1.496 1.179 1.906.522.41.948 1.024.948 1.364 0 .34.18.73.4.866.22.136.4.564.4.951 0 .388.45 1.096 1 1.574s1.001 1.186 1.002 1.572c.004 1.314.79 3.543 1.528 4.336.535.574.86 1.929 1.195 4.978.252 2.304.729 5.629 1.059 7.389.804 4.285.805 13.541.002 17.2a132.07 132.07 0 0 0-1.046 5.39c-.306 1.84-.765 2.997-1.585 3.991-.635.771-1.155 1.781-1.155 2.246 0 .513-.393 1.024-1 1.3-.55.251-1 .736-1 1.078 0 .342-.63.994-1.4 1.448-.77.454-1.4 1.066-1.4 1.36 0 .293-.405.654-.9.803-.495.148-1.71.765-2.7 1.37-2.325 1.421-6.979 2.28-8.529 1.573l-1.071-.487v-16.908c0-14.712-.08-16.987-.618-17.525-2.477-2.476-47.975-1.699-50.812.868-.423.383-1.67.932-2.77 1.22-1.1.287-2.36.856-2.8 1.263-.44.407-1.567 1.069-2.503 1.471-.937.402-1.792 1.008-1.899 1.347-.108.339-.735.819-1.393 1.068-.659.248-1.366.895-1.572 1.437-.211.556-.824 1.098-1.404 1.244-.677.17-1.029.532-1.029 1.061 0 .489-.393.951-1.007 1.185-.554.21-1.164.796-1.356 1.301-.192.504-.909 1.517-1.593 2.249-.684.732-1.244 1.681-1.244 2.108 0 .428-.419 1.174-.93 1.658-.512.485-1.169 1.781-1.461 2.881-.292 1.1-.802 2.316-1.134 2.702-1.275 1.485-1.292 4.288-.033 5.605.624.652 1.238 1.516 1.366 1.919.128.403.594.848 1.035.988.442.14.969.691 1.172 1.225.203.534.809 1.171 1.346 1.416.538.245 1.084.87 1.214 1.389.139.552.635 1.044 1.196 1.185.56.14 1.058.632 1.195 1.179.13.516.597 1.053 1.039 1.194.442.14 1.065.759 1.383 1.376.319.616.945 1.216 1.391 1.332.446.117.987.675 1.202 1.24.218.575.823 1.136 1.37 1.273a1.71 1.71 0 0 1 1.22 1.206 1.713 1.713 0 0 0 1.221 1.205c.539.135 1.089.59 1.222 1.01.133.421.757 1.031 1.386 1.356.629.325 1.258.953 1.398 1.395.141.442.655.903 1.143 1.026.489.123 1.062.615 1.274 1.094.212.479.745 1.054 1.185 1.278.44.224 1.273.857 1.85 1.407 2.575 2.452 7.028 6.093 8.256 6.75.462.247.947.788 1.079 1.202.134.424.757.856 1.427.99.701.141 1.188.491 1.188.854 0 .34.63.917 1.4 1.285.77.367 1.4.811 1.4.987 0 .177.765.808 1.7 1.403.935.595 2.112 1.497 2.616 2.005.504.508 1.274.924 1.71.924.468 0 .942.391 1.155.951.199.523.888 1.134 1.531 1.358.642.224 1.641.88 2.218 1.457.577.578 1.558 1.152 2.18 1.276.626.125 1.299.611 1.51 1.09.209.475.74.931 1.18 1.013.44.083 1.4.676 2.133 1.319.733.643 1.864 1.275 2.514 1.405.65.13 1.37.588 1.599 1.018.23.429 1.077 1.056 1.883 1.393.805.336 1.975 1.041 2.598 1.566.624.525 1.616 1.073 2.204 1.219.588.145 1.295.581 1.57.969.276.388 1.176.92 2 1.184.825.263 1.949.891 2.499 1.396.55.504 1.72 1.108 2.6 1.341.88.234 1.822.781 2.092 1.217.271.436 1.256.999 2.19 1.25.933.251 2.192.874 2.798 1.384.605.509 1.69 1.05 2.41 1.202.721.152 1.76.681 2.31 1.175.55.495 1.862 1.131 2.916 1.415 1.054.283 2.079.819 2.277 1.19.208.388 1.307.886 2.584 1.172 1.223.274 2.223.66 2.223.858 0 .513 1.967 1.465 3.7 1.79.809.151 1.689.537 1.954.857.591.712 2.962 1.735 4.022 1.735.427 0 1.367.45 2.088 1 .722.55 1.673 1 2.114 1 1.227 0 3.36.838 4.153 1.631.391.391 1.579.835 2.64.986 1.061.152 2.829.772 3.929 1.379 1.1.607 2.791 1.223 3.758 1.368.967.145 2.281.636 2.92 1.092.639.455 2.368 1.036 3.842 1.292 1.474.256 3.186.805 3.804 1.22.619.416 2.496.994 4.172 1.286 1.675.291 3.15.668 3.275.838.58.78 2.226 1.308 5.281 1.691 2.063.258 3.434.627 3.629.976.348.622 2.872 1.263 6.519 1.655 1.32.142 2.963.603 3.652 1.025.689.422 2.759.976 4.6 1.232 2.363.329 3.712.74 4.586 1.397.681.513 1.544.932 1.92.932.942 0 2.693.951 3.605 1.959.419.463 1.059.841 1.424.841.364 0 1.062.54 1.55 1.2.488.66 1.155 1.2 1.484 1.2.328 0 .792.43 1.032.956.239.526.865 1.152 1.391 1.391.526.24.956.697.956 1.015 0 .319.45.934 1 1.367.55.432 1 .959 1 1.171 0 .212.63 1.21 1.4 2.218.77 1.009 1.4 2.127 1.4 2.484 0 .779.663 2.123 1.544 3.132.392.449.908 2.544 1.328 5.4 1.254 8.507 2.059 7.921-10.539 7.666-11.015-.223-10.333-.044-10.774-2.832-.291-1.842-3.255-7.16-3.993-7.166-.129-.001-1.102-.677-2.161-1.502l-1.926-1.5H332.6l-2.391 1.719c-1.316.945-2.751 2.295-3.19 3-.439.704-1.023 1.514-1.298 1.799-.275.285-.696 1.275-.937 2.2-1.047 4.025-.672 3.669-3.992 3.802-1.646.066-4.792-.168-6.992-.519s-7.04-.993-10.756-1.425c-3.716-.433-7.676-1.046-8.8-1.363-1.124-.317-3.844-.862-6.044-1.211-2.2-.349-4.72-.888-5.6-1.197-.88-.309-3.014-.847-4.742-1.195-1.728-.349-3.774-.899-4.548-1.222-.773-.323-2.783-.922-4.467-1.33-1.683-.409-3.597-1.011-4.252-1.338-.655-.328-2.091-.821-3.191-1.097a35.71 35.71 0 0 1-3.95-1.294 76.627 76.627 0 0 0-4.2-1.53c-1.237-.405-3.006-1.11-3.931-1.568-.924-.457-1.869-.831-2.099-.831-.23 0-1.561-.54-2.958-1.2-1.397-.66-2.668-1.2-2.825-1.2-.97 0-18.373-8.758-25.037-12.6-1.43-.824-3.41-1.954-4.4-2.51-.99-.556-1.89-1.127-2-1.27-.11-.142-1.64-1.097-3.4-2.122s-3.39-2.025-3.621-2.223c-.232-.198-1.222-.878-2.2-1.513-.979-.634-2.859-1.969-4.179-2.966-1.32-.997-2.935-2.155-3.59-2.573-.654-.417-1.374-.908-1.6-1.09-.225-.181-1.58-1.177-3.01-2.211-2.664-1.928-6.161-4.794-9-7.378-.88-.8-2.22-1.971-2.977-2.6l-1.377-1.144H105.8l-4.358 1.499c-2.397.825-4.557 1.655-4.8 1.845-.243.191-1.537.455-2.875.588-3.007.299-3.674.545-3.966 1.465-.126.398-.661.832-1.189.964-.527.133-1.343.78-1.813 1.44-.469.659-1.117 1.199-1.439 1.199-.322 0-.698.315-.836.7-.139.385-.862 1.33-1.607 2.1-2.607 2.693-2.888 3.065-3.645 4.832-.419.979-1.035 2.005-1.367 2.281-.333.276-.836 1.354-1.119 2.395-.283 1.04-.837 2.206-1.232 2.59-1.824 1.776-3.475 44.792-1.905 49.627.814 2.505.508 2.463 18.869 2.595l16.718.121.449.986c.334.734.33 1.504-.018 3.01-.257 1.113-.467 2.389-.467 2.836 0 .447-.513 1.468-1.141 2.269-.627.802-1.26 1.953-1.407 2.558-.147.605-.538 1.1-.868 1.1-.331 0-.812.463-1.07 1.03-.259.566-.962 1.285-1.564 1.596-.601.311-1.201.906-1.333 1.322-.137.43-.757.86-1.439.996-.659.132-1.633.675-2.165 1.207-.733.733-1.722 1.08-4.09 1.438-1.718.259-4.023.625-5.123.812-2.621.446-14.587.439-17.4-.011-1.21-.194-4.173-.563-6.585-.821-3.38-.362-4.709-.683-5.8-1.4-.778-.512-2.304-1.127-3.39-1.368-1.087-.241-2.199-.757-2.472-1.146-.272-.389-1.222-.948-2.11-1.241-.889-.293-2.013-.956-2.499-1.473-.486-.518-1.2-.941-1.586-.941-.387 0-1.088-.54-1.558-1.2-.47-.66-1.04-1.2-1.267-1.2-.589 0-6.333-5.953-6.333-6.564 0-.279-.45-.713-1-.963-.55-.251-1-.723-1-1.051 0-.327-.514-1.185-1.143-1.908-.628-.723-1.362-1.988-1.63-2.813-.269-.824-.813-1.726-1.209-2.004-.414-.289-.92-1.459-1.187-2.746-.256-1.233-.907-2.841-1.448-3.574-.651-.882-.983-1.863-.983-2.903 0-1.593-.817-7.928-1.634-12.674-.541-3.139-.297-10.151.567-16.324.349-2.489.751-6.359.894-8.6.197-3.087.498-4.592 1.241-6.204.54-1.17 1.172-3.24 1.404-4.6.233-1.36.751-2.832 1.151-3.272.4-.44.963-1.691 1.252-2.78.289-1.089.918-2.373 1.398-2.855.481-.482.997-1.53 1.147-2.33.15-.8.598-1.683.996-1.961.398-.279 1.028-1.268 1.4-2.198.372-.93 1.076-2.005 1.563-2.388.488-.384 1.007-1.178 1.155-1.766.147-.588.618-1.18 1.046-1.316.429-.136.893-.607 1.033-1.047.37-1.166 10.738-11.559 11.532-11.559.369 0 .877-.45 1.128-1 .25-.55.753-1 1.116-1 .364 0 1.179-.54 1.811-1.2.632-.66 1.314-1.2 1.514-1.2.897 0 3.079-1.349 3.298-2.039.145-.457.609-.761 1.161-.761 2.451 0 4.154-3.766 2.372-5.245-.36-.299-.975-1.291-1.367-2.205-.72-1.681-1.429-2.432-1.875-1.986-.135.134.043.467.394.74 2.864 2.224 2.8 6.694-.119 8.296a60.444 60.444 0 0 0-3.2 1.899c-.758.494-1.594.899-1.858.9-.264 0-.624.235-.8.521-.176.286-.95.959-1.72 1.494-3.973 2.765-9.842 8.273-13.025 12.222-.866 1.076-1.89 2.307-2.275 2.735-.385.429-.7.918-.7 1.086 0 .169-.411.72-.913 1.225-.502.505-1.149 1.49-1.437 2.189-.288.699-.86 1.576-1.271 1.948-.412.373-.958 1.331-1.213 2.129-.256.799-.781 1.812-1.167 2.252-.387.44-.943 1.52-1.237 2.4-.293.88-.833 2.05-1.201 2.6-.367.55-.99 2.17-1.384 3.6-.395 1.43-.982 3.013-1.305 3.518-.323.505-1.025 3.385-1.56 6.4a566.466 566.466 0 0 1-1.406 7.682c-.984 4.994-.603 24.959.562 29.4.577 2.2 1.163 4.66 1.303 5.467.139.808.785 2.518 1.436 3.8.651 1.283 1.185 2.57 1.188 2.86.003.289.426 1.099.941 1.8.515.7 1.167 1.858 1.449 2.573.281.715.631 1.3.777 1.3.146 0 .603.585 1.016 1.3.709 1.229 4.875 6.104 6.481 7.583 1.895 1.746 4.055 3.452 5.241 4.138.715.413 1.3.883 1.3 1.044 0 .262 1.077.871 5 2.827 4.049 2.019 5.928 2.746 8.6 3.328 1.65.359 3.99.952 5.2 1.317 1.823.549 4.12.663 13.4.663h11.2l3.8-1.366c2.09-.751 4.172-1.696 4.626-2.1.454-.404 1.02-.734 1.258-.734.519 0 6.116-5.475 6.116-5.983 0-.196.415-.864.922-1.486.507-.622 1.169-1.941 1.472-2.931.302-.99.877-2.468 1.278-3.284.925-1.886.98-4.934.095-5.273-.348-.134-8.326-.243-17.73-.243H76.139l-.869-.926c-.87-.925-.87-.934-.87-21.223 0-21.562.195-24.539 1.841-28.163.527-1.161.96-2.331.96-2.6.001-.268.399-1.118.884-1.888.485-.77 1.206-2.03 1.601-2.8 1.156-2.25 2.535-3.995 5.806-7.347 6.221-6.373 7.827-6.606 12.408-1.803 5.459 5.724 17.561 17.716 18.919 18.748.722.548 2.079 1.763 3.015 2.7.937.936 1.893 1.702 2.125 1.702.232 0 .699.422 1.037.938.339.516 1.047 1.135 1.575 1.376.528.24 1.077.808 1.221 1.262.144.453.538.824.874.824.337 0 1.092.513 1.679 1.141.586.627 1.603 1.42 2.26 1.762.657.341 1.631 1.088 2.165 1.659.533.571 1.204 1.038 1.491 1.038.286 0 .804.433 1.151.962.346.529 1.077 1.074 1.623 1.211s1.187.676 1.424 1.197c.243.532.9 1.042 1.498 1.161.587.118 1.566.677 2.176 1.242.611.566 1.65 1.308 2.309 1.649.66.341 1.299.88 1.421 1.199.123.318.447.579.722.579.275 0 1.291.596 2.257 1.324.967.728 2.337 1.557 3.045 1.843.707.285 1.389.841 1.513 1.234.134.421.789.82 1.593.971.751.141 1.87.79 2.485 1.442.616.652 1.41 1.186 1.766 1.186.355 0 1.331.544 2.167 1.209.837.665 1.987 1.318 2.555 1.452.569.133 1.484.646 2.034 1.139.55.493 1.511 1.017 2.134 1.165.624.147 1.54.673 2.036 1.169.496.495 1.648 1.125 2.561 1.398.912.273 2.113.918 2.668 1.432.555.514 1.697 1.045 2.537 1.179.841.135 1.852.601 2.246 1.037.394.435 1.639 1.061 2.767 1.39 1.128.328 2.364.965 2.747 1.414.383.449 1.036.816 1.451.816 1.039 0 3.414 1.03 3.998 1.733.264.319 1.267.698 2.227.842.961.144 2.53.772 3.487 1.396.958.624 2.57 1.253 3.582 1.398 1.013.144 2.184.581 2.603.971.418.39 1.901.951 3.294 1.247 1.394.296 3.156.96 3.916 1.475.76.516 1.791.938 2.291.938 1.399 0 4.904 1.136 5.418 1.756.253.304 1.622.678 3.042.83 1.438.154 3.427.705 4.489 1.243 1.141.578 3.271 1.144 5.306 1.41 1.87.245 4.03.782 4.8 1.193.77.411 3.29 1.02 5.6 1.352 2.31.332 5.231.966 6.49 1.41 1.26.443 3.06.812 4 .819 1.917.014 8.878.97 10.11 1.388.44.149 1.16.426 1.6.616.44.189 5.03.556 10.2.814 5.17.259 11.29.634 13.6.833 10.036.868 50.83.862 55.281-.008 2.265-.442 5.019-.931 6.119-1.086 1.204-.17 2.46-.666 3.156-1.247.636-.531 1.658-1.066 2.272-1.189.614-.122 1.52-.653 2.014-1.178.493-.526 1.141-.956 1.439-.956.999 0 8.54-7.359 9.593-9.362.336-.64.943-1.519 1.349-1.954.405-.436.851-1.312.991-1.948.14-.635.666-1.646 1.17-2.246.578-.688 1.02-1.901 1.199-3.29.156-1.21.647-3.64 1.092-5.4.444-1.76.972-4.01 1.174-5 .422-2.076.073-6.14-.654-7.6-.273-.55-.798-2.332-1.165-3.96-.367-1.629-1.008-3.395-1.426-3.925-.417-.531-.966-1.593-1.219-2.36-.253-.767-.893-1.862-1.423-2.433-.529-.572-.962-1.249-.962-1.505 0-.758-6.57-7.236-8.356-8.241-.904-.508-1.644-1.065-1.644-1.238 0-.454-6.547-3.514-8.095-3.783-.718-.125-2.655-.64-4.305-1.143s-4.26-1.141-5.8-1.417-3.311-.761-3.936-1.077c-.624-.317-2.604-.851-4.4-1.187-1.795-.336-4.001-.945-4.902-1.353-.901-.408-2.95-1.015-4.555-1.35-1.604-.334-3.302-.861-3.774-1.17-.471-.309-1.932-.793-3.245-1.076-1.313-.283-3.029-.831-3.812-1.218-.783-.386-2.576-1.001-3.984-1.366-1.408-.365-3.018-.987-3.576-1.382-.559-.395-1.787-.847-2.73-1.005-.943-.157-2.694-.809-3.892-1.449-1.199-.639-2.448-1.162-2.778-1.162-.329 0-1.944-.63-3.589-1.4-1.644-.77-3.223-1.401-3.509-1.401-.285-.001-1.14-.381-1.899-.844-.76-.463-2.142-1.071-3.071-1.351-.93-.279-2.2-.871-2.823-1.315-.623-.443-1.851-1.001-2.729-1.239-.878-.238-2.261-.887-3.075-1.441-.813-.555-1.673-1.009-1.911-1.009-.414 0-5.125-2.262-7.21-3.462-.55-.317-1.72-.902-2.6-1.3-.88-.399-2.3-1.2-3.156-1.781-.856-.582-1.846-1.062-2.2-1.068-.354-.006-1.351-.546-2.215-1.2-.864-.654-1.796-1.189-2.07-1.189-.273 0-1.006-.411-1.628-.914-.622-.502-1.989-1.342-3.037-1.865-1.048-.524-2.105-1.193-2.349-1.487-.243-.294-.659-.534-.924-.534-.264 0-1.366-.63-2.449-1.4-1.083-.77-2.126-1.4-2.318-1.4-.192 0-.963-.54-1.715-1.2-.752-.66-1.604-1.2-1.895-1.2-.29 0-.976-.416-1.525-.925-.549-.508-1.658-1.314-2.465-1.79-.807-.476-1.689-1.048-1.961-1.27-1.526-1.251-4.393-3.246-5.45-3.793-.671-.347-1.411-.988-1.645-1.426-.234-.438-.65-.796-.923-.796s-1.068-.495-1.767-1.1c-.699-.605-2.285-1.82-3.526-2.7-1.24-.88-2.719-2.095-3.285-2.7-.566-.605-1.24-1.1-1.497-1.1-.257 0-.951-.495-1.543-1.1a36.687 36.687 0 0 0-2.366-2.169c-10.743-8.895-28.787-26.636-30.541-30.029-.992-1.917 2.111-11.816 3.961-12.638.172-.076.92-1.067 1.664-2.201 2.06-3.143 6.549-7.55 8.414-8.259.556-.211 1.011-.575 1.011-.808 0-.234.765-.779 1.7-1.212.935-.434 2.24-1.134 2.9-1.557.66-.423 1.496-.782 1.858-.798.362-.016 1.982-.614 3.6-1.329l2.942-1.3 22.262-.124 22.262-.124.838.899c.824.884.838 1.196.844 18.124.003 9.474.161 17.47.351 17.769.73 1.152 8.824-1.013 11.42-3.054.622-.49 1.288-.89 1.48-.89.52 0 5.943-5.643 5.943-6.183 0-.257.321-.815.714-1.242.393-.426 1.338-2.485 2.1-4.575l1.386-3.8-.008-11.6c-.007-11.493-.017-11.633-1.1-15.145-.6-1.949-1.092-3.911-1.092-4.36 0-.448-.435-1.733-.967-2.855a378.479 378.479 0 0 1-1.791-3.84c-2.582-5.642-7.865-12.486-12.277-15.902-4.327-3.352-5.705-4.354-6.765-4.921-3.114-1.667-3.769-1.995-6.2-3.104-1.43-.652-4.22-1.554-6.2-2.005-1.98-.45-4.41-1.05-5.4-1.332-2.836-.808-25.765-.691-29.2.15-3.169.775-6.336 1.391-9 1.75-1.1.148-2.63.585-3.4.972s-2.21.926-3.2 1.198c-1.698.467-7.091 2.799-8.4 3.632-.33.21-1.32.728-2.2 1.15-.88.423-2.22 1.229-2.978 1.79-.757.562-1.614 1.022-1.903 1.022-.29 0-1.091.54-1.782 1.2-.691.66-1.375 1.2-1.521 1.2-.146 0-.617.315-1.047.7-.43.385-1.859 1.588-3.175 2.673-2.67 2.2-6.719 6.29-8.936 9.026-.802.99-1.677 2.032-1.944 2.315-.267.283-.801 1.049-1.186 1.701-.385.652-.833 1.185-.996 1.185-.162 0-.639.765-1.059 1.7-.421.935-1.537 2.501-2.479 3.48l-1.714 1.78-1.722-1.98c-.947-1.089-1.931-2.43-2.187-2.98-.255-.55-.628-1.27-.829-1.6a306.2 306.2 0 0 1-1.053-1.751 93.235 93.235 0 0 0-1.989-3.091c-.715-1.066-1.3-2.04-1.3-2.164 0-.124-.63-1.161-1.4-2.304-.77-1.144-1.4-2.273-1.4-2.509 0-.237-.323-.779-.719-1.206-.395-.426-1.041-1.585-1.435-2.575-.395-.99-.926-2.042-1.182-2.339-.255-.296-1.004-1.599-1.664-2.896l-3.392-6.662c-2.631-5.164-4.008-7.328-4.008-6.297m-93.573 13.308c-.015.723.324 2.793.754 4.6.43 1.808.947 4.366 1.149 5.686.321 2.099.374 2.199.417.8.058-1.85-.872-7.489-1.714-10.4-.527-1.821-.581-1.883-.606-.686m2.596 14.886c.099 1.21.452 2.975.784 3.922.333.948.805 3.07 1.05 4.716.245 1.646.541 2.897.659 2.78.365-.366-.725-7.103-1.524-9.418-.418-1.21-.847-2.65-.954-3.2-.108-.55-.114-.01-.015 1.2m2.577 12.739c0 .406.303 1.345.673 2.087.37.742.9 2.657 1.178 4.255.278 1.599.764 3.494 1.08 4.213.747 1.696 1.389 3.502 1.601 4.506.094.44.094-.067.002-1.126-.093-1.059-.592-2.859-1.111-4-.518-1.141-1.137-3.35-1.376-4.91-.569-3.713-2.047-7.342-2.047-5.025m4.801 17.072c0 .446.281 1.214.626 1.707.345.492.868 1.657 1.161 2.589.317 1.007.549 1.353.572.853.05-1.059-.683-3.199-1.629-4.76-.604-.996-.728-1.062-.73-.389m2.401 6.81c.002.429.295 1.319.652 1.979.356.66.969 2.19 1.361 3.4.391 1.21.728 1.822.749 1.36.046-1.064-.59-3.01-1.81-5.539-.53-1.099-.953-1.632-.952-1.2m2.798 7.956c0 .098.343.773.761 1.5.419.728.892 1.948 1.052 2.712.159.764.785 2.384 1.391 3.6.606 1.216 1.213 2.481 1.349 2.811.137.33.146-.098.02-.95-.125-.853-.657-2.203-1.181-3-.524-.798-1.144-2.311-1.377-3.363-.508-2.292-2.015-4.767-2.015-3.31m4.8 11.863c0 .33.176.776.392.992.215.215.748 1.106 1.184 1.98.436.873.799 1.278.808.9.009-.378-.361-1.368-.822-2.2-1.064-1.921-1.562-2.454-1.562-1.672m2.4 4.928c0 .178.431 1.158.957 2.178s1.186 2.484 1.465 3.254c.279.77.816 1.76 1.193 2.2.378.44.893 1.446 1.145 2.235.253.79.896 2.027 1.429 2.75.533.722 1.077 1.807 1.21 2.41.132.603.547 1.436.921 1.851.374.415 1.086 1.564 1.583 2.554 1.746 3.482 2.651 4.938 2.797 4.501.189-.569-1.402-3.701-1.881-3.701-.201 0-.482-.405-.624-.9-.464-1.614-1.425-3.5-1.783-3.5-.192 0-.571-.675-.84-1.5-.27-.825-.918-2.13-1.44-2.9-.522-.77-1.122-2.038-1.334-2.817-.211-.78-.708-1.77-1.104-2.2-.395-.431-.933-1.506-1.194-2.389-.433-1.462-2.5-4.791-2.5-4.026M342.317 326.7c2.373 1.188 5.106 3.69 5.52 5.053.142.466.475 1.117.742 1.447 1.578 1.956 1.836 8.082.421 10-.55.745-1 1.502-1 1.681 0 .718-2.288 2.826-4.382 4.036-5.77 3.337-13.128 1.055-17.234-5.343-1.592-2.48-1.523-8.28.123-10.346.275-.345.853-1.324 1.285-2.175 2.387-4.705 9.54-6.849 14.525-4.353" fill="#d48d04"/></g></svg>