<svg width="16" height="16" fill="none" xmlns="http://www.w3.org/2000/svg"><path d="m9.762 8 5.982-5.982a.871.871 0 0 0 .256-.62.868.868 0 0 0-.256-.618L15.22.256A.868.868 0 0 0 14.601 0a.868.868 0 0 0-.619.256L8 6.238 2.018.256A.867.867 0 0 0 1.399 0 .867.867 0 0 0 .78.256L.256.78a.876.876 0 0 0 0 1.238L6.238 8 .256 13.982a.87.87 0 0 0-.255.62c0 .233.09.453.255.618l.524.524a.868.868 0 0 0 .619.255c.234 0 .454-.09.619-.255L8 9.762l5.982 5.982a.868.868 0 0 0 .619.255c.234 0 .454-.09.619-.255l.524-.524A.87.87 0 0 0 16 14.6a.87.87 0 0 0-.256-.619L9.762 8Z" fill="#787B8E"/></svg>