<svg width="12" height="12" fill="none" xmlns="http://www.w3.org/2000/svg"><path d="m7.322 6 4.486-4.487A.653.653 0 0 0 12 1.05a.651.651 0 0 0-.192-.464l-.393-.393A.65.65 0 0 0 10.951 0a.65.65 0 0 0-.464.192L6 4.68 1.513.192A.65.65 0 0 0 1.05 0a.65.65 0 0 0-.464.192L.192.585a.657.657 0 0 0 0 .928L4.679 6 .192 10.487A.652.652 0 0 0 0 10.95c0 .176.068.34.192.464l.393.393A.65.65 0 0 0 1.05 12a.65.65 0 0 0 .464-.192L6 7.321l4.487 4.487a.651.651 0 0 0 .464.192c.176 0 .34-.068.464-.192l.393-.393a.652.652 0 0 0 .192-.464.652.652 0 0 0-.192-.464L7.322 6Z" fill="#fff"/></svg>