<svg width="16" height="16" fill="none" xmlns="http://www.w3.org/2000/svg"><g clip-path="url('#clip0_11:384')" fill="#fff"><path d="M8 4.703A2.346 2.346 0 0 1 5.656 2.36 2.346 2.346 0 0 1 8 .016a2.347 2.347 0 0 1 2.344 2.343A2.347 2.347 0 0 1 8 4.703ZM.313 13.406a2.347 2.347 0 0 1 .859-3.201 2.343 2.343 0 1 1 2.343 4.06 2.344 2.344 0 0 1-3.202-.859ZM12.485 14.264a2.343 2.343 0 1 1 2.342-4.059 2.343 2.343 0 0 1-2.342 4.06ZM1.915 8.612.98 8.561a7.058 7.058 0 0 1 3.168-5.492l.515.784a6.12 6.12 0 0 0-2.748 4.76ZM14.085 8.612a6.12 6.12 0 0 0-2.748-4.759l.515-.784a7.057 7.057 0 0 1 3.168 5.492l-.935.051ZM8 15.984a6.962 6.962 0 0 1-3.17-.753l.424-.836a6.131 6.131 0 0 0 5.493 0l.423.836c-.989.5-2.055.753-3.17.753Z"/></g><defs><clipPath id="clip0_11:384"><path fill="#fff" d="M0 0h16v16H0z"/></clipPath></defs></svg>