<svg width="18" height="16" fill="none" xmlns="http://www.w3.org/2000/svg"><g clip-path="url('#clip0_3378_14692')" fill="#461A57"><path d="M4.87 2.857h10.351c1.009 0 1.827.768 1.827 1.714v9.715c0 .947-.818 1.714-1.827 1.714H4.871c-1.009 0-1.827-.768-1.827-1.714V4.57c0-.946.818-1.714 1.827-1.714Zm-.608 11.429c0 .315.272.571.609.571h10.35c.336 0 .609-.256.609-.571V4.57c0-.315-.273-.571-.609-.571H4.871c-.337 0-.61.256-.61.571v9.715Z"/><path d="M1.826 0h10.96c1.008 0 1.826.768 1.826 1.714 0 .316-.273.572-.609.572-.336 0-.609-.256-.609-.572 0-.315-.272-.571-.608-.571H1.825c-.336 0-.609.256-.609.571V12c0 .316.273.571.61.571.336 0 .608.256.608.572 0 .316-.272.571-.609.571C.818 13.714 0 12.947 0 12V1.714C0 .768.818 0 1.826 0Z"/></g><defs><clipPath id="clip0_3378_14692"><path fill="#fff" transform="matrix(-1 0 0 1 17.048 0)" d="M0 0h17.048v16H0z"/></clipPath></defs></svg>