<svg width="17" height="16" fill="none" xmlns="http://www.w3.org/2000/svg"><g clip-path="url('#clip0_11:510')" fill="#000"><path d="M8.827 0c-4.412 0-8 3.589-8 8s3.588 8 8 8c4.41 0 8-3.589 8-8s-3.59-8-8-8Zm0 15.076A7.084 7.084 0 0 1 1.75 8 7.084 7.084 0 0 1 8.827.924 7.084 7.084 0 0 1 15.903 8a7.084 7.084 0 0 1-7.076 7.076Z"/><path d="M13.231 3.784a.462.462 0 0 0-.626-.188l-5.2 2.796a.462.462 0 0 0-.188.188l-2.795 5.199a.462.462 0 0 0 .618.63l.002-.002.006-.002L10.25 9.61a.462.462 0 0 0 .188-.188l2.784-5.186a.496.496 0 0 0 .017-.032l.004-.007a.46.46 0 0 0-.012-.413Zm-7.27 7.084 1.776-3.304 1.528 1.527-3.304 1.777Zm3.957-2.43L8.391 6.911l3.303-1.776"/></g><defs><clipPath id="clip0_11:510"><rect x=".827" width="16" height="16" rx="8" fill="#fff"/></clipPath></defs></svg>