<svg id="Group_77666" data-name="Group 77666" xmlns="http://www.w3.org/2000/svg" width="176.66" height="195.999"><g id="Group_77279" data-name="Group 77279"><path id="Path_73344" data-name="Path 73344" d="m-285.581 177.491-86.665-26.969-86.665 26.969S-480 312.778-372.245 346.521c107.711-33.743 86.664-169.03 86.664-169.03Z" transform="translate(460.579 -150.522)" fill="#e03a3f"/></g><g id="Group_77281" data-name="Group 77281" transform="translate(54.064 47.187)"><path id="Path_73346" data-name="Path 73346" d="M-383.434 206.542h-26.7v-8.688a13.418 13.418 0 0 1 13.348-13.464 13.418 13.418 0 0 1 13.348 13.464Zm-13.348 39.093a8.648 8.648 0 0 1-8.612-8.688 8.648 8.648 0 0 1 8.612-8.688 8.648 8.648 0 0 1 8.612 8.688 8.648 8.648 0 0 1-8.613 8.688Zm25.835-39.093h-4.305v-8.688a21.633 21.633 0 0 0-21.529-21.717 21.632 21.632 0 0 0-21.529 21.717v8.688h-4.307a8.647 8.647 0 0 0-8.612 8.688v43.435a8.647 8.647 0 0 0 8.612 8.688h51.671a8.647 8.647 0 0 0 8.612-8.688V215.23a8.647 8.647 0 0 0-8.614-8.688Z" transform="translate(431.231 -176.137)" fill="#fff"/></g></svg>