<svg width="16" height="16" fill="none" xmlns="http://www.w3.org/2000/svg"><g clip-path="url('#clip0_11:359')" fill="#fff"><path d="M15.397 0h-4.362a.603.603 0 0 0 0 1.206h3.759v3.759a.603.603 0 1 0 1.206 0V.603A.603.603 0 0 0 15.397 0Z"/><path d="M15.823.177a.603.603 0 0 0-.852 0L6.368 8.78a.603.603 0 1 0 .852.852l8.603-8.603a.603.603 0 0 0 0-.852Z"/><path d="M13.347 7.497a.603.603 0 0 0-.603.603v6.694H1.206V3.256H7.9a.603.603 0 1 0 0-1.206H.603A.603.603 0 0 0 0 2.653v12.744c0 .333.27.603.603.603h12.744c.333 0 .603-.27.603-.603V8.1a.603.603 0 0 0-.603-.603Z"/></g><defs><clipPath id="clip0_11:359"><path fill="#fff" d="M0 0h16v16H0z"/></clipPath></defs></svg>