<svg width="24" height="24" fill="none" xmlns="http://www.w3.org/2000/svg"><path fill-rule="evenodd" clip-rule="evenodd" d="M18.007 15.116a19.459 19.459 0 0 0 1.951-2.05c.389-.472.583-.707.583-1.066 0-.359-.195-.594-.583-1.066C18.538 9.21 15.406 6 11.77 6c-.84 0-1.652.171-2.423.456l2.547 2.547a3 3 0 0 1 2.874 2.873l3.24 3.24Zm-8.844-4.602a3 3 0 0 0 4.093 4.092l2.301 2.303C14.407 17.555 13.123 18 11.77 18c-3.635 0-6.768-3.21-8.188-4.934C3.194 12.594 3 12.359 3 12c0-.359.194-.594.582-1.066.674-.817 1.732-1.97 3.047-2.954l2.534 2.534Z" fill="#787B8E"/><path d="m5 3 16 16" stroke="#787B8E" stroke-width="2"/></svg>