<svg width="184" height="184" fill="none" xmlns="http://www.w3.org/2000/svg"><path d="M88.883 183.963c-2.474-.073-6.395-.377-9.04-.701-3.494-.431-10.034-1.827-14.185-3.038-8.58-2.502-18.653-7.34-26.035-12.509-16.698-11.695-29.002-28.313-35.311-47.712-.967-2.958-1.487-5.017-2.31-9.074-.783-3.885-1.283-6.896-1.447-8.736-.04-.437-.132-1.29-.197-1.899-.165-1.423-.25-3.118-.33-6.672-.197-9.106.606-15.791 3.1-25.778.65-2.588 1.927-6.453 2.855-8.637.197-.457.382-.96.421-1.125.138-.616 1.56-3.859 2.73-6.222 2.994-6.029 5.784-10.622 9.205-15.156 5.875-7.776 13.244-14.898 21.133-20.43 3.54-2.483 7.678-4.885 13.06-7.592 2.138-1.072 2.29-1.138 5.691-2.482 3.836-1.509 3.968-1.555 12.106-3.845 1.191-.338 2.612-.629 5.823-1.191 4.553-.795 5.639-.94 7.83-1.053 3.388-.172 13.533-.139 16.547.06 4.224.271 7.619.854 13.553 2.316 7.803 1.92 16.633 5.427 23.291 9.253 2.941 1.688 8.086 5.023 9.113 5.897.197.172.842.675 1.421 1.118 3.283 2.476 5.737 4.627 8.882 7.79 3.204 3.217 5.717 6.096 8.389 9.597 5.888 7.717 10.171 15.553 13.369 24.461 4.369 12.158 6.145 25.223 5.211 38.182a91.853 91.853 0 0 1-1.711 12.131c-1.112 5.328-3.007 11.516-4.783 15.633-.25.582-.605 1.429-.783 1.886-.421 1.046-.849 1.972-1.934 4.17-5.593 11.284-13.08 20.953-22.535 29.087-3 2.588-6.553 5.288-9.474 7.214-9.698 6.4-22.238 11.503-33.16 13.495-6.52 1.192-13.935 1.754-20.495 1.562Zm26.936-27.334c2.382-.145 2.671-.351 3.395-2.376.132-.377.494-1.284.803-2.018.302-.735.895-2.178 1.316-3.217.414-1.039.914-2.257 1.105-2.713.191-.457 1.046-2.568 1.895-4.699a905.32 905.32 0 0 1 4.388-10.788c.592-1.423 2.218-5.48 3.349-8.373.395-1.019 1.099-2.76 1.553-3.871 3.441-8.333 7.797-19.207 8.086-20.16.033-.1.013-.159-.066-.185-.283-.113-2.421-.186-7.099-.239-4.559-.06-6.04-.112-6.428-.238-.158-.046-.211-.291-.132-.562.04-.126.218-.616.402-1.099.177-.476.987-2.82 1.783-5.195.802-2.376 2.171-6.407 3.039-8.955.869-2.548 2.31-6.804 3.211-9.464.895-2.654 2.152-6.347 2.783-8.207.639-1.853 1.843-5.387 2.678-7.843 1.908-5.599 3.198-9.358 4.579-13.336.599-1.708 1.073-3.15 1.066-3.21-.066-.337-2.131-.39-15.356-.397h-10.474l-.139.331c-.289.675-.559 1.47-1.065 3.177-.29.966-.672 2.204-.849 2.746-.178.55-.711 2.277-1.178 3.84-.743 2.507-1.276 4.268-2.257 7.51-.151.49-.388 1.192-.533 1.556a12.038 12.038 0 0 0-.454 1.582c-.111.563-.276 1.125-.414 1.423-.118.278-.296.814-.395 1.198-.368 1.482-1.23 4.414-1.612 5.46-.362 1.013-1.085 3.369-2.375 7.777-.145.49-.52 1.667-.829 2.62l-.566 1.728-6.684.04c-3.678.026-12.02.066-18.534.086l-11.857.046-.098-.324-.467-1.549c-.211-.675-.685-2.263-1.066-3.54-.375-1.272-.842-2.84-1.04-3.475a218.88 218.88 0 0 1-.862-2.88c-.276-.946-.651-2.17-.829-2.726-.506-1.589-2.888-9.491-4.099-13.62-.309-1.053-.756-2.53-.987-3.277-.23-.748-.855-2.8-1.388-4.567a228.871 228.871 0 0 0-1.257-4.11l-.296-.9-6.026-.04c-7.567-.059-20.153-.059-20.153-.006 0 .08.888 2.747 2.105 6.347 2.277 6.704 8.843 25.91 10.725 31.371 4.58 13.29 6.96 20.444 6.823 20.484-.257.08-2.448.145-6.856.198-3.04.04-5.823.093-6.185.12-.566.04-.658.066-.677.165-.06.318 1.862 5.447 3.276 8.75 1.033 2.402 6.48 15.831 9.034 22.27.381.967.881 2.171 1.099 2.681.223.509.875 2.104 1.447 3.541a729.086 729.086 0 0 0 2.434 6.022c.764 1.873 2.04 5.017 2.83 6.989 1.276 3.177 2.677 6.546 3.19 7.664l.185.384 9.48-.033c8.494-.039 11.35-.086 11.468-.205.08-.079-3.756-11.079-10.178-29.161a1940.766 1940.766 0 0 1-5.296-15.056c-.77-2.217-1.908-5.48-2.533-7.247a425.137 425.137 0 0 1-1.454-4.17l-.316-.96.276-.046c.836-.132 13.883-.198 31.1-.159 16.963.04 21.575.08 21.68.186.072.066-.849 2.759-4.29 12.528-.888 2.515-2.053 5.818-2.586 7.346a2005.58 2005.58 0 0 0-1.927 5.494c-.527 1.495-1.685 4.785-2.566 7.313a2021.967 2021.967 0 0 1-4.718 13.303c-.5 1.403-1.197 3.395-1.546 4.434a223.938 223.938 0 0 1-1.099 3.144c-.579 1.588-1.052 3.018-1.02 3.051.112.113 6.383.285 11.593.311 1.343.007 3.205.02 4.146.033.94.007 2.197-.02 2.789-.053Z" fill="url('#paint0_linear_2634_1606')"/><defs><linearGradient id="paint0_linear_2634_1606" x1="170" y1="170" x2="52" y2="0" gradientUnits="userSpaceOnUse"><stop stop-color="#6204AC"/><stop offset=".625" stop-color="#EC008C"/><stop offset="1" stop-color="#EC008C"/></linearGradient></defs></svg>