<svg width="50" height="50" fill="none" xmlns="http://www.w3.org/2000/svg"><path d="M25 50c13.807 0 25-11.193 25-25S38.807 0 25 0 0 11.193 0 25s11.193 25 25 25Z" fill="#fff"/><path d="M25 49.306c13.424 0 24.306-10.882 24.306-24.306C49.306 11.576 38.424.694 25 .694 11.576.694.694 11.576.694 25 .694 38.424 11.576 49.306 25 49.306Z"/><path d="M35.397 12.5h-7.06l-8.308 9.064v7.55L35.397 12.5Z" fill="url('#paint0_linear_3378_14394')"/><path d="M20.03 12.5h-5.968v25h5.969v-25Z" fill="#27B7E6"/><path d="m35.932 37.5-9.806-15-3.986 4.315L29.01 37.5h6.922Z" fill="url('#paint1_linear_3378_14394')"/><defs><linearGradient id="paint0_linear_3378_14394" x1="19.799" y1="20.807" x2="34.813" y2="20.807" gradientUnits="userSpaceOnUse"><stop offset=".019"/><stop offset=".058" stop-color="#04151A"/><stop offset=".146" stop-color="#0D3F50"/><stop offset=".234" stop-color="#15647E"/><stop offset=".321" stop-color="#1B82A3"/><stop offset=".408" stop-color="#2099C0"/><stop offset=".494" stop-color="#24A9D5"/><stop offset=".579" stop-color="#26B3E1"/><stop offset=".66" stop-color="#27B7E6"/></linearGradient><linearGradient id="paint1_linear_3378_14394" x1="21.175" y1="26.355" x2="29.692" y2="30.461" gradientUnits="userSpaceOnUse"><stop offset=".017"/><stop offset=".038" stop-color="#02090B"/><stop offset=".133" stop-color="#0A313E"/><stop offset=".232" stop-color="#12556B"/><stop offset=".334" stop-color="#187391"/><stop offset=".439" stop-color="#1D8CB0"/><stop offset=".549" stop-color="#219FC7"/><stop offset=".665" stop-color="#24ACD8"/><stop offset=".792" stop-color="#26B4E2"/><stop offset=".95" stop-color="#27B7E6"/></linearGradient></defs></svg>