<svg width="30" height="30" fill="none" xmlns="http://www.w3.org/2000/svg"><path d="M17.275 27.5h-4.55a1.25 1.25 0 0 1-1.221-.983l-.509-2.354a10.003 10.003 0 0 1-1.919-1.11l-2.296.732a1.25 1.25 0 0 1-1.462-.566l-2.28-3.939c-.291-.51-.19-1.152.24-1.549l1.782-1.625a10.126 10.126 0 0 1 0-2.215L3.279 12.27a1.257 1.257 0 0 1-.241-1.55l2.275-3.941a1.25 1.25 0 0 1 1.462-.566l2.296.73a10.1 10.1 0 0 1 .952-.624c.315-.178.64-.34.972-.483l.51-2.352a1.25 1.25 0 0 1 1.22-.984h4.55c.587 0 1.095.41 1.22.984l.515 2.354c.351.154.693.328 1.024.522.309.178.608.374.895.586l2.297-.731a1.25 1.25 0 0 1 1.462.566l2.274 3.942c.291.509.19 1.151-.24 1.548l-1.782 1.625c.081.736.081 1.48 0 2.215l1.781 1.625c.432.397.532 1.04.241 1.549l-2.274 3.941a1.25 1.25 0 0 1-1.462.567l-2.297-.732a9.98 9.98 0 0 1-1.918 1.108l-.516 2.348a1.25 1.25 0 0 1-1.22.983ZM14.995 10a5 5 0 1 0 0 10 5 5 0 0 0 0-10Z" fill="#A187AB"/></svg>