<svg width="24" height="24" fill="none" xmlns="http://www.w3.org/2000/svg"><g clip-path="url('#clip0_3455_6231')"><path d="M24 11.978a12 12 0 0 1-19.532 9.366 1.16 1.16 0 0 1-.089-1.723l.545-.545a1.163 1.163 0 0 1 1.543-.1 8.9 8.9 0 1 0-.568-13.463l2.456 2.456a.774.774 0 0 1-.547 1.322H.774A.774.774 0 0 1 0 8.517V1.482A.774.774 0 0 1 1.321.938L3.71 3.324A12 12 0 0 1 24 11.978Zm-8.754 3.812.475-.611a1.16 1.16 0 0 0-.2-1.63l-1.969-1.532v-5.05a1.161 1.161 0 0 0-1.165-1.16h-.774a1.161 1.161 0 0 0-1.162 1.16v6.565l3.165 2.462a1.16 1.16 0 0 0 1.63-.2v-.004Z" fill="#4C125A"/></g><defs><clipPath id="clip0_3455_6231"><path fill="#fff" d="M0 0h24v24H0z"/></clipPath></defs></svg>