<svg width="155" height="155" fill="none" xmlns="http://www.w3.org/2000/svg"><path fill="#EEE6F3" d="M0 0h155v155H0z"/><path d="M76.055 98.195h.002c.064.064.13.125.2.182.032.026.065.049.098.073.04.03.077.06.118.087.04.026.08.049.12.073.037.022.073.045.11.065.042.022.084.04.126.06.04.019.078.039.119.055.04.017.082.03.123.046.044.015.086.032.13.045.042.013.084.022.126.032.045.012.09.024.136.034.048.01.097.015.145.022.04.005.08.013.12.017.181.018.363.018.543 0 .041-.004.08-.011.12-.017.05-.007.098-.013.146-.022.046-.01.091-.022.136-.034.042-.01.084-.02.125-.032.045-.013.088-.03.131-.045.041-.015.083-.029.123-.046.04-.016.08-.036.12-.055.041-.02.083-.038.124-.06.038-.02.074-.043.111-.065.04-.024.08-.047.12-.073.04-.027.079-.058.118-.087.033-.024.066-.047.098-.073a2.76 2.76 0 0 0 .2-.181l.002-.001 19.25-19.25a2.751 2.751 0 0 0-3.89-3.89L80.75 89.611V46.75a2.75 2.75 0 1 0-5.5 0v42.86L60.694 75.056a2.75 2.75 0 0 0-3.889 3.89l19.25 19.25ZM97.25 104.5h-38.5a2.75 2.75 0 1 0 0 5.5h38.5a2.75 2.75 0 1 0 0-5.5Z" fill="#461A57"/></svg>