<svg version="1.0" xmlns="http://www.w3.org/2000/svg" width="1554.667" height="1528" viewBox="0 0 1166 1146"><path d="M547.5 49.6c-44.1 3.2-69.3 7.1-105 16.1-56.4 14.2-113.1 39.4-161.5 71.6-60.5 40.2-110.5 90.3-150.8 150.8-25.1 37.7-47.5 83.8-61.7 127.4-12 36.5-19.4 71.8-24.2 115.5-2.4 21.8-2.4 79.2 0 101 6.1 54.8 17 100.1 35.2 146 7.3 18.5 23.9 52.7 34 70.1 82.5 142 226.1 238.7 387.5 260.8 28.1 3.8 40.1 4.6 73.5 4.6s45.4-.8 73.5-4.6c161.4-22.1 305.1-118.9 387.5-260.8 10.1-17.4 26.7-51.7 34-70.1 15.3-38.5 26.8-82.1 32.4-123 3.8-28.1 4.6-40.1 4.6-73.5s-.8-45.4-4.6-73.5c-5.6-40.9-17.1-84.5-32.4-123-7.3-18.4-23.9-52.7-34-70.1-65.6-113-170.7-198.4-294.8-239.3C704.8 63.7 667 55.8 626 51.4c-13.5-1.4-67.1-2.7-78.5-1.8zm45 52.8c3.9 1.7 11.4 11.3 23.3 30.2l7.6 12.1 7.8-6.7c11.8-10.3 27.3-21.9 31.4-23.6 4.9-2.1 12.3-.4 16.4 3.8 5.4 5.3 3.8 8.2-9.3 17-13.6 9-35.5 25.6-36.6 27.6-.5.9-2.1 8.4-3.5 16.7-1.6 9.1-3.4 16-4.5 17.5-4.2 5.8-12 6.3-17.3 1-3.4-3.5-3.5-5.8-1.1-25.3l1.6-13.7-6.9-10.2c-3.8-5.7-11.1-15.6-16.3-22.2-10.6-13.5-12.4-16.9-10.9-20.2 2.2-4.8 11.4-6.8 18.3-4zm-70.2 1.7c5.8 1.6 10 6 18.5 19.7 15 24 31.7 56.2 32.8 63.3 1.2 7.3-7.8 13.1-15 9.6-2.4-1.1-4.4-3.7-8-10.6-2.7-5-5.4-9.7-6-10.5-.9-1.2-3.2-1.2-15.1 0-18 1.8-29.5 3.8-30.5 5.4-.4.7-1.3 3.9-1.9 7.1-2.4 11.7-4 15.8-7.1 17.4-7.1 3.7-16-.2-16-7 0-11.4 15.3-69.5 22.2-84.3 2.4-5 6.4-8.1 12.7-9.8 5.8-1.6 8.6-1.7 13.4-.3zM428 126.5c3.4 1.8 4.6 5 3.1 8.5-.5 1.4-5.2 8.6-10.5 16-5.2 7.4-10.4 15.1-11.5 17.1l-2 3.6 15.7 7.7c36 17.8 44.2 24.7 37.8 32.3-6 7.1-13.3 7-25.2-.5-7.5-4.7-31.6-17.2-37.1-19.3-2.3-.9-2.6-.4-7.7 10.1l-5.4 11.1 5.9 10.7c3.2 5.9 5.9 11.6 5.9 12.7 0 3.1-3.6 8.2-6.9 10-4 2-9.4 1.9-11.9-.3-2.4-2-43.9-65.2-45.3-69.1-1.3-3.3-.5-6.2 2.8-10.2 5.3-6.2 14.8-8.7 19.5-4.9 1.4 1.1 5.6 7.5 9.3 14.2 3.8 6.8 7.5 13.3 8.3 14.6 1.4 2.1 1.8 1.5 10.6-16 10.3-20.6 21.1-38.7 26-43.6 5.4-5.5 13.2-7.5 18.6-4.7zm305.3 10.9c10.7 2.1 21.4 6.5 31.1 13 10.4 6.9 17.6 14.8 22.4 24.5 6.6 13.4 4.5 25.1-4.5 25.1-8 0-12.7-4.9-14.9-15.5-2.1-10.1-4.1-14-9.9-19.4-10.7-9.9-27.3-13.8-38.3-9.1-14.6 6.3-24 28.6-18.6 44.2 3.1 9.2 13.1 17.2 25.3 20.4 7.4 1.8 13.2 1.4 18.9-1.5 2-1 5.6-2.9 8-4.1 5.2-2.7 8.3-2.1 12.9 2.5 6.4 6.4 3.7 13.1-7.5 18.3-7.4 3.4-21.5 4.2-31.3 1.8-8.3-2.1-24.9-10.4-32.1-16.1-18.3-14.7-24-41.4-13.3-62.6 9.1-17.9 28.4-25.9 51.8-21.5zm-77.9 223.1c4.2 1.4 10.9 4.4 14.9 6.9 10.3 6.2 12.3 7.1 20.7 9 23.8 5.6 26.3 6.8 37.5 18 4.9 5 10.6 10.3 12.7 11.7 2.2 1.4 9.9 8.6 17.3 15.9 12.2 11.9 13.7 13.8 15.1 18.7 1.5 5.1 1.5 5.9-.5 14.1-1.2 5.1-2.5 16.1-3.1 26.7-.7 10-1.8 19.4-2.5 21.2-.7 1.7-1.8 7.3-2.5 12.3-.6 5.1-1.8 10.6-2.8 12.2-4.3 7.4-5.2 9.4-5.2 11.5 0 2.1-6.9 12.1-10.9 15.7-1.5 1.4-2.9 1.7-5.6 1.2-4.2-.8-4.3-1.5-.9-4.7 3.5-3.3 4.4-5.1 5.4-11.6.5-3.1 2.1-7.4 3.5-9.6 2.7-4 2.7-6.6 0-3.1-2.7 3.4-5.2 8.8-6 12.9-.3 2.1-1.6 5.2-2.7 6.7-1.9 2.8-7.5 6.4-8.4 5.5-.9-.9 3.6-32.9 5-35.5 2-3.8 6.3-7.5 12.6-10.8 5.9-3.1 13.2-9.9 15.6-14.6 1.9-3.7 1.2-4.7-.9-1.4-3.5 5.2-9.5 10-17.3 13.6-9.9 4.6-13.9 8.9-15.4 16.9-1.5 7.3-3.8 11.9-6.4 12.7-1.1.4-5.9.7-10.6.8-9.5.2-12.8 1.6-18.5 7.6-4.1 4.4-12.6 10.6-18.4 13.6-5.9 2.9-9.9 3-17.4.4-3.1-1.1-7.2-2-9.1-2-13.9 0-17.8-5.9-15-23 1.6-10 1.2-19.9-1.1-27.5-1.1-3.6-1.2-2.5-1.1 10.5 0 8-.3 18.1-.8 22.5-.7 6.4-.5 8.7.7 11.7 2 4.7 6.9 7.8 12.4 7.8 2.3 0 7.7 1.1 12 2.5s9.3 2.5 11.2 2.5c5.6 0 15.5-5.7 24.6-14.1 4.5-4.2 9.4-8.3 10.7-9 1.3-.8 6.1-1.4 11.3-1.4 5-.1 9.8-.5 10.8-.9 2.3-1.1 2.2 2.3-.2 12.9-3 13.2-6.4 18.3-13.3 19.9-2.3.5-2.8.3-2.8-1.1 0-1 .7-2.7 1.5-3.7.8-1.1 1.5-2.4 1.5-2.9 0-1.7-3.3 1.7-8.7 9.1-3 4-7.1 8.3-9.1 9.6-7.3 4.6-17.8 9.5-24.7 11.5-3.8 1.1-9.5 3.6-12.5 5.4-7.4 4.5-24.3 11.3-33.7 13.7-4.3 1.1-9.4 3.2-11.7 4.8-2.5 1.8-6.6 3.4-10.6 4.1-7.6 1.5-15.2 4.5-17.5 7.1-2.6 2.9-.2 3.1 6.1.6 5.8-2.4 18.2-5.2 19-4.3.3.2-1.4 2.4-3.6 4.8-5.6 6.1-9.3 13.6-13 26.4-1.8 6-4 11.9-4.9 12.9-.9 1-4 3-7 4.3-3 1.3-7.4 3.8-9.8 5.5-2.5 1.6-8.3 4.8-13 7-8 3.8-8.9 4-14.7 3.3-3.3-.3-8.6-.8-11.6-.9-3-.2-7-1.1-8.8-2.1-2.5-1.3-4.6-1.6-8-1.1-3.4.4-5.6.1-7.7-1-10-5.3-29.9-7.3-34.8-3.4-3.3 2.6-3.7 2.5-3.7-.9 0-4.3-1.9-8.9-4-9.6-2.3-.7-9.6 1.1-12.4 3.1-2.6 1.8-3.6 1.8-3.6-.1 0-2.8-4.6-4.6-12.3-4.8-5.9-.2-7.9.2-9.4 1.5-2.8 2.5-4.2 2.2-4.9-1-2.2-8.8-7.7-16.2-12.1-16.2-1.2 0-3.8 1.4-5.8 3.1-2 1.8-3.7 3-3.8 2.8-.2-.2-.8-1.5-1.5-2.9-1.6-3.2-7.1-7-10.1-7-1.2 0-3.3 1.2-4.7 2.7-3.1 3.3-4.2 2.3-2.4-2.5 1.3-3.8 9.1-15.7 13.2-20.3 2.4-2.6 12.9-10.9 18.3-14.3 7.9-5.1 20.3-18.3 28.3-30.3 1.3-1.9 4.4-5.6 7-8.3 2.6-2.7 5.3-5.8 6-6.9 1.4-2.5 1.6-8.7.2-9.6-.6-.4-1 .7-1 2.6 0 3.2-3.4 9.9-5.1 9.9-1.3 0-3.3-4.4-6.5-14-2.3-7.2-2.7-10.1-2.7-19 .1-9.7.4-11.4 4.1-22 5.8-16.3 6.4-21.3 6-45.5l-.3-21 3.7-7.8c7.3-15.4 13.3-20.1 25.3-20.1 4.2 0 9.2.7 12.4 1.8 4.9 1.7 7.5 1.8 23 1.3 11.5-.4 21.3-1.3 28.4-2.7 9.1-1.8 11.9-1.9 17-1.1 13.4 2.3 26.7 4 38 5 14.3 1.2 18.4 2.9 25.3 10.3 9.1 9.7 11.9 17.8 11 32.8l-.5 9.5 1.5-4.5c1-3.1 1.4-7.4 1.2-13.5-.3-7.6-.8-10-3.4-15.5-7-14.6-15.8-20.5-32.6-22.1-11.7-1-29.9-2.9-37.2-3.8-2.7-.3-5.1-1.1-5.2-1.6-.2-.6 1.5-2.1 3.7-3.5 4.1-2.5 8.8-7.1 30.1-29.4 6.2-6.5 13.6-13.4 16.5-15.2 13.3-8.6 32.2-11 47.7-5.9zm405.1 151.6c8.6 4 13.5 12.1 13.5 22 0 13.9-10.1 23.9-24 23.9-14 0-24-10-24-24 0-9.9 4.7-17.5 13.5-21.9 5.6-2.8 15.1-2.8 21 0zm-952 6c8.6 4 13.5 12.1 13.5 22 0 13.9-10.1 23.9-24 23.9-14 0-24-10-24-24 0-9.9 4.7-17.5 13.5-21.9 5.6-2.8 15.1-2.8 21 0zm602.6 58.2c3.1 2.4 3.6 4.6 2.6 12-1.2 9.2-3.7 14.1-8.5 16.6-5.7 2.9-8.4 8.8-11.2 24.5-1 5.1-1.1 11.3-.4 23.5.5 9.1.8 25.4.8 36.1-.1 18.4-.3 20-2.9 28-7.2 22.2-22 43.3-36.1 51.6-5.2 3.1-12.1 5-21.2 6-7.4.7-19.7 4.9-34 11.3-5.1 2.3-11.8 4.6-15 5.1-8.6 1.4-27.6 2.8-37.7 2.9-9.3.1-11.7.5-29.5 4.3-12.6 2.7-37.3 3.2-48 .9-17.2-3.6-23-6.2-34.5-15.5-3.1-2.5-6.1-4.6-6.7-4.6-.6 0-6.5-5.6-13.2-12.4-10.5-10.7-12.9-13.7-18-23.2-3.2-6-6.9-12.2-8.2-13.7-1.9-2.3-4.4-8.3-4.4-10.9 0-.4 1.6-1.9 3.5-3.3 3.2-2.5 3.6-2.6 5.7-1.1 1.2.9 3.5 1.6 5 1.6s3 .5 3.3 1.1c1.3 2 5.5 3 7.7 1.8 1.8-1 2.5-.7 5 2 2.2 2.4 3.5 3 5.1 2.5 3.4-1 8.4-6.2 10.7-11.1 1.5-3.1 2.6-4.3 3.8-4.1.9.2 1.5 1.1 1.4 1.9-3.1 12.5-3.4 15.9-1.7 20.9 2.1 6.2 6 9.3 13.4 10.9 11 2.3 21.3-2.2 23-10.1.5-2 .7-6.4.4-9.7-.2-3.4.1-6.1.6-6.1s2.2 3.3 3.7 7.2c5.4 14.3 17.5 33.3 24.1 37.8l3.5 2.4 1.8-2.1c1.5-1.9 1.7-4 1.2-18.7l-.5-16.6h3.1c1.7 0 3.7-.7 4.6-1.5 1.9-1.9 2.1-1.9 5.4.5 3.6 2.7 15.9 3.5 18.5 1.2.9-.8 1.7-2.1 1.7-2.9 0-1.9.9-1.6 4.7 1.7 4.1 3.6 5.3 3.7 9.1.5 1.8-1.5 3.9-2.3 5.7-2.2 2.8.2 3.1-.1 6.2-6.1.1-.2 1.7.2 3.6.9 3.9 1.4 2.9 1.8 13.1-5.9 3.9-3 5.6-4.9 5.6-6.5 0-1.3.6-3 1.3-3.9 1.7-2.2 15.7-12.1 16.2-11.6.7.6-3.8 13.5-6.4 18.6-3.1 6.1-2 7.6 1.3 2 3.4-5.9 5.9-12.7 8.8-23.7 1.7-6.8 2.2-12 2.4-24.6.2-16.1.5-17.8 4.2-27.2 1.2-2.8 2.6-8.2 3.3-12 1.3-7.8 2.2-9.3 5.4-9.3 2.1 0 15.8-4.6 24.2-8.1 3-1.2 3.3-1.1 5.3 1.4 5.2 6.5 16 4.9 29.8-4.5 5.7-3.9 4.5-4.8-1.8-1.4-3.8 2-5 2.4-5 1.3 0-.8.6-2 1.3-2.6.8-.6 2.2-2.9 3.2-5.1 1.4-3.2 3.3-4.8 8.7-8 3.9-2.2 7.4-4 7.8-4 1.7 0 8 4.2 8.1 5.3.1.7.1 2.3 0 3.7-.2 2.4-.1 2.4 1.4.6 2.2-2.9 1.8-5.7-1.2-8.3-1.4-1.3-3-2.3-3.5-2.3-1.5 0-.8-2.3 1.4-4.7 2.4-2.5 5.4-2.9 7.9-1zm-36.5 20.2c-.3.9-1.1 1.3-1.6 1-.8-.5-.7-1.1.1-2.1 1.4-1.8 2.4-1.1 1.5 1.1zm-6.1.5c.7 1.1-2.1 8.2-3.8 9.2-3.3 2.1-10.8-.6-9.1-3.3.6-1 10.5-6.9 11.6-6.9.4 0 .9.4 1.3 1zm-544.9 23.1c1.2 1.4 1.9 4 2.2 8.2.5 8.2-.7 9.3-12.9 11.4-5.2.8-9.6 1.7-9.8 1.9-.6.6 8.6 11.1 21.6 24.6 9.2 9.6 12.3 13.5 12.8 16.1 1.5 7.9-1.1 12.3-5.7 9.9-1.3-.7-6.3-5.8-11.3-11.2l-9-10-3.3 7.3c-1.9 3.9-5.4 12.1-7.9 18.1-2.5 6-5 11.7-5.6 12.7-4.1 6.6-10.7-.5-10.7-11.4 0-4.9.9-7.4 8-21.6 4.4-8.9 8-16.7 8-17.2 0-.8-6.8-10.5-10-14.2-.4-.5-3.4-.3-6.7.3-7.6 1.5-9.5.6-11.8-5.5-2-5.1-1.6-11.9.8-14.3 1-.9 8.3-2.4 21.4-4.2 24.9-3.5 27.4-3.6 29.9-.9zm950.2-.5c1.2.8 3.2 3.4 4.5 5.7 1.9 3.7 2.2 5.6 2.2 16.7-.1 12.7-1.4 20.9-7.1 44.5-2.9 11.8-4.9 16.3-7.9 17.1-1.3.3-11.1-2.1-23.1-5.8-24.3-7.4-24.7-7.7-22.7-17 .7-2.9 3-13.6 5.3-23.8 5.2-23.7 6.3-26.9 11.1-32.4 3.4-3.8 4.7-4.6 7.5-4.6 4.5 0 7.8 3.4 9.4 9.7l1.1 4.7 1.9-4.3c4.8-10.5 11.8-14.7 17.8-10.5zM614 626.2c0 .7-.9 3.3-2 5.7-4 8.7-5 15.2-5 32.1 0 19.4-.1 19.6-9.5 26.5-2.2 1.6-5.3 4-6.8 5.4l-2.8 2.6-1.9-2.5c-2.9-3.7-2.6-5.9.8-5.7 2.5.2 2.7-.1 3-4.3.2-2.5-.2-6.9-.9-9.7-1.2-5.1-1.1-5.3 1.4-7.9 1.8-1.8 3.7-6 5.8-12.8 1.7-5.5 4.6-13.3 6.5-17.2 4.4-9 11.5-16.5 11.4-12.2zm-236.2 23.4c.4 3-3.8 12-4.9 10.3-.9-1.5-.1-8.4 1.3-11.2 1.2-2.2 3.2-1.7 3.6.9zm14.9-.6c3 1.8 7.3 8.4 7.3 11.2 0 2-9 19.5-11 21.3-1.6 1.5-2.2 1.5-7.5 0-3.1-.9-5.8-2.2-6.1-2.9-.2-.7 1.1-4.5 2.9-8.6 1.9-4.1 4-9.9 4.7-12.7 1.1-4.9 4.2-10.3 5.8-10.3.4 0 2.1.9 3.9 2zm22.3 5.9c6 8.5 6.6 18 1.9 28.2-4.5 9.7-5.6 10.5-12.2 9-6.6-1.6-11.7-4.1-13.1-6.3-.8-1.4 0-3.7 4-11.5 2.9-5.4 5.5-11.2 5.9-12.8 2-8.7 9.4-12.3 13.5-6.6zm-35.5 5.5c-1.6 6-4.6 11.7-5.3 9.7-.8-2.5 5.1-17.2 6.4-15.9.2.3-.3 3-1.1 6.2zM443 667c4.1 0 4.1 3.3.1 11.2-5.5 10.7-6.4 11.9-13.7 17.7-8 6.4-8.9 6-8.8-4.2 0-8.2 3.3-19.4 6.5-22.3 2-1.8 10-3.5 12.7-2.8.8.2 2.2.4 3.2.4zm24 22c.5 10.2 1 24 1 30.8 0 12.1 0 12.4-2.8 15.1-2.3 2.4-3.8 2.9-10 3.4-8.6.7-10.9 0-14.5-4.3-2.4-2.7-2.7-4-2.7-10 0-8.2 1.4-12.6 9-28.5 3.1-6.6 6.8-14.4 8.1-17.3 1.3-3 3.6-6.5 5.3-7.9 4.8-4 5.4-2.3 6.6 18.7zm-13-15.2c0 2-13.9 29.5-16 31.6-1.6 1.6-6-.4-7.1-3.1-.9-2.5-.6-3.1 4.4-7.7 3.4-3.2 6.7-7.5 8.7-11.6 3.1-6.4 6.3-9.9 8.8-10 .6 0 1.2.4 1.2.8zm132.7 4.2c2 6.7 1.4 9.5-1.9 9.6-1.7.1-3.6 1.1-4.9 2.7-1.7 2.2-2.4 2.5-4 1.7-1.5-.9-1.9-2.2-1.9-6.8 0-6.3 1-8.2 5.5-10.6 4.4-2.3 5.8-1.6 7.2 3.4zm-84.7 2c4.9 1.8 8 4.9 8 8 0 1.5-1.1 6.4-2.5 11.1-3 9.9-5.5 25.4-5.5 34 0 3.3.5 10.3 1.1 15.5.6 5.2.8 9.8.5 10.2-1.2 1.2-4-1.3-9.8-8.9-6.8-8.7-14.4-23.6-19-36.9-3-8.6-3.3-10.5-3.1-19.8.2-13.6 1-15 9.5-15.4 7.5-.4 16 .6 20.8 2.2zm69.5 9.7c-.8 9.9-1.7 11.8-4.5 10-1.5-.9-2.3-.8-3.8.6-2.3 2.1-3.6 2.1-5.6.1-1.6-1.5-2.1-7-1-10.9.5-1.9 11-8.1 14.2-8.4 1.1-.1 1.2 1.6.7 8.6zm-191.2-5.8c1.9.7 2.5 1.9 3 5.5.4 2.6 2 7.8 3.7 11.7 1.6 3.9 3 7.7 3 8.4 0 1.4-3.7 4.5-5.3 4.5-1.1 0-3.2-5.3-5.8-14.6-4.7-17.3-4.7-17.8 1.4-15.5zm142.6 2c1.5 1.5 1.7 2.9 1.4 7.2-.3 3-1.1 6.3-1.9 7.4-.8 1.1-2.5 3.7-3.9 5.7-1.4 2.1-3.1 3.8-3.9 3.8-.8 0-2.3-1.8-3.4-4.1-1.9-3.8-1.9-4.4-.6-8.1.8-2.2 1.4-5.1 1.4-6.4 0-1.2.4-3.4 1-4.8.8-2.1 1.6-2.6 4.5-2.6 2.1 0 4.3.8 5.4 1.9zm-132.4 2.8c1.3 1.6 2.6 4.2 2.9 5.9.4 1.7 1.8 6 3.1 9.4 2.9 7.5 3.1 9.3.8 8.8-2.2-.4-6.5-7.9-9.8-16.9-3.5-9.7-2.1-13 3-7.2zm146.2.9c.8 2.2-2.2 11.5-4.8 14.8-4.2 5.4-8.8 1.8-6.4-5 .8-2.2 1.4-5.3 1.5-7.1 0-3.5.9-4.1 5.8-4.2 2.1-.1 3.5.5 3.9 1.5zm17 6.2c-.9 8.5-1.4 9.4-4.7 8.7-1.7-.4-3.7-.1-4.9.7-1.5.9-2.6 1-3.8.2-3.1-2-3.6-3.8-2.3-9.7l1.1-5.7h15.2l-.6 5.8zm-150.3-.8c1.6.6 2.8 2 3.2 3.7.4 1.5 1.4 5.8 2.4 9.6 1.3 5.4 1.4 6.9.4 7.8-2.2 1.8-4.9-.6-7.9-6.8-4.3-9.1-6.4-15-5.7-15.7.7-.7 3.4-.2 7.6 1.4zm14.1-1.1c.3.5.7 2.3.9 4 .6 5.2 4.4 7.9 7.3 5 1.8-1.8 3.3-.1 3.3 3.7 0 4.3-1.8 8-5.9 11.9-2.5 2.3-3.5 2.7-4.9 1.9-2.5-1.5-8-13.2-8.8-18.6-.6-4.4-.5-4.8 1.9-5.7 1.4-.5 2.8-1.5 3.2-2 .8-1.3 2.2-1.4 3-.2zm166.3 2.1c.5.9 1.3 3.4 1.6 5.7.7 3.7.5 4.2-2.4 6.4-1.7 1.3-4.9 3.9-7 5.7-6.1 5.2-10.2 2.7-11.4-6.6l-.7-5.4 3 .7c3.8.8 8.5-2.3 7-4.6-1.8-2.9-.9-3.7 4-3.6 3.3.1 5.2.6 5.9 1.7zm-23.9 8.9c2.2 1.6 2.3 2.4 1.9 8.5-.4 7-2 9.5-4.6 7.4-1-.8-2-.4-4.2 1.7-3.6 3.4-6.4 2.9-10.1-2-2.3-3-2.6-4.1-1.9-7 1-4.2 4.7-7.6 7.5-6.8 1.1.3 2.2.5 2.5.5 2.3 0 3-.5 3-2.2 0-2.5 2.7-2.6 5.9-.1zm-31.8 4.9c.8-.3 2.2-.1 3.2.4 1.4.7 1.7.4 1.7-1.7 0-3.3 2.6-4.3 4.6-1.9 1.8 2.3 1.2 10.6-1.1 16.1-1.2 2.8-1.9 3.4-3.2 2.7-1-.4-4.1-.8-7-.8-7.2-.1-9.1-2.1-7.3-7.5.7-2.1 1-4.4.6-5-.4-.6.1-2.5 1-4.2l1.6-3.2 2.2 2.8c1.3 1.6 2.9 2.6 3.7 2.3zm-16.9.7c1.1 1.4 3 2.5 4.3 2.5 3 0 2.5 2.4-1.7 7.4-2.1 2.5-3.7 3.6-5.2 3.4-1.9-.3-2.1-.9-1.8-5.8.2-6.2 1-10 1.8-10 .3 0 1.5 1.1 2.6 2.5zm-377.5 1.2c15.6 7.3 31.8 40.5 30.1 61.8-.9 11.1-7.6 19.9-17.7 23.3-13.1 4.5-28-5.3-37.4-24.8-6.9-14.2-9-23.1-8.5-35.4.3-7.8.9-11 2.6-14.2 2.7-5.2 9.2-10.9 14-12.3 4.8-1.3 12.2-.6 16.9 1.6zm895.6 3.4c17.4 6.1 20.4 7.9 23.5 13.9 8.2 16.4-9.9 60.4-26.7 65-6 1.6-8.8.7-24.9-7.7-15.3-8-17.8-10.3-16.7-15.3.9-3.9 5.1-9 7.5-9 1.1 0 9.1 3.4 17.9 7.6 18.5 8.7 19.9 8.8 25.6 2.2 4.6-5.4 7.8-13.9 7.9-21 .1-8-1.8-9.6-19.8-16.8-8.1-3.2-15.4-6.4-16.2-7.1-3.1-2.6-.8-13.4 3.3-15.8 2.7-1.5 2.6-1.5 18.6 4zm-849.6 88c6.6 3.2 16.5 13 22.9 22.6 12.3 18.4 13.8 34.8 4.2 45.8-10.9 12.4-27.7 11.1-42.1-3.1-12.3-12.2-19.7-26.7-20.5-40.2-.5-9.7 1.1-15 6-20.1 8-8.1 19.1-10 29.5-5zm846.1 5.2c.3 3.2-.8 5.7-6.5 15.5-11 19-22 35.1-24.9 36.4-3.3 1.6-3.6 1.4-25.3-14.7-11.3-8.3-17.3-13.5-17.7-15-1.1-4.3 4.3-11.5 8.5-11.5 1.7 0 8.7 4.1 19.4 11.5 9.3 6.3 17 11.5 17.2 11.5.5 0 10.6-16.3 16.5-26.4 5.5-9.7 7.4-11.7 10.5-11.3 1.5.1 2.1 1.1 2.3 4zm-72.9 43.6c2.3 1.4 1.5 7.1-1.2 9.9-2 2-4 2.6-9.4 3.1-8.1.8-11.6 2.5-16.9 8.3-5 5.5-7.9 12.4-7.1 17.4 1.5 9.3 11 18.4 19.1 18.4 8.7 0 19.8-9.2 23.1-19 1.4-4.2 1.4-5.7.4-10.9-1.5-6.9-.6-9.9 3.5-12.7 5.9-3.8 10.2 1 10 11.3-.1 9.7-5.3 19.4-16.4 30.5-10.7 10.8-18.2 14.8-27.6 14.8-4.8 0-7.4-.6-11.5-2.8-12.2-6.4-16.9-19.7-11.9-34 6.1-17.4 26-35.2 39.3-35.2 2.9 0 5.8.4 6.6.9zm-712.8 20c2 2 2.9 3.9 2.9 6.2 0 2.8-1.8 4.9-15.1 17.8l-15.2 14.6 14.5 14c8 7.7 14.9 15 15.2 16.1.9 2.9-1.9 5.7-4.8 4.8-3.7-1.1-8.7-5.4-24.8-21.4-15-14.9-17.9-18.7-16.5-22.4.3-.7 8.2-8.4 17.6-17 19.1-17.5 20.7-18.2 26.2-12.7zm630 48.1c1 .6 1.9 2.1 1.9 3.4 0 2.6-3.4 6-12.3 12.2-3.1 2.1-5.7 4.1-5.7 4.4 0 .3 5.2 7.8 11.5 16.5 7.8 10.9 11.5 16.8 11.5 18.6 0 4.2-6.1 9.1-10.8 8.7-3.6-.3-4.1-.9-15.2-17.4l-11.5-17.1-8.5 5.4c-6.7 4.2-9.2 5.3-12 5.1-3.2-.3-3.5-.6-3.5-3.3 0-3.4.7-3.9 22-17.7 7.6-5 16.5-11 19.6-13.4 4.7-3.6 8.6-5.9 10.7-6.3.2-.1 1.2.4 2.3.9zm-539.5 25.5c1.9 1.5 3.9 3.7 4.3 4.8 1.4 3.8 2.3 56.8 1 58.3-2.4 2.9-10.2.7-13.3-3.8-1.1-1.5-1.6-4.5-1.6-8.8v-6.5l-14.6-8.9-14.6-8.8-5.8 2.6c-3.1 1.4-7.1 2.6-8.8 2.6-5.9 0-11.8-8.6-7.9-11.8.6-.5 7.5-3.7 15.2-7 7.7-3.3 18.7-8.3 24.5-11.2 12-5.9 15.5-6.1 21.6-1.5zm474.6 14.7c.9.7 6.6 10.2 12.8 21.1 12.6 22.4 13.1 24.4 7.1 28.4-4.1 2.7-9.2 3-11.3.5-.9-.9-3.3-5.1-5.3-9.2-2.1-4.1-3.9-7.7-4.1-7.9-.3-.3-30.1 12.6-31.3 13.6-.2.1 1.3 4.1 3.3 8.7 2.3 5 3.6 9.5 3.4 11.2-.6 5.7-11.4 9.8-15 5.6-2.2-2.3-17.8-42.6-17.8-45.6 0-5.4 10.6-9 14.3-4.9.8 1 2.8 4.8 4.3 8.5 1.5 3.8 3.3 6.8 4 6.8 1.6 0 27.4-11.6 28.7-12.9.5-.5-.7-3.9-2.8-8.1-4.4-8.7-4.3-11.6.4-14.7 3.8-2.6 6.9-2.9 9.3-1.1zm-417.4 16.4c24.1 9.9 29.8 13.6 32.2 20.8 1.5 4.7-.1 10.4-4.1 14.1-2.9 2.9-3.4 3-12.7 3-9.2 0-10.3-.3-20.9-4.6l-11.2-4.5-3.5 7.7c-3.8 8.5-6 10.4-11.1 9.5-5-1-8.5-4.2-8.5-7.8 0-2.8 17.4-38.1 20.8-42.1.8-.9 2.3-1.7 3.4-1.7 1 0 8 2.5 15.6 5.6zm343.9 21.2c7.1 3.7 8 8.7 2.3 11.7-4 2.1-4.8 2-12.6-2.1-6.1-3.2-7.5-3.6-12.5-3.1-6.4.6-14.8 4.4-17.8 8.3-6.8 8.7-3.6 24.8 5.9 29.7 4.5 2.3 16.8 1.9 22-.7 5.5-2.8 9.9-7.6 11.1-12.1 1.4-5.1 3.4-7.3 7.4-8.1 7.6-1.4 10.1 3.7 6 12.1-4.5 9.2-15.8 15.9-32.3 19.1-13.2 2.5-22.2 1.3-30-4-13.2-9.2-13.8-30.1-1.1-40.9 10-8.6 23.1-12.9 37.9-12.4 7.4.3 10.4.8 13.7 2.5zm-271.6 2.6c10.1 2.5 21.2 5 24.6 5.7 7.4 1.4 10.1 3.6 8.3 6.9-1.1 2.1-1.7 2.2-7.4 1.6-5.1-.5-28.4-5.5-33.7-7.1-1.3-.4-2 .7-3.2 5.5l-1.5 6 4.2 1.1c2.2.6 10.2 2.4 17.6 4.1 12 2.6 18 4.7 18 6.4 0 .3-.5 1.4-1 2.5-1.5 2.8-5.9 2.5-24-1.6-8.5-1.9-16-3.5-16.5-3.5-1.4 0-4.9 13-3.8 14 .8.8 30.8 8 33.4 8 2.8 0 8.9 2.1 10.4 3.6 2.1 2.1 1.9 3.1-.9 4.9-2.2 1.5-3.5 1.4-17.8-1.5-18.1-3.7-33.4-7.4-38.9-9.7-6.8-2.7-6.8-3 .6-26.6 6.5-20.5 8.5-24.7 12-24.7.7 0 9.5 2 19.6 4.4zm170.7 10.7c2.2.7 5.7 4.4 11.5 11.7 4.6 5.9 12.2 15 16.9 20.2 11.2 12.6 11.7 13.6 8.6 16.7-1.5 1.5-4.1 2.7-6.7 3-4.2.6-4.4.4-10.1-5.5l-5.8-6.1-16.7 1.6-16.7 1.7-2 4c-3.7 7.3-5.7 9.5-9.5 10.2-4.6.9-10.3-1.7-10.3-4.7 0-1.1 1.9-5.2 4.1-9.1 2.3-3.9 8-14.6 12.6-23.7 8.5-16.7 10.7-19.7 15.3-20.4 4.7-.7 5.7-.7 8.8.4zm-91.2 1.3c1.1.8 5.9 6.3 10.5 12.1l8.4 10.7 10.7-11.1c9.7-10.2 10.9-11.1 14.3-11.1 2 0 4.5.5 5.6 1 4 2.2 2.3 5.4-9.3 17.9-6.1 6.7-11.4 12.1-11.8 12.1-.4 0-1 4.5-1.4 10-.8 11.9-1 12.4-4.2 13.9-3.4 1.5-6.9 1.4-10.4-.4-3.4-1.7-3.3-1.6-3-14.1.2-9 .1-9.2-3-12.8-1.8-2-6.5-7.8-10.6-12.9-7.7-9.6-9.1-13.6-5.6-15.6 2.5-1.5 7.4-1.3 9.8.3z"/><path d="M514.7 125.7c-1.9 3.5-12 37.4-11.3 38.1.3.2 6-.3 12.8-1.2 6.8-.9 14.1-1.6 16.1-1.6 2.3 0 3.7-.5 3.7-1.3 0-1.8-19.4-34.7-20.5-34.7-.2 0-.6.3-.8.7zM621 391.2c-3.6.5-6.8 1.2-7.2 1.6-.4.4 7.5.7 17.5.7 16.5 0 18.9.2 25.2 2.4 11.9 4 24.3 11.5 40 24.1 9.9 8 10.9 8.2 4 1.1-6.9-7.2-24.8-19.6-34.9-24.1-14.3-6.5-27.6-8.2-44.6-5.8zM554 436.6c5.3 1.1 16.8 7.6 22 12.4l5.5 5-5-.7c-7.1-1.1-27.5-.7-30.7.5-1.5.6-3.4 2.1-4.2 3.4-2.1 3.2-3.1 7.8-1.7 7.8.6 0 1.1-.8 1.1-1.9 0-2.6 4.5-6.7 8.1-7.5 10.1-2 30.7.5 37.8 4.7 5 2.9 12.9 11.9 15.4 17.6 5.3 12-.5 35.4-11.6 46.9-8.4 8.7-16.1 10.5-25.9 5.9-7.8-3.5-14.2-9.7-18-17.4-3.3-6.8-5.4-7.3-3.7-.8 2.5 9.2 10.1 18 20.1 23.1 13 6.8 27.2 1.4 36.3-13.6 5.3-8.7 8.6-19.1 9.2-29 .7-12.5-1.4-17.5-12.5-29.2-16.6-17.4-30.2-26.7-40.1-27.4-2.5-.1-3.5 0-2.1.2zM467.5 449c-7.5 1.2-10.5 4.3-12 12.3-.8 4.2.2 12.7 1.5 12.7.4 0 1-3.4 1.2-7.5.3-6.6.7-7.8 3.1-10.2 2.4-2.5 3.6-2.8 10.5-3.1 9.7-.5 11.8 1 15.8 10.5 2.3 5.8 2.7 8.3 2.8 16.8.1 15.3-2.4 19.9-17.8 31.9-12.2 9.5-11.4 9-13.2 7.5-.8-.7-2.2-2.6-3-4.3l-1.4-3.1.4 3c.2 1.6.7 3.9 1.1 4.9.8 1.7.5 1.9-2.3 1.3-1.9-.4-3.2-.2-3.2.3 0 1.7 6.6 4.3 9.3 3.6 3.7-.9 23.7-16.1 27.4-20.7 5.2-6.5 7.6-14.1 7.7-23.4 0-13.1-5.7-27.6-12.1-30.8-3.6-1.8-10.7-2.6-15.8-1.7zM472.4 551.4c-2.8 1.3-6.5 4.1-8.2 6.2-16.7 20.4-25 31.9-24 33 .3.2 2.7-2.2 5.4-5.4 13.1-15.8 24.7-28.1 27.6-29.5 1.8-.8 5.2-1.7 7.5-2.1 3.5-.5 4.7-.2 6.3 1.4 2.5 2.5 2.5 3.8 0 13.6-2.4 9.4-7.3 20.1-12.9 28.1-7.2 10.3-5.8 9.5-15.2 8.3-7-.9-9.7-.8-15.9.5-11.4 2.4-11.3 3.8.3 2.9 5.6-.4 9.7-.3 9.7.2s-1.2 1.8-2.7 2.8c-1.7 1-2 1.5-.8 1.1 3.3-1.2 11.5-1.8 11.5-.9 0 .4-1.4 2.3-3.2 4.1-3.1 3.2-2.9 4.5.3 2 14.1-10.9 26.4-28 31.4-44 3.4-10.6 3.4-18.9 0-22.2-3.3-3.3-10.1-3.4-17.1-.1zM538.9 578.8c-5.5 2.2-12.3 6.9-16.2 11-7 7.4-7.5 28.6-1.3 54.2 1.3 5.2 2.7 11.5 3.1 14 .4 2.5 1.1 5.2 1.6 6 1.7 3.1.8-7.7-1.7-19.5-1.8-8.7-2.7-16.5-3.1-28.2-.5-15.2-.4-16.4 1.6-20.7 2.4-4.9 9.9-10.7 18.1-14 5.4-2.2 14.8-2.4 20.8-.3 5.2 1.8 5.5.7.5-1.8-5.6-2.7-17.6-3-23.4-.7zM632.2 639.4c-5 6.4-7.2 15.1-9.2 35.5-1.1 10.8-2.6 23.9-3.4 29.1-2.4 14.9-1.9 21.8 1.9 27.7 2.3 3.4 2.8 2.3 1-2-2.1-5.1-1.9-13 .9-28.1 1.4-7.2 3-20.4 3.6-29.4 1.1-16.1 2.8-24 6.5-31.2 2.1-4 1.4-4.9-1.3-1.6zM472.5 746.3c-.8 2-1.5 4.4-1.5 5.4s-.9 3.8-2 6.2c-2.4 5.2-2.5 6.8-.4 5 2.3-1.9 4-5.7 5.4-12.7 1.5-7.2.7-9.2-1.5-3.9zM434 745.3c0 5.4 7.9 20.7 10.8 20.7 1.9 0 1.5-1.1-2.3-6.4-1.9-2.7-4.2-6.9-5.1-9.5-2-5.3-3.4-7.3-3.4-4.8zM1039.8 641c-2.3 1.4-6.1 14.3-9.1 31.4-.2.8 7.6 3.6 10.3 3.6 1.2 0 2.1-2.6 3.8-10.8 2.8-13.4 2.9-21.3.4-23.5-2.1-1.9-3-2-5.4-.7zM1061.2 642.2c-1.1 1.3-2.6 3.6-3.2 5.3-1.1 2.8-7 28.5-7 30.4 0 1 13.8 4.6 14.5 3.9 1.3-1.2 5.5-25.5 5.5-31.2 0-5.3-.4-7-2-8.6-2.6-2.6-5.2-2.5-7.8.2zM121.5 729.9c-11.4 5.1-14.1 18.4-6.9 34 6.1 13.5 16.5 19 26.9 14.2 11.6-5.2 14.4-18.8 7.1-34.2-6.3-13.4-16.7-18.8-27.1-14zM167.5 818.4c-4.2 1.9-9 7.4-10.5 12-4.2 13.1 10.6 33.6 24.4 33.8 7.4.2 15.9-6 18.1-13.1 3.1-10.3-4.9-26.7-15.6-32.2-4.4-2.2-12-2.5-16.4-.5zM311.3 961.4c-5.1 2.8-9.2 5.5-9 6 .2.5 4.3 3.4 9.3 6.3l8.9 5.4.7-5.3c.9-7.5.9-17.8.1-17.7-.5.1-5 2.4-10 5.3zM378 990.7c-1.7 3.6-2.9 6.7-2.8 6.9.9.8 15.9 6.2 19 6.8 9 1.6 13.4-6.5 6.5-11.8-3-2.3-16.8-8.6-18.8-8.6-.5 0-2.2 3-3.9 6.7zM620.7 1034.6l-4.7 10.7 9-.7c4.9-.4 10.1-1.1 11.5-1.4l2.6-.7-6.1-8.5c-3.4-4.7-6.5-8.8-6.9-9.3-.4-.4-2.8 4.1-5.4 9.9z"/></svg>