<svg version="1.0" xmlns="http://www.w3.org/2000/svg" width="249.333" height="249.333" viewBox="0 0 187 187"><path d="M78.3 6.4C43.8 13 17.1 37.6 7.8 71.5c-3.1 11.3-3.1 32.5.1 44 7 26 24.1 46.6 48.3 58 12.9 6.1 21.3 7.9 37.8 7.8 12.9 0 15.5-.3 23.5-2.7 17.8-5.4 37-18.2 46-30.7 24.9-34.7 24.4-76.1-1.3-110.3-9.8-12.9-28.7-24.9-46.8-29.7-10.1-2.7-27.3-3.3-37.1-1.5zm40.9 17.3.3 8.8 9.3.3 9.3.3-.3 4.7-.3 4.7h-28l-.3-8.7-.3-8.7-9.2-.3-9.2-.3-.3-4.8-.3-4.7h29l.3 8.7zM82 27v9h18v30.1l-4.7-.3-4.8-.3-.3-9.8-.3-9.7H72V18h10v9zm75 19.5v14.4l-8.7.3-8.8.3-.3 9.3-.3 9.3-4.7-.3-4.7-.3v-28l8.8-.3 8.7-.3V32h10v14.5zm-94.8-2.8.3 10.8 9.3.3 9.2.3V64H52V43H33V33h28.9l.3 10.7zM44.5 66.5v14l-9.2.3-9.3.3V100H16V71h19V51.9l4.8.3 4.7.3v14zm74.5 1V82h-17.9l-.3 6.2c-.3 5.7-.5 6.3-2.7 6.6-1.2.2-3.4.1-4.7-.2C91 94 91 93.7 91 83V72h18V53h10v14.5zm-36 15V94H73V81H54V71h29v11.5zm89-6.5v5h-15v18h-32V89h22V71h25v5zm3.8 27.7.3 14.3h-18l-.3 9.2-.3 9.3-4.7.3-4.8.3V108h18V88.9l4.8.3 4.7.3.3 14.2zM67 95v5H45v18H19v-10h16V90h32v5zm51 6v6h19v10h-29V95h10v6zm-17 8v5H82v22H72v-32h29v5zm-39.2 14.7.3 14.3H44v19H34v-29h18v-19.1l4.8.3 4.7.3.3 14.2zM101 133v10h18v28h-10v-18H91v-14.3c0-7.9.3-14.7.7-15 .3-.4 2.6-.7 5-.7h4.3v10zm38 2v11h19v3.2c0 6.1-1.8 6.8-16.2 6.8H129v-22h-18v-10h28v11zm-57 20v9h19v10H72v-18H54v-10h28v9z"/></svg>