<svg width="42" height="42" fill="none" xmlns="http://www.w3.org/2000/svg"><path d="M28 14v-1.75c0-1.861 0-2.792-.245-3.545a5 5 0 0 0-3.21-3.21C23.792 5.25 22.861 5.25 21 5.25v0c-1.861 0-2.792 0-3.545.245a5 5 0 0 0-3.21 3.21C14 9.458 14 10.389 14 12.25V14" stroke="#461A57" stroke-width="2" stroke-linecap="round"/><path fill-rule="evenodd" clip-rule="evenodd" d="M6.129 13.129c-.879.878-.879 2.293-.879 5.121V30.5c0 3.771 0 5.657 1.172 6.828C7.593 38.5 9.479 38.5 13.25 38.5h15.5c3.771 0 5.657 0 6.828-1.172 1.172-1.171 1.172-3.057 1.172-6.828V18.25c0-2.828 0-4.243-.879-5.121-.878-.879-2.293-.879-5.121-.879h-19.5c-2.828 0-4.243 0-5.121.879ZM21 27.75a3.25 3.25 0 1 0 0-6.5 3.25 3.25 0 0 0 0 6.5Zm5.25-3.25A5.252 5.252 0 0 1 22 29.655v3.595h-2v-3.595a5.252 5.252 0 0 1 1-10.405c2.9 0 5.25 2.35 5.25 5.25Z" fill="#461A57"/></svg>