<svg width="32" height="35" fill="none" xmlns="http://www.w3.org/2000/svg"><path d="M23 10V8.25c0-1.861 0-2.792-.245-3.545a5 5 0 0 0-3.21-3.21C18.792 1.25 17.861 1.25 16 1.25v0c-1.861 0-2.792 0-3.545.245a5 5 0 0 0-3.21 3.21C9 5.458 9 6.389 9 8.25V10" stroke="#fff" stroke-width="2" stroke-linecap="round"/><path fill-rule="evenodd" clip-rule="evenodd" d="M1.129 9.129C.25 10.007.25 11.422.25 14.25V26.5c0 3.771 0 5.657 1.172 6.828C2.593 34.5 4.479 34.5 8.25 34.5h15.5c3.771 0 5.657 0 6.828-1.172 1.172-1.171 1.172-3.057 1.172-6.828V14.25c0-2.828 0-4.243-.879-5.121-.878-.879-2.293-.879-5.121-.879H6.25c-2.828 0-4.243 0-5.121.879ZM16 23.75a3.25 3.25 0 1 0 0-6.5 3.25 3.25 0 0 0 0 6.5Zm5.25-3.25A5.252 5.252 0 0 1 17 25.655v3.595h-2v-3.595a5.252 5.252 0 0 1 1-10.405c2.9 0 5.25 2.35 5.25 5.25Z" fill="#fff"/></svg>