<svg width="145" height="18" fill="none" xmlns="http://www.w3.org/2000/svg"><path d="m26.636 12.672-1.252 3.537L19.654 0h2.506l4.476 12.672ZM32.274 0h2.544l5.052 14.316L44.934 0h2.505l-6.356 17.984h-2.427L33.54 3.51l-5.116 14.474h-2.506c1.532-4.307 3.006-8.47 4.425-12.49L32.273 0ZM64.431 17.984H50.597v-2.375h10.01L54.173 2.727c-.643 1.288-1.208 2.424-1.696 3.407-.487.983-.925 1.861-1.312 2.636-.386.775-.845 1.684-1.376 2.727-.68 1.358-1.758 3.52-3.237 6.487h-2.65c1.157-2.306 1.992-3.973 2.506-5 .513-1.026.92-1.837 1.22-2.432.3-.597.62-1.238.96-1.925.34-.687.828-1.67 1.467-2.95L52.895 0h2.557l2.885 5.749a304.776 304.776 0 0 1 1.462 2.943c.339.67.654 1.303.946 1.899.291.595.696 1.407 1.214 2.434.516 1.026 1.34 2.68 2.472 4.959ZM68.216 12.463h-2.362V0h2.362v12.463Zm-2.362 5.52V15.61h17.984v2.375H65.854ZM88.693 12.463H86.33V0h2.362v12.463Zm-2.362 5.52V15.61h17.984v2.375H86.331ZM106.311 0h17.984v2.362h-15.622v5.469h7.583v2.362h-9.945V0Zm2.362 12.046v3.563h15.622v2.375h-17.984v-5.938h2.362ZM136.942 0v17.984h-2.376V2.362h-7.804V0h10.18Zm1.422 0h6.383v2.362h-6.383V0Z" fill="#000"/><path d="m9.37 10.822 6.052 7.162h3.316L3.54 0H.224l7.488 8.86 1.658 1.962Z" fill="#ED1CB5"/><path d="M18.516 0H15.2L9.876 6.296l1.658 1.962L18.516 0Z" fill="#39FFFC"/><path d="M0 17.983h3.316l5.549-6.563L7.207 9.46 0 17.983Z" fill="#FFA900"/></svg>