<svg width="238" height="55" fill="none" xmlns="http://www.w3.org/2000/svg"><path d="M83 54.674v-1.052h3.255l1.6.008c.254 0 .544 0 .867.006a1.159 1.159 0 0 0 .856-.355 1.17 1.17 0 0 0 .353-.853 1.172 1.172 0 0 0-.353-.852 1.158 1.158 0 0 0-.856-.355h-1.948c-.443 0-.825.005-1.145.009H82.998v-4.533h5.162c.395-.003.783.103 1.12.306.337.202.617.485.814.824a2.2 2.2 0 0 1 .3 1.136 2.034 2.034 0 0 1-.566 1.5c.317.172.583.425.769.734.242.36.369.785.364 1.219.005.396-.099.787-.3 1.128a2.311 2.311 0 0 1-.813.812 2.156 2.156 0 0 1-1.127.3L83 54.674Zm1.046-4.48h4.215c.303-.031.583-.174.786-.4.21-.222.323-.518.318-.824a1.2 1.2 0 0 0-.352-.86 1.15 1.15 0 0 0-.856-.365c-.93.004-1.689.005-2.278.006h-1.833v2.443ZM94.793 50.465v4.209h-1.047v-3.821l-3.521-4.145h1.376l3.192 3.757Zm.48-.179-.688-.816 2.353-2.763h1.37l-3.035 3.58ZM102.817 46.708v7.966h-1.052v-7.966h1.052Zm.63 3.474 1.353-.006 3.624-3.469h1.515l-4.163 3.983 4.163 3.983h-1.515l-3.6-3.45h-1.376l-.001-1.04Z" fill="#000"/><path d="M117.754 53.639H113.3v.972h6.088" fill="#FFA900"/><path d="m114.296 46.661 1.16-.016-.009.02 3.941 7.94-1.635-.972-2.882-5.81-.575-1.162Z" fill="#39FFFC"/><path d="m115.445 46.665.01-.018h-1.168l.008.016-3.941 7.941h1.152l3.365-6.78.574-1.159Z" fill="#ED1CB5"/><path d="M123.958 54.674h-3.983v-5.527h1.047v4.474h2.937a2.831 2.831 0 0 0 1.472-.4 3.029 3.029 0 0 0 1.067-1.06c.267-.445.405-.956.4-1.475a2.835 2.835 0 0 0-.4-1.475 3.02 3.02 0 0 0-1.067-1.066 2.833 2.833 0 0 0-1.472-.4h-3.983v-1.047h3.983a3.82 3.82 0 0 1 2 .54c.595.354 1.092.85 1.445 1.446.361.604.548 1.296.541 2a3.825 3.825 0 0 1-.541 2 4.134 4.134 0 0 1-1.445 1.442 3.826 3.826 0 0 1-2.001.548ZM133.058 54.674h-3.983v-5.527h1.047v4.474h2.937a2.83 2.83 0 0 0 1.471-.4 3.029 3.029 0 0 0 1.067-1.06c.267-.445.405-.956.4-1.475a2.835 2.835 0 0 0-.4-1.475 3.02 3.02 0 0 0-1.067-1.066 2.831 2.831 0 0 0-1.471-.4h-3.984v-1.047h3.983a3.82 3.82 0 0 1 2 .54c.595.354 1.092.85 1.445 1.446.361.604.548 1.296.541 2a3.824 3.824 0 0 1-.541 2 4.134 4.134 0 0 1-1.445 1.442 3.828 3.828 0 0 1-2 .548ZM138.174 46.708h7.966v1.047h-6.92v2.422h3.359v1.047h-4.405v-4.516Zm1.047 5.336v1.578h6.92v1.052h-7.966v-2.63h1.046ZM148.181 54.674h-1.376l3.407-4.021-3.359-3.949h1.376a5614.37 5614.37 0 0 0 4.55 5.359c.671.787 1.407 1.656 2.209 2.608h-1.37l-2.723-3.208-2.714 3.211Zm3.723-4.388-.682-.816 2.347-2.763h1.376l-3.041 3.58ZM14.87 26.978l-2.668 7.531L.002-.003h5.335l9.533 26.981ZM26.875-.004h5.417L43.046 30.48 53.829-.004h5.335L45.632 38.288h-5.169L29.57 7.478 18.676 38.295h-5.334c3.26-9.17 6.401-18.034 9.421-26.593L26.875-.004ZM103.4 33.234h-5.03V0h5.03v33.234Zm-5.03 5.057v-5.057h23.633v5.057H98.37ZM132.34 33.234h-5.028V0h5.028v33.234Zm-5.028 5.057v-5.057h23.633v5.057h-23.633ZM155.199 0h38.291v5.03h-33.262v11.648h16.145v5.029h-21.174V0Zm5.03 25.649v7.586h33.262v5.057h-38.292V25.649h5.03ZM220.414 0v38.292h-5.058V5.03H198.74V0h21.674Zm3.028 0h13.589v5.03h-13.589V0Z" fill="#000"/><path d="M87.336 33.622h-21.4v4.671h29.263" fill="#FFA900"/><path d="M70.722.078 76.299 0l-.045.091 18.942 38.173-7.858-4.671-13.85-27.926-2.766-5.59Z" fill="#39FFFC"/><path d="m76.247.097.045-.09h-5.616l.039.078-18.941 38.171h5.537L73.484 5.67 76.247.097Z" fill="#ED1CB5"/></svg>