<svg width="238" height="39" fill="none" xmlns="http://www.w3.org/2000/svg"><path d="m14.87 26.978-2.668 7.531L.002-.003h5.335l9.533 26.981ZM26.875-.004h5.417L43.046 30.48 53.829-.004h5.335L45.632 38.288h-5.169L29.57 7.478 18.676 38.295h-5.334c3.26-9.17 6.401-18.034 9.421-26.593L26.875-.004ZM103.4 33.234h-5.03V0h5.03v33.234Zm-5.03 5.057v-5.057h23.633v5.057H98.37ZM132.34 33.234h-5.028V0h5.028v33.234Zm-5.028 5.057v-5.057h23.633v5.057h-23.633ZM155.199 0h38.291v5.03h-33.262v11.648h16.145v5.029h-21.174V0Zm5.03 25.649v7.586h33.262v5.057h-38.292V25.649h5.03ZM220.414 0v38.292h-5.058V5.03H198.74V0h21.674Zm3.028 0h13.589v5.03h-13.589V0Z" fill="#000"/><path d="M87.336 33.622h-21.4v4.671h29.263" fill="#FFA900"/><path d="M70.722.078 76.299 0l-.045.091 18.942 38.173-7.858-4.671-13.85-27.926-2.766-5.59Z" fill="#39FFFC"/><path d="m76.247.097.045-.09h-5.616l.039.078-18.941 38.171h5.537L73.484 5.67 76.247.097Z" fill="#ED1CB5"/></svg>