<svg xmlns="http://www.w3.org/2000/svg" width="41" height="41"><g id="Group_77697" data-name="Group 77697" transform="translate(8951.985 1868)"><circle id="Ellipse_6052" data-name="Ellipse 6052" cx="20.5" cy="20.5" r="20.5" transform="translate(-8951.985 -1868)" fill="#20264e"/><g id="Group_77696" data-name="Group 77696" transform="translate(-9048.418 -1830.945)"><path id="Path_73677" data-name="Path 73677" d="M123.12-19.305h-.688v-2.75a5.506 5.506 0 0 0-5.5-5.5 5.506 5.506 0 0 0-5.5 5.5v2.75h-.687a2.065 2.065 0 0 0-2.063 2.063v9.625a2.065 2.065 0 0 0 2.063 2.062h12.375a2.065 2.065 0 0 0 2.062-2.062v-9.625a2.065 2.065 0 0 0-2.062-2.063Zm-9.854-2.75a3.669 3.669 0 0 1 3.666-3.666 3.67 3.67 0 0 1 3.667 3.666v2.75h-7.333Zm4.583 9.829v2.088a.916.916 0 0 1-.917.916.915.915 0 0 1-.916-.916v-2.088a1.827 1.827 0 0 1-.917-1.579 1.835 1.835 0 0 1 1.833-1.833 1.836 1.836 0 0 1 1.834 1.833 1.829 1.829 0 0 1-.917 1.579Z" fill="#fff"/></g></g></svg>