<svg width="20" height="20" fill="none" xmlns="http://www.w3.org/2000/svg"><g clip-path="url('#clip0_2468_13601')" fill="#444"><path d="M19.583 5.833a.417.417 0 0 1-.416-.416V2.083c0-.689-.561-1.25-1.25-1.25h-3.334a.417.417 0 0 1 0-.833h3.334C19.065 0 20 .934 20 2.083v3.334c0 .23-.187.416-.417.416ZM17.917 20h-3.334a.417.417 0 0 1 0-.833h3.334c.689 0 1.25-.561 1.25-1.25v-3.334a.417.417 0 0 1 .833 0v3.334C20 19.066 19.065 20 17.917 20ZM5.417 20H2.083A2.086 2.086 0 0 1 0 17.917v-3.334a.417.417 0 0 1 .833 0v3.334c0 .689.561 1.25 1.25 1.25h3.334a.417.417 0 0 1 0 .833ZM.417 5.833A.417.417 0 0 1 0 5.417V2.083C0 .934.935 0 2.083 0h3.334a.417.417 0 0 1 0 .833H2.083c-.689 0-1.25.561-1.25 1.25v3.334c0 .23-.186.416-.416.416Z"/></g><defs><clipPath id="clip0_2468_13601"><path fill="#fff" d="M0 0h20v20H0z"/></clipPath></defs></svg>