<svg width="24" height="24" fill="none" xmlns="http://www.w3.org/2000/svg"><path d="M11.293 19.707c.024.024.048.046.073.066l.036.027.043.032c.014.01.029.017.043.026l.04.024.046.022.043.02.045.016.048.017.045.011c.017.005.033.01.05.013l.053.008c.014.002.028.005.043.006.066.006.132.006.198 0l.043-.006.053-.008.05-.013.045-.011.048-.017.045-.016.043-.02.045-.022.04-.024.044-.026.043-.032.036-.027c.025-.02.05-.042.073-.065l7-7a1 1 0 0 0-1.414-1.415L13 16.586V1a1 1 0 1 0-2 0v15.586l-5.293-5.293a1 1 0 0 0-1.414 1.414l7 7ZM19 22H5a1 1 0 1 0 0 2h14a1 1 0 1 0 0-2Z" fill="#fff"/></svg>