<svg width="16" height="16" fill="none" xmlns="http://www.w3.org/2000/svg"><path d="M14.667 2.667h-3.334v-2A.666.666 0 0 0 10.667 0H5.333a.666.666 0 0 0-.666.667v2H1.333a.666.666 0 1 0 0 1.333H2v10c0 1.103.897 2 2 2h8c1.103 0 2-.897 2-2V4h.667a.666.666 0 1 0 0-1.333ZM6 1.333h4v1.334H6V1.333ZM12.667 14a.667.667 0 0 1-.667.667H4A.667.667 0 0 1 3.333 14V4h9.334v10Z" fill="#fff"/><path d="M6 5.333A.666.666 0 0 0 5.333 6v6a.667.667 0 1 0 1.334 0V6A.666.666 0 0 0 6 5.333ZM10 5.333A.666.666 0 0 0 9.333 6v6a.667.667 0 1 0 1.334 0V6A.666.666 0 0 0 10 5.333Z" fill="#fff"/></svg>