<svg width="22" height="22" fill="none" xmlns="http://www.w3.org/2000/svg"><path fill-rule="evenodd" clip-rule="evenodd" d="M11 22C4.925 22 0 17.075 0 11S4.925 0 11 0s11 4.925 11 11-4.925 11-11 11Zm7.4-5.875a9 9 0 1 0-14.799 0C4.726 14.638 7.37 14 11 14c3.63 0 6.274.638 7.4 2.125Zm-1.435 1.615C16.672 16.687 14.569 16 11 16c-3.57 0-5.672.687-5.965 1.74A8.966 8.966 0 0 0 11 20a8.966 8.966 0 0 0 5.965-2.26ZM11 14c-2.24 0-4-1.573-4-5 0-2.244 1.58-4 4-4 2.414 0 4 1.922 4 4.2 0 3.28-1.782 4.8-4 4.8ZM9 9c0 2.27.818 3 2 3 1.178 0 2-.702 2-2.8 0-1.25-.784-2.2-2-2.2-1.266 0-2 .816-2 2Z" fill="#04C9E4"/></svg>