<svg width="24" height="24" fill="none" xmlns="http://www.w3.org/2000/svg"><rect y="24" width="24" height="24" rx="12" transform="rotate(-90 0 24)" fill="#F7479F"/><g clip-path="url('#clip0_992:13596')"><path d="M14.086 16.091a.424.424 0 0 1-.605 0 .427.427 0 0 1 0-.598l3.066-3.066H6.43a.426.426 0 1 1 0-.853h10.118l-3.066-3.06a.434.434 0 0 1 0-.605c.17-.17.435-.17.605 0l3.792 3.792a.427.427 0 0 1 0 .598l-3.792 3.792Z" fill="#fff"/></g><defs><clipPath id="clip0_992:13596"><path fill="#fff" transform="rotate(-180 9 9)" d="M0 0h12v12H0z"/></clipPath></defs></svg>