<svg width="16" height="16" fill="none" xmlns="http://www.w3.org/2000/svg"><path d="M14.666 2.667h-3.333v-2A.666.666 0 0 0 10.666 0H5.333a.666.666 0 0 0-.667.667v2H1.333a.666.666 0 1 0 0 1.333H2v10c0 1.103.897 2 2 2h8c1.102 0 2-.897 2-2V4h.666a.666.666 0 1 0 0-1.333ZM6 1.333h4v1.334H6V1.333ZM12.666 14a.667.667 0 0 1-.666.667H4A.667.667 0 0 1 3.333 14V4h9.333v10Z" fill="#461A57"/><path d="M6 5.333A.666.666 0 0 0 5.333 6v6a.667.667 0 1 0 1.334 0V6A.666.666 0 0 0 6 5.333ZM10 5.333A.666.666 0 0 0 9.334 6v6a.666.666 0 1 0 1.333 0V6A.666.666 0 0 0 10 5.333Z" fill="#461A57"/></svg>