<svg width="20" height="22" fill="none" xmlns="http://www.w3.org/2000/svg"><path fill-rule="evenodd" clip-rule="evenodd" d="M7 0h6a2 2 0 0 1 2 2v1h3a2 2 0 0 1 2 2v2a2 2 0 0 1-2 2h-.08L17 20a2 2 0 0 1-2 2H5c-1.105 0-2-.895-1.997-1.917L2.08 9H2a2 2 0 0 1-2-2V5a2 2 0 0 1 2-2h3V2a2 2 0 0 1 2-2ZM2 5h16v2H2V5Zm2.086 4h11.827l-.91 10.917L15 20H5L4.086 9ZM13 2v1H7V2h6Zm-1.586 12 2.293 2.293-1.414 1.414L10 15.414l-2.293 2.293-1.414-1.414L8.586 14l-2.293-2.293 1.414-1.414L10 12.586l2.293-2.293 1.414 1.414L11.414 14Z" fill="#787B8E"/></svg>