<svg width="20" height="20" fill="none" xmlns="http://www.w3.org/2000/svg"><rect width="20" height="20" rx="10" fill="#C4C4C4"/><path d="m14.266 5.547-.003-.06-.004-.026-.005-.031-.007-.03-.007-.027-.01-.029-.01-.026-.012-.026-.013-.028-.014-.024-.016-.026-.02-.026-.015-.021a.603.603 0 0 0-.084-.084l-.021-.016-.026-.019-.026-.016-.024-.014-.027-.013-.027-.012-.026-.01-.029-.01-.027-.007-.03-.007-.031-.005-.027-.004a.604.604 0 0 0-.059-.003H7.727a.6.6 0 0 0 0 1.2h4.49l-6.61 6.611a.6.6 0 1 0 .848.849l6.611-6.612v4.49a.6.6 0 0 0 1.2 0V5.548Z" fill="#fff"/></svg>