<svg width="16" height="16" fill="none" xmlns="http://www.w3.org/2000/svg"><path d="M8 0C3.589 0 0 3.589 0 8s3.589 8 8 8 8-3.589 8-8-3.589-8-8-8Zm0 15.076A7.084 7.084 0 0 1 .924 8 7.084 7.084 0 0 1 8 .924 7.084 7.084 0 0 1 15.076 8 7.084 7.084 0 0 1 8 15.076Z" fill="#fff"/><path d="M12.405 3.784a.462.462 0 0 0-.626-.188l-5.2 2.796a.462.462 0 0 0-.188.188l-2.795 5.199a.462.462 0 0 0 .618.63l.002-.002.005-.002L9.424 9.61a.462.462 0 0 0 .188-.188l2.784-5.186a.45.45 0 0 0 .017-.032l.004-.007a.46.46 0 0 0-.012-.413Zm-7.27 7.084L6.91 7.564l1.527 1.527-3.303 1.777Zm3.957-2.43L7.565 6.911l3.303-1.776" fill="#fff"/></svg>