<svg width="25" height="24" fill="none" xmlns="http://www.w3.org/2000/svg"><path d="m10.772 12.223 1.96 2.292 8 9.413c.044.043.102.072.16.072h2.997c.418 0 .635-.49.375-.793l-2.09-2.45-7.265-8.534-2.335-2.738-1.802 2.119a.463.463 0 0 0 0 .62Z" fill="#787B8E"/><path d="M14.895 12.209a.482.482 0 0 1 0-.634L24.063.793A.48.48 0 0 0 23.688 0H20.69a.231.231 0 0 0-.159.072L12.545 9.47l2.35 2.739Z" fill="#787B8E"/><path d="m14.362 12.223-1.96 2.292-8 9.413a.231.231 0 0 1-.16.072H1.246a.485.485 0 0 1-.375-.793l2.09-2.45 7.265-8.534 2.335-2.738 1.802 2.119a.463.463 0 0 1 0 .62Z" fill="#787B8E"/><path d="M10.225 12.209a.482.482 0 0 0 0-.634L1.057.793A.48.48 0 0 1 1.432 0H4.43c.058 0 .116.029.159.072l7.985 9.398-2.35 2.739Z" fill="#787B8E"/></svg>