<svg width="25" height="24" fill="none" xmlns="http://www.w3.org/2000/svg"><path d="m10.773 12.223 1.96 2.292 8 9.413c.043.043.1.072.158.072h2.999c.418 0 .634-.49.374-.793l-2.09-2.45-7.265-8.534-2.335-2.738-1.801 2.119a.463.463 0 0 0 0 .62Z" fill="url('#paint0_linear_3_1487')"/><path d="M14.895 12.209a.482.482 0 0 1 0-.634L24.063.793A.48.48 0 0 0 23.688 0H20.69a.231.231 0 0 0-.159.072L12.545 9.47l2.35 2.739Z" fill="url('#paint1_linear_3_1487')"/><path d="m14.362 12.223-1.96 2.292-8 9.413a.231.231 0 0 1-.16.072H1.246a.485.485 0 0 1-.375-.793l2.09-2.45 7.265-8.534 2.335-2.738 1.802 2.119a.463.463 0 0 1 0 .62Z" fill="#EF0896"/><path d="M10.225 12.209a.482.482 0 0 0 0-.634L1.057.793A.48.48 0 0 1 1.432 0H4.43c.058 0 .115.029.159.072l7.985 9.398-2.35 2.739Z" fill="url('#paint2_linear_3_1487')"/><defs><linearGradient id="paint0_linear_3_1487" x1="12.486" y1="12.844" x2="18.687" y2="18.594" gradientUnits="userSpaceOnUse"><stop offset=".138" stop-color="#BC0050"/><stop offset=".24" stop-color="#CE2B3B"/><stop offset=".346" stop-color="#DD5029"/><stop offset=".458" stop-color="#E96F1A"/><stop offset=".575" stop-color="#F3870F"/><stop offset=".698" stop-color="#FA9806"/><stop offset=".832" stop-color="#FEA202"/><stop offset="1" stop-color="orange"/></linearGradient><linearGradient id="paint1_linear_3_1487" x1="12.174" y1="12.159" x2="22.383" y2="1.091" gradientUnits="userSpaceOnUse"><stop offset=".138" stop-color="#BC0050"/><stop offset=".192" stop-color="#A12569"/><stop offset=".276" stop-color="#7B588B"/><stop offset=".364" stop-color="#5A84AA"/><stop offset=".454" stop-color="#3FAAC3"/><stop offset=".548" stop-color="#28C9D8"/><stop offset=".645" stop-color="#16E1E9"/><stop offset=".748" stop-color="#0AF2F4"/><stop offset=".86" stop-color="#02FCFB"/><stop offset="1" stop-color="#00FFFD"/></linearGradient><linearGradient id="paint2_linear_3_1487" x1="1.724" y1=".889" x2="13.838" y2="12.087" gradientUnits="userSpaceOnUse"><stop stop-color="#EF0895"/><stop offset=".286" stop-color="#ED0892"/><stop offset=".516" stop-color="#E50688"/><stop offset=".726" stop-color="#D90477"/><stop offset=".924" stop-color="#C7015F"/><stop offset="1" stop-color="#BF0054"/></linearGradient></defs></svg>