<svg width="20" height="20" viewBox="0 0 20 20" fill="none" xmlns="http://www.w3.org/2000/svg">
  <path d="M10 0C4.48578 0 0 4.48578 0 10C0 15.5142 4.48578 20 10 20C15.5142 20 20 15.5142 20 10C20 4.48578 15.5142 0 10 0ZM14.375 10.8333H10.8333V14.375C10.8333 14.8351 10.4601 15.2083 10 15.2083C9.53995 15.2083 9.16672 14.8351 9.16672 14.375V10.8333H5.625C5.16495 10.8333 4.79172 10.4601 4.79172 10C4.79172 9.53995 5.16495 9.16672 5.625 9.16672H9.16672V5.625C9.16672 5.16495 9.53995 4.79172 10 4.79172C10.4601 4.79172 10.8333 5.16495 10.8333 5.625V9.16672H14.375C14.8351 9.16672 15.2083 9.53995 15.2083 10C15.2083 10.4601 14.8351 10.8333 14.375 10.8333Z" fill="#461A57"/>
  </svg>
  