<svg width="10" height="12" viewBox="0 0 10 12" fill="none" xmlns="http://www.w3.org/2000/svg">
<path d="M4.37577 11.8244C4.37588 11.8245 4.37599 11.8246 4.3761 11.8247C4.38997 11.8385 4.40457 11.8517 4.41972 11.8641C4.42667 11.8698 4.43401 11.8748 4.44116 11.8801C4.44968 11.8865 4.45803 11.8931 4.46689 11.8991C4.47544 11.9048 4.4843 11.9097 4.49308 11.915C4.50112 11.9198 4.50897 11.9248 4.51724 11.9292C4.52618 11.934 4.53538 11.9381 4.54452 11.9424C4.55312 11.9464 4.56162 11.9507 4.57045 11.9544C4.57931 11.9581 4.58836 11.961 4.59736 11.9642C4.60684 11.9676 4.61618 11.9713 4.62586 11.9742C4.63486 11.9769 4.644 11.9789 4.65311 11.9812C4.66298 11.9837 4.67274 11.9865 4.68281 11.9885C4.69336 11.9905 4.70399 11.9918 4.71459 11.9933C4.72334 11.9945 4.73197 11.9962 4.74083 11.9971C4.78021 12.001 4.81989 12.001 4.85927 11.9971C4.86813 11.9962 4.87676 11.9946 4.88551 11.9933C4.89611 11.9918 4.90674 11.9905 4.91729 11.9885C4.92736 11.9865 4.93712 11.9837 4.94699 11.9812C4.95607 11.9789 4.96524 11.9769 4.97424 11.9742C4.98392 11.9713 4.99328 11.9676 5.00273 11.9642C5.01173 11.961 5.02079 11.9581 5.02965 11.9544C5.03848 11.9507 5.04697 11.9464 5.05558 11.9424C5.06472 11.9381 5.07392 11.934 5.08286 11.9292C5.09113 11.9248 5.09898 11.9197 5.10702 11.915C5.1158 11.9097 5.12466 11.9048 5.13321 11.8991C5.14207 11.8931 5.15042 11.8865 5.15894 11.8801C5.16609 11.8748 5.17343 11.8698 5.18037 11.8641C5.19553 11.8517 5.21013 11.8385 5.224 11.8247C5.22411 11.8246 5.22422 11.8245 5.22433 11.8244L9.42437 7.62434C9.65868 7.39003 9.65868 7.01011 9.42437 6.7758C9.19005 6.54149 8.81014 6.54149 8.57583 6.7758L5.40003 9.95157V0.599997C5.40003 0.268625 5.13141 0 4.80004 0C4.46866 0 4.20004 0.268625 4.20004 0.599997V9.95157L1.02427 6.7758C0.789962 6.54149 0.410045 6.54149 0.175734 6.7758C-0.0585779 7.01011 -0.0585779 7.39003 0.175734 7.62434L4.37577 11.8244Z" fill="#444444"/>
</svg>
