<svg width="30" height="30" viewBox="0 0 30 30" fill="none" xmlns="http://www.w3.org/2000/svg">
  <rect width="30" height="30" rx="15" fill="#461A57"/>
  <g clip-path="url(#clip0_3378_14370)">
  <path d="M9.54466 17.7811C9.3191 17.5555 9.3191 17.2004 9.54466 16.9748C9.76261 16.7569 10.1253 16.7569 10.3428 16.9748L14.4309 21.063V7.57266C14.4309 7.25819 14.6809 7.00011 14.9954 7.00011C15.3098 7.00011 15.5679 7.25819 15.5679 7.57266V21.063L19.6484 16.9748C19.874 16.7569 20.2372 16.7569 20.4547 16.9748C20.6802 17.2004 20.6802 17.5555 20.4547 17.7811L15.3987 22.837C15.1808 23.055 14.818 23.055 14.6006 22.837L9.54466 17.7811Z" fill="white"/>
  </g>
  <defs>
  <clipPath id="clip0_3378_14370">
  <rect width="16" height="16" fill="white" transform="translate(7 23) rotate(-90)"/>
  </clipPath>
  </defs>
</svg>
  