<svg width="16" height="16" viewBox="0 0 16 16" fill="none" xmlns="http://www.w3.org/2000/svg">
<g clip-path="url(#clip0_11:384)">
<path d="M8 4.70312C6.70772 4.70312 5.65625 3.65166 5.65625 2.35938C5.65625 1.06709 6.70772 0.015625 8 0.015625C9.29228 0.015625 10.3438 1.06709 10.3438 2.35938C10.3438 3.65166 9.29228 4.70312 8 4.70312Z" fill="white"/>
<path d="M0.313323 13.4063C-0.332583 12.287 0.0523853 10.851 1.17164 10.2047C2.31385 9.54575 3.73673 9.96072 4.37323 11.0625C5.02079 12.1834 4.63698 13.6162 3.51539 14.2641C2.39164 14.9121 0.960479 14.5265 0.313323 13.4063Z" fill="white"/>
<path d="M12.4845 14.2641C11.3637 13.6166 10.9788 12.1841 11.6267 11.0625C12.2632 9.96076 13.686 9.54573 14.8283 10.2047C15.9475 10.851 16.3325 12.287 15.6866 13.4063C15.0403 14.5251 13.6099 14.9131 12.4845 14.2641Z" fill="white"/>
<path d="M1.91539 8.61208L0.979736 8.5608C1.10149 6.3434 2.28621 4.29077 4.14837 3.06946L4.6629 3.85315C3.04837 4.91199 2.02158 6.6913 1.91539 8.61208Z" fill="white"/>
<path d="M14.0847 8.61208C13.9785 6.6913 12.9517 4.91199 11.3372 3.85318L11.8517 3.06949C13.7139 4.2908 14.8986 6.34343 15.0203 8.56083L14.0847 8.61208Z" fill="white"/>
<path d="M8.00013 15.9844C6.885 15.9844 5.81888 15.7308 4.83057 15.2313L5.25353 14.3946C6.96557 15.2607 9.03466 15.2607 10.7467 14.3946L11.1697 15.2313C10.1814 15.7308 9.11525 15.9844 8.00013 15.9844Z" fill="white"/>
</g>
<defs>
<clipPath id="clip0_11:384">
<rect width="16" height="16" fill="white"/>
</clipPath>
</defs>
</svg>
