<svg width="18" height="16" viewBox="0 0 18 16" fill="none" xmlns="http://www.w3.org/2000/svg">
  <g clip-path="url(#clip0_3378_14692)">
  <path d="M4.87076 2.85718H15.2211C16.2298 2.85718 17.0476 3.62469 17.0476 4.57146V14.2857C17.0476 15.2325 16.2298 16 15.2211 16H4.87076C3.86199 16 3.04423 15.2325 3.04423 14.2857V4.57146C3.04423 3.62469 3.86199 2.85718 4.87076 2.85718ZM4.2619 14.2858C4.2619 14.6014 4.53449 14.8572 4.87076 14.8572H15.2211C15.5573 14.8572 15.8299 14.6014 15.8299 14.2858V4.57146C15.8299 4.25586 15.5573 4.00002 15.2211 4.00002H4.87076C4.53449 4.00002 4.2619 4.25586 4.2619 4.57146V14.2858Z" fill="#461A57"/>
  <path d="M1.82636 0H12.7855C13.7943 0 14.6121 0.767511 14.6121 1.71428C14.6121 2.02989 14.3395 2.28572 14.0032 2.28572C13.6669 2.28572 13.3944 2.02989 13.3944 1.71428C13.3944 1.39868 13.1218 1.14285 12.7855 1.14285H1.82636C1.49009 1.14285 1.2175 1.39868 1.2175 1.71428V12C1.2175 12.3156 1.49009 12.5714 1.82636 12.5714C2.16263 12.5714 2.43521 12.8273 2.43521 13.1429C2.43521 13.4585 2.16263 13.7143 1.82636 13.7143C0.817594 13.7143 -0.000170708 12.9468 -0.000170708 12V1.71428C-0.000170708 0.767511 0.817594 0 1.82636 0Z" fill="#461A57"/>
  </g>
  <defs>
  <clipPath id="clip0_3378_14692">
  <rect width="17.0476" height="16" fill="white" transform="matrix(-1 0 0 1 17.0476 0)"/>
  </clipPath>
  </defs>
  </svg>
  