<svg xmlns="http://www.w3.org/2000/svg" xmlns:xlink="http://www.w3.org/1999/xlink" width="314.648" height="314.648" viewBox="0 0 314.648 314.648">
  <defs>
    <linearGradient id="linear-gradient" x1="3.753" y1="2.836" x2="4.273" y2="4.121" gradientUnits="objectBoundingBox">
      <stop offset="0" stop-color="#84efa2"/>
      <stop offset="0.177" stop-color="#7ae6a0"/>
      <stop offset="1" stop-color="#3bb292"/>
    </linearGradient>
    <linearGradient id="linear-gradient-2" x1="5.655" y1="1.331" x2="5.548" y2="0.639" gradientUnits="objectBoundingBox">
      <stop offset="0.558" stop-color="#05d9a1"/>
      <stop offset="1" stop-color="#058cc1"/>
    </linearGradient>
    <linearGradient id="linear-gradient-3" x1="4.974" y1="1.455" x2="4.09" y2="1.894" gradientUnits="objectBoundingBox">
      <stop offset="0" stop-color="#bdabff"/>
      <stop offset="1" stop-color="#4b36ff"/>
    </linearGradient>
    <linearGradient id="linear-gradient-4" x1="6.403" y1="2.081" x2="6.331" y2="1.541" xlink:href="#linear-gradient-3"/>
    <linearGradient id="linear-gradient-5" y1="0.354" x2="1" y2="0.568" gradientUnits="objectBoundingBox">
      <stop offset="0" stop-color="#3bb292"/>
      <stop offset="0.831" stop-color="#7ae6a0"/>
      <stop offset="1" stop-color="#84efa2"/>
    </linearGradient>
    <linearGradient id="linear-gradient-6" x1="0.266" y1="0.825" x2="0.7" y2="0.221" gradientUnits="objectBoundingBox">
      <stop offset="0" stop-color="#05d9a1"/>
      <stop offset="0.558" stop-color="#05d9a1"/>
      <stop offset="1" stop-color="#058cc1"/>
    </linearGradient>
    <linearGradient id="linear-gradient-7" x1="0.931" y1="0.616" x2="0" y2="0.18" xlink:href="#linear-gradient-3"/>
    <linearGradient id="linear-gradient-8" x1="0.448" y1="0.656" x2="0.5" y2="0.114" xlink:href="#linear-gradient-3"/>
  </defs>
  <g id="Ic_cyberfly" transform="translate(-1129.659 -563.403)">
    <circle id="Ellipse_17683" data-name="Ellipse 17683" cx="157.324" cy="157.324" r="157.324" transform="translate(1129.659 563.403)" fill="#292929"/>
    <g id="Group_112729" data-name="Group 112729" transform="translate(2151.159 -41.411)">
      <path id="Path_143889" data-name="Path 143889" d="M-968.763,705.024a13.892,13.892,0,0,1,5.266-5.384l.991-.539a253.984,253.984,0,0,1,25.619-11.687c.586-.24,1.182-.474,1.794-.713,30.02-11.6,77.964-24.122,114.3-5.031.406.21.8.424,1.2.644.216.118.421.231.621.354.191.091.38.209.565.31,36.038,20.627,50.843,68.458,56.813,99.869.08.365.14.718.211,1.078,1.322,7.141,2.2,13.384,2.751,18.2a85.215,85.215,0,0,0-35.339-59.712,81.272,81.272,0,0,0-8.4-5.276c-1.746-.958-3.516-1.849-5.294-2.677,0,0-10.484-6.032-35.46-9.938-6.537-1.02-14.071-1.906-22.681-2.486-.078,0-.167-.012-.256-.02-.758-.055-1.538-.1-2.323-.152-.21-.008-.429-.021-.639-.03-8.456-.5-17.9-.7-28.379-.506a525.324,525.324,0,0,0-57.037,4.421l-.649.085a14.037,14.037,0,0,1-8.085-1.683A14.092,14.092,0,0,1-968.763,705.024Z" transform="translate(0)" fill="url(#linear-gradient)"/>
      <path id="Path_143890" data-name="Path 143890" d="M-588.865,854.9c8.61.58,16.144,1.465,22.681,2.486,24.977,3.906,35.46,9.938,35.46,9.938,1.778.828,3.548,1.719,5.294,2.677a81.265,81.265,0,0,1,8.4,5.276,85.214,85.214,0,0,1,35.339,59.712c-.55-4.82-1.429-11.062-2.751-18.2a251.4,251.4,0,0,1,3.849,27.627c.051.736.078,1.125.078,1.125a13.892,13.892,0,0,1-1.712,7.334,14.093,14.093,0,0,1-19.134,5.568,14.038,14.038,0,0,1-5.763-5.915l-.276-.593a525.4,525.4,0,0,0-26.917-50.481c-5.148-8.425-10.1-15.888-14.807-22.465a.1.1,0,0,1-.045-.065,52.93,52.93,0,0,0-3.654-4.985A52.692,52.692,0,0,0-568.2,861.211,52.605,52.605,0,0,0-588.865,854.9Z" transform="translate(-276.947 -132.863)" fill="url(#linear-gradient-2)"/>
      <path id="Path_143891" data-name="Path 143891" d="M-787.722,1074.8c-8.22-27.877-78.3-37.559-87.913-38.77-.717-.108-1.091-.135-1.091-.135-8.518-1.145-16.717-1.9-22.125-2.343-2.877-.226-4.938-.4-5.866-.441-.346-.012-.512-.031-.512-.031a10.262,10.262,0,0,1-4.409-1.237,10.285,10.285,0,0,1-4.116-13.959,10.125,10.125,0,0,1,5.983-4.895l.042-.012.126-.037.5-.149c.715-.21,1.934-.57,3.6-1.039,4.131-1.1,10.947-2.862,19-4.55,3.6-.72,7.472-1.472,11.448-2.1a.93.93,0,0,1,.264-.032c4.519-.716,9.187-1.315,13.778-1.709,8.25-.7,16.337-.7,23.145.534a33,33,0,0,1,9.942,3.261,33,33,0,0,1,8.133,6.582c4.733,5.049,9.114,11.846,12.978,19.139,2.187,4.085,4.216,8.332,6.067,12.516.025.084.064.141.089.225,1.633,3.677,3.127,7.35,4.477,10.768C-791.23,1064.064-789.008,1070.744-787.722,1074.8Z" transform="translate(-40.267 -240.257)" fill="url(#linear-gradient-3)"/>
      <path id="Path_143892" data-name="Path 143892" d="M-683.141,1174.4a10.259,10.259,0,0,1-13.932,4.131,9.978,9.978,0,0,1-3.273-2.806s-.158-.227-.49-.655c-.636-.841-1.854-2.492-3.526-4.673-3.357-4.334-8.443-10.81-14-17.329a202.4,202.4,0,0,0-14.757-15.872,53.822,53.822,0,0,0-6.161-5.084,24.187,24.187,0,0,0-2.076-1.307,24.061,24.061,0,0,0-2.225-1.035,53.828,53.828,0,0,0-7.614-2.417,199.826,199.826,0,0,0-20.275-3.665c9.612,1.211,79.693,10.893,87.913,38.77.359,1.219.734,2.411,1.081,3.589l.186.631.013.042A10.125,10.125,0,0,1-683.141,1174.4Z" transform="translate(-144.434 -327.919)" fill="url(#linear-gradient-4)"/>
      <path id="Path_143893" data-name="Path 143893" d="M-968.763,705.024a13.892,13.892,0,0,1,5.266-5.384l.991-.539a253.984,253.984,0,0,1,25.619-11.687c.586-.24,1.182-.474,1.794-.713,30.02-11.6,77.964-24.122,114.3-5.031.406.21.8.424,1.2.644.216.118.421.231.621.354.191.091.38.209.565.31,36.038,20.627,50.843,68.458,56.813,99.869.08.365.14.718.211,1.078,1.322,7.141,2.2,13.384,2.751,18.2a85.215,85.215,0,0,0-35.339-59.712,81.272,81.272,0,0,0-8.4-5.276c-1.746-.958-3.516-1.849-5.294-2.677,0,0-10.484-6.032-35.46-9.938-6.537-1.02-14.071-1.906-22.681-2.486-.078,0-.167-.012-.256-.02-.758-.055-1.538-.1-2.323-.152-.21-.008-.429-.021-.639-.03-8.456-.5-17.9-.7-28.379-.506a525.324,525.324,0,0,0-57.037,4.421l-.649.085a14.037,14.037,0,0,1-8.085-1.683A14.092,14.092,0,0,1-968.763,705.024Z" transform="translate(0)" fill="url(#linear-gradient-5)"/>
      <path id="Path_143894" data-name="Path 143894" d="M-588.865,854.9c8.61.58,16.144,1.465,22.681,2.486,24.977,3.906,35.46,9.938,35.46,9.938,1.778.828,3.548,1.719,5.294,2.677a81.265,81.265,0,0,1,8.4,5.276,85.214,85.214,0,0,1,35.339,59.712c-.55-4.82-1.429-11.062-2.751-18.2a251.4,251.4,0,0,1,3.849,27.627c.051.736.078,1.125.078,1.125a13.892,13.892,0,0,1-1.712,7.334,14.093,14.093,0,0,1-19.134,5.568,14.038,14.038,0,0,1-5.763-5.915l-.276-.593a525.4,525.4,0,0,0-26.917-50.481c-5.148-8.425-10.1-15.888-14.807-22.465a.1.1,0,0,1-.045-.065,52.93,52.93,0,0,0-3.654-4.985A52.692,52.692,0,0,0-568.2,861.211,52.605,52.605,0,0,0-588.865,854.9Z" transform="translate(-276.947 -132.863)" fill="url(#linear-gradient-6)"/>
      <path id="Path_143895" data-name="Path 143895" d="M-787.722,1074.8c-8.22-27.877-78.3-37.559-87.913-38.77-.717-.108-1.091-.135-1.091-.135-8.518-1.145-16.717-1.9-22.125-2.343-2.877-.226-4.938-.4-5.866-.441-.346-.012-.512-.031-.512-.031a10.262,10.262,0,0,1-4.409-1.237,10.285,10.285,0,0,1-4.116-13.959,10.125,10.125,0,0,1,5.983-4.895l.042-.012.126-.037.5-.149c.715-.21,1.934-.57,3.6-1.039,4.131-1.1,10.947-2.862,19-4.55,3.6-.72,7.472-1.472,11.448-2.1a.93.93,0,0,1,.264-.032c4.519-.716,9.187-1.315,13.778-1.709,8.25-.7,16.337-.7,23.145.534a33,33,0,0,1,9.942,3.261,33,33,0,0,1,8.133,6.582c4.733,5.049,9.114,11.846,12.978,19.139,2.187,4.085,4.216,8.332,6.067,12.516.025.084.064.141.089.225,1.633,3.677,3.127,7.35,4.477,10.768C-791.23,1064.064-789.008,1070.744-787.722,1074.8Z" transform="translate(-40.267 -240.257)" fill="url(#linear-gradient-7)"/>
      <path id="Path_143896" data-name="Path 143896" d="M-683.141,1174.4a10.259,10.259,0,0,1-13.932,4.131,9.978,9.978,0,0,1-3.273-2.806s-.158-.227-.49-.655c-.636-.841-1.854-2.492-3.526-4.673-3.357-4.334-8.443-10.81-14-17.329a202.4,202.4,0,0,0-14.757-15.872,53.822,53.822,0,0,0-6.161-5.084,24.187,24.187,0,0,0-2.076-1.307,24.061,24.061,0,0,0-2.225-1.035,53.828,53.828,0,0,0-7.614-2.417,199.826,199.826,0,0,0-20.275-3.665c9.612,1.211,79.693,10.893,87.913,38.77.359,1.219.734,2.411,1.081,3.589l.186.631.013.042A10.125,10.125,0,0,1-683.141,1174.4Z" transform="translate(-144.434 -327.919)" fill="url(#linear-gradient-8)"/>
    </g>
  </g>
</svg>
