<svg width="17" height="16" viewBox="0 0 17 16" fill="none" xmlns="http://www.w3.org/2000/svg">
<g clip-path="url(#clip0_11:510)">
<path d="M8.82666 0C4.41547 0 0.82666 3.58876 0.82666 7.99992C0.82666 12.4112 4.41547 16 8.82666 16C13.2379 16 16.8267 12.4112 16.8267 7.99992C16.8267 3.58876 13.2379 0 8.82666 0ZM8.82666 15.076C4.92496 15.076 1.75066 11.9017 1.75066 7.99992C1.75066 4.09827 4.92496 0.924 8.82666 0.924C12.7284 0.924 15.9027 4.09827 15.9027 7.99995C15.9027 11.9017 12.7284 15.076 8.82666 15.076Z" fill="black"/>
<path d="M13.231 3.78389C13.1102 3.55908 12.8301 3.47493 12.6053 3.59574L7.4054 6.39176C7.32558 6.43469 7.26014 6.5001 7.21724 6.57994L4.42234 11.7787C4.32346 11.9626 4.36197 12.1837 4.50242 12.3241C4.53355 12.3553 4.56971 12.3825 4.61057 12.4044C4.74947 12.4791 4.90955 12.4752 5.04006 12.4084L5.04014 12.4085L5.0421 12.4075C5.04398 12.4065 5.04584 12.4055 5.0477 12.4045L10.2502 9.61048C10.33 9.56761 10.3954 9.50219 10.4384 9.42232L13.2221 4.23642C13.2282 4.22593 13.234 4.21534 13.2393 4.20447L13.243 4.19749L13.2425 4.19733C13.3017 4.06983 13.3027 3.9172 13.231 3.78389ZM5.96129 10.8676L7.73732 7.564L9.26459 9.09132L5.96129 10.8676ZM9.91834 8.43827L8.39099 6.91092L11.6943 5.13472" fill="black"/>
</g>
<defs>
<clipPath id="clip0_11:510">
<rect x="0.82666" width="16" height="16" rx="8" fill="white"/>
</clipPath>
</defs>
</svg>
