<svg xmlns="http://www.w3.org/2000/svg" xmlns:xlink="http://www.w3.org/1999/xlink" width="181.84" height="151" viewBox="0 0 181.84 151">
  <defs>
    <linearGradient id="linear-gradient" x1="-0.028" y1="-0.028" x2="0.859" y2="0.859" gradientUnits="objectBoundingBox">
      <stop offset="0" stop-color="#ffd300"/>
      <stop offset="1" stop-color="#ff00b8"/>
    </linearGradient>
    <linearGradient id="linear-gradient-2" x1="0.052" y1="-1.977" x2="0.662" y2="1" xlink:href="#linear-gradient"/>
  </defs>
  <g id="Group_113143" data-name="Group 113143" transform="translate(-164.135 -92.945)">
    <path id="Path_143464" data-name="Path 143464" d="M-1482.235,6516.246l-4.407-4.41-9.722-9.726,9.722-9.729,4.407-4.406,4.408,4.406,9.721,9.729-9.721,9.726Zm0,13.631v29.068l-42.308-42.309,14.538-14.531Zm-42.308-42.3v29.057l14.538-14.531,27.769-27.765v-29.07Z" transform="translate(1751.314 -6352.326)" fill="url(#linear-gradient)"/>
    <g id="Group_112655" data-name="Group 112655" transform="translate(164.135 219.836)">
      <g id="Group_77852-2" data-name="Group 77852-2">
        <path id="Path_74956" data-name="Path 74956" d="M3325.625-2397.064a8.539,8.539,0,0,0-8.812,8.84,8.513,8.513,0,0,0,8.9,8.781c3.623,0,7-1.75,8.259-5.742h-4.544a3.9,3.9,0,0,1-3.745,2.119,4.184,4.184,0,0,1-4.389-4.052h12.955C3334.68-2392.674,3331.212-2397.064,3325.625-2397.064Zm-4.115,6.724a4.092,4.092,0,0,1,4.084-3.1,3.932,3.932,0,0,1,3.991,3.1Z" transform="translate(-3316.813 2403.45)" fill="#fff"/>
        <path id="Path_74957" data-name="Path 74957" d="M3411.165-2383.495c-2.58,0-4.361-1.934-4.331-4.76-.03-2.794,1.69-4.757,4.361-4.757a3.8,3.8,0,0,1,3.9,2.732h4.514c-.645-4.3-4.3-6.784-8.411-6.784a8.585,8.585,0,0,0-8.812,8.81,8.579,8.579,0,0,0,8.781,8.812c4.052,0,7.766-2.365,8.441-6.815h-4.514A3.841,3.841,0,0,1,3411.165-2383.495Z" transform="translate(-3383.752 2403.45)" fill="#fff"/>
        <path id="Path_74958" data-name="Path 74958" d="M3528.246-2341.262h-5.619l-5.544-6.524h5.661Z" transform="translate(-3473.478 2364.902)" fill="#fff"/>
        <path id="Path_74959" data-name="Path 74959" d="M3504.048-2419.64l-7.706,8.043-2.935,2.928-1.363,1.361v4.553h-4.392v-23.639h4.392v13.785l6.417-7.031Z" transform="translate(-3450.456 2426.394)" fill="#fff"/>
        <path id="Path_74960" data-name="Path 74960" d="M3567.342-2397.064a8.651,8.651,0,0,0-8.779,8.81,8.632,8.632,0,0,0,8.779,8.812,8.622,8.622,0,0,0,8.812-8.812A8.657,8.657,0,0,0,3567.342-2397.064Zm0,13.447a4.337,4.337,0,0,1-4.359-4.638,4.352,4.352,0,0,1,4.359-4.636,4.354,4.354,0,0,1,4.361,4.636,4.339,4.339,0,0,1-4.361,4.638Z" transform="translate(-3505.926 2403.45)" fill="#fff"/>
      </g>
      <path id="Group_77896" data-name="Group 77896" d="M3673.3-2413.4h5.3l-5.152,21.175h-6.371l-1.859-7.653-1.1-7.472-.518-.03-1.067,7.5-1.86,7.653h-6.4l-5.151-21.175h5.334l2.438,10.134.64,4.931.641-4.931,2.438-10.134h6.493l2.439,10.134.671,5.052.64-5.052Zm29.564,16.274h8.657v4.9h-13.839V-2413.4h5.182Zm14.863,0h8.657v4.9h-13.839V-2413.4h5.182Zm40.885-16.274v4.9h-5.822v16.274H3747.6V-2408.5h-5.792v-4.9Zm-67.667,21.279-1.188-3.566h-7.675l-1.187,3.566h-5.543l7.431-21.279h6.336l7.4,21.279Zm-7.553-7.5h5.056l-2.528-7.557Zm57.205-8.831h-7.785v3.146h6.869v4.9h-6.869v3.327h7.785v4.9h-12.967v-21.175h12.967Z" transform="translate(-3576.769 2416.226)" fill="url(#linear-gradient-2)"/>
    </g>
  </g>
</svg>
