<svg width="182" height="151" viewBox="0 0 182 151" fill="none" xmlns="http://www.w3.org/2000/svg">
<path d="M77.4517 113.435V92.072H125.603L136.249 113.435H77.4517Z" fill="url(#paint0_linear_1_740)"/>
<path d="M103.375 0H79.5652L135.657 113.436H159.535L103.375 0Z" fill="url(#paint1_linear_1_740)"/>
<path d="M103.376 0L91.4223 23.9353L46.7515 113.434H22.8895L79.5136 0H103.376Z" fill="url(#paint2_linear_1_740)"/>
<path d="M8.80922 133.167C7.64044 133.129 6.47636 133.332 5.38917 133.762C4.30199 134.193 3.31501 134.843 2.48942 135.671C1.66383 136.499 1.01728 137.488 0.58997 138.577C0.162663 139.665 -0.0362904 140.83 0.00543283 141.999C-0.0325381 143.171 0.172534 144.339 0.607759 145.429C1.04298 146.519 1.69895 147.507 2.53441 148.331C3.36987 149.154 4.36676 149.797 5.46239 150.217C6.55802 150.637 7.72868 150.826 8.90081 150.771C10.7195 150.876 12.5207 150.367 14.0164 149.327C15.5121 148.287 16.6161 146.776 17.1518 145.035H12.6115C12.2639 145.716 11.7237 146.279 11.0584 146.655C10.3931 147.031 9.63197 147.204 8.8695 147.151C8.31453 147.178 7.75966 147.095 7.23732 146.905C6.71497 146.716 6.23557 146.424 5.82728 146.047C5.419 145.671 5.09006 145.216 4.85947 144.71C4.62889 144.205 4.50137 143.658 4.48444 143.103H17.4276C17.8564 137.552 14.3914 133.167 8.80922 133.167ZM4.69761 139.885C4.92362 138.981 5.45107 138.181 6.19291 137.618C6.93476 137.054 7.84657 136.76 8.7779 136.785C9.70096 136.75 10.6067 137.042 11.336 137.609C12.0652 138.176 12.5714 138.982 12.7656 139.885H4.69761Z" fill="white"/>
<path d="M27.3937 146.723C26.7869 146.729 26.1859 146.606 25.6298 146.363C25.0738 146.12 24.5753 145.762 24.1669 145.314C23.7585 144.865 23.4493 144.335 23.2597 143.758C23.0701 143.182 23.0042 142.572 23.0664 141.969C23.0363 139.178 24.7525 137.215 27.4238 137.215C28.2866 137.159 29.1425 137.4 29.8504 137.896C30.5583 138.392 31.0757 139.115 31.3175 139.945H35.8266C35.1823 135.65 31.5331 133.167 27.4238 133.167C26.2594 133.136 25.1008 133.342 24.0188 133.774C22.9367 134.205 21.9538 134.852 21.13 135.675C20.3063 136.499 19.6588 137.482 19.2273 138.564C18.7957 139.646 18.5891 140.804 18.62 141.969C18.5879 143.131 18.7926 144.287 19.2218 145.368C19.6509 146.448 20.2954 147.43 21.1161 148.254C21.9367 149.077 22.9163 149.725 23.9953 150.158C25.0743 150.591 26.2302 150.8 27.3925 150.772C31.4403 150.772 35.1522 148.409 35.823 143.964H31.3139C31.0708 144.801 30.5501 145.53 29.8377 146.031C29.1252 146.533 28.2633 146.777 27.3937 146.723Z" fill="white"/>
<path d="M54.7231 150.404H49.1084L43.5684 143.886H49.2289L54.7231 150.404Z" fill="white"/>
<path d="M53.5501 133.534L45.8518 141.57L42.9192 144.495L41.557 145.855V150.404H37.1696V126.786H41.557V140.558L47.9678 133.534H53.5501Z" fill="white"/>
<path d="M61.3652 133.167C60.2059 133.15 59.055 133.365 57.9809 133.802C56.9069 134.239 55.9316 134.887 55.1132 135.708C54.2948 136.529 53.65 137.507 53.2172 138.582C52.7843 139.658 52.5724 140.809 52.5938 141.969C52.5695 143.129 52.7795 144.282 53.2113 145.359C53.6431 146.436 54.2877 147.414 55.1067 148.236C55.9256 149.058 56.902 149.707 57.9774 150.142C59.0528 150.578 60.205 150.792 61.3652 150.772C62.5284 150.798 63.6848 150.588 64.7646 150.155C65.8444 149.722 66.8252 149.074 67.6479 148.251C68.4706 147.429 69.1182 146.448 69.5515 145.368C69.9848 144.288 70.1949 143.132 70.169 141.969C70.1896 140.807 69.9759 139.653 69.5407 138.576C69.1055 137.498 68.4578 136.52 67.6361 135.698C66.8144 134.877 65.8357 134.229 64.7582 133.794C63.6808 133.36 62.5269 133.146 61.3652 133.167ZM61.3652 146.602C60.7683 146.606 60.1769 146.486 59.6283 146.251C59.0796 146.016 58.5853 145.671 58.1765 145.236C57.7676 144.801 57.453 144.286 57.2523 143.724C57.0516 143.162 56.9692 142.564 57.0102 141.969C56.9712 141.374 57.055 140.777 57.2564 140.216C57.4579 139.654 57.7726 139.141 58.181 138.706C58.5895 138.272 59.0829 137.926 59.6307 137.69C60.1784 137.455 60.7689 137.334 61.3652 137.337C61.9616 137.334 62.552 137.455 63.0999 137.69C63.6478 137.926 64.1414 138.272 64.55 138.706C64.9586 139.14 65.2736 139.654 65.4753 140.215C65.677 140.777 65.7612 141.373 65.7225 141.969C65.7635 142.564 65.681 143.162 65.4802 143.724C65.2793 144.287 64.9645 144.802 64.5554 145.236C64.1463 145.671 63.6518 146.017 63.1028 146.252C62.5539 146.487 61.9623 146.606 61.3652 146.602Z" fill="white"/>
<path d="M96.2276 129.614H101.527L96.3805 150.77H90.0155L88.1584 143.123L87.0612 135.657L86.5433 135.626L85.4774 143.121L83.6203 150.768H77.2252L72.0778 129.612H77.4071L79.8435 139.736L80.483 144.661L81.1225 139.736L83.5589 129.612H90.0457L92.482 139.736L93.1517 144.783L93.7912 139.736L96.2276 129.614Z" fill="#FF1AB8"/>
<path d="M125.765 145.873H134.414V150.769H120.588V129.614H125.767L125.765 145.873Z" fill="#FF1AB8"/>
<path d="M140.613 145.873H149.263V150.769H135.437V129.614H140.615L140.613 145.873Z" fill="#FF1AB8"/>
<path d="M181.46 129.614V134.51H175.643V150.769H170.464V134.51H164.683V129.614H181.46Z" fill="#FF1AB8"/>
<path d="M113.855 150.874L112.668 147.31H105L103.813 150.874H98.2727L105.698 129.614H112.027L119.421 150.874H113.855ZM106.308 143.385H111.359L108.83 135.835L106.308 143.385Z" fill="#FF1AB8"/>
<path d="M163.461 134.562H155.683V137.705H162.548V142.601H155.683V145.925H163.461V150.821H150.506V129.666H163.461V134.562Z" fill="#FF1AB8"/>
<defs>
<linearGradient id="paint0_linear_1_740" x1="74.8646" y1="102.753" x2="137.483" y2="102.753" gradientUnits="userSpaceOnUse">
<stop stop-color="#FFD21E"/>
<stop offset="1" stop-color="#FFA500"/>
</linearGradient>
<linearGradient id="paint1_linear_1_740" x1="99.3176" y1="-5.55837" x2="164.511" y2="94.1656" gradientUnits="userSpaceOnUse">
<stop stop-color="#0FAFFA"/>
<stop offset="1" stop-color="#00FFFF"/>
</linearGradient>
<linearGradient id="paint2_linear_1_740" x1="94.2002" y1="-5.55824" x2="-137.761" y2="228.661" gradientUnits="userSpaceOnUse">
<stop stop-color="#FF00A7"/>
<stop offset="0.966" stop-color="#686BF0"/>
</linearGradient>
</defs>
</svg>
