<svg width="16" height="16" viewBox="0 0 16 16" fill="none" xmlns="http://www.w3.org/2000/svg">
<path d="M2.66675 13.3333H2.16675V13.8333H2.66675V13.3333ZM6.35363 10.3536C6.5489 10.1583 6.5489 9.84172 6.35363 9.64646C6.15837 9.45119 5.84179 9.45119 5.64653 9.64646L6.35363 10.3536ZM2.16675 9.33334V13.3333H3.16675V9.33334H2.16675ZM2.66675 13.8333H6.66675V12.8333H2.66675V13.8333ZM3.0203 13.6869L6.35363 10.3536L5.64653 9.64646L2.31319 12.9798L3.0203 13.6869Z" fill="white"/>
<path d="M13.3333 2.66666H13.8333V2.16666H13.3333V2.66666ZM9.64637 5.64644C9.4511 5.8417 9.4511 6.15828 9.64637 6.35354C9.84163 6.54881 10.1582 6.54881 10.3535 6.35354L9.64637 5.64644ZM13.8333 6.66666V2.66666H12.8333V6.66666H13.8333ZM13.3333 2.16666H9.33325V3.16666H13.3333V2.16666ZM12.9797 2.3131L9.64637 5.64644L10.3535 6.35354L13.6868 3.02021L12.9797 2.3131Z" fill="white"/>
</svg>
