<svg width="16" height="16" viewBox="0 0 16 16" fill="none" xmlns="http://www.w3.org/2000/svg">
<g clip-path="url(#clip0_11:359)">
<path d="M15.3969 0H11.0351C10.7021 0 10.4321 0.269937 10.4321 0.603031C10.4321 0.936094 10.7021 1.20603 11.0351 1.20603H14.7939V4.96481C14.7939 5.29787 15.0638 5.56781 15.3969 5.56781C15.73 5.56781 15.9999 5.29787 15.9999 4.96481V0.603031C15.9999 0.269937 15.73 0 15.3969 0Z" fill="white"/>
<path d="M15.8233 0.176695C15.5877 -0.0588984 15.2062 -0.0588984 14.9706 0.176695L6.36761 8.7797C6.13202 9.01507 6.13202 9.39698 6.36761 9.63235C6.48521 9.75013 6.63958 9.80904 6.79396 9.80904C6.94811 9.80904 7.10249 9.75013 7.2203 9.63235L15.8233 1.02935C16.0589 0.793977 16.0589 0.41207 15.8233 0.176695Z" fill="white"/>
<path d="M13.3468 7.49748C13.0137 7.49748 12.7437 7.76742 12.7437 8.10048V14.7939H1.20603V3.25626H7.8995C8.23256 3.25626 8.5025 2.98633 8.5025 2.65326C8.5025 2.3202 8.23256 2.05023 7.8995 2.05023H0.603031C0.269938 2.05023 0 2.32017 0 2.65326V15.397C0 15.73 0.269938 16 0.603031 16H13.3468C13.68 16 13.9497 15.73 13.9497 15.3969V8.10048C13.9497 7.76742 13.6798 7.49748 13.3468 7.49748Z" fill="white"/>
</g>
<defs>
<clipPath id="clip0_11:359">
<rect width="16" height="16" fill="white"/>
</clipPath>
</defs>
</svg>
