<svg width="40" height="40" viewBox="0 0 40 40" fill="none" xmlns="http://www.w3.org/2000/svg">
<rect width="40" height="40" rx="20" fill="#F44336"/>
<path d="M22.3457 24.4521H18.8301L18.332 9.67188H22.8438L22.3457 24.4521ZM20.5879 26.7666C21.3008 26.7666 21.8721 26.9766 22.3018 27.3965C22.7412 27.8164 22.9609 28.3535 22.9609 29.0078C22.9609 29.6523 22.7412 30.1846 22.3018 30.6045C21.8721 31.0244 21.3008 31.2344 20.5879 31.2344C19.8848 31.2344 19.3135 31.0244 18.874 30.6045C18.4443 30.1846 18.2295 29.6523 18.2295 29.0078C18.2295 28.3633 18.4443 27.8311 18.874 27.4111C19.3135 26.9814 19.8848 26.7666 20.5879 26.7666Z" fill="white"/>
</svg>
