<svg width="24" height="24" viewBox="0 0 24 24" fill="none" xmlns="http://www.w3.org/2000/svg">
<g clip-path="url(#clip0_5_2299)">
<circle cx="12" cy="12" r="12" fill="#ACB4BE"/>
<path fill-rule="evenodd" clip-rule="evenodd" d="M12 3.75C16.5563 3.75 20.25 7.44365 20.25 12C20.25 16.5563 16.5563 20.25 12 20.25C7.44365 20.25 3.75 16.5563 3.75 12C3.75 7.44365 7.44365 3.75 12 3.75ZM5.29924 11.1806C5.51789 11.4604 6.12586 11.8185 7.05619 12.1106C7.42251 12.2257 7.8237 12.3268 8.25416 12.4127C8.2514 12.2759 8.25 12.1383 8.25 12C8.25 9.50427 8.70417 7.25048 9.49091 5.73173C7.24809 6.63031 5.59971 8.69774 5.29924 11.1806ZM8.34685 13.9581C7.1425 13.7488 6.10983 13.432 5.32722 13.0243C5.69128 15.4156 7.31008 17.3945 9.49091 18.2683C8.9165 17.1594 8.51937 15.6587 8.34685 13.9581ZM9.88418 14.158C10.557 14.2186 11.2657 14.25 12 14.25C12.7225 14.25 13.4343 14.209 14.119 14.1331C13.7807 16.8313 12.8452 18.75 12 18.75C11.1574 18.75 10.2251 16.8431 9.88418 14.158ZM14.2397 12.6034C13.5276 12.6956 12.771 12.75 12 12.75C11.2168 12.75 10.4651 12.7112 9.76149 12.6377C9.75391 12.4279 9.75 12.2152 9.75 12C9.75 8.23799 10.9452 5.25 12 5.25C13.0548 5.25 14.25 8.23799 14.25 12C14.25 12.2035 14.2465 12.4048 14.2397 12.6034ZM15.6594 13.8952C15.4904 15.6217 15.0906 17.1457 14.5091 18.2683C16.7284 17.3791 18.3657 15.3454 18.6909 12.8973C17.8958 13.3109 16.8485 13.6567 15.6594 13.8952ZM18.6964 11.1451C18.3435 11.5412 17.2303 12.0118 15.7472 12.3406C15.7491 12.2276 15.75 12.1141 15.75 12C15.75 9.50427 15.2958 7.25048 14.5091 5.73173C16.7412 6.62603 18.3846 8.67807 18.6964 11.1451Z" fill="white"/>
</g>
<defs>
<clipPath id="clip0_5_2299">
<rect width="24" height="24" fill="white"/>
</clipPath>
</defs>
</svg>
