<svg xmlns="http://www.w3.org/2000/svg" width="26.698" height="21" viewBox="0 0 26.698 21">
  <path id="ic_analytics" d="M-2180.069,1243.406v-11.24a1.272,1.272,0,0,1,1.272-1.273,1.273,1.273,0,0,1,1.273,1.273v11.24a1.273,1.273,0,0,1-1.273,1.273A1.272,1.272,0,0,1-2180.069,1243.406Zm-4.631,0v-6.8a1.273,1.273,0,0,1,1.273-1.273,1.272,1.272,0,0,1,1.272,1.273v6.8a1.272,1.272,0,0,1-1.272,1.273A1.273,1.273,0,0,1-2184.7,1243.406Zm-4.63,0v-9.819a1.272,1.272,0,0,1,1.272-1.273,1.273,1.273,0,0,1,1.273,1.273v9.819a1.273,1.273,0,0,1-1.273,1.273A1.272,1.272,0,0,1-2189.33,1243.406Zm-4.631,0v-5.239a1.273,1.273,0,0,1,1.273-1.273,1.272,1.272,0,0,1,1.272,1.273v5.239a1.272,1.272,0,0,1-1.272,1.273A1.273,1.273,0,0,1-2193.961,1243.406Zm-4.63,0v-8.212a1.273,1.273,0,0,1,1.272-1.273,1.273,1.273,0,0,1,1.273,1.273v8.212a1.273,1.273,0,0,1-1.273,1.273A1.273,1.273,0,0,1-2198.591,1243.406Zm-4.631,0v-3.3a1.273,1.273,0,0,1,1.273-1.273,1.272,1.272,0,0,1,1.272,1.273v3.3a1.272,1.272,0,0,1-1.272,1.273A1.273,1.273,0,0,1-2203.222,1243.406Zm8.758-11.71a1.77,1.77,0,0,1,.227-.868l-2.325-2.5a1.76,1.76,0,0,1-.757.17,1.758,1.758,0,0,1-.661-.129l-1.961,2.367a1.764,1.764,0,0,1,.28.956,1.778,1.778,0,0,1-1.776,1.776,1.778,1.778,0,0,1-1.777-1.776,1.779,1.779,0,0,1,1.777-1.777,1.758,1.758,0,0,1,.662.129l1.961-2.366a1.766,1.766,0,0,1-.28-.957,1.777,1.777,0,0,1,1.776-1.776,1.778,1.778,0,0,1,1.777,1.776,1.758,1.758,0,0,1-.228.869l2.326,2.5a1.76,1.76,0,0,1,.756-.17,1.761,1.761,0,0,1,.757.17l2.325-2.5a1.768,1.768,0,0,1-.227-.869,1.777,1.777,0,0,1,1.776-1.776,1.778,1.778,0,0,1,1.777,1.776,1.765,1.765,0,0,1-.218.851l2.3,2.413a1.76,1.76,0,0,1,.774-.178,1.764,1.764,0,0,1,.623.113l1.956-2.478a1.765,1.765,0,0,1-.3-.992,1.779,1.779,0,0,1,1.777-1.777,1.778,1.778,0,0,1,1.776,1.777,1.778,1.778,0,0,1-1.776,1.776,1.77,1.77,0,0,1-.623-.113l-1.955,2.477a1.773,1.773,0,0,1,.3.993,1.778,1.778,0,0,1-1.777,1.776,1.778,1.778,0,0,1-1.776-1.776,1.753,1.753,0,0,1,.218-.851l-2.3-2.413a1.759,1.759,0,0,1-.775.178,1.759,1.759,0,0,1-.756-.17l-2.326,2.5a1.758,1.758,0,0,1,.228.868,1.778,1.778,0,0,1-1.777,1.776A1.778,1.778,0,0,1-2194.464,1231.7Zm.975,0a.8.8,0,0,0,.8.8.8.8,0,0,0,.8-.8.8.8,0,0,0-.8-.8A.8.8,0,0,0-2193.489,1231.7Zm-8.75,0a.8.8,0,0,0,.8.8.8.8,0,0,0,.8-.8.8.8,0,0,0-.8-.8A.8.8,0,0,0-2202.239,1231.7Zm18.011-.108a.8.8,0,0,0,.8.8.8.8,0,0,0,.8-.8.8.8,0,0,0-.8-.8A.8.8,0,0,0-2184.228,1231.588Zm-4.631-4.863a.8.8,0,0,0,.8.8.8.8,0,0,0,.8-.8.8.8,0,0,0-.8-.8A.8.8,0,0,0-2188.859,1226.725Zm-9.261,0a.8.8,0,0,0,.8.8.8.8,0,0,0,.8-.8.8.8,0,0,0-.8-.8A.8.8,0,0,0-2198.12,1226.725Zm17.942-.27a.8.8,0,0,0,.8.8.8.8,0,0,0,.8-.8.8.8,0,0,0-.8-.8A.8.8,0,0,0-2180.177,1226.455Z" transform="translate(2203.722 -1224.179)" fill="#aeb0bb" stroke="rgba(0,0,0,0)" stroke-width="1"/>
</svg>
