<svg xmlns="http://www.w3.org/2000/svg" width="31.999" height="32.006" viewBox="0 0 31.999 32.006">
  <path id="ic_heatmap" d="M-5281-21921h-16a8.009,8.009,0,0,1-8-8V-21945a8.009,8.009,0,0,1,8-8h16a8.01,8.01,0,0,1,8,8V-21929A8.01,8.01,0,0,1-5281-21921Zm1.2-5.6a1.2,1.2,0,0,0-1.2,1.2,1.2,1.2,0,0,0,1.2,1.2h.8a1.2,1.2,0,0,0,1.2-1.2,1.2,1.2,0,0,0-1.2-1.2Zm-5.2-8a2.4,2.4,0,0,0-2.4,2.4v5.6a2.4,2.4,0,0,0,2.4,2.4,2.4,2.4,0,0,0,2.4-2.4v-5.6A2.4,2.4,0,0,0-5285-21934.6Zm-11.2,0a4,4,0,0,0-4,4v2.4a4,4,0,0,0,4,4h3.2a4,4,0,0,0,4-4v-2.4a4,4,0,0,0-4-4Zm16.4,4a1.2,1.2,0,0,0-1.2,1.2,1.2,1.2,0,0,0,1.2,1.2h.8a1.2,1.2,0,0,0,1.2-1.2,1.2,1.2,0,0,0-1.2-1.2Zm0-4a1.2,1.2,0,0,0-1.2,1.2,1.2,1.2,0,0,0,1.2,1.2h.8a1.2,1.2,0,0,0,1.2-1.2,1.2,1.2,0,0,0-1.2-1.2Zm-3.6-15.2a4,4,0,0,0-4,4v5.6a4,4,0,0,0,4,4h1.6a4,4,0,0,0,4-4v-5.6a4,4,0,0,0-4-4Zm-12.8,0a4,4,0,0,0-4,4v5.6a4,4,0,0,0,4,4h3.2a4,4,0,0,0,4-4v-5.6a4,4,0,0,0-4-4Z" transform="translate(5304.998 21953.002)" fill="#aeb0bb"/>
</svg>
