<svg xmlns="http://www.w3.org/2000/svg" width="31.999" height="32.006" viewBox="0 0 31.999 32.006">
  <path id="ic_piechart" d="M-5281-21921h-16a8.009,8.009,0,0,1-8-8V-21945a8.009,8.009,0,0,1,8-8h16a8.01,8.01,0,0,1,8,8V-21929A8.01,8.01,0,0,1-5281-21921Zm-8.2-25a10.589,10.589,0,0,0-7.5,3.074,10.381,10.381,0,0,0-3.1,7.426,10.563,10.563,0,0,0,10.6,10.5,10.563,10.563,0,0,0,10.6-10.5,10.317,10.317,0,0,0-1.119-4.7l-9.482,4.7v-10.5Zm1.515-3h0v10.5l9.482-4.7a10.57,10.57,0,0,0-3.838-4.2,10.642,10.642,0,0,0-5.644-1.611Z" transform="translate(5304.998 21953.002)" fill="#aeb0bb"/>
</svg>
