<svg xmlns="http://www.w3.org/2000/svg" width="18" height="18.002" viewBox="0 0 18 18.002">
  <path id="ic_sign_hash" d="M-969.035-102.318l2.762-6.4a.612.612,0,0,0-.92-.706l-1.632,1.013a.47.47,0,0,1-.622-.128l-.483-.7a.4.4,0,0,1,.138-.576l1.544-.961c2.152-1.268,4.5.7,3.649,2.677l-1.167,2.7c2.96-2.635,4.063-3.242,4.769-3.281,1.531-.081,1.232,1.773,1.2,1.982-.132.929-.037,1.351.6,1.351a6.17,6.17,0,0,0,2.141-.635c1.052-.437,3.131-1.77,4.588-1.862a.432.432,0,0,1,.467.422v.836a.433.433,0,0,1-.427.411c-1.109.084-2.966,1.328-3.894,1.714a7.539,7.539,0,0,1-2.877.781,2.478,2.478,0,0,1-1.843-.659,2.552,2.552,0,0,1-.58-2.182c-1.589,1.174-4.755,4-5.942,5.1a.93.93,0,0,1-.636.245A.839.839,0,0,1-969.035-102.318Zm13.01-7.858a.24.24,0,0,1-.237-.283l.293-1.645h-1.982l-.309,1.73a.241.241,0,0,1-.238.2h-.816a.24.24,0,0,1-.237-.283l.293-1.645h-1.5a.24.24,0,0,1-.237-.284l.143-.8a.241.241,0,0,1,.238-.2h1.589l.459-2.571h-1.5a.241.241,0,0,1-.238-.284l.143-.8a.241.241,0,0,1,.238-.2h1.589l.309-1.73a.241.241,0,0,1,.237-.2h.816a.241.241,0,0,1,.238.284l-.293,1.645h1.981l.31-1.73a.24.24,0,0,1,.237-.2h.816a.241.241,0,0,1,.238.284l-.293,1.645h1.5a.241.241,0,0,1,.238.284l-.143.8a.241.241,0,0,1-.238.2h-1.589l-.459,2.571h1.5a.241.241,0,0,1,.238.284l-.144.8a.24.24,0,0,1-.237.2h-1.589l-.309,1.73a.241.241,0,0,1-.238.2Zm-1.7-3.214h1.982l.459-2.571h-1.981Z" transform="translate(970 119.176)" fill="#787b8e"/>
</svg>
