<svg xmlns="http://www.w3.org/2000/svg" width="32" height="32.001" viewBox="0 0 32 32.001">
  <path id="TOP" d="M-673,2867h-16a8.009,8.009,0,0,1-8-8v-16a8.009,8.009,0,0,1,8-8h16a8.009,8.009,0,0,1,8,8v16A8.009,8.009,0,0,1-673,2867Zm-8.536-21a4.65,4.65,0,0,0-3.413,1.423A5.139,5.139,0,0,0-686.3,2851a5.141,5.141,0,0,0,1.351,3.578,4.65,4.65,0,0,0,3.413,1.423,4.653,4.653,0,0,0,3.409-1.417A5.137,5.137,0,0,0-676.77,2851a5.135,5.135,0,0,0-1.356-3.582A4.654,4.654,0,0,0-681.535,2846Zm5.984.166v9.669h2.015v-2.666h1.754c2.333,0,3.782-1.339,3.782-3.495s-1.449-3.508-3.782-3.508Zm-15.663,1.823v7.845h2.015v-7.845h2.787v-1.823H-694v1.823Zm9.679,6.1a2.83,2.83,0,0,1-2.724-3.094,2.83,2.83,0,0,1,2.724-3.093,2.83,2.83,0,0,1,2.724,3.093A2.83,2.83,0,0,1-681.535,2854.094Zm9.641-2.749h-1.642v-3.356h1.642c1.2,0,1.854.6,1.854,1.685S-670.7,2851.345-671.894,2851.345Z" transform="translate(697 -2835)" fill="#aeb0bb"/>
</svg>
