<svg xmlns="http://www.w3.org/2000/svg" width="31.999" height="32.006" viewBox="0 0 31.999 32.006">
  <path id="ic_valuechart" d="M-5281-21921h-16a8.009,8.009,0,0,1-8-8V-21945a8.009,8.009,0,0,1,8-8h16a8.01,8.01,0,0,1,8,8V-21929A8.01,8.01,0,0,1-5281-21921Zm-14.8-15.619v0l3.7,9.258a1.2,1.2,0,0,0,1.113.756h.044a1.2,1.2,0,0,0,1.1-.832l4.744-14.771,3,9.7a1.187,1.187,0,0,0,1.135.842h.011a1.2,1.2,0,0,0,1.141-.82l3.956-11.928a1.191,1.191,0,0,0-.067-.916,1.2,1.2,0,0,0-.694-.6,1.181,1.181,0,0,0-.38-.061,1.208,1.208,0,0,0-1.141.82l-2.777,8.375-3.014-9.768a1.19,1.19,0,0,0-1.146-.844h-.005a1.2,1.2,0,0,0-1.141.832l-4.887,15.229-3.4-8.523a1.2,1.2,0,0,0-1.036-.754h-.077a1.209,1.209,0,0,0-1.052.621l-1.9,3.443-1.24-8.406a1.2,1.2,0,0,0-1.185-1.025,1.344,1.344,0,0,0-.155.01l-.008,0h-.014a1.2,1.2,0,0,0-1.014,1.365l1.758,11.924a1.2,1.2,0,0,0,.969,1.01,1.866,1.866,0,0,0,.215.014,1.206,1.206,0,0,0,1.053-.617l2.4-4.338Z" transform="translate(5304.998 21953.002)" fill="#aeb0bb"/>
</svg>
