<svg width="24" height="24" viewBox="0 0 24 24" fill="none" xmlns="http://www.w3.org/2000/svg">
<path fill-rule="evenodd" clip-rule="evenodd" d="M4.40763 4.04004L5.88599 5.3952C4.11104 7.0391 3 9.38966 3 11.9997C3 14.6098 4.11104 16.9603 5.88599 18.6042L4.40763 19.9594C2.30811 17.9562 1 15.1307 1 11.9997C1 8.86872 2.30811 6.04326 4.40763 4.04004ZM9 12C9 13.6569 10.3431 15 12 15C13.6569 15 15 13.6569 15 12C15 10.3432 13.6569 9.00004 12 9.00004C10.3431 9.00004 9 10.3432 9 12ZM13 12C13 12.5523 12.5523 13 12 13C11.4477 13 11 12.5523 11 12C11 11.4478 11.4477 11 12 11C12.5523 11 13 11.4478 13 12ZM8.8525 8.1145L7.36666 6.75249C5.91525 8.03507 5 9.91051 5 11.9997C5 14.0889 5.91525 15.9644 7.36666 17.2469L8.8525 15.8849C7.72232 14.9682 7 13.5683 7 11.9997C7 10.4311 7.72232 9.03121 8.8525 8.1145ZM19.5924 4.04037C21.6919 6.04359 23 8.86905 23 12C23 15.131 21.6919 17.9565 19.5924 19.9597L18.114 18.6046C19.889 16.9606 21 14.6101 21 12C21 9.38999 19.889 7.03943 18.114 5.39553L19.5924 4.04037ZM19 12C19 9.91083 18.0848 8.0354 16.6333 6.75281L15.1475 8.11483C16.2777 9.03154 17 10.4314 17 12C17 13.5686 16.2777 14.9685 15.1475 15.8853L16.6333 17.2473C18.0848 15.9647 19 14.0892 19 12Z" fill="#20264E"/>
</svg>
