<svg width="30" height="30" viewBox="0 0 30 30" fill="none" xmlns="http://www.w3.org/2000/svg">
<path d="M17.275 27.5H12.725C12.1377 27.5 11.6295 27.0913 11.5038 26.5175L10.995 24.1625C10.3163 23.8651 9.6728 23.4933 9.07627 23.0538L6.78002 23.785C6.22002 23.9636 5.61125 23.7279 5.31752 23.2188L3.03752 19.28C2.747 18.7706 2.84709 18.1281 3.27877 17.7313L5.06002 16.1063C4.97902 15.3701 4.97902 14.6274 5.06002 13.8912L3.27877 12.27C2.84646 11.873 2.74633 11.2297 3.03752 10.72L5.31252 6.77875C5.60625 6.26962 6.21502 6.03392 6.77502 6.2125L9.07127 6.94375C9.37635 6.7177 9.69394 6.50903 10.0225 6.31875C10.3379 6.14087 10.6626 5.97981 10.995 5.83625L11.505 3.48375C11.6301 2.90996 12.1378 2.50062 12.725 2.5H17.275C17.8623 2.50062 18.3699 2.90996 18.495 3.48375L19.01 5.8375C19.361 5.9919 19.7028 6.16635 20.0338 6.36C20.3429 6.53847 20.6417 6.7342 20.9288 6.94625L23.2263 6.215C23.7859 6.03709 24.3939 6.2727 24.6875 6.78125L26.9625 10.7225C27.253 11.2319 27.1529 11.8744 26.7213 12.2712L24.94 13.8962C25.021 14.6324 25.021 15.3751 24.94 16.1112L26.7213 17.7362C27.1529 18.1331 27.253 18.7756 26.9625 19.285L24.6875 23.2262C24.3939 23.7348 23.7859 23.9704 23.2263 23.7925L20.9288 23.0612C20.6381 23.2754 20.3359 23.4736 20.0238 23.655C19.6961 23.8449 19.358 24.0164 19.0113 24.1688L18.495 26.5175C18.3694 27.0908 17.8619 27.4995 17.275 27.5ZM14.995 10C12.2336 10 9.99502 12.2386 9.99502 15C9.99502 17.7614 12.2336 20 14.995 20C17.7564 20 19.995 17.7614 19.995 15C19.995 12.2386 17.7564 10 14.995 10Z" fill="#461A57"/>
</svg>
