<svg width="32" height="44" viewBox="0 0 32 44" fill="none" xmlns="http://www.w3.org/2000/svg">
<path fill-rule="evenodd" clip-rule="evenodd" d="M6 20V10C6 4.47715 10.4772 0 16 0C21.5228 0 26 4.47715 26 10V14H22V10C22 6.68629 19.3137 4 16 4C12.6863 4 10 6.68629 10 10V20H28C30.2091 20 32 21.7909 32 24V40C32 42.2091 30.2091 44 28 44H4C1.79086 44 0 42.2091 0 40V24C0 21.7909 1.79086 20 4 20H6ZM4 40V24H28V40H4ZM18 32C18 33.1046 17.1046 34 16 34C14.8954 34 14 33.1046 14 32C14 30.8954 14.8954 30 16 30C17.1046 30 18 30.8954 18 32Z" fill="#787B8E"/>
</svg>
