<svg width="24" height="24" viewBox="0 0 24 24" fill="none" xmlns="http://www.w3.org/2000/svg">
<g clip-path="url(#clip0_3455_6231)">
<path d="M24 11.9779C24.0046 14.2442 23.3673 16.4655 22.1618 18.3847C20.9564 20.3039 19.2321 21.8425 17.1886 22.8224C15.145 23.8023 12.8658 24.1835 10.6146 23.9218C8.36338 23.6602 6.23231 22.7664 4.468 21.3439C4.34155 21.2415 4.23805 21.1136 4.16423 20.9686C4.09041 20.8236 4.04793 20.6647 4.03954 20.5022C4.03114 20.3397 4.05703 20.1772 4.11551 20.0254C4.174 19.8736 4.26377 19.7357 4.379 19.6209L4.924 19.0759C5.12425 18.873 5.39202 18.7507 5.67647 18.7323C5.96093 18.7139 6.24224 18.8005 6.467 18.9759C7.8033 20.0343 9.41546 20.6867 11.1118 20.8555C12.8081 21.0243 14.5172 20.7024 16.0359 19.928C17.5545 19.1536 18.8189 17.9594 19.6785 16.4873C20.5382 15.0153 20.957 13.3273 20.8851 11.6241C20.8132 9.9209 20.2538 8.27418 19.2732 6.87975C18.2926 5.48531 16.9322 4.40182 15.3537 3.75812C13.7752 3.11442 12.045 2.9376 10.3689 3.24867C8.69287 3.55974 7.14139 4.34562 5.899 5.51286L8.355 7.96886C8.46347 8.07705 8.53739 8.215 8.5674 8.36523C8.59741 8.51546 8.58217 8.67122 8.5236 8.81278C8.46502 8.95434 8.36576 9.07534 8.23837 9.16044C8.11098 9.24555 7.9612 9.29094 7.808 9.29086H0.774C0.568722 9.29086 0.371853 9.20931 0.226699 9.06416C0.0815462 8.91901 0 8.72214 0 8.51686V1.48186C0.000709006 1.32912 0.046594 1.18 0.131877 1.05329C0.217161 0.926571 0.33803 0.827922 0.479264 0.76976C0.620499 0.711599 0.775784 0.696525 0.925568 0.726437C1.07535 0.756349 1.21294 0.82991 1.321 0.937857L3.71 3.32386C5.40781 1.70161 7.54427 0.613149 9.85468 0.193334C12.1651 -0.226481 14.5479 0.0408022 16.7079 0.962066C18.8679 1.88333 20.7101 3.41809 22.0063 5.37617C23.3025 7.33426 23.9957 9.62962 24 11.9779ZM15.246 15.7899L15.721 15.1789C15.8149 15.0587 15.8843 14.9212 15.925 14.7743C15.9658 14.6273 15.9773 14.4738 15.9587 14.3224C15.9401 14.1711 15.8919 14.0248 15.8168 13.8921C15.7417 13.7594 15.6412 13.6427 15.521 13.5489L13.552 12.0169V6.96786C13.552 6.81506 13.5218 6.66376 13.4632 6.52264C13.4046 6.38152 13.3188 6.25335 13.2105 6.14549C13.1023 6.03763 12.9738 5.95219 12.8325 5.89408C12.6912 5.83597 12.5398 5.80633 12.387 5.80686H11.613C11.4605 5.80673 11.3094 5.83666 11.1684 5.89495C11.0274 5.95323 10.8993 6.03873 10.7914 6.14655C10.6835 6.25437 10.5979 6.38241 10.5395 6.52333C10.4811 6.66426 10.451 6.81531 10.451 6.96786V13.5319L13.616 15.9939C13.7361 16.0878 13.8736 16.1571 14.0206 16.1979C14.1675 16.2387 14.3211 16.2501 14.4724 16.2315C14.6238 16.213 14.77 16.1647 14.9028 16.0897C15.0355 16.0146 15.1521 15.914 15.246 15.7939V15.7899Z" fill="#4C125A"/>
</g>
<defs>
<clipPath id="clip0_3455_6231">
<rect width="24" height="24" fill="white"/>
</clipPath>
</defs>
</svg>
