<svg width="10" height="10" viewBox="0 0 10 10" fill="none" xmlns="http://www.w3.org/2000/svg">
<path d="M9.2659 1.54708C9.2659 1.54692 9.26588 1.54678 9.26588 1.54662C9.26586 1.52703 9.26483 1.50743 9.26292 1.4879C9.26204 1.47896 9.26035 1.47027 9.2591 1.46142C9.25759 1.45088 9.25636 1.4403 9.25429 1.42984C9.25228 1.41976 9.24952 1.41 9.24701 1.4001C9.24472 1.39101 9.24274 1.3819 9.24001 1.37294C9.23707 1.36323 9.23343 1.35387 9.23001 1.34436C9.22681 1.3354 9.22385 1.32635 9.22019 1.31752C9.21651 1.30867 9.21221 1.30016 9.20812 1.29153C9.20382 1.28243 9.19979 1.27326 9.19502 1.26435C9.19058 1.25606 9.18553 1.24819 9.1807 1.24013C9.17549 1.23139 9.17054 1.22254 9.16483 1.21401C9.15885 1.20508 9.15221 1.19669 9.14578 1.18812C9.14047 1.18106 9.13556 1.17376 9.12992 1.16688C9.10482 1.1363 9.07677 1.10825 9.04619 1.08315C9.03931 1.07751 9.03203 1.07258 9.02495 1.06729C9.01638 1.06086 9.00799 1.05422 8.99906 1.04824C8.99053 1.04253 8.98168 1.03758 8.97294 1.03237C8.9649 1.02756 8.95701 1.02249 8.94872 1.01806C8.93981 1.01328 8.93062 1.00923 8.92154 1.00495C8.91289 1.00088 8.9044 0.996561 8.89555 0.992883C8.88672 0.989224 8.87767 0.986261 8.86871 0.983059C8.8592 0.979639 8.84984 0.976001 8.84013 0.973058C8.83117 0.970334 8.82204 0.968365 8.81297 0.966059C8.80307 0.963554 8.79331 0.960789 8.78323 0.958781C8.77277 0.956713 8.76219 0.955481 8.75165 0.95397C8.74282 0.952697 8.73411 0.951027 8.72517 0.950152C8.70564 0.948243 8.68606 0.94719 8.66645 0.94719C8.66629 0.94719 8.66615 0.94717 8.66599 0.94717L2.72745 0.94717C2.39615 0.94717 2.12756 1.21576 2.12756 1.54706C2.12756 1.87836 2.39615 2.14694 2.72745 2.14694L7.21777 2.14696L0.606545 8.75819C0.372277 8.99246 0.372277 9.37228 0.606545 9.60655C0.840814 9.84081 1.22063 9.84081 1.4549 9.60654L8.06613 2.99532L8.06613 7.48562C8.06613 7.81692 8.33471 8.08551 8.66601 8.08551C8.99731 8.08551 9.2659 7.81692 9.2659 7.48562L9.2659 1.54708Z" fill="white"/>
</svg>
