<svg width="16" height="16" viewBox="0 0 16 16" fill="none" xmlns="http://www.w3.org/2000/svg">
<path d="M7.52866 13.1381C7.52879 13.1382 7.52891 13.1383 7.52904 13.1384C7.54444 13.1538 7.56066 13.1684 7.57751 13.1822C7.58522 13.1886 7.59338 13.1941 7.60132 13.2C7.61079 13.2071 7.62007 13.2145 7.62991 13.2211C7.63941 13.2274 7.64926 13.2329 7.65901 13.2387C7.66794 13.2441 7.67666 13.2497 7.68585 13.2546C7.69579 13.2599 7.70601 13.2644 7.71616 13.2692C7.72572 13.2737 7.73516 13.2785 7.74497 13.2825C7.75482 13.2866 7.76488 13.2899 7.77488 13.2935C7.78541 13.2972 7.79579 13.3013 7.80654 13.3045C7.81654 13.3076 7.82669 13.3098 7.83682 13.3123C7.84779 13.3151 7.85863 13.3182 7.86982 13.3204C7.88154 13.3227 7.89335 13.3241 7.90513 13.3258C7.91485 13.3271 7.92444 13.329 7.93429 13.33C7.97804 13.3343 8.02213 13.3343 8.06588 13.33C8.07572 13.329 8.08532 13.3272 8.09504 13.3258C8.10682 13.3241 8.11863 13.3227 8.13035 13.3204C8.14154 13.3182 8.15238 13.3151 8.16335 13.3123C8.17344 13.3098 8.18363 13.3076 8.19363 13.3045C8.20438 13.3013 8.21479 13.2972 8.22529 13.2935C8.23529 13.2899 8.24535 13.2866 8.25519 13.2825C8.26501 13.2785 8.27444 13.2737 8.28401 13.2692C8.29416 13.2644 8.30438 13.2599 8.31432 13.2546C8.32351 13.2497 8.33222 13.244 8.34116 13.2387C8.35091 13.2329 8.36076 13.2274 8.37026 13.2211C8.3801 13.2145 8.38938 13.2071 8.39885 13.2C8.40679 13.1941 8.41494 13.1886 8.42266 13.1822C8.43951 13.1684 8.45572 13.1538 8.47113 13.1384C8.47126 13.1383 8.47138 13.1382 8.47151 13.1381L13.1382 8.47141C13.3985 8.21106 13.3985 7.78894 13.1382 7.52859C12.8778 7.26825 12.4557 7.26825 12.1953 7.52859L8.66672 11.0572V0.666656C8.66672 0.298469 8.36826 0 8.00007 0C7.63188 0 7.33341 0.298469 7.33341 0.666656V11.0572L3.80482 7.52859C3.54447 7.26825 3.12235 7.26825 2.86201 7.52859C2.60166 7.78894 2.60166 8.21106 2.86201 8.47141L7.52866 13.1381Z" fill="white"/>
<path d="M12.6667 14.6667H3.3334C2.96522 14.6667 2.66675 14.9651 2.66675 15.3333C2.66675 15.7015 2.96522 16 3.3334 16H12.6667C13.0349 16 13.3334 15.7015 13.3334 15.3333C13.3334 14.9652 13.0349 14.6667 12.6667 14.6667Z" fill="white"/>
</svg>
