<svg width="155" height="155" viewBox="0 0 155 155" fill="none" xmlns="http://www.w3.org/2000/svg">
<rect width="155" height="155" fill="#EEE6F3"/>
<path d="M76.0554 98.1945C76.0559 98.195 76.0564 98.1954 76.0569 98.1959C76.1205 98.2593 76.1874 98.3195 76.2569 98.3766C76.2887 98.4028 76.3224 98.4255 76.3551 98.4501C76.3942 98.4794 76.4324 98.5097 76.473 98.5369C76.5122 98.563 76.5528 98.5857 76.5931 98.6097C76.6299 98.6318 76.6659 98.6548 76.7038 98.6751C76.7448 98.697 76.7869 98.7155 76.8288 98.7353C76.8683 98.754 76.9072 98.7737 76.9477 98.7904C76.9883 98.8072 77.0298 98.8209 77.071 98.8356C77.1145 98.8512 77.1573 98.8678 77.2016 98.8812C77.2429 98.8937 77.2848 98.9028 77.3265 98.9133C77.3718 98.9248 77.4165 98.9374 77.4627 98.9465C77.511 98.9561 77.5597 98.9618 77.6083 98.9687C77.6484 98.9744 77.688 98.9821 77.7286 98.9861C77.9091 99.0039 78.091 99.0039 78.2714 98.9861C78.312 98.9821 78.3516 98.9745 78.3917 98.9687C78.4403 98.9618 78.489 98.9561 78.5374 98.9465C78.5835 98.9374 78.6282 98.9248 78.6735 98.9133C78.7151 98.9028 78.7571 98.8937 78.7984 98.8812C78.8427 98.8678 78.8857 98.8512 78.929 98.8356C78.9702 98.8207 79.0117 98.8072 79.0523 98.7904C79.0928 98.7737 79.1317 98.754 79.1712 98.7353C79.2131 98.7155 79.2552 98.697 79.2962 98.6751C79.3341 98.6548 79.3701 98.6316 79.407 98.6097C79.4472 98.5857 79.4878 98.563 79.527 98.5369C79.5676 98.5097 79.6059 98.4794 79.6449 98.4501C79.6777 98.4256 79.7113 98.4028 79.7431 98.3766C79.8126 98.3195 79.8795 98.2595 79.9431 98.1959C79.9436 98.1954 79.9441 98.195 79.9446 98.1945L99.1946 78.9445C100.268 77.8706 100.268 76.1294 99.1946 75.0554C98.1207 73.9815 96.3794 73.9815 95.3055 75.0554L80.7499 89.6109V46.75C80.7499 45.2312 79.5187 44 77.9999 44C76.4812 44 75.25 45.2312 75.25 46.75V89.6109L60.6945 75.0554C59.6206 73.9815 57.8794 73.9815 56.8054 75.0554C55.7315 76.1294 55.7315 77.8706 56.8054 78.9445L76.0554 98.1945Z" fill="#461A57"/>
<path d="M97.2499 104.5H58.75C57.2312 104.5 56 105.731 56 107.25C56 108.769 57.2312 110 58.75 110H97.25C98.7688 110 100 108.769 100 107.25C100 105.731 98.7686 104.5 97.2499 104.5Z" fill="#461A57"/>
</svg>
