<svg xmlns="http://www.w3.org/2000/svg" width="24" height="24" viewBox="0 0 24 24">
  <path id="ic_info" d="M12.563.563a12,12,0,1,0,12,12A12,12,0,0,0,12.563.563Zm0,5.323A2.032,2.032,0,1,1,10.53,7.917,2.032,2.032,0,0,1,12.563,5.885Zm2.71,12.29a.581.581,0,0,1-.581.581H10.433a.581.581,0,0,1-.581-.581V17.014a.581.581,0,0,1,.581-.581h.581v-3.1h-.581a.581.581,0,0,1-.581-.581V11.595a.581.581,0,0,1,.581-.581h3.1a.581.581,0,0,1,.581.581v4.839h.581a.581.581,0,0,1,.581.581Z" transform="translate(-0.563 -0.563)" fill="#aeb0bb"/>
</svg>
