<?xml version="1.0" standalone="no"?>
<!DOCTYPE svg PUBLIC "-//W3C//DTD SVG 20010904//EN"
 "http://www.w3.org/TR/2001/REC-SVG-20010904/DTD/svg10.dtd">
<svg version="1.0" xmlns="http://www.w3.org/2000/svg"
 width="187.000000pt" height="187.000000pt" viewBox="0 0 187.000000 187.000000"
 preserveAspectRatio="xMidYMid meet">

<g transform="translate(0.000000,187.000000) scale(0.100000,-0.100000)"
fill="#000000" stroke="none">
<path d="M783 1806 c-345 -66 -612 -312 -705 -651 -31 -113 -31 -325 1 -440
70 -260 241 -466 483 -580 129 -61 213 -79 378 -78 129 0 155 3 235 27 178 54
370 182 460 307 249 347 244 761 -13 1103 -98 129 -287 249 -468 297 -101 27
-273 33 -371 15z m409 -173 l3 -88 93 -3 93 -3 -3 -47 -3 -47 -140 0 -140 0
-3 87 -3 87 -92 3 -92 3 -3 48 -3 47 145 0 145 0 3 -87z m-372 -33 l0 -90 90
0 90 0 0 -151 0 -150 -47 3 -48 3 -3 98 -3 97 -89 0 -90 0 0 140 0 140 50 0
50 0 0 -90z m750 -195 l0 -144 -87 -3 -88 -3 -3 -93 -3 -93 -47 3 -47 3 0 140
0 140 88 3 87 3 0 94 0 95 50 0 50 0 0 -145z m-948 28 l3 -108 93 -3 92 -3 0
-44 0 -45 -145 0 -145 0 0 105 0 105 -95 0 -95 0 0 50 0 50 145 0 144 0 3
-107z m-177 -228 l0 -140 -92 -3 -93 -3 0 -94 0 -95 -50 0 -50 0 0 145 0 145
95 0 95 0 0 96 0 95 48 -3 47 -3 0 -140z m745 -10 l0 -145 -90 0 -89 0 -3 -62
c-3 -57 -5 -63 -27 -66 -12 -2 -34 -1 -47 2 -24 6 -24 9 -24 116 l0 110 90 0
90 0 0 95 0 95 50 0 50 0 0 -145z m-360 -150 l0 -115 -50 0 -50 0 0 65 0 65
-95 0 -95 0 0 50 0 50 145 0 145 0 0 -115z m890 65 l0 -50 -75 0 -75 0 0 -90
0 -90 -160 0 -160 0 0 50 0 50 110 0 110 0 0 90 0 90 125 0 125 0 0 -50z m38
-277 l3 -143 -90 0 -90 0 -3 -92 -3 -93 -47 -3 -48 -3 0 145 0 146 90 0 90 0
0 96 0 95 48 -3 47 -3 3 -142z m-1088 87 l0 -50 -110 0 -110 0 0 -90 0 -90
-130 0 -130 0 0 50 0 50 80 0 80 0 0 90 0 90 160 0 160 0 0 -50z m510 -60 l0
-60 95 0 95 0 0 -50 0 -50 -145 0 -145 0 0 110 0 110 50 0 50 0 0 -60z m-170
-80 l0 -50 -95 0 -95 0 0 -110 0 -110 -50 0 -50 0 0 160 0 160 145 0 145 0 0
-50z m-392 -147 l3 -143 -91 0 -90 0 0 -95 0 -95 -50 0 -50 0 0 145 0 145 90
0 90 0 0 96 0 95 48 -3 47 -3 3 -142z m392 -93 l0 -100 90 0 90 0 0 -140 0
-140 -50 0 -50 0 0 90 0 90 -90 0 -90 0 0 143 c0 79 3 147 7 150 3 4 26 7 50
7 l43 0 0 -100z m380 -20 l0 -110 95 0 95 0 0 -32 c0 -61 -18 -68 -162 -68
l-128 0 0 110 0 110 -90 0 -90 0 0 50 0 50 140 0 140 0 0 -110z m-570 -200 l0
-90 95 0 95 0 0 -50 0 -50 -145 0 -145 0 0 90 0 90 -90 0 -90 0 0 50 0 50 140
0 140 0 0 -90z"/>
</g>
</svg>
