<svg xmlns="http://www.w3.org/2000/svg" width="71.732" height="24" viewBox="0 0 71.732 24">
  <path id="ledger-logo-long" d="M61.362,22.489V24h10.37V17.185H70.221v5.3ZM61.362,0V1.511h8.859v5.3h1.511V0ZM56.014,11.689V8.178h2.37c1.156,0,1.571.385,1.571,1.437v.622c0,1.081-.4,1.452-1.571,1.452Zm3.763.622a2.518,2.518,0,0,0,1.837-2.489,2.716,2.716,0,0,0-.859-1.985,3.977,3.977,0,0,0-2.889-1.022H54.532v10.37h1.482V13.052h2.222c1.141,0,1.6.474,1.6,1.659v2.474h1.511V14.948c0-1.63-.385-2.252-1.57-2.43ZM47.3,12.652h4.563V11.289H47.3V8.178H52.31V6.815H45.792v10.37h6.741V15.822H47.3ZM42.34,13.2v.711c0,1.5-.548,1.985-1.926,1.985h-.326c-1.378,0-2.044-.445-2.044-2.5V10.607c0-2.074.7-2.5,2.074-2.5h.3c1.348,0,1.778.5,1.792,1.9h1.63A3.362,3.362,0,0,0,40.28,6.667a3.432,3.432,0,0,0-2.444.9c-.933.874-1.452,2.356-1.452,4.43a6.047,6.047,0,0,0,1.363,4.4,3.359,3.359,0,0,0,2.326.933,2.294,2.294,0,0,0,2.118-1.126H42.4v.978h1.363V11.837H39.747V13.2ZM29.274,8.178h1.615c1.526,0,2.356.385,2.356,2.459v2.726c0,2.074-.83,2.459-2.356,2.459H29.274Zm1.748,9.008c2.83,0,3.881-2.148,3.881-5.185,0-3.081-1.126-5.185-3.911-5.185h-3.2v10.37ZM20.637,12.652H25.2V11.289H20.637V8.178h5.007V6.815H19.125v10.37h6.741V15.822h-5.23ZM11.9,6.815H10.385v10.37H17.2V15.822H11.9ZM0,17.185V24H10.37V22.489H1.511v-5.3ZM0,0V6.815H1.511v-5.3H10.37V0Z" fill="#757b86"/>
</svg>
