<svg width="32" height="35" viewBox="0 0 32 35" fill="none" xmlns="http://www.w3.org/2000/svg">
  <path d="M23 10V8.25C23 6.38872 23 5.45808 22.7553 4.70492C22.2607 3.18273 21.0673 1.98931 19.5451 1.49472C18.7919 1.25 17.8613 1.25 16 1.25V1.25C14.1387 1.25 13.2081 1.25 12.4549 1.49472C10.9327 1.98931 9.73931 3.18273 9.24472 4.70492C9 5.45808 9 6.38872 9 8.25V10" stroke="#444444" stroke-width="2" stroke-linecap="round"/>
  <path fill-rule="evenodd" clip-rule="evenodd" d="M1.12868 9.12868C0.25 10.0074 0.25 11.4216 0.25 14.25V26.5C0.25 30.2712 0.25 32.1569 1.42157 33.3284C2.59315 34.5 4.47876 34.5 8.25 34.5H23.75C27.5212 34.5 29.4069 34.5 30.5784 33.3284C31.75 32.1569 31.75 30.2712 31.75 26.5V14.25C31.75 11.4216 31.75 10.0074 30.8713 9.12868C29.9926 8.25 28.5784 8.25 25.75 8.25H6.25C3.42157 8.25 2.00736 8.25 1.12868 9.12868ZM16 23.75C17.7949 23.75 19.25 22.2949 19.25 20.5C19.25 18.7051 17.7949 17.25 16 17.25C14.2051 17.25 12.75 18.7051 12.75 20.5C12.75 22.2949 14.2051 23.75 16 23.75ZM21.25 20.5C21.25 23.0575 19.4212 25.1879 17 25.6549V29.25H15V25.6549C12.5788 25.1879 10.75 23.0575 10.75 20.5C10.75 17.6005 13.1005 15.25 16 15.25C18.8995 15.25 21.25 17.6005 21.25 20.5Z" fill="#444444"/>
  </svg>
  