<svg width="42" height="42" viewBox="0 0 42 42" fill="none" xmlns="http://www.w3.org/2000/svg">
<path d="M28 14V12.25C28 10.3887 28 9.45808 27.7553 8.70492C27.2607 7.18273 26.0673 5.98931 24.5451 5.49472C23.7919 5.25 22.8613 5.25 21 5.25V5.25C19.1387 5.25 18.2081 5.25 17.4549 5.49472C15.9327 5.98931 14.7393 7.18273 14.2447 8.70492C14 9.45808 14 10.3887 14 12.25V14" stroke="#461A57" stroke-width="2" stroke-linecap="round"/>
<path fill-rule="evenodd" clip-rule="evenodd" d="M6.12868 13.1287C5.25 14.0074 5.25 15.4216 5.25 18.25V30.5C5.25 34.2712 5.25 36.1569 6.42157 37.3284C7.59315 38.5 9.47876 38.5 13.25 38.5H28.75C32.5212 38.5 34.4069 38.5 35.5784 37.3284C36.75 36.1569 36.75 34.2712 36.75 30.5V18.25C36.75 15.4216 36.75 14.0074 35.8713 13.1287C34.9926 12.25 33.5784 12.25 30.75 12.25H11.25C8.42157 12.25 7.00736 12.25 6.12868 13.1287ZM21 27.75C22.7949 27.75 24.25 26.2949 24.25 24.5C24.25 22.7051 22.7949 21.25 21 21.25C19.2051 21.25 17.75 22.7051 17.75 24.5C17.75 26.2949 19.2051 27.75 21 27.75ZM26.25 24.5C26.25 27.0575 24.4212 29.1879 22 29.6549V33.25H20V29.6549C17.5788 29.1879 15.75 27.0575 15.75 24.5C15.75 21.6005 18.1005 19.25 21 19.25C23.8995 19.25 26.25 21.6005 26.25 24.5Z" fill="#461A57"/>
</svg>
