<svg width="238" height="39" viewBox="0 0 238 39" fill="none" xmlns="http://www.w3.org/2000/svg">
  <path d="M14.87 26.978L12.202 34.509L0.00195312 -0.00292969H5.33698L14.87 26.978ZM26.875 -0.00390625H32.292L43.046 30.48L53.829 -0.00390625H59.1639L45.632 38.2881H40.463L29.5699 7.47803L18.676 38.2949H13.342C16.6026 29.1256 19.743 20.2612 22.763 11.7019L26.875 -0.00390625Z" fill="black"/>
  <path d="M103.4 33.2339H98.3699V0H103.4V33.2339ZM98.3699 38.291V33.2339H122.003V38.291H98.3699Z" fill="black"/>
  <path d="M132.34 33.2339H127.312V0H132.34V33.2339ZM127.312 38.291V33.2339H150.945V38.291H127.312Z" fill="black"/>
  <path d="M155.199 0H193.49V5.03003H160.228V16.678H176.373V21.707H155.199V0ZM160.229 25.6489V33.2349H193.491V38.292H155.199V25.6489H160.229Z" fill="black"/>
  <path d="M220.414 0V38.292H215.356V5.03003H198.74V0H220.414ZM223.442 0H237.031V5.03003H223.442V0Z" fill="black"/>
  <path d="M87.336 33.6221H65.936V38.2932H95.199" fill="#FFA900"/>
  <path d="M70.7219 0.0778809L76.2989 0L76.2539 0.0910645L95.1959 38.2639L87.3379 33.593L73.4879 5.66699L70.7219 0.0778809Z" fill="#39FFFC"/>
  <path d="M76.2469 0.0969238L76.2919 0.00610352H70.6759L70.7149 0.0849609L51.7739 38.2561H57.3109L73.4839 5.66992L76.2469 0.0969238Z" fill="#ED1CB5"/>
  </svg>
  