<svg width="145" height="18" viewBox="0 0 145 18" fill="none" xmlns="http://www.w3.org/2000/svg">
<path d="M26.636 12.6718L25.3836 16.2087L19.6542 0H22.1598L26.636 12.6718ZM32.2742 0H34.8185L39.8695 14.3165L44.9335 0H47.4393L41.0833 17.9836H38.6557L33.5398 3.51019L28.4237 17.9836H25.9181C27.4497 13.677 28.9244 9.51399 30.3425 5.49451L32.2742 0Z" fill="black"/>
<path d="M64.4313 17.9836H50.5974V15.6087H60.607L54.1734 2.72706C53.53 4.01536 52.9646 5.15096 52.4772 6.13386C51.9897 7.11675 51.5524 7.99534 51.1652 8.76967C50.7789 9.54482 50.3201 10.4541 49.7888 11.4974C49.1097 12.8551 48.0308 15.0171 46.5522 17.9836H43.902C45.0592 15.6777 45.8944 14.0115 46.4076 12.9849C46.9207 11.9584 47.3276 11.1472 47.6282 10.5515C47.9277 9.9553 48.2473 9.31374 48.5872 8.62686C48.9271 7.93999 49.4163 6.95673 50.0547 5.67709C50.6953 4.39791 51.6419 2.50563 52.8945 0.000244141H55.4525C56.7316 2.54931 57.6931 4.46543 58.3369 5.74863C58.9807 7.03183 59.468 8.01283 59.7987 8.69159C60.1378 9.36177 60.4531 9.99473 60.7446 10.5905C61.036 11.1863 61.4407 11.9977 61.9585 13.0247C62.4754 14.0514 63.2996 15.7043 64.4313 17.9836Z" fill="black"/>
<path d="M68.2165 12.4634H65.8542V0.00012207H68.2165V12.4634ZM65.8542 17.9836V15.6087H83.838V17.9836H65.8542Z" fill="black"/>
<path d="M88.6927 12.4634H86.3313V0.00012207H88.6934L88.6927 12.4634ZM86.3306 17.9836V15.6087H104.315V17.9836H86.3306Z" fill="black"/>
<path d="M106.311 0H124.295V2.36196H108.673V7.83062H116.256V10.1927H106.311L106.311 0ZM108.673 12.046V15.6087H124.295V17.9836H106.311V12.046H108.673Z" fill="black"/>
<path d="M136.942 0V17.9836H134.566V2.36196H126.762V0H136.942ZM138.364 0H144.747V2.36196H138.364V0Z" fill="black"/>
<path d="M9.36969 10.8218L15.4224 17.9838H18.738L3.53978 0.000244141H0.224487L7.71246 8.8597L9.36969 10.8218Z" fill="#ED1CB5"/>
<path d="M18.516 0.000244141H15.2004L9.87646 6.29633L11.534 8.25817L18.516 0.000244141Z" fill="#39FFFC"/>
<path d="M0 17.9835H3.31556L8.86464 11.4203L7.20687 9.45898L0 17.9835Z" fill="#FFA900"/>
</svg>
