<svg width="238" height="55" viewBox="0 0 238 55" fill="none" xmlns="http://www.w3.org/2000/svg">
<path d="M82.9999 54.6741V53.6221H85.275C85.5696 53.6221 85.8963 53.6221 86.2549 53.6221L87.855 53.6301C88.109 53.6301 88.399 53.63 88.722 53.636C88.8814 53.6389 89.0397 53.609 89.187 53.5479C89.3343 53.4868 89.4674 53.3959 89.5779 53.281C89.6916 53.1702 89.7815 53.0375 89.8422 52.8909C89.9028 52.7442 89.9331 52.5867 89.931 52.428C89.9329 52.2695 89.9025 52.1123 89.8419 51.9658C89.7812 51.8194 89.6914 51.6869 89.5779 51.5762C89.4674 51.4613 89.3343 51.3704 89.187 51.3093C89.0397 51.2483 88.8814 51.2183 88.722 51.2212C87.8667 51.2212 87.2173 51.2212 86.774 51.2212C86.331 51.2212 85.949 51.226 85.629 51.23H84.6429C84.2823 51.23 83.734 51.23 82.998 51.23V46.697H88.16C88.5547 46.6936 88.9427 46.7997 89.2809 47.0032C89.6173 47.2046 89.897 47.4881 90.0939 47.8272C90.2951 48.1716 90.3988 48.5643 90.394 48.9632C90.4062 49.2385 90.3624 49.5134 90.2651 49.7713C90.1678 50.0291 90.019 50.2645 89.8279 50.4632C90.1454 50.6346 90.411 50.8879 90.597 51.197C90.839 51.5571 90.9659 51.9822 90.9609 52.416C90.9663 52.8124 90.8625 53.2028 90.6609 53.5442C90.4626 53.879 90.183 54.158 89.848 54.356C89.507 54.5576 89.117 54.6615 88.7209 54.656L82.9999 54.6741ZM84.046 50.1941H88.261C88.5635 50.1628 88.8436 50.0203 89.0469 49.7942C89.2563 49.5715 89.3704 49.2756 89.3649 48.97C89.3665 48.8103 89.3362 48.652 89.2758 48.5042C89.2153 48.3563 89.126 48.222 89.0129 48.1091C88.9035 47.9922 88.7708 47.8994 88.6234 47.8367C88.476 47.774 88.3172 47.7428 88.157 47.7451C87.2276 47.7485 86.4683 47.7503 85.879 47.751H84.046V50.1941Z" fill="black"/>
<path d="M94.793 50.465V54.674H93.746V50.853L90.225 46.7079H91.601L94.793 50.465ZM95.273 50.2861L94.585 49.4699L96.938 46.707H98.308L95.273 50.2861Z" fill="black"/>
<path d="M102.817 46.7079V54.674H101.765V46.7079H102.817ZM103.447 50.1821L104.8 50.176L108.424 46.707H109.939L105.776 50.6901L109.939 54.673H108.424L104.824 51.2221H103.448L103.447 50.1821Z" fill="black"/>
<path d="M117.754 53.639H113.3V54.6111H119.388" fill="#FFA900"/>
<path d="M114.296 46.6611L115.456 46.645L115.447 46.6641L119.388 54.605L117.753 53.6331L114.871 47.823L114.296 46.6611Z" fill="#39FFFC"/>
<path d="M115.445 46.665L115.455 46.647H114.287L114.295 46.6631L110.354 54.604H111.506L114.871 47.824L115.445 46.665Z" fill="#ED1CB5"/>
<path d="M123.958 54.674H119.975V49.1469H121.022V53.621H123.959C124.477 53.6249 124.986 53.4866 125.431 53.2211C125.87 52.9632 126.237 52.5986 126.498 52.161C126.765 51.7156 126.903 51.2051 126.898 50.6859C126.902 50.1669 126.764 49.6569 126.498 49.2111C126.238 48.7711 125.871 48.4041 125.431 48.1449C124.986 47.8795 124.477 47.7412 123.959 47.745H119.976V46.6979H123.959C124.663 46.6906 125.355 46.8778 125.959 47.2389C126.554 47.5916 127.051 48.0886 127.404 48.684C127.765 49.2882 127.952 49.9802 127.945 50.684C127.952 51.3877 127.765 52.0798 127.404 52.684C127.05 53.2779 126.554 53.7736 125.959 54.1259C125.355 54.4894 124.663 54.6791 123.958 54.674Z" fill="black"/>
<path d="M133.058 54.674H129.075V49.1469H130.122V53.621H133.059C133.577 53.6248 134.085 53.4865 134.53 53.2211C134.969 52.9632 135.336 52.5986 135.597 52.161C135.864 51.7158 136.002 51.2051 135.997 50.6859C136.001 50.1669 135.863 49.6568 135.597 49.2111C135.337 48.7711 134.97 48.4041 134.53 48.1449C134.085 47.8796 133.577 47.7413 133.059 47.745H129.075V46.6979H133.058C133.762 46.6905 134.454 46.8778 135.058 47.2389C135.653 47.5916 136.15 48.0886 136.503 48.684C136.864 49.288 137.051 49.9802 137.044 50.684C137.051 51.3878 136.864 52.0799 136.503 52.684C136.149 53.2779 135.653 53.7736 135.058 54.1259C134.454 54.4892 133.762 54.679 133.058 54.674Z" fill="black"/>
<path d="M138.174 46.7079H146.14V47.7551H139.22V50.1769H142.579V51.2241H138.174V46.7079ZM139.221 52.0441V53.622H146.141V54.674H138.175V52.0441H139.221Z" fill="black"/>
<path d="M148.181 54.674H146.805L150.212 50.653L146.853 46.704H148.229C149.762 48.512 151.279 50.2983 152.779 52.0629C153.45 52.8496 154.186 53.7191 154.988 54.6711H153.618L150.895 51.4631L148.181 54.674ZM151.904 50.2861L151.222 49.4699L153.569 46.707H154.945L151.904 50.2861Z" fill="black"/>
<path d="M14.87 26.978L12.202 34.509L0.00195312 -0.00292969H5.33698L14.87 26.978ZM26.875 -0.00390625H32.292L43.046 30.48L53.829 -0.00390625H59.1639L45.632 38.2881H40.463L29.5699 7.47803L18.676 38.2949H13.342C16.6026 29.1256 19.743 20.2612 22.763 11.7019L26.875 -0.00390625Z" fill="black"/>
<path d="M103.4 33.2339H98.3699V0H103.4V33.2339ZM98.3699 38.291V33.2339H122.003V38.291H98.3699Z" fill="black"/>
<path d="M132.34 33.2339H127.312V0H132.34V33.2339ZM127.312 38.291V33.2339H150.945V38.291H127.312Z" fill="black"/>
<path d="M155.199 0H193.49V5.03003H160.228V16.678H176.373V21.707H155.199V0ZM160.229 25.6489V33.2349H193.491V38.292H155.199V25.6489H160.229Z" fill="black"/>
<path d="M220.414 0V38.292H215.356V5.03003H198.74V0H220.414ZM223.442 0H237.031V5.03003H223.442V0Z" fill="black"/>
<path d="M87.336 33.6219H65.936V38.2931H95.199" fill="#FFA900"/>
<path d="M70.722 0.0778809L76.299 0L76.254 0.0910645L95.196 38.2639L87.338 33.593L73.488 5.66699L70.722 0.0778809Z" fill="#39FFFC"/>
<path d="M76.247 0.0969238L76.292 0.00610352H70.676L70.715 0.0849609L51.774 38.2561H57.311L73.484 5.66992L76.247 0.0969238Z" fill="#ED1CB5"/>
</svg>
