<svg width="20" height="20" viewBox="0 0 20 20" fill="none" xmlns="http://www.w3.org/2000/svg">
<path d="M10.0006 4.44448C11.2279 4.44448 12.2228 3.44955 12.2228 2.22224C12.2228 0.994931 11.2279 0 10.0006 0C8.77325 0 7.77832 0.994931 7.77832 2.22224C7.77832 3.44955 8.77325 4.44448 10.0006 4.44448Z" fill="#461A57"/>
<path d="M10.0006 12.2216C11.2279 12.2216 12.2228 11.2266 12.2228 9.99933C12.2228 8.77203 11.2279 7.7771 10.0006 7.7771C8.77325 7.7771 7.77832 8.77203 7.77832 9.99933C7.77832 11.2266 8.77325 12.2216 10.0006 12.2216Z" fill="#461A57"/>
<path d="M10.0006 19.9999C11.2279 19.9999 12.2228 19.005 12.2228 17.7777C12.2228 16.5504 11.2279 15.5554 10.0006 15.5554C8.77325 15.5554 7.77832 16.5504 7.77832 17.7777C7.77832 19.005 8.77325 19.9999 10.0006 19.9999Z" fill="#461A57"/>
</svg>
