<svg width="24" height="24" viewBox="0 0 24 24" fill="none" xmlns="http://www.w3.org/2000/svg">
<path fill-rule="evenodd" clip-rule="evenodd" d="M4 2H20C21.1046 2 22 2.89543 22 4V20C22 21.1046 21.1046 22 20 22H4C2.89543 22 2 21.1046 2 20V4C2 2.89543 2.89543 2 4 2ZM4 4V15.5858L8 11.5858L11.5 15.0858L18 8.58579L20 10.5858V4H4ZM4 20V18.4142L8 14.4142L13.5858 20H4ZM20 20H16.4142L12.9142 16.5L18 11.4142L20 13.4142V20ZM14 8C14 6.34315 12.6569 5 11 5C9.34315 5 8 6.34315 8 8C8 9.65685 9.34315 11 11 11C12.6569 11 14 9.65685 14 8ZM10 8C10 7.44772 10.4477 7 11 7C11.5523 7 12 7.44772 12 8C12 8.55228 11.5523 9 11 9C10.4477 9 10 8.55228 10 8Z" fill="#787B8E"/>
</svg>
