<svg width="24" height="24" viewBox="0 0 24 24" fill="none" xmlns="http://www.w3.org/2000/svg">
<g clip-path="url(#clip0_2474_10481)">
<path d="M18.75 9H18V6C18 2.691 15.309 0 12 0C8.691 0 6 2.691 6 6V9H5.25C4.01 9 3 10.009 3 11.25V21.75C3 22.991 4.01 24 5.25 24H18.75C19.99 24 21 22.991 21 21.75V11.25C21 10.009 19.99 9 18.75 9ZM8 6C8 3.794 9.794 2 12 2C14.206 2 16 3.794 16 6V9H8V6ZM13 16.722V19C13 19.552 12.553 20 12 20C11.447 20 11 19.552 11 19V16.722C10.405 16.375 10 15.737 10 15C10 13.897 10.897 13 12 13C13.103 13 14 13.897 14 15C14 15.737 13.595 16.375 13 16.722Z" fill="#461A57"/>
</g>
<defs>
<clipPath id="clip0_2474_10481">
<rect width="24" height="24" fill="white"/>
</clipPath>
</defs>
</svg>
