<svg width="20" height="20" viewBox="0 0 20 20" fill="none" xmlns="http://www.w3.org/2000/svg">
<g clip-path="url(#clip0_2468_13601)">
<path d="M19.5834 5.83333C19.3534 5.83333 19.1667 5.64667 19.1667 5.41667V2.08333C19.1667 1.39417 18.6059 0.833333 17.9167 0.833333H14.5834C14.3534 0.833333 14.1667 0.646667 14.1667 0.416667C14.1667 0.186667 14.3534 0 14.5834 0H17.9167C19.0651 0 20.0001 0.934167 20.0001 2.08333V5.41667C20.0001 5.64667 19.8134 5.83333 19.5834 5.83333Z" fill="#444444"/>
<path d="M17.9167 20.0001H14.5834C14.3534 20.0001 14.1667 19.8134 14.1667 19.5834C14.1667 19.3534 14.3534 19.1667 14.5834 19.1667H17.9167C18.6059 19.1667 19.1667 18.6059 19.1667 17.9167V14.5834C19.1667 14.3534 19.3534 14.1667 19.5834 14.1667C19.8134 14.1667 20.0001 14.3534 20.0001 14.5834V17.9167C20.0001 19.0659 19.0651 20.0001 17.9167 20.0001Z" fill="#444444"/>
<path d="M5.41667 20.0001H2.08333C0.935 20.0001 0 19.0659 0 17.9167V14.5834C0 14.3534 0.186667 14.1667 0.416667 14.1667C0.646667 14.1667 0.833333 14.3534 0.833333 14.5834V17.9167C0.833333 18.6059 1.39417 19.1667 2.08333 19.1667H5.41667C5.64667 19.1667 5.83333 19.3534 5.83333 19.5834C5.83333 19.8134 5.64667 20.0001 5.41667 20.0001Z" fill="#444444"/>
<path d="M0.416667 5.83333C0.186667 5.83333 0 5.64667 0 5.41667V2.08333C0 0.934167 0.935 0 2.08333 0H5.41667C5.64667 0 5.83333 0.186667 5.83333 0.416667C5.83333 0.646667 5.64667 0.833333 5.41667 0.833333H2.08333C1.39417 0.833333 0.833333 1.39417 0.833333 2.08333V5.41667C0.833333 5.64667 0.646667 5.83333 0.416667 5.83333Z" fill="#444444"/>
</g>
<defs>
<clipPath id="clip0_2468_13601">
<rect width="20" height="20" fill="white"/>
</clipPath>
</defs>
</svg>
