<svg width="24" height="24" viewBox="0 0 24 24" fill="none" xmlns="http://www.w3.org/2000/svg">
<path d="M11.2929 19.7071C11.2931 19.7073 11.2932 19.7074 11.2934 19.7076C11.3165 19.7307 11.3409 19.7526 11.3661 19.7733C11.3777 19.7828 11.3899 19.7911 11.4019 19.8C11.4161 19.8107 11.43 19.8217 11.4447 19.8316C11.459 19.8411 11.4738 19.8494 11.4884 19.8581C11.5018 19.8661 11.5149 19.8745 11.5287 19.8818C11.5436 19.8898 11.5589 19.8966 11.5741 19.9037C11.5885 19.9105 11.6026 19.9177 11.6173 19.9238C11.6321 19.9299 11.6472 19.9349 11.6622 19.9402C11.678 19.9459 11.6936 19.9519 11.7097 19.9568C11.7247 19.9613 11.7399 19.9647 11.7551 19.9685C11.7716 19.9726 11.7878 19.9772 11.8046 19.9806C11.8222 19.984 11.8399 19.9861 11.8576 19.9886C11.8722 19.9907 11.8865 19.9935 11.9013 19.995C11.9669 20.0014 12.0331 20.0014 12.0987 19.995C12.1135 19.9935 12.1279 19.9907 12.1424 19.9886C12.1601 19.9861 12.1778 19.984 12.1954 19.9806C12.2122 19.9772 12.2284 19.9726 12.2449 19.9685C12.26 19.9647 12.2753 19.9613 12.2903 19.9568C12.3064 19.9519 12.3221 19.9459 12.3378 19.9402C12.3528 19.9348 12.3679 19.9299 12.3827 19.9238C12.3974 19.9177 12.4115 19.9105 12.4259 19.9037C12.4411 19.8966 12.4564 19.8898 12.4714 19.8818C12.4851 19.8745 12.4982 19.866 12.5116 19.8581C12.5262 19.8494 12.541 19.8411 12.5553 19.8316C12.57 19.8217 12.5839 19.8107 12.5982 19.8C12.6101 19.7911 12.6223 19.7828 12.6339 19.7733C12.6591 19.7526 12.6835 19.7307 12.7066 19.7076C12.7068 19.7074 12.7069 19.7073 12.7071 19.7071L19.7071 12.7071C20.0976 12.3166 20.0976 11.6834 19.7071 11.2929C19.3166 10.9024 18.6834 10.9024 18.2929 11.2929L13 16.5858V0.999984C13 0.447703 12.5523 0 12 0C11.4477 0 11 0.447703 11 0.999984V16.5858L5.70711 11.2929C5.31659 10.9024 4.6834 10.9024 4.29289 11.2929C3.90237 11.6834 3.90237 12.3166 4.29289 12.7071L11.2929 19.7071Z" fill="white"/>
<path d="M19 22H4.99998C4.4477 22 4 22.4477 4 23C4 23.5523 4.4477 24 4.99998 24H19C19.5523 24 20 23.5523 20 23C20 22.4477 19.5522 22 19 22Z" fill="white"/>
</svg>
