<svg width="16" height="16" viewBox="0 0 16 16" fill="none" xmlns="http://www.w3.org/2000/svg">
<path d="M14.6667 2.66666H13.3334H11.3334V0.666656C11.3334 0.298656 11.0354 0 10.6667 0H5.3334C4.96475 0 4.66675 0.298656 4.66675 0.666656V2.66666H2.66675H1.3334C0.964748 2.66666 0.666748 2.96531 0.666748 3.33331C0.666748 3.70131 0.964717 4 1.3334 4H2.00006V14C2.00006 15.1027 2.8974 16 4.00006 16H12.0001C13.1027 16 14.0001 15.1027 14.0001 14V4H14.6667C15.0354 4 15.3334 3.70134 15.3334 3.33334C15.3334 2.96534 15.0354 2.66666 14.6667 2.66666ZM6.00006 1.33334H10.0001V2.66669H6.00006V1.33334ZM12.6667 14C12.6667 14.3673 12.3681 14.6667 12.0001 14.6667H4.00006C3.63206 14.6667 3.3334 14.3673 3.3334 14V4H5.3334H10.6667H12.6667V14H12.6667Z" fill="white"/>
<path d="M5.99991 5.33334C5.63125 5.33334 5.33325 5.632 5.33325 6V12C5.33325 12.368 5.63125 12.6667 5.99991 12.6667C6.36856 12.6667 6.66656 12.368 6.66656 12V6C6.66656 5.632 6.36856 5.33334 5.99991 5.33334Z" fill="white"/>
<path d="M9.9999 5.33334C9.63125 5.33334 9.33325 5.632 9.33325 6V12C9.33325 12.368 9.63125 12.6667 9.9999 12.6667C10.3686 12.6667 10.6666 12.368 10.6666 12V6C10.6666 5.632 10.3686 5.33334 9.9999 5.33334Z" fill="white"/>
</svg>
