<svg width="26" height="26" viewBox="0 0 26 26" fill="none" xmlns="http://www.w3.org/2000/svg">
<path d="M15.275 25.5H10.725C10.1377 25.5 9.62946 25.0913 9.50377 24.5175L8.99502 22.1625C8.31633 21.8651 7.6728 21.4933 7.07627 21.0538L4.78002 21.785C4.22002 21.9636 3.61125 21.7279 3.31752 21.2188L1.03752 17.28C0.747005 16.7706 0.847093 16.1281 1.27877 15.7313L3.06002 14.1063C2.97902 13.3701 2.97902 12.6274 3.06002 11.8912L1.27877 10.27C0.846457 9.87296 0.746329 9.22965 1.03752 8.72L3.31252 4.77875C3.60625 4.26962 4.21502 4.03392 4.77502 4.2125L7.07127 4.94375C7.37635 4.7177 7.69394 4.50903 8.02252 4.31875C8.33794 4.14087 8.66257 3.97981 8.99502 3.83625L9.50502 1.48375C9.63011 0.909961 10.1378 0.500618 10.725 0.5H15.275C15.8623 0.500618 16.3699 0.909961 16.495 1.48375L17.01 3.8375C17.361 3.9919 17.7028 4.16635 18.0338 4.36C18.3429 4.53847 18.6417 4.7342 18.9288 4.94625L21.2263 4.215C21.7859 4.03709 22.3939 4.2727 22.6875 4.78125L24.9625 8.7225C25.253 9.23186 25.1529 9.87439 24.7213 10.2712L22.94 11.8962C23.021 12.6324 23.021 13.3751 22.94 14.1112L24.7213 15.7362C25.1529 16.1331 25.253 16.7756 24.9625 17.285L22.6875 21.2262C22.3939 21.7348 21.7859 21.9704 21.2263 21.7925L18.9288 21.0612C18.6381 21.2754 18.3359 21.4736 18.0238 21.655C17.6961 21.8449 17.358 22.0164 17.0113 22.1688L16.495 24.5175C16.3694 25.0908 15.8619 25.4995 15.275 25.5ZM12.995 8C10.2336 8 7.99502 10.2386 7.99502 13C7.99502 15.7614 10.2336 18 12.995 18C15.7564 18 17.995 15.7614 17.995 13C17.995 10.2386 15.7564 8 12.995 8Z" fill="white"/>
</svg>
