<svg width="41" height="41" viewBox="0 0 41 41" fill="none" xmlns="http://www.w3.org/2000/svg">
<circle cx="20.5" cy="20.5" r="20.5" fill="#20264E"/>
<path fill-rule="evenodd" clip-rule="evenodd" d="M12 23C12 25.6604 15 28.3271 21 31C27 28.3333 30 25.6667 30 23C30 22.6186 30.0017 21.8033 30.0038 20.7947C30.01 17.8371 30.0197 13.2172 30 13C30 12.2324 29.7054 12.054 28.8901 11.5603C28.6432 11.4108 28.3486 11.2324 28 11C26.5 10 23.9952 9 21 9C17.5632 9 14.1618 10.8921 14 11C13.6514 11.2324 13.3568 11.4108 13.1099 11.5603L13.1099 11.5603C12.2946 12.054 12 12.2324 12 13V23ZM28.0018 21.7547C28.0006 22.3838 28 22.7697 28 23C28 24.5142 25.7722 26.5737 21.0009 28.802C16.2291 26.5687 14 24.5085 14 23V13.3633L14.1278 13.284L14.1278 13.284L14.1278 13.284C14.4512 13.0834 14.8726 12.8219 15.1094 12.6641C16.0286 12.0513 18.8381 11 21 11C23.2602 11 25.4143 11.6799 26.8906 12.6641C27.1274 12.8219 27.5488 13.0834 27.8722 13.284L28.0096 13.3693C28.0117 13.9618 28.0127 15.8776 28.009 18.1098C28.0082 18.6272 28.0072 19.1695 28.0059 19.8014L28.0018 21.7547ZM24 17C25.1046 17 26 17.8954 26 19V23C26 24.1046 25.1046 25 24 25H18C16.8954 25 16 24.1046 16 23V19C16 17.8954 16.8954 17 18 17V15C18 13.3431 19.3431 12 21 12C22.6569 12 24 13.3431 24 15V17ZM22 15V17H20V15C20 14.4477 20.4477 14 21 14C21.5523 14 22 14.4477 22 15ZM18 23V19H24V23H18ZM20 21C20 21.5523 20.4477 22 21 22C21.5523 22 22 21.5523 22 21C22 20.4477 21.5523 20 21 20C20.4477 20 20 20.4477 20 21Z" fill="white"/>
</svg>
