<svg width="41" height="41" viewBox="0 0 41 41" fill="none" xmlns="http://www.w3.org/2000/svg">
<circle cx="20.5" cy="20.5" r="20.5" fill="#20264E"/>
<path fill-rule="evenodd" clip-rule="evenodd" d="M13.4076 12.04L14.886 13.3951C13.111 15.039 12 17.3896 12 19.9996C12 22.6097 13.111 24.9603 14.886 26.6042L13.4076 27.9593C11.3081 25.9561 10 23.1306 10 19.9996C10 16.8687 11.3081 14.0432 13.4076 12.04ZM18 20C18 21.6568 19.3431 23 21 23C22.6569 23 24 21.6568 24 20C24 18.3431 22.6569 17 21 17C19.3431 17 18 18.3431 18 20ZM22 20C22 20.5523 21.5523 21 21 21C20.4477 21 20 20.5523 20 20C20 19.4477 20.4477 19 21 19C21.5523 19 22 19.4477 22 20ZM17.8525 16.1144L16.3667 14.7524C14.9152 16.035 14 17.9104 14 19.9996C14 22.0889 14.9152 23.9643 16.3667 25.2469L17.8525 23.8849C16.7223 22.9682 16 21.5683 16 19.9996C16 18.431 16.7223 17.0311 17.8525 16.1144ZM28.5924 12.0403C30.6919 14.0435 32 16.869 32 20C32 23.131 30.6919 25.9564 28.5924 27.9596L27.114 26.6045C28.889 24.9606 30 22.61 30 20C30 17.3899 28.889 15.0394 27.114 13.3955L28.5924 12.0403ZM28 20C28 17.9108 27.0848 16.0353 25.6333 14.7528L24.1475 16.1148C25.2777 17.0315 26 18.4314 26 20C26 21.5686 25.2777 22.9685 24.1475 23.8852L25.6333 25.2472C27.0848 23.9646 28 22.0892 28 20Z" fill="white"/>
</svg>
