<svg width="41" height="41" viewBox="0 0 41 41" fill="none" xmlns="http://www.w3.org/2000/svg">
<circle cx="20.5" cy="20.5" r="20.5" fill="#20264E"/>
<path fill-rule="evenodd" clip-rule="evenodd" d="M32 24.58C31.75 22.47 29.6 21.4 26.21 21.09C27.2113 21.8954 27.8545 23.0633 28 24.34V24.46C28 24.78 28 25.15 28 25.53V26.33L27.45 26.91C27.1715 27.2083 26.8778 27.492 26.57 27.76H26.51C26.39 27.87 26.27 27.98 26.14 28.08C26.01 28.18 25.82 28.33 25.61 28.47L25.53 28.53C25.4099 28.6289 25.2829 28.7192 25.15 28.8L25 29H25.11L25.48 28.95C25.72 28.95 25.95 28.89 26.19 28.84L26.6 28.74L27.22 28.58C27.37 28.58 27.51 28.48 27.65 28.43L28.22 28.22L28.64 28.03C28.82 27.95 28.99 27.87 29.17 27.77L29.58 27.54L30.06 27.24L30.45 26.96C30.6 26.85 30.75 26.75 30.9 26.63L31.26 26.31C31.5221 26.0864 31.7724 25.8495 32.01 25.6C32 25.2 32 24.87 32 24.58Z" fill="white"/>
<path fill-rule="evenodd" clip-rule="evenodd" d="M23.9999 16.2C24.0067 17.3848 23.7613 18.5574 23.2799 19.64C24.1011 19.8583 24.886 20.1952 25.6099 20.64C26.9999 20.09 27.9999 18.63 27.9999 16.2C28.027 15.6581 27.9437 15.1164 27.7548 14.6078C27.566 14.0992 27.2756 13.6343 26.9015 13.2414C26.5273 12.8485 26.0771 12.5358 25.5783 12.3224C25.0795 12.109 24.5425 11.9993 23.9999 12C23.5479 12.0039 23.0992 12.0782 22.6699 12.22C23.5508 13.358 24.0196 14.7611 23.9999 16.2Z" fill="white"/>
<path fill-rule="evenodd" clip-rule="evenodd" d="M22.0001 16.2C22.0272 15.6581 21.9439 15.1164 21.755 14.6078C21.5662 14.0991 21.2758 13.6342 20.9017 13.2414C20.5275 12.8485 20.0773 12.5358 19.5785 12.3224C19.0797 12.109 18.5427 11.9993 18.0001 12C17.4692 11.9789 16.9396 12.0679 16.4447 12.2614C15.9499 12.455 15.5004 12.7489 15.1247 13.1246C14.749 13.5003 14.4551 13.9498 14.2615 14.4446C14.068 14.9395 13.979 15.469 14.0001 16C14.0001 19.43 15.7601 21 18.0001 21C20.2401 21 22.0001 19.48 22.0001 16.2ZM18.0001 19C16.8201 19 16.0001 18.27 16.0001 16C15.9791 15.732 16.0163 15.4626 16.1094 15.2104C16.2025 14.9582 16.3491 14.7291 16.5392 14.5391C16.7293 14.349 16.9583 14.2023 17.2105 14.1093C17.4627 14.0162 17.7321 13.9789 18.0001 14C18.2805 13.9986 18.558 14.0561 18.8147 14.1689C19.0713 14.2817 19.3014 14.4472 19.49 14.6546C19.6786 14.8621 19.8215 15.1068 19.9094 15.3731C19.9972 15.6393 20.0282 15.921 20.0001 16.2C20.0001 18.3 19.1801 19 18.0001 19Z" fill="white"/>
<path fill-rule="evenodd" clip-rule="evenodd" d="M26 25.54C26 25.2 26 24.87 26 24.54C25.68 22 22.64 21 18 21C13.36 21 10.32 22 10 24.58C10 24.81 10 25.22 10 25.58C10.24 25.8333 10.49 26.0733 10.75 26.3L11.11 26.61L11.56 26.95L11.95 27.22C12.11 27.33 12.27 27.42 12.44 27.52L12.84 27.75C13.02 27.85 13.19 27.93 13.37 28.01L13.79 28.2L14.36 28.41C14.5 28.46 14.64 28.52 14.79 28.56L15.41 28.72L15.82 28.82C16.06 28.82 16.3 28.9 16.54 28.93L16.9 28.98C17.266 29.0068 17.6332 29.0135 18 29C18.3675 29.0002 18.7347 28.9802 19.1 28.94L19.47 28.89C19.71 28.89 19.94 28.83 20.18 28.78L20.59 28.68L21.21 28.52C21.36 28.52 21.5 28.42 21.64 28.37L22.21 28.16L22.63 27.97C22.81 27.89 22.98 27.81 23.16 27.71L23.57 27.48L24.05 27.18L24.44 26.9C24.59 26.79 24.74 26.69 24.89 26.57L25.25 26.25C25.5121 26.0264 25.7624 25.7894 26 25.54ZM18 27C15.789 27.0163 13.6508 26.2109 12 24.74C12.33 23.69 14.43 23 18 23C21.57 23 23.67 23.69 24 24.74C22.3492 26.2109 20.211 27.0163 18 27Z" fill="white"/>
</svg>
