<svg id="_4d23252-colorwhite_by_nuveiyes" data-name="4d23252-colorwhite_by_nuveiyes" xmlns="http://www.w3.org/2000/svg" width="600" height="217" viewBox="0 0 600 217">
  <path id="Path_143782" data-name="Path 143782" d="M0,119.716,12.048,99.179C18.775,105.19,33.233,111.3,43.876,111.3c8.634,0,12.148-2.4,12.148-6.311,0-11.22-52.71.4-52.71-36.266C3.314,52.8,17.169,38.97,42.169,38.97A63.371,63.371,0,0,1,80.02,50.992L68.976,71.43c-5.422-5.21-15.763-9.918-26.606-9.918-6.727,0-11.245,2.605-11.245,6.211,0,9.918,52.51-.4,52.51,36.667,0,17.231-15.161,29.553-41.065,29.553-16.365-.2-33.032-5.61-42.57-14.226Z" fill="#081f2c"/>
  <path id="Path_143783" data-name="Path 143783" d="M86.044,16.43A16.394,16.394,0,0,1,102.51,0a16.566,16.566,0,0,1,16.667,16.43A16.737,16.737,0,0,1,102.51,33.06,16.439,16.439,0,0,1,86.044,16.43Z" fill="#e40346"/>
  <path id="Path_143784" data-name="Path 143784" d="M117.068,41.174H88.153v90.364h28.915Zm124.8,90.364v-55c0-6.912-3.413-12.122-12.048-12.122-7.831,0-13.454,5.01-16.265,8.816v58.406H184.639v-55.1c0-6.912-3.213-12.122-11.848-12.122-7.831,0-13.353,5.01-16.265,8.816v58.406H127.61V41.275h28.916v7.914L153.514,55.9q1.453-1.847,3.012-3.607c3.916-5.209,15.562-13.323,29.819-13.323,13.153,0,21.888,5.41,25.7,16.129,5.221-7.815,17.068-16.13,31.325-16.13,16.667,0,27.209,8.616,27.209,27.15v65.518H241.867Zm68.374-10.72a15.379,15.379,0,0,1-1.707-3.105l1.707,10.018V166H281.325V41.174h28.916v10.52A33.743,33.743,0,0,1,337.048,38.97c22.691,0,39.759,16.83,39.759,47.286,0,30.655-17.068,47.486-39.759,47.486-10.14,0-19.277-3.907-26.807-12.924ZM347.39,86.256c0-13.424-8.635-21.84-19.88-21.84-6.225,0-13.655,3.407-17.269,8.215v27.45c3.514,4.708,11.044,8.215,17.269,8.215,11.245,0,19.88-8.415,19.88-22.04Zm34.136,45.282V6.712h28.916V131.438H381.526v.1Zm33.735-45.282c0-26.147,19.679-47.285,47.992-47.285,26.807,0,46.285,19.635,46.285,50.29v6.512H447.289l-2.41-3.206a8.92,8.92,0,0,0,.2,3.206c2.109,8.015,9.538,14.827,22.691,14.827,6.325,0,16.868-2.805,22.088-7.714L502.41,121.82c-9.037,8.015-24,12.022-37.852,12.022-28.012-.1-49.3-18.233-49.3-47.586Zm47.992-24.144c-12.55,0-17.47,7.514-18.574,14.026h37.349C481.225,69.826,476.506,62.112,463.253,62.112Z" fill="#081f2c"/>
  <path id="Path_143785" data-name="Path 143785" d="M568.374,131.538l-17.27-27.35-17.771,27.35H501.807l30.924-46.384-29.016-43.98h31.626L550.9,65.719l1.1,1.7V63.915l14.257-22.74h31.727L569.076,85.154,600,131.538ZM485.952,187.8c0-3.587-1.9-4.882-4.8-4.882a7.072,7.072,0,0,0-5.7,2.889v18.933h-9.4v-29.4h9.4v2.59l-1.2,2.193c1.8-2.093,6.4-5.481,11.3-5.481,6.7,0,9.8,3.886,9.8,9.267v20.826h-9.4V187.8Zm32.086,12.655a15.942,15.942,0,0,1-11.1,5.082c-6.7,0-9.7-3.786-9.7-9.167V175.448h9.4v17.04c0,3.487,1.8,4.783,4.9,4.783a7.023,7.023,0,0,0,5.6-2.89V175.448h9.4v29.4h-9.4v-2.291l.9-2.093Zm54.874-25.808c8.7,0,15.093,6.377,15.093,16.342v1.993h-20.29l-.8-1.1a5.816,5.816,0,0,0,.2,1.295c.7,2.591,3.2,4.982,7.5,4.982a11.417,11.417,0,0,0,7.2-2.491l4,5.879c-2.9,2.591-7.8,3.886-12.294,3.886-9.1,0-16.093-5.879-16.093-15.445C557.32,181.527,563.717,174.651,572.912,174.651Zm-6,12.356H579.01c-.2-2.092-1.8-5.082-6.1-5.082a5.764,5.764,0,0,0-6,5.082Zm22.99-11.559h9.4v29.4h-9.4Zm-40.182,0-6.3,17.438.2,2.69-7.2-20.128h-8v4.684l9.7,24.612h10l11.594-29.3Z" fill="#081f2c"/>
  <path id="Path_143786" data-name="Path 143786" d="M589.205,166.381a5.41,5.41,0,1,1,5.4,5.381A5.431,5.431,0,0,1,589.205,166.381Z" fill="#e40346"/>
  <path id="Path_143787" data-name="Path 143787" d="M382,205.043V164.288h6.4v15.345a11.62,11.62,0,0,1,9.5-4.783c7.7,0,13.194,5.979,13.194,15.445,0,9.765-5.6,15.545-13.194,15.545a11.9,11.9,0,0,1-9.5-4.783v3.986H382Zm14.094-4.983c5.1,0,8.3-4.085,8.3-9.864,0-5.68-3.3-9.765-8.3-9.765a9.828,9.828,0,0,0-7.7,3.985v11.758A9.744,9.744,0,0,0,396.094,200.06Zm21.59,10.762a6.972,6.972,0,0,0,2.5.5c2.1,0,3.4-.6,4.3-2.59l1.5-3.388-12.2-29.894h6.9l8.6,22.121,8.7-22.121h6.9l-14.293,34.876c-2,4.982-5.5,6.576-10.1,6.676a20.866,20.866,0,0,1-3.6-.4l.8-5.779Z" fill="#081f2c"/>
</svg>
