<svg width="961" height="224" viewBox="0 0 961 224" fill="none" xmlns="http://www.w3.org/2000/svg">
<path d="M137.14 87.4425C152.399 78.6325 157.628 59.1206 148.818 43.8614C140.008 28.6022 120.496 23.374 105.237 32.1839L15.9571 83.7294C0.697869 92.5393 -4.53033 112.051 4.27959 127.31C13.0895 142.57 32.6014 147.798 47.8607 138.988L137.14 87.4425Z" fill="#49CC68"/>
<path d="M178.943 159.853C194.202 151.043 199.43 131.531 190.62 116.272C181.811 101.012 162.299 95.7841 147.039 104.594L108.782 126.682C93.5228 135.492 88.2946 155.004 97.1045 170.263C105.914 185.522 125.426 190.75 140.686 181.941L178.943 159.853Z" fill="#49CC68"/>
<path d="M301.423 164.735H282.222V66.6156H245.938V49.3804H338.01V66.6156H301.423V164.735Z" fill="black"/>
<path d="M365.266 166.399C357.001 166.399 349.644 164.534 343.193 160.805C336.742 157.075 331.703 151.885 328.074 145.232C324.547 138.479 322.783 130.769 322.783 122.101C322.783 113.735 324.547 106.277 328.074 99.7254C331.703 93.0732 336.742 87.9329 343.193 84.3044C349.644 80.5751 357.001 78.7105 365.266 78.7105C373.531 78.7105 380.889 80.5751 387.339 84.3044C393.79 87.9329 398.83 93.0732 402.458 99.7254C406.086 106.277 407.901 113.735 407.901 122.101C407.901 130.668 406.086 138.328 402.458 145.081C398.93 151.733 393.941 156.975 387.491 160.805C381.04 164.534 373.632 166.399 365.266 166.399ZM365.266 150.826C369.903 150.826 374.085 149.617 377.815 147.198C381.544 144.678 384.416 141.251 386.432 136.917C388.549 132.583 389.607 127.644 389.607 122.101C389.607 116.86 388.549 112.123 386.432 107.889C384.416 103.555 381.544 100.179 377.815 97.76C374.085 95.341 369.903 94.1315 365.266 94.1315C360.63 94.1315 356.447 95.341 352.718 97.76C348.988 100.078 346.066 103.404 343.949 107.738C341.933 111.971 340.925 116.759 340.925 122.101C340.925 127.745 341.984 132.734 344.1 137.068C346.217 141.402 349.089 144.779 352.718 147.198C356.447 149.617 360.63 150.826 365.266 150.826Z" fill="black"/>
<path d="M465.724 78.5593C473.081 78.5593 479.532 80.4239 485.075 84.1532C490.72 87.7817 495.104 92.922 498.229 99.5742C501.353 106.226 502.915 113.836 502.915 122.403C502.915 130.971 501.353 138.58 498.229 145.232C495.104 151.885 490.72 157.075 485.075 160.805C479.532 164.433 473.081 166.247 465.724 166.247C460.382 166.247 455.745 165.29 451.814 163.375C447.884 161.46 444.104 158.083 440.475 153.245V195.577H422.635V80.2224H440.475V91.7125C444.104 86.8746 447.833 83.4981 451.663 81.583C455.594 79.5672 460.281 78.5593 465.724 78.5593ZM462.095 93.9803C457.559 93.9803 453.528 95.1898 450 97.6088C446.472 100.028 443.701 103.404 441.685 107.738C439.669 112.072 438.661 116.961 438.661 122.403C438.661 127.846 439.669 132.734 441.685 137.068C443.701 141.402 446.472 144.779 450 147.198C453.528 149.617 457.559 150.826 462.095 150.826C469.05 150.826 474.593 148.155 478.726 142.813C482.858 137.472 484.924 130.668 484.924 122.403C484.924 114.138 482.858 107.335 478.726 101.993C474.593 96.6513 469.05 93.9803 462.095 93.9803Z" fill="black"/>
<path d="M560.918 78.5593C568.275 78.5593 574.726 80.4239 580.27 84.1532C585.914 87.7817 590.298 92.922 593.423 99.5742C596.547 106.226 598.109 113.836 598.109 122.403C598.109 130.971 596.547 138.58 593.423 145.232C590.298 151.885 585.914 157.075 580.27 160.805C574.726 164.433 568.275 166.247 560.918 166.247C555.576 166.247 550.939 165.29 547.009 163.375C543.078 161.46 539.298 158.083 535.67 153.245V195.577H517.83V80.2224H535.67V91.7125C539.298 86.8746 543.027 83.4981 546.857 81.583C550.788 79.5672 555.475 78.5593 560.918 78.5593ZM557.289 93.9803C552.754 93.9803 548.722 95.1898 545.194 97.6088C541.667 100.028 538.895 103.404 536.879 107.738C534.863 112.072 533.855 116.961 533.855 122.403C533.855 127.846 534.863 132.734 536.879 137.068C538.895 141.402 541.667 144.779 545.194 147.198C548.722 149.617 552.754 150.826 557.289 150.826C564.244 150.826 569.787 148.155 573.92 142.813C578.052 137.472 580.118 130.668 580.118 122.403C580.118 114.138 578.052 107.335 573.92 101.993C569.787 96.6513 564.244 93.9803 557.289 93.9803Z" fill="black"/>
<path d="M651.727 166.399C643.463 166.399 636.105 164.534 629.654 160.805C623.304 156.975 618.366 151.784 614.838 145.232C611.31 138.58 609.547 131.122 609.547 122.857C609.547 115.197 611.109 107.99 614.233 101.237C617.459 94.4843 622.196 89.0416 628.445 84.9091C634.795 80.7767 642.404 78.7105 651.274 78.7105C658.732 78.7105 665.637 80.3232 671.986 83.5485C678.437 86.673 683.577 91.4605 687.407 97.9111C691.338 104.362 693.304 112.274 693.304 121.647V126.183H627.689C628.294 130.114 629.251 133.238 630.561 135.557C632.577 140.294 635.45 144.023 639.179 146.744C643.009 149.466 647.343 150.826 652.181 150.826C657.321 150.826 661.706 149.516 665.334 146.895C669.063 144.174 671.734 140.798 673.347 136.766H691.792C689.07 145.535 684.333 152.691 677.58 158.234C670.827 163.677 662.21 166.399 651.727 166.399ZM674.708 112.123C674.305 108.998 673.397 106.327 671.986 104.11C669.971 100.582 667.199 97.9112 663.671 96.0969C660.143 94.1819 656.213 93.2244 651.879 93.2244C647.444 93.2244 643.513 94.1819 640.086 96.0969C636.659 97.9112 633.888 100.582 631.771 104.11C630.461 106.126 629.453 108.797 628.747 112.123H674.708Z" fill="black"/>
<path d="M707.775 164.735V80.2224H725.615V90.8054C728.941 86.3706 732.57 83.2461 736.5 81.4319C740.532 79.6176 745.269 78.7105 750.712 78.7105H752.677V96.0969H748.142C741.389 96.0969 736.198 97.9111 732.57 101.54C727.933 105.874 725.615 113.332 725.615 123.915V164.735H707.775Z" fill="black"/>
<path d="M804.403 106.549V71.0728H807.163V85.0032C809.232 82.0712 812.483 80.2138 816.105 80.2138C822.964 80.2138 827.594 85.587 827.594 93.7198C827.594 101.853 822.911 107.173 816.105 107.173C812.27 107.173 808.98 105.103 807.163 102.436V106.536H804.403V106.549ZM807.163 100.115C808.649 102.556 812.058 104.692 815.627 104.692C821.372 104.692 824.622 99.9553 824.622 93.733C824.622 87.5107 821.372 82.7213 815.627 82.7213C812.058 82.7213 808.662 84.9502 807.163 87.4046V100.115Z" fill="black"/>
<path d="M832.651 114.046C833.235 114.311 834.243 114.471 834.88 114.471C836.578 114.471 837.759 113.781 838.767 111.326L840.784 106.749L829.931 80.8384H833.022L842.389 103.286L851.649 80.8384H854.794L841.5 112.175C840.12 115.426 837.931 116.965 834.906 116.965C834.057 116.965 832.89 116.806 832.2 116.593L832.677 114.046H832.651Z" fill="black"/>
<path d="M821.055 165.765V162.356C819.197 164.425 816 166.402 811.953 166.402C806.421 166.402 803.714 163.523 803.714 158.269V140.08H809.3V156.253C809.3 160.246 811.316 161.467 814.461 161.467C817.287 161.467 819.728 159.875 821.055 158.11V140.08H826.64V165.779H821.055V165.765Z" fill="black"/>
<path d="M838.937 175.537H833.352V140.061H838.937V143.577C840.848 141.03 843.833 139.424 847.176 139.424C853.823 139.424 858.559 144.426 858.559 152.877C858.559 161.328 853.823 166.383 847.176 166.383C843.926 166.383 841.007 164.95 838.937 162.177V175.524V175.537ZM845.531 144.36C842.931 144.36 840.158 145.899 838.937 147.822V157.985C840.158 159.842 842.931 161.448 845.531 161.448C849.949 161.448 852.762 157.879 852.762 152.877C852.762 147.875 849.936 144.36 845.531 144.36Z" fill="black"/>
<path d="M881.366 165.758V149.585C881.366 145.592 879.297 144.371 876.152 144.371C873.326 144.371 870.885 146.07 869.558 147.834V165.758H863.973V130.282H869.558V143.575C871.257 141.559 874.613 139.423 878.66 139.423C884.192 139.423 886.952 142.302 886.952 147.556V165.745H881.366V165.758Z" fill="black"/>
<path d="M892.099 152.877C892.099 145.54 897.154 139.424 905.287 139.424C913.419 139.424 918.527 145.54 918.527 152.877C918.527 160.214 913.525 166.383 905.287 166.383C897.048 166.383 892.099 160.267 892.099 152.877ZM912.743 152.877C912.743 148.353 910.089 144.36 905.3 144.36C900.51 144.36 897.91 148.353 897.91 152.877C897.91 157.401 900.563 161.448 905.3 161.448C910.036 161.448 912.743 157.454 912.743 152.877Z" fill="black"/>
<path d="M923.82 165.758V130.282H929.406V165.758H923.82Z" fill="black"/>
<path d="M954.414 165.762V162.246C952.451 164.793 949.466 166.399 946.176 166.399C939.582 166.399 934.739 161.397 934.739 152.946C934.739 144.495 939.529 139.44 946.176 139.44C949.373 139.44 952.345 140.926 954.414 143.646V130.299H960V165.775H954.414V165.762ZM954.414 147.838C953.141 145.928 950.421 144.375 947.768 144.375C943.35 144.375 940.537 147.944 940.537 152.946C940.537 157.948 943.363 161.463 947.768 161.463C950.421 161.463 953.141 159.977 954.414 158.054V147.838Z" fill="black"/>
</svg>
