<svg width="24" height="24" viewBox="0 0 24 24" fill="none" xmlns="http://www.w3.org/2000/svg">
<rect y="24" width="24" height="24" rx="12" transform="rotate(-90 0 24)" fill="#F7479F"/>
<g clip-path="url(#clip0_992:13596)">
<path d="M14.0857 16.0914C13.9165 16.2606 13.6502 16.2606 13.481 16.0914C13.3175 15.9279 13.3175 15.6559 13.481 15.4928L16.5471 12.4267L6.42937 12.4267C6.19352 12.4267 5.99996 12.2392 5.99996 12.0034C5.99996 11.7675 6.19352 11.5739 6.42937 11.5739L16.5471 11.5739L13.481 8.51356C13.3175 8.34438 13.3175 8.07195 13.481 7.90887C13.6502 7.73969 13.9165 7.73969 14.0857 7.90887L17.8776 11.7008C18.0411 11.8643 18.0411 12.1363 17.8776 12.2994L14.0857 16.0914Z" fill="white"/>
</g>
<defs>
<clipPath id="clip0_992:13596">
<rect width="12" height="12" fill="white" transform="translate(18 18) rotate(-180)"/>
</clipPath>
</defs>
</svg>
