<svg width="16" height="16" viewBox="0 0 16 16" fill="none" xmlns="http://www.w3.org/2000/svg">
<path d="M14.6665 2.66666H13.3331H11.3331V0.666656C11.3332 0.298656 11.0352 0 10.6665 0H5.33316C4.9645 0 4.6665 0.298656 4.6665 0.666656V2.66666H2.6665H1.33316C0.964504 2.66666 0.666504 2.96531 0.666504 3.33331C0.666504 3.70131 0.964473 4 1.33316 4H1.99982V14C1.99982 15.1027 2.89716 16 3.99982 16H11.9998C13.1025 16 13.9998 15.1027 13.9998 14V4H14.6665C15.0351 4 15.3331 3.70134 15.3331 3.33334C15.3331 2.96534 15.0352 2.66666 14.6665 2.66666ZM5.99982 1.33334H9.99982V2.66669H5.99982V1.33334ZM12.6665 14C12.6665 14.3673 12.3678 14.6667 11.9998 14.6667H3.99982C3.63182 14.6667 3.33316 14.3673 3.33316 14V4H5.33316H10.6665H12.6665V14H12.6665Z" fill="#461A57"/>
<path d="M6.00015 5.33334C5.6315 5.33334 5.3335 5.632 5.3335 6V12C5.3335 12.368 5.6315 12.6667 6.00015 12.6667C6.36881 12.6667 6.66681 12.368 6.66681 12V6C6.66681 5.632 6.36881 5.33334 6.00015 5.33334Z" fill="#461A57"/>
<path d="M10.0001 5.33334C9.63149 5.33334 9.3335 5.632 9.3335 6V12C9.3335 12.368 9.63149 12.6667 10.0001 12.6667C10.3688 12.6667 10.6668 12.368 10.6668 12V6C10.6668 5.632 10.3688 5.33334 10.0001 5.33334Z" fill="#461A57"/>
</svg>
