<svg width="20" height="20" viewBox="0 0 20 20" fill="none" xmlns="http://www.w3.org/2000/svg">
<rect width="20" height="20" rx="10" fill="#C4C4C4"/>
<path d="M14.2659 5.54708C14.2659 5.54692 14.2659 5.54678 14.2659 5.54662C14.2659 5.52703 14.2648 5.50743 14.2629 5.4879C14.262 5.47896 14.2604 5.47027 14.2591 5.46142C14.2576 5.45088 14.2564 5.4403 14.2543 5.42984C14.2523 5.41976 14.2495 5.41 14.247 5.4001C14.2447 5.39101 14.2427 5.3819 14.24 5.37294C14.2371 5.36323 14.2334 5.35387 14.23 5.34436C14.2268 5.3354 14.2238 5.32635 14.2202 5.31752C14.2165 5.30867 14.2122 5.30016 14.2081 5.29153C14.2038 5.28243 14.1998 5.27326 14.195 5.26435C14.1906 5.25606 14.1855 5.24819 14.1807 5.24013C14.1755 5.23139 14.1705 5.22254 14.1648 5.21401C14.1588 5.20508 14.1522 5.19669 14.1458 5.18812C14.1405 5.18106 14.1356 5.17376 14.1299 5.16688C14.1048 5.1363 14.0768 5.10825 14.0462 5.08315C14.0393 5.07751 14.032 5.07258 14.025 5.06729C14.0164 5.06086 14.008 5.05422 13.9991 5.04824C13.9905 5.04253 13.9817 5.03758 13.9729 5.03237C13.9649 5.02756 13.957 5.02249 13.9487 5.01806C13.9398 5.01328 13.9306 5.00923 13.9215 5.00495C13.9129 5.00088 13.9044 4.99656 13.8955 4.99288C13.8867 4.98922 13.8777 4.98626 13.8687 4.98306C13.8592 4.97964 13.8498 4.976 13.8401 4.97306C13.8312 4.97033 13.822 4.96837 13.813 4.96606C13.8031 4.96355 13.7933 4.96079 13.7832 4.95878C13.7728 4.95671 13.7622 4.95548 13.7517 4.95397C13.7428 4.9527 13.7341 4.95103 13.7252 4.95015C13.7056 4.94824 13.6861 4.94719 13.6665 4.94719C13.6663 4.94719 13.6662 4.94717 13.666 4.94717L7.72745 4.94717C7.39615 4.94717 7.12756 5.21576 7.12756 5.54706C7.12756 5.87836 7.39615 6.14694 7.72745 6.14694L12.2178 6.14696L5.60655 12.7582C5.37228 12.9925 5.37228 13.3723 5.60655 13.6065C5.84081 13.8408 6.22063 13.8408 6.4549 13.6065L13.0661 6.99532L13.0661 11.4856C13.0661 11.8169 13.3347 12.0855 13.666 12.0855C13.9973 12.0855 14.2659 11.8169 14.2659 11.4856L14.2659 5.54708Z" fill="white"/>
</svg>
