<svg width="16" height="16" viewBox="0 0 16 16" fill="none" xmlns="http://www.w3.org/2000/svg">
<path d="M8 0C3.58881 0 0 3.58876 0 7.99992C0 12.4112 3.58881 16 8 16C12.4112 16 16 12.4112 16 7.99992C16 3.58876 12.4112 0 8 0ZM8 15.076C4.0983 15.076 0.924 11.9017 0.924 7.99992C0.924 4.09827 4.0983 0.924 8 0.924C11.9017 0.924 15.076 4.09827 15.076 7.99995C15.076 11.9017 11.9017 15.076 8 15.076Z" fill="white"/>
<path d="M12.4046 3.78389C12.2837 3.55908 12.0037 3.47493 11.7789 3.59574L6.57898 6.39176C6.49916 6.43469 6.43372 6.5001 6.39082 6.57994L3.59592 11.7787C3.49704 11.9626 3.53555 12.1837 3.676 12.3241C3.70714 12.3553 3.74329 12.3825 3.78416 12.4044C3.92306 12.4791 4.08314 12.4752 4.21365 12.4084L4.21373 12.4085L4.21569 12.4075C4.21757 12.4065 4.21942 12.4055 4.22128 12.4045L9.42376 9.61048C9.50361 9.56761 9.56902 9.50219 9.612 9.42232L12.3957 4.23642C12.4018 4.22593 12.4076 4.21534 12.4128 4.20447L12.4166 4.19749L12.4161 4.19733C12.4753 4.06983 12.4763 3.9172 12.4046 3.78389ZM5.13488 10.8676L6.9109 7.564L8.43817 9.09132L5.13488 10.8676ZM9.09192 8.43827L7.56457 6.91092L10.8679 5.13472" fill="white"/>
</svg>
