<svg id="Layer_1" data-name="Layer 1" xmlns="http://www.w3.org/2000/svg" width="256" height="256" viewBox="0 0 256 256">
  <rect id="Rectangle_24143" data-name="Rectangle 24143" width="256" height="256" rx="128" fill="#222035"/>
  <g id="Group_112730" data-name="Group 112730">
    <rect id="Rectangle_24144" data-name="Rectangle 24144" width="81.73" height="5.84" transform="translate(129.08 174.7)"/>
    <rect id="Rectangle_24145" data-name="Rectangle 24145" width="5.84" height="5.84" transform="translate(216.65 168.86)"/>
    <rect id="Rectangle_24146" data-name="Rectangle 24146" width="5.84" height="5.84" transform="translate(210.81 168.86)"/>
    <rect id="Rectangle_24147" data-name="Rectangle 24147" width="5.84" height="5.84" transform="translate(222.49 163.03)"/>
    <rect id="Rectangle_24148" data-name="Rectangle 24148" width="5.84" height="5.84" transform="translate(228.32 157.19)"/>
    <rect id="Rectangle_24149" data-name="Rectangle 24149" width="5.84" height="5.84" transform="translate(234.16 151.35)"/>
    <rect id="Rectangle_24150" data-name="Rectangle 24150" width="5.84" height="5.84" transform="translate(234.16 145.51)"/>
    <rect id="Rectangle_24151" data-name="Rectangle 24151" width="5.84" height="5.84" transform="translate(228.32 139.68)"/>
    <rect id="Rectangle_24152" data-name="Rectangle 24152" width="5.84" height="5.84" transform="translate(222.49 139.68)"/>
    <rect id="Rectangle_24153" data-name="Rectangle 24153" width="5.84" height="5.84" transform="translate(216.65 133.84)"/>
    <rect id="Rectangle_24154" data-name="Rectangle 24154" width="5.84" height="5.84" transform="translate(210.81 133.84)"/>
    <rect id="Rectangle_24155" data-name="Rectangle 24155" width="5.84" height="5.84" transform="translate(204.97 128)"/>
    <rect id="Rectangle_24156" data-name="Rectangle 24156" width="5.84" height="5.84" transform="translate(199.14 128)"/>
    <rect id="Rectangle_24157" data-name="Rectangle 24157" width="5.84" height="5.84" transform="translate(193.3 128)"/>
    <rect id="Rectangle_24158" data-name="Rectangle 24158" width="5.84" height="5.84" transform="translate(187.46 128)"/>
    <rect id="Rectangle_24159" data-name="Rectangle 24159" width="5.84" height="5.84" transform="translate(181.62 122.16)"/>
    <rect id="Rectangle_24160" data-name="Rectangle 24160" width="5.84" height="5.84" transform="translate(175.78 128)"/>
    <rect id="Rectangle_24161" data-name="Rectangle 24161" width="5.84" height="5.84" transform="translate(175.78 122.16)"/>
    <rect id="Rectangle_24162" data-name="Rectangle 24162" width="5.84" height="5.84" transform="translate(175.78 116.32)"/>
    <rect id="Rectangle_24163" data-name="Rectangle 24163" width="5.84" height="5.84" transform="translate(175.78 110.49)"/>
    <rect id="Rectangle_24164" data-name="Rectangle 24164" width="5.84" height="5.84" transform="translate(175.78 104.65)"/>
    <rect id="Rectangle_24165" data-name="Rectangle 24165" width="5.84" height="5.84" transform="translate(169.95 98.81)"/>
    <rect id="Rectangle_24166" data-name="Rectangle 24166" width="5.84" height="5.84" transform="translate(169.95 92.97)"/>
    <rect id="Rectangle_24167" data-name="Rectangle 24167" width="5.84" height="5.84" transform="translate(164.11 87.14)"/>
    <rect id="Rectangle_24168" data-name="Rectangle 24168" width="5.84" height="5.84" transform="translate(158.27 87.14)"/>
    <rect id="Rectangle_24169" data-name="Rectangle 24169" width="5.84" height="5.84" transform="translate(152.43 81.3)"/>
    <rect id="Rectangle_24170" data-name="Rectangle 24170" width="5.84" height="5.84" transform="translate(146.59 81.3)"/>
    <rect id="Rectangle_24171" data-name="Rectangle 24171" width="5.84" height="5.84" transform="translate(140.76 75.46)"/>
    <rect id="Rectangle_24172" data-name="Rectangle 24172" width="5.84" height="5.84" transform="translate(134.92 75.46)"/>
    <rect id="Rectangle_24173" data-name="Rectangle 24173" width="5.84" height="5.84" transform="translate(129.08 75.46)"/>
    <rect id="Rectangle_24174" data-name="Rectangle 24174" width="5.84" height="5.84" transform="translate(123.24 75.46)"/>
    <rect id="Rectangle_24175" data-name="Rectangle 24175" width="5.84" height="5.84" transform="translate(117.41 75.46)"/>
    <rect id="Rectangle_24176" data-name="Rectangle 24176" width="5.84" height="5.84" transform="translate(111.57 81.3)"/>
    <rect id="Rectangle_24177" data-name="Rectangle 24177" width="5.84" height="5.84" transform="translate(105.73 87.14)"/>
    <rect id="Rectangle_24178" data-name="Rectangle 24178" width="5.84" height="5.84" transform="translate(99.89 92.97)"/>
    <rect id="Rectangle_24179" data-name="Rectangle 24179" width="5.84" height="5.84" transform="translate(99.89 98.81)"/>
    <rect id="Rectangle_24180" data-name="Rectangle 24180" width="5.84" height="5.84" transform="translate(99.89 104.65)"/>
    <rect id="Rectangle_24181" data-name="Rectangle 24181" width="5.84" height="5.84" transform="translate(105.73 104.65)"/>
    <rect id="Rectangle_24182" data-name="Rectangle 24182" width="5.84" height="5.84" transform="translate(111.57 104.65)"/>
    <rect id="Rectangle_24183" data-name="Rectangle 24183" width="5.84" height="5.84" transform="translate(117.41 104.65)"/>
    <rect id="Rectangle_24184" data-name="Rectangle 24184" width="5.84" height="5.84" transform="translate(117.41 110.49)"/>
    <rect id="Rectangle_24185" data-name="Rectangle 24185" width="5.84" height="5.84" transform="translate(111.57 116.32)"/>
    <rect id="Rectangle_24186" data-name="Rectangle 24186" width="5.84" height="5.84" transform="translate(105.73 116.32)"/>
    <rect id="Rectangle_24187" data-name="Rectangle 24187" width="5.84" height="5.84" transform="translate(99.89 122.16)"/>
    <rect id="Rectangle_24188" data-name="Rectangle 24188" width="5.84" height="5.84" transform="translate(94.05 122.16)"/>
    <rect id="Rectangle_24189" data-name="Rectangle 24189" width="5.84" height="5.84" transform="translate(88.22 128)"/>
    <rect id="Rectangle_24190" data-name="Rectangle 24190" width="5.84" height="5.84" transform="translate(82.38 128)"/>
    <rect id="Rectangle_24191" data-name="Rectangle 24191" width="5.84" height="5.84" transform="translate(76.54 128)"/>
    <rect id="Rectangle_24192" data-name="Rectangle 24192" width="5.84" height="5.84" transform="translate(70.7 128)"/>
    <rect id="Rectangle_24193" data-name="Rectangle 24193" width="5.84" height="5.84" transform="translate(64.86 128)"/>
    <rect id="Rectangle_24194" data-name="Rectangle 24194" width="5.84" height="5.84" transform="translate(59.03 128)"/>
    <rect id="Rectangle_24195" data-name="Rectangle 24195" width="5.84" height="5.84" transform="translate(53.19 128)"/>
    <rect id="Rectangle_24196" data-name="Rectangle 24196" width="5.84" height="5.84" transform="translate(47.35 128)"/>
    <rect id="Rectangle_24197" data-name="Rectangle 24197" width="5.84" height="5.84" transform="translate(41.51 128)"/>
    <rect id="Rectangle_24198" data-name="Rectangle 24198" width="5.84" height="5.84" transform="translate(35.68 128)"/>
    <rect id="Rectangle_24199" data-name="Rectangle 24199" width="5.84" height="5.84" transform="translate(29.84 133.84)"/>
    <rect id="Rectangle_24200" data-name="Rectangle 24200" width="5.84" height="5.84" transform="translate(29.84 139.68)" fill="#790303"/>
    <rect id="Rectangle_24201" data-name="Rectangle 24201" width="5.84" height="5.84" transform="translate(29.84 145.51)" fill="#790303"/>
    <rect id="Rectangle_24202" data-name="Rectangle 24202" width="5.84" height="5.84" transform="translate(29.84 151.35)" fill="#790303"/>
    <rect id="Rectangle_24203" data-name="Rectangle 24203" width="5.84" height="5.84" transform="translate(41.51 151.35)" fill="#790303"/>
    <rect id="Rectangle_24204" data-name="Rectangle 24204" width="5.84" height="5.84" transform="translate(82.38 133.84)" fill="#aa0303"/>
    <rect id="Rectangle_24205" data-name="Rectangle 24205" width="5.84" height="5.84" transform="translate(76.54 133.84)" fill="#aa0303"/>
    <rect id="Rectangle_24206" data-name="Rectangle 24206" width="5.84" height="5.84" transform="translate(76.54 139.68)" fill="#aa0303"/>
    <rect id="Rectangle_24207" data-name="Rectangle 24207" width="5.84" height="5.84" transform="translate(82.38 139.68)" fill="#aa0303"/>
    <rect id="Rectangle_24208" data-name="Rectangle 24208" width="5.84" height="5.84" transform="translate(88.22 133.84)" fill="#aa0303"/>
    <rect id="Rectangle_24209" data-name="Rectangle 24209" width="5.84" height="5.84" transform="translate(94.05 128)" fill="#800303"/>
    <rect id="Rectangle_24210" data-name="Rectangle 24210" width="5.84" height="5.84" transform="translate(105.73 122.16)" fill="#800303"/>
    <rect id="Rectangle_24211" data-name="Rectangle 24211" width="5.84" height="5.84" transform="translate(117.41 116.32)" fill="#800303"/>
    <rect id="Rectangle_24212" data-name="Rectangle 24212" width="5.84" height="5.84" transform="translate(134.92 110.49)" fill="#800303"/>
    <rect id="Rectangle_24213" data-name="Rectangle 24213" width="5.84" height="5.84" transform="translate(140.76 104.65)" fill="#800303"/>
    <rect id="Rectangle_24214" data-name="Rectangle 24214" width="5.84" height="5.84" transform="translate(146.59 98.81)" fill="#800303"/>
    <rect id="Rectangle_24215" data-name="Rectangle 24215" width="5.84" height="5.84" transform="translate(164.11 92.97)" fill="#aa0303"/>
    <rect id="Rectangle_24216" data-name="Rectangle 24216" width="5.84" height="5.84" transform="translate(169.95 104.65)" fill="#aa0303"/>
    <rect id="Rectangle_24217" data-name="Rectangle 24217" width="5.84" height="5.84" transform="translate(169.95 110.49)" fill="#aa0303"/>
    <rect id="Rectangle_24218" data-name="Rectangle 24218" width="5.84" height="5.84" transform="translate(169.95 116.32)" fill="#aa0303"/>
    <rect id="Rectangle_24219" data-name="Rectangle 24219" width="5.84" height="5.84" transform="translate(181.62 128)" fill="#aa0303"/>
    <rect id="Rectangle_24220" data-name="Rectangle 24220" width="5.84" height="5.84" transform="translate(181.62 133.84)" fill="#aa0303"/>
    <rect id="Rectangle_24221" data-name="Rectangle 24221" width="5.84" height="5.84" transform="translate(181.62 139.68)" fill="#aa0303"/>
    <rect id="Rectangle_24222" data-name="Rectangle 24222" width="5.84" height="5.84" transform="translate(181.62 145.51)" fill="#aa0303"/>
    <rect id="Rectangle_24223" data-name="Rectangle 24223" width="5.84" height="5.84" transform="translate(134.92 92.97)" fill="#aa0303"/>
    <rect id="Rectangle_24224" data-name="Rectangle 24224" width="5.84" height="5.84" transform="translate(129.08 92.97)" fill="#aa0303"/>
    <rect id="Rectangle_24225" data-name="Rectangle 24225" width="5.84" height="5.84" transform="translate(117.41 98.81)" fill="#aa0303"/>
    <rect id="Rectangle_24226" data-name="Rectangle 24226" width="5.84" height="5.84" transform="translate(24 139.68)"/>
    <rect id="Rectangle_24227" data-name="Rectangle 24227" width="5.84" height="5.84" transform="translate(24 145.51)"/>
    <rect id="Rectangle_24228" data-name="Rectangle 24228" width="5.84" height="5.84" transform="translate(24 151.35)"/>
    <rect id="Rectangle_24229" data-name="Rectangle 24229" width="5.84" height="5.84" transform="translate(29.84 157.19)"/>
    <rect id="Rectangle_24230" data-name="Rectangle 24230" width="5.84" height="5.84" transform="translate(35.68 157.19)"/>
    <rect id="Rectangle_24231" data-name="Rectangle 24231" width="5.84" height="5.84" transform="translate(41.51 157.19)"/>
    <rect id="Rectangle_24232" data-name="Rectangle 24232" width="5.84" height="5.84" transform="translate(47.35 163.03)"/>
    <rect id="Rectangle_24233" data-name="Rectangle 24233" width="5.84" height="5.84" transform="translate(53.19 163.03)"/>
    <rect id="Rectangle_24234" data-name="Rectangle 24234" width="5.84" height="5.84" transform="translate(59.03 163.03)"/>
    <rect id="Rectangle_24235" data-name="Rectangle 24235" width="5.84" height="5.84" transform="translate(64.86 163.03)"/>
    <rect id="Rectangle_24236" data-name="Rectangle 24236" width="5.84" height="5.84" transform="translate(70.7 168.86)"/>
    <rect id="Rectangle_24237" data-name="Rectangle 24237" width="5.84" height="5.84" transform="translate(76.54 168.86)"/>
    <rect id="Rectangle_24238" data-name="Rectangle 24238" width="5.84" height="5.84" transform="translate(82.38 168.86)"/>
    <rect id="Rectangle_24239" data-name="Rectangle 24239" width="5.84" height="5.84" transform="translate(88.22 168.86)"/>
    <rect id="Rectangle_24240" data-name="Rectangle 24240" width="5.84" height="5.84" transform="translate(94.05 168.86)"/>
    <rect id="Rectangle_24241" data-name="Rectangle 24241" width="5.84" height="5.84" transform="translate(99.89 168.86)"/>
    <rect id="Rectangle_24242" data-name="Rectangle 24242" width="5.84" height="5.84" transform="translate(105.73 168.86)"/>
    <rect id="Rectangle_24243" data-name="Rectangle 24243" width="5.84" height="5.84" transform="translate(111.57 168.86)"/>
    <rect id="Rectangle_24244" data-name="Rectangle 24244" width="5.84" height="5.84" transform="translate(117.41 168.86)"/>
    <rect id="Rectangle_24245" data-name="Rectangle 24245" width="5.84" height="5.84" transform="translate(123.24 168.86)"/>
    <rect id="Rectangle_24246" data-name="Rectangle 24246" width="5.84" height="5.84" transform="translate(129.08 168.86)"/>
    <rect id="Rectangle_24247" data-name="Rectangle 24247" width="5.84" height="5.84" transform="translate(111.57 163.03)"/>
    <rect id="Rectangle_24248" data-name="Rectangle 24248" width="5.84" height="5.84" transform="translate(99.89 157.19)"/>
    <rect id="Rectangle_24249" data-name="Rectangle 24249" width="5.84" height="5.84" transform="translate(105.73 157.19)"/>
    <rect id="Rectangle_24250" data-name="Rectangle 24250" width="5.84" height="5.84" transform="translate(111.57 157.19)"/>
    <rect id="Rectangle_24251" data-name="Rectangle 24251" width="5.84" height="5.84" transform="translate(117.41 157.19)"/>
    <rect id="Rectangle_24252" data-name="Rectangle 24252" width="5.84" height="5.84" transform="translate(123.24 157.19)"/>
    <rect id="Rectangle_24253" data-name="Rectangle 24253" width="5.84" height="5.84" transform="translate(129.08 157.19)"/>
    <rect id="Rectangle_24254" data-name="Rectangle 24254" width="5.84" height="5.84" transform="translate(134.92 157.19)"/>
    <rect id="Rectangle_24255" data-name="Rectangle 24255" width="5.84" height="5.84" transform="translate(140.76 157.19)"/>
    <rect id="Rectangle_24256" data-name="Rectangle 24256" width="5.84" height="5.84" transform="translate(146.59 157.19)"/>
    <rect id="Rectangle_24257" data-name="Rectangle 24257" width="5.84" height="5.84" transform="translate(152.43 157.19)"/>
    <rect id="Rectangle_24258" data-name="Rectangle 24258" width="5.84" height="5.84" transform="translate(164.11 151.35)"/>
    <rect id="Rectangle_24259" data-name="Rectangle 24259" width="5.84" height="5.84" transform="translate(169.95 151.35)"/>
    <rect id="Rectangle_24260" data-name="Rectangle 24260" width="5.84" height="5.84" transform="translate(140.76 151.35)"/>
    <rect id="Rectangle_24261" data-name="Rectangle 24261" width="5.84" height="5.84" transform="translate(140.76 145.51)"/>
    <rect id="Rectangle_24262" data-name="Rectangle 24262" width="5.84" height="5.84" transform="translate(134.92 139.68)"/>
    <rect id="Rectangle_24263" data-name="Rectangle 24263" width="5.84" height="5.84" transform="translate(129.08 133.84)"/>
    <rect id="Rectangle_24264" data-name="Rectangle 24264" width="5.84" height="5.84" transform="translate(123.24 133.84)"/>
    <rect id="Rectangle_24265" data-name="Rectangle 24265" width="5.84" height="5.84" transform="translate(117.41 139.68)"/>
    <rect id="Rectangle_24266" data-name="Rectangle 24266" width="5.84" height="5.84" transform="translate(111.57 145.51)"/>
    <rect id="Rectangle_24267" data-name="Rectangle 24267" width="5.84" height="5.84" transform="translate(111.57 151.35)"/>
    <rect id="Rectangle_24268" data-name="Rectangle 24268" width="5.84" height="5.84" transform="translate(94.05 151.35)"/>
    <rect id="Rectangle_24269" data-name="Rectangle 24269" width="5.84" height="5.84" transform="translate(88.22 151.35)"/>
    <rect id="Rectangle_24270" data-name="Rectangle 24270" width="5.84" height="5.84" transform="translate(82.38 145.51)"/>
    <rect id="Rectangle_24271" data-name="Rectangle 24271" width="5.84" height="5.84" transform="translate(76.54 145.51)"/>
    <rect id="Rectangle_24272" data-name="Rectangle 24272" width="5.84" height="5.84" transform="translate(70.7 139.68)"/>
    <rect id="Rectangle_24273" data-name="Rectangle 24273" width="5.84" height="5.84" transform="translate(70.7 133.84)" fill="#ed0c0c"/>
    <rect id="Rectangle_24274" data-name="Rectangle 24274" width="5.84" height="5.84" transform="translate(59.03 133.84)"/>
    <rect id="Rectangle_24275" data-name="Rectangle 24275" width="5.84" height="5.84" transform="translate(64.86 133.84)"/>
    <rect id="Rectangle_24276" data-name="Rectangle 24276" width="5.84" height="5.84" transform="translate(123.24 110.49)"/>
    <rect id="Rectangle_24277" data-name="Rectangle 24277" width="5.84" height="5.84" transform="translate(129.08 110.49)"/>
    <rect id="Rectangle_24278" data-name="Rectangle 24278" width="5.84" height="5.84" transform="translate(123.24 104.65)"/>
    <rect id="Rectangle_24279" data-name="Rectangle 24279" width="5.84" height="5.84" transform="translate(129.08 104.65)"/>
    <rect id="Rectangle_24280" data-name="Rectangle 24280" width="5.84" height="5.84" transform="translate(134.92 104.65)"/>
    <rect id="Rectangle_24281" data-name="Rectangle 24281" width="5.84" height="5.84" transform="translate(123.24 98.81)"/>
    <rect id="Rectangle_24282" data-name="Rectangle 24282" width="5.84" height="5.84" transform="translate(129.08 98.81)"/>
    <rect id="Rectangle_24283" data-name="Rectangle 24283" width="5.84" height="5.84" transform="translate(134.92 98.81)"/>
    <rect id="Rectangle_24284" data-name="Rectangle 24284" width="5.84" height="5.84" transform="translate(140.76 98.81)"/>
    <rect id="Rectangle_24285" data-name="Rectangle 24285" width="5.84" height="5.84" transform="translate(146.59 92.97)"/>
    <rect id="Rectangle_24286" data-name="Rectangle 24286" width="5.84" height="5.84" transform="translate(140.76 92.97)"/>
    <path id="Path_143897" data-name="Path 143897" d="M117.41,168.86v-5.83h40.86v-5.84h17.51v-5.84h11.68V133.84h23.35v5.84h11.68v5.83h11.67v11.68h-5.84v5.84h-5.83v5.83H210.81v5.84H134.92v-5.84Z" fill="#ed0404"/>
    <path id="Path_143898" data-name="Path 143898" d="M140.76,145.51h23.35v-5.83h17.51v-5.84h-5.84V122.16h-5.83V98.81h-5.84V92.97h-5.84V87.14H146.59V81.3H117.41v5.84h-5.84v5.83h-5.84v11.68h11.68V98.81h11.67V92.97h23.35v11.68h-5.84v5.84h-5.83v5.83H123.24v5.84H111.57V128H99.89v5.84H94.05v5.84h11.68v5.83h11.68v-5.83h5.83v-5.84h11.68v5.84h5.84Z" fill="#ed0404"/>
    <path id="Path_143899" data-name="Path 143899" d="M88.22,168.86h23.35v-5.83H99.89v-5.84H88.22v-5.84H76.54v-5.84H70.7v-5.83H59.03v-5.84H41.51v5.84h5.84v5.83h5.84v5.84H64.86v5.84H76.54v5.84H88.22Z" fill="#ed0404"/>
    <path id="Path_143900" data-name="Path 143900" d="M70.7,168.86H88.22v-5.83H76.54v-5.84H64.86v-5.84H53.19v-5.84H47.35v-5.83H41.51v-5.84H35.68v23.35h5.83v-5.84h5.84v11.68H70.7Z" fill="#aa0303"/>
    <path id="Path_143901" data-name="Path 143901" d="M99.89,151.35v5.84h11.68V145.51h-5.84v-5.83H88.22v11.67Z" fill="#f68383"/>
    <path id="Path_143902" data-name="Path 143902" d="M146.59,157.19h17.52v-5.84h17.51V139.68H164.11v5.83H146.59Z" fill="#f68383"/>
    <path id="Path_143903" data-name="Path 143903" d="M117.41,157.19V145.51h5.83v-5.83h11.68v5.83h5.84v11.68Z" fill="#cbdbfc"/>
  </g>
</svg>
