<svg width="25" height="24" viewBox="0 0 25 24" fill="none" xmlns="http://www.w3.org/2000/svg">
<path d="M10.7722 12.2234L12.7326 14.5153L20.7326 23.9279C20.7758 23.9712 20.8335 24 20.8912 24H23.8894C24.3074 24 24.5236 23.5099 24.2641 23.2072L22.174 20.7568L14.9092 12.2234L12.574 9.48469L10.7722 11.6036C10.6137 11.7766 10.6137 12.036 10.7722 12.2234Z" fill="#787B8E"/>
<path d="M14.895 12.209C14.7364 12.0216 14.7364 11.7622 14.895 11.5748L24.0625 0.792801C24.3364 0.475684 24.1058 8.58307e-06 23.6877 8.58307e-06H20.6896C20.6319 8.58307e-06 20.5742 0.0288374 20.531 0.0720806L12.5454 9.47028L14.895 12.209Z" fill="#787B8E"/>
<path d="M14.3617 12.2234L12.4013 14.5153L4.40133 23.9279C4.35809 23.9712 4.30043 24 4.24277 24H1.24458C0.826561 24 0.610343 23.5099 0.869803 23.2072L2.95989 20.7568L10.2248 12.2234L12.5599 9.48469L14.3617 11.6036C14.5203 11.7766 14.5203 12.036 14.3617 12.2234Z" fill="#787B8E"/>
<path d="M10.2249 12.209C10.3834 12.0216 10.3834 11.7622 10.2249 11.5748L1.05731 0.792801C0.783436 0.475684 1.01406 8.58307e-06 1.43208 8.58307e-06H4.43028C4.48794 8.58307e-06 4.5456 0.0288374 4.58884 0.0720806L12.5744 9.47028L10.2249 12.209Z" fill="#787B8E"/>
</svg>
