<svg xmlns="http://www.w3.org/2000/svg" xmlns:xlink="http://www.w3.org/1999/xlink" width="135.84" height="32" viewBox="0 0 135.84 32">
  <defs>
    <linearGradient id="linear-gradient" x1="0.134" y1="0.232" x2="0.586" y2="0.628" gradientUnits="objectBoundingBox">
      <stop offset="0.138" stop-color="#bc0050"/>
      <stop offset="0.24" stop-color="#cd2b3b"/>
      <stop offset="0.347" stop-color="#dc5029"/>
      <stop offset="0.458" stop-color="#e96f1a"/>
      <stop offset="0.575" stop-color="#f2860e"/>
      <stop offset="0.698" stop-color="#f99706"/>
      <stop offset="0.832" stop-color="#fda101"/>
      <stop offset="1" stop-color="orange"/>
    </linearGradient>
    <linearGradient id="linear-gradient-2" x1="-0.034" y1="0.996" x2="0.845" y2="0.089" gradientUnits="objectBoundingBox">
      <stop offset="0.138" stop-color="#bc0050"/>
      <stop offset="0.192" stop-color="#a02469"/>
      <stop offset="0.276" stop-color="#7b578b"/>
      <stop offset="0.364" stop-color="#5a84a9"/>
      <stop offset="0.454" stop-color="#3eaac3"/>
      <stop offset="0.548" stop-color="#27c9d8"/>
      <stop offset="0.645" stop-color="#16e0e8"/>
      <stop offset="0.748" stop-color="#09f1f4"/>
      <stop offset="0.86" stop-color="#02fbfa"/>
      <stop offset="1" stop-color="#00fffd"/>
    </linearGradient>
    <linearGradient id="linear-gradient-3" x1="0.067" y1="0.073" x2="1.11" y2="0.99" gradientUnits="objectBoundingBox">
      <stop offset="0" stop-color="#ef0895"/>
      <stop offset="0.286" stop-color="#ec0791"/>
      <stop offset="0.516" stop-color="#e50687"/>
      <stop offset="0.726" stop-color="#d80476"/>
      <stop offset="0.924" stop-color="#c7015f"/>
      <stop offset="1" stop-color="#bf0054"/>
    </linearGradient>
    <linearGradient id="linear-gradient-4" x1="0.551" y1="0.499" x2="1.089" y2="0.485" gradientUnits="objectBoundingBox">
      <stop offset="0" stop-color="orange"/>
      <stop offset="1" stop-color="#076c95"/>
    </linearGradient>
    <linearGradient id="linear-gradient-5" x1="-0.331" y1="0.264" x2="1.087" y2="0.669" xlink:href="#linear-gradient-2"/>
  </defs>
  <g id="x-wallet_header" data-name="x-wallet header" transform="translate(-1292.341 -305.218)">
    <g id="Group_69496" data-name="Group 69496" transform="translate(1292.341 305.556)">
      <g id="Group_69493" data-name="Group 69493" transform="translate(12.904 12.36)">
        <path id="Path_44819" data-name="Path 44819" d="M1361.074,376.293l2.551,3,10.443,12.281a.27.27,0,0,0,.206.1h3.916a.632.632,0,0,0,.481-1.042l-2.728-3.207-9.475-11.139-3.043-3.577-2.351,2.769A.632.632,0,0,0,1361.074,376.293Z" transform="translate(-1360.923 -372.706)" fill="url(#linear-gradient)"/>
      </g>
      <path id="Path_44820" data-name="Path 44820" d="M1377.26,322.95a.632.632,0,0,1,0-.819l11.975-14.077a.632.632,0,0,0-.481-1.042h-3.916a.273.273,0,0,0-.206.1l-10.415,12.264Z" transform="translate(-1358.812 -307.013)" fill="url(#linear-gradient-2)"/>
      <g id="Group_69495" data-name="Group 69495" transform="translate(0 0)">
        <g id="Group_69494" data-name="Group 69494" transform="translate(0 12.36)">
          <path id="Path_44821" data-name="Path 44821" d="M1310.09,376.293l-2.551,3L1297.1,391.575a.269.269,0,0,1-.206.1h-3.916a.632.632,0,0,1-.481-1.042l2.728-3.207,9.475-11.139,3.044-3.577,2.351,2.769A.632.632,0,0,1,1310.09,376.293Z" transform="translate(-1292.341 -372.706)" fill="#ef0896"/>
        </g>
        <path id="Path_44822" data-name="Path 44822" d="M1305.683,322.95a.632.632,0,0,0,0-.819l-11.975-14.077a.632.632,0,0,1,.481-1.042h3.916a.273.273,0,0,1,.206.1l10.415,12.264Z" transform="translate(-1293.328 -307.013)" fill="url(#linear-gradient-3)"/>
      </g>
    </g>
    <g id="Group_69502" data-name="Group 69502" transform="translate(1325.749 305.218)">
      <g id="Group_69500" data-name="Group 69500" transform="translate(65.59 27.883)">
        <g id="Group_69389" data-name="Group 69389" transform="translate(9.651 0)">
          <path id="Path_42610" data-name="Path 42610" d="M1921.453,457.67h-1.959a.082.082,0,0,1-.082-.082V454.6a.082.082,0,0,1,.082-.082h.419a.035.035,0,0,1,.035.035V457.1a.035.035,0,0,0,.035.035h1.47a1.448,1.448,0,0,0,.754-.2,1.548,1.548,0,0,0,.547-.543,1.5,1.5,0,0,0,0-1.512,1.545,1.545,0,0,0-.547-.546,1.453,1.453,0,0,0-.754-.2h-2.006a.035.035,0,0,1-.035-.035v-.419a.082.082,0,0,1,.082-.082h1.959a1.954,1.954,0,0,1,1.024.277,2.11,2.11,0,0,1,.741.741,2.03,2.03,0,0,1,0,2.049,2.116,2.116,0,0,1-.741.739A1.957,1.957,0,0,1,1921.453,457.67Z" transform="translate(-1910.079 -453.555)" fill="#150c18"/>
          <path id="Path_42611" data-name="Path 42611" d="M1946.241,457.67h-1.959a.082.082,0,0,1-.082-.082V454.6a.082.082,0,0,1,.082-.082h.419a.035.035,0,0,1,.035.035V457.1a.035.035,0,0,0,.035.035h1.47a1.448,1.448,0,0,0,.754-.2,1.55,1.55,0,0,0,.546-.543,1.5,1.5,0,0,0,0-1.512,1.545,1.545,0,0,0-.546-.546,1.454,1.454,0,0,0-.754-.2h-2.007a.035.035,0,0,1-.035-.035v-.419a.082.082,0,0,1,.082-.082h1.959a1.955,1.955,0,0,1,1.024.277,2.107,2.107,0,0,1,.741.741,2.029,2.029,0,0,1,0,2.049,2.114,2.114,0,0,1-.741.739A1.96,1.96,0,0,1,1946.241,457.67Z" transform="translate(-1930.203 -453.555)" fill="#150c18"/>
          <path id="Path_42612" data-name="Path 42612" d="M1969.071,453.584h3.918a.082.082,0,0,1,.083.082v.419a.035.035,0,0,1-.035.035h-3.476a.035.035,0,0,0-.035.035v1.17a.035.035,0,0,0,.035.035h1.6a.082.082,0,0,1,.082.082v.419a.035.035,0,0,1-.035.035h-2.14a.082.082,0,0,1-.082-.082v-2.15A.082.082,0,0,1,1969.071,453.584Zm.454,2.77v.739a.035.035,0,0,0,.035.035h3.429a.082.082,0,0,1,.083.082v.422a.035.035,0,0,1-.035.035h-3.966a.082.082,0,0,1-.083-.082V456.4a.082.082,0,0,1,.083-.082h.419A.035.035,0,0,1,1969.525,456.354Z" transform="translate(-1950.327 -453.553)" fill="#150c18"/>
          <path id="Path_42613" data-name="Path 42613" d="M1993.608,457.671h-.51a.082.082,0,0,1-.063-.136l1.59-1.87a.083.083,0,0,0,0-.107l-1.561-1.835a.082.082,0,0,1,.063-.136h.51a.035.035,0,0,1,.027.012l2.321,2.734q.468.548,1.018,1.2a.082.082,0,0,1-.063.135h-.507a.035.035,0,0,1-.027-.012l-1.358-1.6a.035.035,0,0,0-.054,0l-1.361,1.6A.035.035,0,0,1,1993.608,457.671Z" transform="translate(-1969.833 -453.557)" fill="#150c18"/>
          <path id="Path_44823" data-name="Path 44823" d="M2006.56,453.584h-.511a.035.035,0,0,0-.027.012l-1.1,1.3a.085.085,0,0,0,0,.107l.28.331a.035.035,0,0,0,.054,0l1.371-1.615A.082.082,0,0,0,2006.56,453.584Z" transform="translate(-1979.481 -453.553)" fill="#150c18"/>
          <g id="Group_69497" data-name="Group 69497" transform="translate(4.444)">
            <path id="Path_44824" data-name="Path 44824" d="M1907.811,472.615" transform="translate(-1905.105 -469.003)" fill="#150c18"/>
            <g id="Group_68654" data-name="Group 68654" transform="translate(1.47 3.612)">
              <g id="Group_68653" data-name="Group 68653">
                <path id="Path_41688" data-name="Path 41688" d="M1903.572,472.661a.082.082,0,0,0-.074-.046h-2.176a.083.083,0,0,0-.082.082v.387a.035.035,0,0,0,.035.035h2.524Z" transform="translate(-1901.24 -472.615)" fill="url(#linear-gradient-4)"/>
              </g>
            </g>
            <g id="Group_68657" data-name="Group 68657" transform="translate(2.298)">
              <g id="Group_68656" data-name="Group 68656">
                <path id="Path_41689" data-name="Path 41689" d="M1906.584,453.417l2.007,4.066a.035.035,0,0,1-.032.051h-.541l-1.582-3.182" transform="translate(-1906.288 -453.417)" fill="#00fffd"/>
                <path id="Path_44825" data-name="Path 44825" d="M1905.939,453.417l.6,1.208-.3.61-.58-1.167a.082.082,0,0,1,0-.074Z" transform="translate(-1905.643 -453.417)" fill="url(#linear-gradient-5)"/>
              </g>
            </g>
            <g id="Group_68660" data-name="Group 68660">
              <g id="Group_68659" data-name="Group 68659">
                <path id="Path_41690" data-name="Path 41690" d="M1895.4,453.463a.082.082,0,0,1,.074-.046h.546l0,.009-.3.6-1.735,3.484a.036.036,0,0,1-.032.02h-.442a.082.082,0,0,1-.074-.119Z" transform="translate(-1893.428 -453.417)" fill="#ff00b9"/>
              </g>
            </g>
          </g>
          <g id="Group_69498" data-name="Group 69498" transform="translate(0 0.031)">
            <path id="Path_44826" data-name="Path 44826" d="M1870.311,453.584h-.422a.082.082,0,0,0-.082.082v3.918a.082.082,0,0,0,.082.082h.422a.035.035,0,0,0,.035-.035v-4.012A.035.035,0,0,0,1870.311,453.584Z" transform="translate(-1869.807 -453.584)" fill="#150c18"/>
            <path id="Path_44827" data-name="Path 44827" d="M1876,455.7a.082.082,0,0,1,0-.119l2.007-1.921a.035.035,0,0,0-.025-.061h-.656a.082.082,0,0,0-.057.023l-1.809,1.732a.083.083,0,0,1-.057.023h-.5a.082.082,0,0,0-.082.082v.418a.035.035,0,0,0,.035.035h.554a.083.083,0,0,1,.057.023l1.8,1.723a.082.082,0,0,0,.057.023h.656a.035.035,0,0,0,.025-.061Z" transform="translate(-1873.884 -453.595)" fill="#150c18"/>
          </g>
        </g>
        <g id="Group_69499" data-name="Group 69499">
          <path id="Path_42608" data-name="Path 42608" d="M1841.027,455.478v2.1a.035.035,0,0,1-.035.035h-.42a.083.083,0,0,1-.082-.082v-1.853a.083.083,0,0,0-.02-.053l-1.676-1.973a.082.082,0,0,1,.063-.136h.514a.035.035,0,0,1,.027.013l1.61,1.9A.082.082,0,0,1,1841.027,455.478Zm1.63-1.959h-.509a.035.035,0,0,0-.027.012l-1.111,1.3a.085.085,0,0,0,0,.107l.281.332a.035.035,0,0,0,.054,0l1.374-1.62A.082.082,0,0,0,1842.657,453.519Z" transform="translate(-1834.961 -453.496)" fill="#150c18"/>
          <path id="Path_44828" data-name="Path 44828" d="M1822.42,455.733a1.035,1.035,0,0,0-.357-.356.036.036,0,0,1-.009-.055,1.044,1.044,0,0,0,.261-.74,1.133,1.133,0,0,0-.155-.584,1.192,1.192,0,0,0-.418-.424,1.1,1.1,0,0,0-.577-.157h-2.572a.083.083,0,0,0-.082.082v2.166a.082.082,0,0,0,.082.082h1.271c.164,0,.36,0,.589,0h1a.594.594,0,0,1,.439.183.622.622,0,0,1-.439,1.061h-2.405v-.8a.035.035,0,0,0-.035-.035h-.421a.082.082,0,0,0-.082.082v.851h0v.408a.035.035,0,0,0,.036.035l2.906-.015a1.107,1.107,0,0,0,.58-.156,1.187,1.187,0,0,0,.418-.418,1.149,1.149,0,0,0-.031-1.207Zm-.8-.711a.631.631,0,0,1-.4.2h-2.132a.035.035,0,0,1-.035-.035v-1.183a.035.035,0,0,1,.035-.035h2.079a.591.591,0,0,1,.439.187.615.615,0,0,1,.181.439A.6.6,0,0,1,1821.621,455.022Z" transform="translate(-1818.511 -453.417)" fill="#150c18"/>
        </g>
      </g>
      <g id="Group_69501" data-name="Group 69501" transform="translate(0 0)">
        <path id="Path_44829" data-name="Path 44829" d="M1482.458,357.12a5.7,5.7,0,0,1-.9,1.343,3.941,3.941,0,0,1-1.237.919,3.661,3.661,0,0,1-1.591.336h-.354a3.628,3.628,0,0,1-1.609-.336,4.007,4.007,0,0,1-1.22-.919,6.127,6.127,0,0,1-.919-1.343,9.473,9.473,0,0,1-.636-1.573l-4.069-12.955a.423.423,0,0,1,.4-.549h1.765a.423.423,0,0,1,.4.3l4.149,13.208a3.513,3.513,0,0,0,.619,1.131,1.362,1.362,0,0,0,1.114.5h.354a1.363,1.363,0,0,0,1.113-.5,3.52,3.52,0,0,0,.619-1.131l4.149-13.208a.423.423,0,0,1,.4-.3h2.031a.423.423,0,0,1,.4.3l4.149,13.208a3.506,3.506,0,0,0,.619,1.131,1.361,1.361,0,0,0,1.114.5h.354a1.363,1.363,0,0,0,1.113-.5,3.513,3.513,0,0,0,.619-1.131l4.149-13.208a.423.423,0,0,1,.4-.3h1.764a.423.423,0,0,1,.4.55l-4.1,12.953a10.659,10.659,0,0,1-.619,1.573,5.694,5.694,0,0,1-.9,1.343,3.945,3.945,0,0,1-1.237.919,3.662,3.662,0,0,1-1.591.336h-.354a3.628,3.628,0,0,1-1.609-.336,4.01,4.01,0,0,1-1.22-.919,6.122,6.122,0,0,1-.919-1.343,9.474,9.474,0,0,1-.636-1.573l-2.531-8.05a.423.423,0,0,0-.806,0l-2.531,8.05A10.645,10.645,0,0,1,1482.458,357.12Z" transform="translate(-1469.902 -335.114)" fill="#150c18"/>
        <path id="Path_44830" data-name="Path 44830" d="M1667.947,357.537a1.662,1.662,0,0,1-.768-.43,1.711,1.711,0,0,1-.53-1.078v-9.4a4.066,4.066,0,0,0-.336-1.626,4.288,4.288,0,0,0-.9-1.343,4.345,4.345,0,0,0-1.326-.9,3.94,3.94,0,0,0-1.609-.336h-9.262a3.938,3.938,0,0,0-1.608.336,4.332,4.332,0,0,0-1.326.9,4.273,4.273,0,0,0-.9,1.343,4.053,4.053,0,0,0-.336,1.626v9.226a3.928,3.928,0,0,0,.336,1.608,4.283,4.283,0,0,0,2.227,2.227,3.932,3.932,0,0,0,1.608.336h9.262a4.131,4.131,0,0,0,1.188-.171l-.015-.015a4.963,4.963,0,0,1-.919-1.467,4.066,4.066,0,0,1-.251-.857h-9.264a1.566,1.566,0,0,1-1.149-.477,1.608,1.608,0,0,1-.477-1.184v-9.226a1.608,1.608,0,0,1,.477-1.184,1.566,1.566,0,0,1,1.149-.477h9.262a1.567,1.567,0,0,1,1.149.477,1.608,1.608,0,0,1,.477,1.184v9.191a4.124,4.124,0,0,0,.318,1.608,4.964,4.964,0,0,0,.919,1.467,4.624,4.624,0,0,0,.8.607c.167.094.341.179.525.26a3.89,3.89,0,0,0,1.127.308h.1l.014,0,.03,0,.013,0,.03-.008.011,0,.029-.011.011-.006.028-.014.01-.007.026-.017.009-.007.025-.02.008-.008.023-.022.008-.01.02-.024.008-.012.016-.025.007-.014c0-.008.009-.016.013-.025l.006-.015c0-.009.007-.017.01-.026s0-.012.005-.018.005-.017.007-.025,0-.015,0-.023,0-.014,0-.022a.422.422,0,0,0,0-.047v-1.7A.425.425,0,0,0,1667.947,357.537Z" transform="translate(-1615.339 -335.42)" fill="#150c18"/>
        <path id="Path_44831" data-name="Path 44831" d="M1760.761,305.406a.422.422,0,0,1,.422.423v19.939a1.6,1.6,0,0,0,.46,1.149,1.618,1.618,0,0,0,.805.467.423.423,0,0,1,.326.411v1.733a.424.424,0,0,1-.473.42,3.894,3.894,0,0,1-1.136-.309,4.169,4.169,0,0,1-1.326-.919,4.282,4.282,0,0,1-.884-1.343,4.124,4.124,0,0,1-.318-1.608V305.829a.423.423,0,0,1,.423-.423Z" transform="translate(-1704.313 -305.371)" fill="#150c18"/>
        <path id="Path_44832" data-name="Path 44832" d="M1790.908,305.406a.422.422,0,0,1,.423.423v19.939a1.6,1.6,0,0,0,.46,1.149,1.618,1.618,0,0,0,.805.467.423.423,0,0,1,.326.411v1.733a.424.424,0,0,1-.473.42,3.892,3.892,0,0,1-1.136-.309,4.169,4.169,0,0,1-1.326-.919,4.278,4.278,0,0,1-.884-1.343,4.12,4.12,0,0,1-.318-1.608V305.829a.422.422,0,0,1,.423-.423Z" transform="translate(-1728.788 -305.371)" fill="#150c18"/>
        <path id="Path_44833" data-name="Path 44833" d="M1922.923,305.641v6.824a4.208,4.208,0,0,1,.76-.265,3.448,3.448,0,0,1,.8-.088h13.152a.423.423,0,0,1,.422.423v1.7a.423.423,0,0,1-.422.423h-13.046a1.63,1.63,0,0,0-1.662,1.661v9.3a1.6,1.6,0,0,0,.46,1.149,1.633,1.633,0,0,0,1.131.513h9.333a1.609,1.609,0,0,0,1.184-.477,1.566,1.566,0,0,0,.443-.805.425.425,0,0,1,.415-.343h1.718a.423.423,0,0,1,.421.47,3.752,3.752,0,0,1-.274,1.05,4.726,4.726,0,0,1-.8,1.273,3.884,3.884,0,0,1-1.2.919,4.123,4.123,0,0,1-1.484.424v.035h-9.792a4.237,4.237,0,0,1-1.591-.371,4.382,4.382,0,0,1-1.308-.9,4.071,4.071,0,0,1-.884-1.326,4.122,4.122,0,0,1-.318-1.608V305.641a.422.422,0,0,1,.423-.423h1.7A.422.422,0,0,1,1922.923,305.641Z" transform="translate(-1835.621 -305.218)" fill="#150c18"/>
        <path id="Path_44834" data-name="Path 44834" d="M1832.273,352.153a4,4,0,0,0,1.591-.318,4.467,4.467,0,0,0,1.308-.848,4.272,4.272,0,0,0,.919-1.255,3.926,3.926,0,0,0,.389-1.573v-1.944a3.939,3.939,0,0,0-.336-1.608,4.347,4.347,0,0,0-.9-1.326,4.292,4.292,0,0,0-1.343-.9,4.063,4.063,0,0,0-1.626-.336h-9.262a4.023,4.023,0,0,0-1.644.336,4.336,4.336,0,0,0-1.326.9,4.271,4.271,0,0,0-.9,1.343,4.055,4.055,0,0,0-.336,1.626v9.262a4.017,4.017,0,0,0,.336,1.644,4.283,4.283,0,0,0,2.227,2.227,4.016,4.016,0,0,0,1.644.336h9.262a4.056,4.056,0,0,0,1.626-.336,4.272,4.272,0,0,0,1.343-.9,4.336,4.336,0,0,0,.9-1.326,3.922,3.922,0,0,0,.311-1.173.424.424,0,0,0-.42-.471h-1.716a.423.423,0,0,0-.415.347,1.571,1.571,0,0,1-.446.838,1.608,1.608,0,0,1-1.184.477h-9.262a1.631,1.631,0,0,1-1.661-1.662V346.25a1.631,1.631,0,0,1,1.661-1.661h9.262a1.63,1.63,0,0,1,1.661,1.661v1.768a1.634,1.634,0,0,1-.513,1.131,1.6,1.6,0,0,1-1.149.459h-9.233v2.545Z" transform="translate(-1753.158 -335.114)" fill="#150c18"/>
      </g>
    </g>
  </g>
</svg>
