<svg xmlns="http://www.w3.org/2000/svg" xmlns:xlink="http://www.w3.org/1999/xlink" width="156.999" height="152.399" viewBox="0 0 156.999 152.399">
  <defs>
    <linearGradient id="linear-gradient" x1="0.134" y1="0.232" x2="0.586" y2="0.628" gradientUnits="objectBoundingBox">
      <stop offset="0.138" stop-color="#bc0050"/>
      <stop offset="0.24" stop-color="#cd2b3b"/>
      <stop offset="0.347" stop-color="#dc5029"/>
      <stop offset="0.458" stop-color="#e96f1a"/>
      <stop offset="0.575" stop-color="#f2860e"/>
      <stop offset="0.698" stop-color="#f99706"/>
      <stop offset="0.832" stop-color="#fda101"/>
      <stop offset="1" stop-color="orange"/>
    </linearGradient>
    <linearGradient id="linear-gradient-2" x1="-0.034" y1="0.996" x2="0.845" y2="0.089" gradientUnits="objectBoundingBox">
      <stop offset="0.138" stop-color="#bc0050"/>
      <stop offset="0.192" stop-color="#a02469"/>
      <stop offset="0.276" stop-color="#7b578b"/>
      <stop offset="0.364" stop-color="#5a84a9"/>
      <stop offset="0.454" stop-color="#3eaac3"/>
      <stop offset="0.548" stop-color="#27c9d8"/>
      <stop offset="0.645" stop-color="#16e0e8"/>
      <stop offset="0.748" stop-color="#09f1f4"/>
      <stop offset="0.86" stop-color="#02fbfa"/>
      <stop offset="1" stop-color="#00fffd"/>
    </linearGradient>
    <linearGradient id="linear-gradient-3" x1="0.067" y1="0.073" x2="1.11" y2="0.99" gradientUnits="objectBoundingBox">
      <stop offset="0" stop-color="#ef0895"/>
      <stop offset="0.286" stop-color="#ec0791"/>
      <stop offset="0.516" stop-color="#e50687"/>
      <stop offset="0.726" stop-color="#d80476"/>
      <stop offset="0.924" stop-color="#c7015f"/>
      <stop offset="1" stop-color="#bf0054"/>
    </linearGradient>
    <linearGradient id="linear-gradient-4" x1="0.551" y1="0.499" x2="1.089" y2="0.485" gradientUnits="objectBoundingBox">
      <stop offset="0" stop-color="orange"/>
      <stop offset="1" stop-color="#076c95"/>
    </linearGradient>
    <linearGradient id="linear-gradient-5" x1="-0.331" y1="0.264" x2="1.087" y2="0.669" xlink:href="#linear-gradient-2"/>
  </defs>
  <g id="x-wallet_footer" data-name="x-wallet footer" transform="translate(-163.135 -88.714)">
    <g id="Group_74666" data-name="Group 74666" transform="translate(193.859 88.714)">
      <g id="Group_74663" data-name="Group 74663" transform="translate(40.027 38.34)">
        <path id="Path_69063" data-name="Path 69063" d="M284.828,165.535l7.913,9.308,32.393,38.1a.838.838,0,0,0,.64.3h12.146A1.961,1.961,0,0,0,339.414,210l-8.463-9.948L301.56,165.5l-9.441-11.1L284.826,163A1.96,1.96,0,0,0,284.828,165.535Z" transform="translate(-284.361 -154.406)" fill="url(#linear-gradient)"/>
      </g>
      <path id="Path_69064" data-name="Path 69064" d="M307.095,138.151a1.96,1.96,0,0,1,0-2.541L344.24,91.945a1.961,1.961,0,0,0-1.494-3.231H330.6a.844.844,0,0,0-.64.3l-32.306,38.042Z" transform="translate(-249.869 -88.714)" fill="url(#linear-gradient-2)"/>
      <g id="Group_74665" data-name="Group 74665">
        <g id="Group_74664" data-name="Group 74664" transform="translate(0 38.34)">
          <path id="Path_69065" data-name="Path 69065" d="M270.835,165.535l-7.914,9.308-32.393,38.1a.836.836,0,0,1-.64.3H217.743A1.961,1.961,0,0,1,216.249,210l8.463-9.948L254.1,165.5l9.441-11.1,7.293,8.59A1.96,1.96,0,0,1,270.835,165.535Z" transform="translate(-215.778 -154.406)" fill="#ef0896"/>
        </g>
        <path id="Path_69066" data-name="Path 69066" d="M254.61,138.151a1.962,1.962,0,0,0,0-2.541L217.465,91.945a1.96,1.96,0,0,1,1.493-3.231H231.1a.845.845,0,0,1,.64.3l32.306,38.042Z" transform="translate(-216.284 -88.714)" fill="url(#linear-gradient-3)"/>
      </g>
    </g>
    <g id="Group_74670" data-name="Group 74670" transform="translate(263.667 234.804)">
      <g id="Group_69389" data-name="Group 69389" transform="translate(14.793 0)">
        <path id="Path_42610" data-name="Path 42610" d="M388.373,345.368h-3a.126.126,0,0,1-.126-.126v-4.577a.126.126,0,0,1,.126-.126h.643a.054.054,0,0,1,.054.054v3.893a.054.054,0,0,0,.054.054h2.253a2.218,2.218,0,0,0,1.156-.311,2.377,2.377,0,0,0,.839-.832,2.3,2.3,0,0,0,0-2.317,2.377,2.377,0,0,0-.839-.838,2.23,2.23,0,0,0-1.156-.31H385.3a.054.054,0,0,1-.054-.054v-.642a.126.126,0,0,1,.126-.127h3a3,3,0,0,1,1.569.424,3.224,3.224,0,0,1,1.135,1.135,3.11,3.11,0,0,1,0,3.141,3.237,3.237,0,0,1-1.135,1.133A3,3,0,0,1,388.373,345.368Z" transform="translate(-370.94 -339.061)" fill="#150c18"/>
        <path id="Path_42611" data-name="Path 42611" d="M400.621,345.368h-3a.126.126,0,0,1-.126-.126v-4.577a.126.126,0,0,1,.126-.126h.643a.054.054,0,0,1,.054.054v3.893a.054.054,0,0,0,.054.054h2.253a2.218,2.218,0,0,0,1.156-.311,2.378,2.378,0,0,0,.837-.832,2.3,2.3,0,0,0,0-2.317,2.369,2.369,0,0,0-.837-.838,2.228,2.228,0,0,0-1.156-.31h-3.076a.054.054,0,0,1-.054-.054v-.642a.126.126,0,0,1,.126-.127h3a3,3,0,0,1,1.569.424,3.224,3.224,0,0,1,1.135,1.135,3.11,3.11,0,0,1,0,3.141,3.237,3.237,0,0,1-1.135,1.133A3.006,3.006,0,0,1,400.621,345.368Z" transform="translate(-376.039 -339.061)" fill="#150c18"/>
        <path id="Path_42612" data-name="Path 42612" d="M409.867,339.108h6.006a.127.127,0,0,1,.127.127v.643a.054.054,0,0,1-.054.054h-5.328a.054.054,0,0,0-.054.054v1.793a.054.054,0,0,0,.054.054h2.459a.126.126,0,0,1,.126.126v.643a.055.055,0,0,1-.054.054h-3.279a.127.127,0,0,1-.127-.127v-3.295A.126.126,0,0,1,409.867,339.108Zm.7,4.246v1.132a.054.054,0,0,0,.054.054h5.256a.126.126,0,0,1,.127.126v.647a.054.054,0,0,1-.054.054h-6.079a.126.126,0,0,1-.126-.126v-1.815a.126.126,0,0,1,.126-.126h.643A.054.054,0,0,1,410.564,343.354Z" transform="translate(-381.139 -339.06)" fill="#150c18"/>
        <path id="Path_42613" data-name="Path 42613" d="M422.522,345.368h-.782a.126.126,0,0,1-.1-.208l2.438-2.866a.128.128,0,0,0,0-.164l-2.392-2.812a.126.126,0,0,1,.1-.208h.782a.056.056,0,0,1,.041.019l3.558,4.19q.717.84,1.561,1.84a.127.127,0,0,1-.1.208h-.777a.055.055,0,0,1-.041-.019l-2.081-2.453a.054.054,0,0,0-.082,0l-2.086,2.454A.056.056,0,0,1,422.522,345.368Z" transform="translate(-386.082 -339.061)" fill="#150c18"/>
        <path id="Path_69067" data-name="Path 69067" d="M430.031,339.108h-.782a.054.054,0,0,0-.041.019l-1.694,1.993a.131.131,0,0,0,0,.164l.43.507a.054.054,0,0,0,.083,0l2.1-2.475A.126.126,0,0,0,430.031,339.108Z" transform="translate(-388.527 -339.06)" fill="#150c18"/>
        <g id="Group_74667" data-name="Group 74667" transform="translate(6.812)">
          <path id="Path_69068" data-name="Path 69068" d="M379.512,348.512" transform="translate(-375.365 -342.976)" fill="#150c18"/>
          <g id="Group_68654" data-name="Group 68654" transform="translate(2.253 5.536)">
            <g id="Group_68653" data-name="Group 68653">
              <path id="Path_41688" data-name="Path 41688" d="M379.84,348.582a.125.125,0,0,0-.113-.07h-3.335a.126.126,0,0,0-.126.126v.593a.054.054,0,0,0,.054.054h3.868Z" transform="translate(-376.266 -348.512)" fill="url(#linear-gradient-4)"/>
            </g>
          </g>
          <g id="Group_68657" data-name="Group 68657" transform="translate(3.523)">
            <g id="Group_68656" data-name="Group 68656">
              <path id="Path_41689" data-name="Path 41689" d="M379.059,339.026l3.076,6.231a.054.054,0,0,1-.048.078h-.829l-2.424-4.877" transform="translate(-378.605 -339.026)" fill="#00fffd"/>
              <path id="Path_69069" data-name="Path 69069" d="M378.9,339.026l.913,1.851-.466.936-.889-1.788a.127.127,0,0,1,0-.113Z" transform="translate(-378.441 -339.026)" fill="url(#linear-gradient-5)"/>
            </g>
          </g>
          <g id="Group_68660" data-name="Group 68660">
            <g id="Group_68659" data-name="Group 68659">
              <path id="Path_41690" data-name="Path 41690" d="M375.433,339.1a.125.125,0,0,1,.113-.07h.837l-.008.015-.458.918-2.659,5.34a.054.054,0,0,1-.048.03h-.678a.126.126,0,0,1-.113-.183Z" transform="translate(-372.406 -339.026)" fill="#ff00b9"/>
            </g>
          </g>
        </g>
        <g id="Group_74668" data-name="Group 74668" transform="translate(0 0.048)">
          <path id="Path_69070" data-name="Path 69070" d="M361.507,339.108h-.647a.126.126,0,0,0-.126.127v6a.126.126,0,0,0,.126.126h.647a.055.055,0,0,0,.054-.054v-6.149A.055.055,0,0,0,361.507,339.108Z" transform="translate(-360.734 -339.108)" fill="#150c18"/>
          <path id="Path_69071" data-name="Path 69071" d="M365.016,342.335a.126.126,0,0,1,0-.182l3.076-2.944a.054.054,0,0,0-.037-.093H367.05a.126.126,0,0,0-.087.035l-2.774,2.655a.126.126,0,0,1-.087.035h-.76a.126.126,0,0,0-.126.126v.641a.054.054,0,0,0,.054.054h.85a.127.127,0,0,1,.087.035l2.756,2.641a.127.127,0,0,0,.087.035h1.005a.054.054,0,0,0,.037-.093Z" transform="translate(-361.767 -339.111)" fill="#150c18"/>
        </g>
      </g>
      <g id="Group_74669" data-name="Group 74669">
        <path id="Path_42608" data-name="Path 42608" d="M348.853,342.083V345.3a.054.054,0,0,1-.054.054h-.644a.126.126,0,0,1-.126-.126v-2.84a.126.126,0,0,0-.03-.082l-2.569-3.023a.126.126,0,0,1,.1-.208h.787a.055.055,0,0,1,.041.019L348.824,342A.128.128,0,0,1,348.853,342.083Zm2.5-3h-.78a.056.056,0,0,0-.041.019l-1.7,2a.131.131,0,0,0,0,.163l.431.509a.054.054,0,0,0,.082,0l2.107-2.483A.126.126,0,0,0,351.353,339.081Z" transform="translate(-339.557 -339.046)" fill="#150c18"/>
        <path id="Path_69072" data-name="Path 69072" d="M341.38,342.576a1.583,1.583,0,0,0-.547-.546.054.054,0,0,1-.013-.083,1.6,1.6,0,0,0,.4-1.135,1.738,1.738,0,0,0-.239-.9,1.826,1.826,0,0,0-.641-.649,1.689,1.689,0,0,0-.884-.241h-3.942a.127.127,0,0,0-.127.127v3.32a.126.126,0,0,0,.127.126h1.948c.252-.006.552-.006.9-.006H339.9a.912.912,0,0,1,.673.28.955.955,0,0,1,0,1.346.912.912,0,0,1-.673.28h-3.686v-1.227a.054.054,0,0,0-.054-.054h-.645a.126.126,0,0,0-.127.126v1.3h0v.626a.054.054,0,0,0,.054.054l4.453-.023a1.7,1.7,0,0,0,.889-.24,1.813,1.813,0,0,0,.641-.64,1.707,1.707,0,0,0,.24-.889A1.689,1.689,0,0,0,341.38,342.576Zm-1.224-1.09a.967.967,0,0,1-.62.312h-3.268a.054.054,0,0,1-.054-.054V339.93a.054.054,0,0,1,.054-.054h3.186a.905.905,0,0,1,.673.287.943.943,0,0,1,.277.673A.927.927,0,0,1,340.156,341.485Z" transform="translate(-335.388 -339.026)" fill="#150c18"/>
      </g>
    </g>
    <g id="Group_74671" data-name="Group 74671" transform="translate(163.135 192.066)">
      <path id="Path_69073" data-name="Path 69073" d="M182.38,307.1A8.714,8.714,0,0,1,181,309.162a6.045,6.045,0,0,1-1.9,1.409,5.607,5.607,0,0,1-2.438.515h-.542a5.557,5.557,0,0,1-2.465-.515,6.155,6.155,0,0,1-1.869-1.409,9.384,9.384,0,0,1-1.408-2.059,14.551,14.551,0,0,1-.976-2.411l-6.237-19.856a.648.648,0,0,1,.618-.842h2.706a.648.648,0,0,1,.618.454l6.359,20.244a5.391,5.391,0,0,0,.948,1.734,2.087,2.087,0,0,0,1.707.758h.542a2.089,2.089,0,0,0,1.707-.758,5.4,5.4,0,0,0,.948-1.734l6.359-20.244a.648.648,0,0,1,.618-.454h3.112a.648.648,0,0,1,.618.454l6.359,20.244a5.38,5.38,0,0,0,.948,1.734,2.087,2.087,0,0,0,1.707.758h.542a2.09,2.09,0,0,0,1.707-.758,5.389,5.389,0,0,0,.948-1.734l6.36-20.244a.648.648,0,0,1,.618-.454h2.7a.648.648,0,0,1,.617.843l-6.289,19.855a16.244,16.244,0,0,1-.948,2.411,8.714,8.714,0,0,1-1.382,2.059,6.051,6.051,0,0,1-1.9,1.409,5.608,5.608,0,0,1-2.438.515h-.542a5.557,5.557,0,0,1-2.465-.515,6.148,6.148,0,0,1-1.869-1.409A9.4,9.4,0,0,1,193.3,307.1a14.6,14.6,0,0,1-.975-2.411l-3.879-12.339a.648.648,0,0,0-1.236,0l-3.879,12.339A16.31,16.31,0,0,1,182.38,307.1Z" transform="translate(-163.135 -273.374)" fill="#150c18"/>
      <path id="Path_69074" data-name="Path 69074" d="M280.625,307.351a2.546,2.546,0,0,1-1.177-.658,2.625,2.625,0,0,1-.812-1.653V290.628a6.234,6.234,0,0,0-.515-2.493,6.579,6.579,0,0,0-1.382-2.059,6.668,6.668,0,0,0-2.032-1.381,6.045,6.045,0,0,0-2.465-.515h-14.2a6.044,6.044,0,0,0-2.466.515,6.647,6.647,0,0,0-2.032,1.381,6.547,6.547,0,0,0-1.381,2.059,6.213,6.213,0,0,0-.515,2.493v14.141a6.022,6.022,0,0,0,.515,2.465,6.569,6.569,0,0,0,3.413,3.414,6.025,6.025,0,0,0,2.466.515h14.2a6.333,6.333,0,0,0,1.821-.263l-.023-.022a7.606,7.606,0,0,1-1.409-2.249,6.229,6.229,0,0,1-.385-1.313h-14.2a2.4,2.4,0,0,1-1.761-.731,2.464,2.464,0,0,1-.731-1.815V290.628a2.465,2.465,0,0,1,.731-1.815,2.4,2.4,0,0,1,1.761-.732h14.2a2.4,2.4,0,0,1,1.761.732,2.463,2.463,0,0,1,.731,1.815v14.087a6.318,6.318,0,0,0,.488,2.465,7.605,7.605,0,0,0,1.409,2.249,7.084,7.084,0,0,0,1.227.93c.255.144.523.275.8.4a5.971,5.971,0,0,0,1.727.472l.015,0,.03,0,.043,0h.025l.045,0,.022,0,.046-.007.019-.005c.016,0,.031-.008.046-.013l.018-.007a.417.417,0,0,0,.045-.018l.018-.009a.411.411,0,0,0,.042-.022l.016-.01.04-.026.014-.011.038-.03.012-.013.035-.034.012-.015c.011-.012.021-.024.03-.037s.008-.012.012-.018.017-.025.025-.038l.011-.022a.381.381,0,0,0,.02-.038c0-.008.006-.015.009-.023s.011-.027.016-.04.005-.018.008-.027a.4.4,0,0,0,.011-.039c0-.012,0-.023.006-.036s0-.022.005-.033a.573.573,0,0,0,0-.071v-2.607A.652.652,0,0,0,280.625,307.351Z" transform="translate(-199.991 -273.452)" fill="#150c18"/>
      <path id="Path_69075" data-name="Path 69075" d="M309.057,265.891a.648.648,0,0,1,.648.648V297.1a2.445,2.445,0,0,0,.7,1.761,2.48,2.48,0,0,0,1.234.716.648.648,0,0,1,.5.63v2.657a.649.649,0,0,1-.724.644,5.962,5.962,0,0,1-1.741-.473,6.4,6.4,0,0,1-2.032-1.409,6.569,6.569,0,0,1-1.354-2.059,6.317,6.317,0,0,1-.488-2.465V266.539a.648.648,0,0,1,.648-.648Z" transform="translate(-222.538 -265.837)" fill="#150c18"/>
      <path id="Path_69076" data-name="Path 69076" d="M323.954,265.891a.648.648,0,0,1,.648.648V297.1a2.444,2.444,0,0,0,.7,1.761,2.48,2.48,0,0,0,1.234.716.648.648,0,0,1,.5.63v2.657a.649.649,0,0,1-.724.644,5.966,5.966,0,0,1-1.741-.473,6.392,6.392,0,0,1-2.032-1.409,6.56,6.56,0,0,1-1.355-2.059,6.317,6.317,0,0,1-.488-2.465V266.539a.648.648,0,0,1,.648-.648Z" transform="translate(-228.74 -265.837)" fill="#150c18"/>
      <path id="Path_69077" data-name="Path 69077" d="M389.623,266.446v10.46a6.422,6.422,0,0,1,1.165-.406,5.276,5.276,0,0,1,1.219-.135h20.158a.648.648,0,0,1,.648.648v2.605a.648.648,0,0,1-.648.648h-20a2.5,2.5,0,0,0-2.546,2.546v14.25a2.445,2.445,0,0,0,.7,1.761,2.5,2.5,0,0,0,1.734.786h14.3a2.465,2.465,0,0,0,1.815-.731,2.4,2.4,0,0,0,.679-1.234.652.652,0,0,1,.636-.526h2.633a.649.649,0,0,1,.645.72,5.778,5.778,0,0,1-.421,1.61,7.24,7.24,0,0,1-1.219,1.95,5.95,5.95,0,0,1-1.842,1.409,6.326,6.326,0,0,1-2.276.65v.054H392.007a6.5,6.5,0,0,1-2.438-.569,6.734,6.734,0,0,1-2-1.381,6.349,6.349,0,0,1-1.842-4.5V266.446a.648.648,0,0,1,.648-.648h2.605A.648.648,0,0,1,389.623,266.446Z" transform="translate(-255.814 -265.798)" fill="#150c18"/>
      <path id="Path_69078" data-name="Path 69078" d="M356.177,299.491a6.121,6.121,0,0,0,2.438-.488,6.846,6.846,0,0,0,2-1.3,6.531,6.531,0,0,0,1.409-1.924,6.014,6.014,0,0,0,.6-2.411v-2.98a6.035,6.035,0,0,0-.515-2.465,6.66,6.66,0,0,0-1.381-2.032,6.571,6.571,0,0,0-2.059-1.382,6.232,6.232,0,0,0-2.492-.515h-14.2a6.17,6.17,0,0,0-2.52.515,6.641,6.641,0,0,0-2.032,1.382,6.558,6.558,0,0,0-1.381,2.058,6.217,6.217,0,0,0-.515,2.493v14.2a6.151,6.151,0,0,0,.515,2.52,6.567,6.567,0,0,0,3.414,3.414,6.151,6.151,0,0,0,2.52.515h14.2a6.213,6.213,0,0,0,2.492-.515,6.553,6.553,0,0,0,2.059-1.382,6.639,6.639,0,0,0,1.381-2.032,6,6,0,0,0,.477-1.8.65.65,0,0,0-.644-.723h-2.63a.649.649,0,0,0-.636.531,2.41,2.41,0,0,1-.683,1.284,2.465,2.465,0,0,1-1.815.731h-14.2a2.5,2.5,0,0,1-2.547-2.546v-14.2a2.5,2.5,0,0,1,2.547-2.546h14.2a2.5,2.5,0,0,1,2.546,2.546v2.709a2.507,2.507,0,0,1-.786,1.734,2.447,2.447,0,0,1-1.761.7H342.025v3.9Z" transform="translate(-234.916 -273.374)" fill="#150c18"/>
    </g>
  </g>
</svg>
